G04 #@! TF.GenerationSoftware,KiCad,Pcbnew,9.0.0-9.0.0-2~ubuntu24.04.1*
G04 #@! TF.CreationDate,2025-03-10T11:07:58+01:00*
G04 #@! TF.ProjectId,Transmitter,5472616e-736d-4697-9474-65722e6b6963,rev?*
G04 #@! TF.SameCoordinates,Original*
G04 #@! TF.FileFunction,Copper,L1,Top*
G04 #@! TF.FilePolarity,Positive*
%FSLAX46Y46*%
G04 Gerber Fmt 4.6, Leading zero omitted, Abs format (unit mm)*
G04 Created by KiCad (PCBNEW 9.0.0-9.0.0-2~ubuntu24.04.1) date 2025-03-10 11:07:58*
%MOMM*%
%LPD*%
G01*
G04 APERTURE LIST*
G04 Aperture macros list*
%AMRoundRect*
0 Rectangle with rounded corners*
0 $1 Rounding radius*
0 $2 $3 $4 $5 $6 $7 $8 $9 X,Y pos of 4 corners*
0 Add a 4 corners polygon primitive as box body*
4,1,4,$2,$3,$4,$5,$6,$7,$8,$9,$2,$3,0*
0 Add four circle primitives for the rounded corners*
1,1,$1+$1,$2,$3*
1,1,$1+$1,$4,$5*
1,1,$1+$1,$6,$7*
1,1,$1+$1,$8,$9*
0 Add four rect primitives between the rounded corners*
20,1,$1+$1,$2,$3,$4,$5,0*
20,1,$1+$1,$4,$5,$6,$7,0*
20,1,$1+$1,$6,$7,$8,$9,0*
20,1,$1+$1,$8,$9,$2,$3,0*%
G04 Aperture macros list end*
G04 #@! TA.AperFunction,SMDPad,CuDef*
%ADD10RoundRect,0.218750X-0.218750X-0.256250X0.218750X-0.256250X0.218750X0.256250X-0.218750X0.256250X0*%
G04 #@! TD*
G04 #@! TA.AperFunction,SMDPad,CuDef*
%ADD11RoundRect,0.218750X-0.256250X0.218750X-0.256250X-0.218750X0.256250X-0.218750X0.256250X0.218750X0*%
G04 #@! TD*
G04 #@! TA.AperFunction,SMDPad,CuDef*
%ADD12RoundRect,0.218750X0.218750X0.256250X-0.218750X0.256250X-0.218750X-0.256250X0.218750X-0.256250X0*%
G04 #@! TD*
G04 #@! TA.AperFunction,SMDPad,CuDef*
%ADD13RoundRect,0.218750X0.256250X-0.218750X0.256250X0.218750X-0.256250X0.218750X-0.256250X-0.218750X0*%
G04 #@! TD*
G04 #@! TA.AperFunction,SMDPad,CuDef*
%ADD14RoundRect,0.147500X0.172500X-0.147500X0.172500X0.147500X-0.172500X0.147500X-0.172500X-0.147500X0*%
G04 #@! TD*
G04 #@! TA.AperFunction,SMDPad,CuDef*
%ADD15RoundRect,0.147500X-0.147500X-0.172500X0.147500X-0.172500X0.147500X0.172500X-0.147500X0.172500X0*%
G04 #@! TD*
G04 #@! TA.AperFunction,SMDPad,CuDef*
%ADD16RoundRect,0.147500X-0.172500X0.147500X-0.172500X-0.147500X0.172500X-0.147500X0.172500X0.147500X0*%
G04 #@! TD*
G04 #@! TA.AperFunction,SMDPad,CuDef*
%ADD17RoundRect,0.147500X0.147500X0.172500X-0.147500X0.172500X-0.147500X-0.172500X0.147500X-0.172500X0*%
G04 #@! TD*
G04 #@! TA.AperFunction,ComponentPad*
%ADD18C,2.500000*%
G04 #@! TD*
G04 #@! TA.AperFunction,ComponentPad*
%ADD19R,1.700000X1.700000*%
G04 #@! TD*
G04 #@! TA.AperFunction,ComponentPad*
%ADD20O,1.700000X1.700000*%
G04 #@! TD*
G04 #@! TA.AperFunction,ComponentPad*
%ADD21R,1.727200X1.727200*%
G04 #@! TD*
G04 #@! TA.AperFunction,ComponentPad*
%ADD22O,1.727200X1.727200*%
G04 #@! TD*
G04 #@! TA.AperFunction,SMDPad,CuDef*
%ADD23RoundRect,0.250000X-0.850000X0.375000X-0.850000X-0.375000X0.850000X-0.375000X0.850000X0.375000X0*%
G04 #@! TD*
G04 #@! TA.AperFunction,SMDPad,CuDef*
%ADD24R,2.600000X8.200000*%
G04 #@! TD*
G04 #@! TA.AperFunction,SMDPad,CuDef*
%ADD25R,0.800000X0.900000*%
G04 #@! TD*
G04 #@! TA.AperFunction,ComponentPad*
%ADD26C,1.500000*%
G04 #@! TD*
G04 #@! TA.AperFunction,SMDPad,CuDef*
%ADD27R,0.600000X0.250000*%
G04 #@! TD*
G04 #@! TA.AperFunction,SMDPad,CuDef*
%ADD28R,1.600000X2.000000*%
G04 #@! TD*
G04 #@! TA.AperFunction,SMDPad,CuDef*
%ADD29R,1.060000X0.650000*%
G04 #@! TD*
G04 #@! TA.AperFunction,SMDPad,CuDef*
%ADD30RoundRect,0.087500X-0.200000X-0.087500X0.200000X-0.087500X0.200000X0.087500X-0.200000X0.087500X0*%
G04 #@! TD*
G04 #@! TA.AperFunction,SMDPad,CuDef*
%ADD31RoundRect,0.250000X-0.475000X-0.620000X0.475000X-0.620000X0.475000X0.620000X-0.475000X0.620000X0*%
G04 #@! TD*
G04 #@! TA.AperFunction,SMDPad,CuDef*
%ADD32R,0.300000X0.575000*%
G04 #@! TD*
G04 #@! TA.AperFunction,SMDPad,CuDef*
%ADD33R,0.250000X0.575000*%
G04 #@! TD*
G04 #@! TA.AperFunction,SMDPad,CuDef*
%ADD34R,0.630000X0.350000*%
G04 #@! TD*
G04 #@! TA.AperFunction,SMDPad,CuDef*
%ADD35R,2.000000X1.800000*%
G04 #@! TD*
G04 #@! TA.AperFunction,ComponentPad*
%ADD36R,1.500000X1.500000*%
G04 #@! TD*
G04 #@! TA.AperFunction,ComponentPad*
%ADD37C,2.000000*%
G04 #@! TD*
G04 #@! TA.AperFunction,SMDPad,CuDef*
%ADD38RoundRect,0.062500X-0.337500X-0.062500X0.337500X-0.062500X0.337500X0.062500X-0.337500X0.062500X0*%
G04 #@! TD*
G04 #@! TA.AperFunction,SMDPad,CuDef*
%ADD39RoundRect,0.062500X-0.062500X-0.337500X0.062500X-0.337500X0.062500X0.337500X-0.062500X0.337500X0*%
G04 #@! TD*
G04 #@! TA.AperFunction,SMDPad,CuDef*
%ADD40RoundRect,0.249999X-1.925001X-1.925001X1.925001X-1.925001X1.925001X1.925001X-1.925001X1.925001X0*%
G04 #@! TD*
G04 #@! TA.AperFunction,SMDPad,CuDef*
%ADD41RoundRect,0.250000X0.850000X-0.375000X0.850000X0.375000X-0.850000X0.375000X-0.850000X-0.375000X0*%
G04 #@! TD*
G04 #@! TA.AperFunction,SMDPad,CuDef*
%ADD42R,0.900000X0.800000*%
G04 #@! TD*
G04 #@! TA.AperFunction,SMDPad,CuDef*
%ADD43R,2.400000X2.000000*%
G04 #@! TD*
G04 #@! TA.AperFunction,SMDPad,CuDef*
%ADD44RoundRect,0.062500X0.062500X-0.337500X0.062500X0.337500X-0.062500X0.337500X-0.062500X-0.337500X0*%
G04 #@! TD*
G04 #@! TA.AperFunction,SMDPad,CuDef*
%ADD45RoundRect,0.062500X0.337500X-0.062500X0.337500X0.062500X-0.337500X0.062500X-0.337500X-0.062500X0*%
G04 #@! TD*
G04 #@! TA.AperFunction,SMDPad,CuDef*
%ADD46R,4.100000X4.100000*%
G04 #@! TD*
G04 #@! TA.AperFunction,SMDPad,CuDef*
%ADD47RoundRect,0.200000X-0.200000X-0.275000X0.200000X-0.275000X0.200000X0.275000X-0.200000X0.275000X0*%
G04 #@! TD*
G04 #@! TA.AperFunction,SMDPad,CuDef*
%ADD48RoundRect,0.200000X0.275000X-0.200000X0.275000X0.200000X-0.275000X0.200000X-0.275000X-0.200000X0*%
G04 #@! TD*
G04 #@! TA.AperFunction,SMDPad,CuDef*
%ADD49RoundRect,0.200000X-0.275000X0.200000X-0.275000X-0.200000X0.275000X-0.200000X0.275000X0.200000X0*%
G04 #@! TD*
G04 #@! TA.AperFunction,SMDPad,CuDef*
%ADD50RoundRect,0.225000X-0.225000X-0.250000X0.225000X-0.250000X0.225000X0.250000X-0.225000X0.250000X0*%
G04 #@! TD*
G04 #@! TA.AperFunction,SMDPad,CuDef*
%ADD51RoundRect,0.225000X-0.250000X0.225000X-0.250000X-0.225000X0.250000X-0.225000X0.250000X0.225000X0*%
G04 #@! TD*
G04 #@! TA.AperFunction,SMDPad,CuDef*
%ADD52RoundRect,0.250000X-0.375000X-0.850000X0.375000X-0.850000X0.375000X0.850000X-0.375000X0.850000X0*%
G04 #@! TD*
G04 #@! TA.AperFunction,ComponentPad*
%ADD53C,2.050000*%
G04 #@! TD*
G04 #@! TA.AperFunction,ComponentPad*
%ADD54C,2.250000*%
G04 #@! TD*
G04 #@! TA.AperFunction,SMDPad,CuDef*
%ADD55R,0.400000X1.500000*%
G04 #@! TD*
G04 #@! TA.AperFunction,SMDPad,CuDef*
%ADD56RoundRect,0.250000X-0.375000X-0.625000X0.375000X-0.625000X0.375000X0.625000X-0.375000X0.625000X0*%
G04 #@! TD*
G04 #@! TA.AperFunction,SMDPad,CuDef*
%ADD57O,1.500000X0.250000*%
G04 #@! TD*
G04 #@! TA.AperFunction,SMDPad,CuDef*
%ADD58O,0.250000X1.500000*%
G04 #@! TD*
G04 #@! TA.AperFunction,SMDPad,CuDef*
%ADD59R,6.000000X6.000000*%
G04 #@! TD*
G04 #@! TA.AperFunction,SMDPad,CuDef*
%ADD60R,1.100000X0.500000*%
G04 #@! TD*
G04 #@! TA.AperFunction,SMDPad,CuDef*
%ADD61R,2.000000X2.000000*%
G04 #@! TD*
G04 #@! TA.AperFunction,SMDPad,CuDef*
%ADD62R,1.500000X0.450000*%
G04 #@! TD*
G04 #@! TA.AperFunction,SMDPad,CuDef*
%ADD63R,0.650000X1.060000*%
G04 #@! TD*
G04 #@! TA.AperFunction,SMDPad,CuDef*
%ADD64C,0.400000*%
G04 #@! TD*
G04 #@! TA.AperFunction,SMDPad,CuDef*
%ADD65R,5.080000X1.500000*%
G04 #@! TD*
G04 #@! TA.AperFunction,SMDPad,CuDef*
%ADD66R,0.350000X0.850000*%
G04 #@! TD*
G04 #@! TA.AperFunction,SMDPad,CuDef*
%ADD67R,0.700000X0.300000*%
G04 #@! TD*
G04 #@! TA.AperFunction,ComponentPad*
%ADD68C,1.400000*%
G04 #@! TD*
G04 #@! TA.AperFunction,SMDPad,CuDef*
%ADD69R,8.200000X2.600000*%
G04 #@! TD*
G04 #@! TA.AperFunction,SMDPad,CuDef*
%ADD70RoundRect,0.225000X0.225000X0.250000X-0.225000X0.250000X-0.225000X-0.250000X0.225000X-0.250000X0*%
G04 #@! TD*
G04 #@! TA.AperFunction,ViaPad*
%ADD71C,0.800000*%
G04 #@! TD*
G04 #@! TA.AperFunction,ViaPad*
%ADD72C,0.500000*%
G04 #@! TD*
G04 #@! TA.AperFunction,ViaPad*
%ADD73C,1.500000*%
G04 #@! TD*
G04 #@! TA.AperFunction,Conductor*
%ADD74C,0.125000*%
G04 #@! TD*
G04 #@! TA.AperFunction,Conductor*
%ADD75C,0.250000*%
G04 #@! TD*
G04 #@! TA.AperFunction,Conductor*
%ADD76C,0.300000*%
G04 #@! TD*
G04 #@! TA.AperFunction,Conductor*
%ADD77C,0.500000*%
G04 #@! TD*
G04 #@! TA.AperFunction,Conductor*
%ADD78C,1.000000*%
G04 #@! TD*
G04 #@! TA.AperFunction,Conductor*
%ADD79C,0.200000*%
G04 #@! TD*
G04 APERTURE END LIST*
D10*
X193776500Y-81026000D03*
X195351500Y-81026000D03*
D11*
X173990000Y-95478500D03*
X173990000Y-97053500D03*
D12*
X197129500Y-70866000D03*
X195554500Y-70866000D03*
X197129500Y-107696000D03*
X195554500Y-107696000D03*
X189763500Y-73660000D03*
X188188500Y-73660000D03*
X189763500Y-112268000D03*
X188188500Y-112268000D03*
X197129500Y-89662000D03*
X195554500Y-89662000D03*
X197129500Y-127254000D03*
X195554500Y-127254000D03*
X197129500Y-125476000D03*
X195554500Y-125476000D03*
X189763500Y-92456000D03*
X188188500Y-92456000D03*
D13*
X73406000Y-109525000D03*
X73406000Y-107950000D03*
D11*
X74422000Y-98501000D03*
X74422000Y-100076000D03*
D13*
X83820000Y-109525000D03*
X83820000Y-107950000D03*
D12*
X70155000Y-102362000D03*
X68580000Y-102362000D03*
D10*
X76936500Y-112395000D03*
X78511500Y-112395000D03*
D13*
X60452000Y-108001000D03*
X60452000Y-106426000D03*
X58674000Y-108001000D03*
X58674000Y-106426000D03*
D11*
X131826000Y-59131000D03*
X131826000Y-60706000D03*
D10*
X127990500Y-62230000D03*
X129565500Y-62230000D03*
D11*
X125476000Y-58648500D03*
X125476000Y-60223500D03*
D12*
X108509000Y-80772000D03*
X106934000Y-80772000D03*
D10*
X106426000Y-57277000D03*
X108001000Y-57277000D03*
D13*
X92964000Y-88443000D03*
X92964000Y-86868000D03*
D14*
X114554000Y-74884000D03*
X114554000Y-73914000D03*
X114554000Y-69804000D03*
X114554000Y-68834000D03*
D15*
X101646000Y-75946000D03*
X102616000Y-75946000D03*
D14*
X114173000Y-64135000D03*
X114173000Y-63165000D03*
X110744000Y-64089000D03*
X110744000Y-63119000D03*
D16*
X105918000Y-63373000D03*
X105918000Y-64343000D03*
D14*
X107188000Y-64343000D03*
X107188000Y-63373000D03*
D16*
X100330000Y-70404000D03*
X100330000Y-71374000D03*
D14*
X100584000Y-68303000D03*
X100584000Y-67333000D03*
D12*
X167665500Y-85598000D03*
X166090500Y-85598000D03*
X121437500Y-111760000D03*
X119862500Y-111760000D03*
X150647500Y-97409000D03*
X149072500Y-97409000D03*
D10*
X149072500Y-114046000D03*
X150647500Y-114046000D03*
D16*
X165608000Y-105433000D03*
X165608000Y-106403000D03*
D13*
X127000000Y-88036500D03*
X127000000Y-86461500D03*
D10*
X144246500Y-89916000D03*
X145821500Y-89916000D03*
D14*
X160528000Y-106403000D03*
X160528000Y-105433000D03*
D16*
X166370000Y-92479000D03*
X166370000Y-93449000D03*
D14*
X170434000Y-97513000D03*
X170434000Y-96543000D03*
X169164000Y-97513000D03*
X169164000Y-96543000D03*
D16*
X161798000Y-105433000D03*
X161798000Y-106403000D03*
D13*
X134112000Y-88036500D03*
X134112000Y-86461500D03*
D12*
X127787500Y-119126000D03*
X126212500Y-119126000D03*
D13*
X139446000Y-88036500D03*
X139446000Y-86461500D03*
D17*
X88877000Y-94234000D03*
X87907000Y-94234000D03*
D16*
X115824000Y-70912000D03*
X115824000Y-71882000D03*
X113284000Y-73960000D03*
X113284000Y-74930000D03*
D14*
X112903000Y-64112000D03*
X112903000Y-63142000D03*
X109474000Y-64089000D03*
X109474000Y-63119000D03*
X164338000Y-106403000D03*
X164338000Y-105433000D03*
D16*
X165100000Y-92479000D03*
X165100000Y-93449000D03*
X167894000Y-96543000D03*
X167894000Y-97513000D03*
D14*
X163068000Y-106403000D03*
X163068000Y-105433000D03*
D18*
X80518000Y-100838000D03*
X80518000Y-97028000D03*
D19*
X86360000Y-81026000D03*
D20*
X88900000Y-81026000D03*
X91440000Y-81026000D03*
D21*
X108458000Y-94996000D03*
D22*
X110998000Y-94996000D03*
X108458000Y-97536000D03*
X110998000Y-97536000D03*
X108458000Y-100076000D03*
X110998000Y-100076000D03*
X108458000Y-102616000D03*
X110998000Y-102616000D03*
X108458000Y-105156000D03*
X110998000Y-105156000D03*
D18*
X123444000Y-143764000D03*
X119634000Y-143764000D03*
X135890000Y-143764000D03*
X132080000Y-143764000D03*
D23*
X81026000Y-107578000D03*
X81026000Y-109728000D03*
D24*
X70104000Y-107950000D03*
X64504000Y-107950000D03*
D25*
X126172000Y-133620000D03*
X124272000Y-133620000D03*
X125222000Y-135620000D03*
D16*
X173990000Y-98575000D03*
X173990000Y-99545000D03*
X186182000Y-108481000D03*
X186182000Y-109451000D03*
D12*
X189763500Y-114046000D03*
X188188500Y-114046000D03*
D11*
X193802000Y-70078500D03*
X193802000Y-71653500D03*
X193802000Y-108686500D03*
X193802000Y-110261500D03*
X192024000Y-70840500D03*
X192024000Y-72415500D03*
X192024000Y-109448500D03*
X192024000Y-111023500D03*
D16*
X186182000Y-126284000D03*
X186182000Y-127254000D03*
D11*
X193802000Y-88874500D03*
X193802000Y-90449500D03*
X193548000Y-126466500D03*
X193548000Y-128041500D03*
D13*
X66040000Y-100127000D03*
X66040000Y-98552000D03*
D11*
X64262000Y-98551900D03*
X64262000Y-100126900D03*
D12*
X90526000Y-77470000D03*
X88951000Y-77470000D03*
X92253000Y-75692000D03*
X90678000Y-75692000D03*
D16*
X121666000Y-106957000D03*
X121666000Y-107927000D03*
D17*
X164061000Y-83566000D03*
X163091000Y-83566000D03*
D12*
X140995500Y-123063000D03*
X139420500Y-123063000D03*
D10*
X119354500Y-104902000D03*
X120929500Y-104902000D03*
D12*
X120929500Y-103124000D03*
X119354500Y-103124000D03*
D10*
X119354500Y-101346000D03*
X120929500Y-101346000D03*
D11*
X130556000Y-86461500D03*
X130556000Y-88036500D03*
X128778000Y-86461500D03*
X128778000Y-88036500D03*
X132334000Y-86461500D03*
X132334000Y-88036500D03*
X135890000Y-86461500D03*
X135890000Y-88036500D03*
D10*
X110947000Y-143764000D03*
X112522000Y-143764000D03*
D11*
X140208000Y-133858000D03*
X140208000Y-135433000D03*
X151384000Y-133858000D03*
X151384000Y-135433000D03*
X135763000Y-55346500D03*
X135763000Y-56921500D03*
D26*
X88773000Y-104267000D03*
X85598000Y-115062000D03*
X60452000Y-110236000D03*
X123190000Y-58420000D03*
X132842000Y-66040000D03*
X111506000Y-88265000D03*
X147828000Y-126238000D03*
X144780000Y-120650000D03*
X136144000Y-126238000D03*
X147828000Y-131064000D03*
X138303000Y-120650000D03*
X155448000Y-92456000D03*
X153797000Y-105410000D03*
X159766000Y-89154000D03*
D27*
X187576000Y-70116000D03*
X187576000Y-70616000D03*
X187576000Y-71116000D03*
X187576000Y-71616000D03*
X190376000Y-71616000D03*
X190376000Y-71116000D03*
X190376000Y-70616000D03*
X190376000Y-70116000D03*
D28*
X188976000Y-70866000D03*
D27*
X187576000Y-108724000D03*
X187576000Y-109224000D03*
X187576000Y-109724000D03*
X187576000Y-110224000D03*
X190376000Y-110224000D03*
X190376000Y-109724000D03*
X190376000Y-109224000D03*
X190376000Y-108724000D03*
D28*
X188976000Y-109474000D03*
D27*
X187576000Y-88912000D03*
X187576000Y-89412000D03*
X187576000Y-89912000D03*
X187576000Y-90412000D03*
X190376000Y-90412000D03*
X190376000Y-89912000D03*
X190376000Y-89412000D03*
X190376000Y-88912000D03*
D28*
X188976000Y-89662000D03*
D27*
X187576000Y-126504000D03*
X187576000Y-127004000D03*
X187576000Y-127504000D03*
X187576000Y-128004000D03*
X190376000Y-128004000D03*
X190376000Y-127504000D03*
X190376000Y-127004000D03*
X190376000Y-126504000D03*
D28*
X188976000Y-127254000D03*
D29*
X75608000Y-107762000D03*
X75608000Y-108712000D03*
X75608000Y-109662000D03*
X77808000Y-109662000D03*
X77808000Y-107762000D03*
X70526000Y-100198000D03*
X70526000Y-99248000D03*
X70526000Y-98298000D03*
X68326000Y-98298000D03*
X68326000Y-99248000D03*
X68326000Y-100198000D03*
D30*
X127490500Y-58613000D03*
X127490500Y-59113000D03*
X127490500Y-59613000D03*
X127490500Y-60113000D03*
X130065500Y-60113000D03*
X130065500Y-59613000D03*
X130065500Y-59113000D03*
X130065500Y-58613000D03*
D31*
X128778000Y-59363000D03*
D32*
X164326000Y-84960500D03*
D33*
X163826000Y-84960500D03*
X163326000Y-84960500D03*
D32*
X162826000Y-84960500D03*
D34*
X162716000Y-85598000D03*
D32*
X162826000Y-86235500D03*
D33*
X163326000Y-86235500D03*
X163826000Y-86235500D03*
D32*
X164326000Y-86235500D03*
D34*
X164436000Y-85598000D03*
D29*
X140546000Y-57084000D03*
X140546000Y-56134000D03*
X140546000Y-55184000D03*
X138346000Y-55184000D03*
X138346000Y-56134000D03*
X138346000Y-57084000D03*
D35*
X90380000Y-91948000D03*
X90380000Y-86868000D03*
X86380000Y-86868000D03*
X86380000Y-91948000D03*
D36*
X209931000Y-125222000D03*
D26*
X208151000Y-126242000D03*
X209931000Y-127262000D03*
X208151000Y-128282000D03*
X209931000Y-129302000D03*
X208151000Y-130322000D03*
X209931000Y-131342000D03*
X208151000Y-132362000D03*
D37*
X209041000Y-120652000D03*
X209041000Y-136912000D03*
D36*
X209931000Y-86614000D03*
D26*
X208151000Y-87634000D03*
X209931000Y-88654000D03*
X208151000Y-89674000D03*
X209931000Y-90694000D03*
X208151000Y-91714000D03*
X209931000Y-92734000D03*
X208151000Y-93754000D03*
D37*
X209041000Y-82044000D03*
X209041000Y-98304000D03*
D36*
X209931000Y-105918000D03*
D26*
X208151000Y-106938000D03*
X209931000Y-107958000D03*
X208151000Y-108978000D03*
X209931000Y-109998000D03*
X208151000Y-111018000D03*
X209931000Y-112038000D03*
X208151000Y-113058000D03*
D37*
X209041000Y-101348000D03*
X209041000Y-117608000D03*
D26*
X114046000Y-133604000D03*
X96393000Y-142875000D03*
X110744000Y-123748800D03*
X85598000Y-120396000D03*
X85344000Y-134874000D03*
X114046000Y-129794000D03*
X117475000Y-135382000D03*
X93345000Y-115938300D03*
D13*
X106426000Y-123749000D03*
X106426000Y-122174000D03*
X110172500Y-131153000D03*
X110172500Y-129578000D03*
X108077000Y-123749000D03*
X108077000Y-122174000D03*
D26*
X117475000Y-131699000D03*
X92964000Y-142875000D03*
D11*
X103822500Y-141300000D03*
X103822500Y-142875000D03*
D13*
X95275400Y-123748900D03*
X95275400Y-122173900D03*
D38*
X96134000Y-129092000D03*
X96134000Y-129592000D03*
X96134000Y-130092000D03*
X96134000Y-130592000D03*
X96134000Y-131092000D03*
X96134000Y-131592000D03*
X96134000Y-132092000D03*
X96134000Y-132592000D03*
X96134000Y-133092000D03*
X96134000Y-133592000D03*
X96134000Y-134092000D03*
X96134000Y-134592000D03*
X96134000Y-135092000D03*
X96134000Y-135592000D03*
X96134000Y-136092000D03*
X96134000Y-136592000D03*
D39*
X96834000Y-137292000D03*
X97334000Y-137292000D03*
X97834000Y-137292000D03*
X98334000Y-137292000D03*
X98834000Y-137292000D03*
X99334000Y-137292000D03*
X99834000Y-137292000D03*
X100334000Y-137292000D03*
X100834000Y-137292000D03*
X101334000Y-137292000D03*
X101834000Y-137292000D03*
X102334000Y-137292000D03*
X102834000Y-137292000D03*
X103334000Y-137292000D03*
X103834000Y-137292000D03*
X104334000Y-137292000D03*
D38*
X105034000Y-136592000D03*
X105034000Y-136092000D03*
X105034000Y-135592000D03*
X105034000Y-135092000D03*
X105034000Y-134592000D03*
X105034000Y-134092000D03*
X105034000Y-133592000D03*
X105034000Y-133092000D03*
X105034000Y-132592000D03*
X105034000Y-132092000D03*
X105034000Y-131592000D03*
X105034000Y-131092000D03*
X105034000Y-130592000D03*
X105034000Y-130092000D03*
X105034000Y-129592000D03*
X105034000Y-129092000D03*
D39*
X104334000Y-128392000D03*
X103834000Y-128392000D03*
X103334000Y-128392000D03*
X102834000Y-128392000D03*
X102334000Y-128392000D03*
X101834000Y-128392000D03*
X101334000Y-128392000D03*
X100834000Y-128392000D03*
X100334000Y-128392000D03*
X99834000Y-128392000D03*
X99334000Y-128392000D03*
X98834000Y-128392000D03*
X98334000Y-128392000D03*
X97834000Y-128392000D03*
X97334000Y-128392000D03*
X96834000Y-128392000D03*
D40*
X100584000Y-132842000D03*
D41*
X85344000Y-139446000D03*
X85344000Y-137296000D03*
D42*
X90154000Y-142301000D03*
X90154000Y-140401000D03*
X88154000Y-141351000D03*
D10*
X98691500Y-142875000D03*
X100266500Y-142875000D03*
D13*
X96977200Y-123748900D03*
X96977200Y-122173900D03*
X104775000Y-123749000D03*
X104775000Y-122174000D03*
D11*
X91948000Y-133807000D03*
X91948000Y-135382000D03*
D13*
X99822000Y-123748900D03*
X99822000Y-122173900D03*
D11*
X101473000Y-122174000D03*
X101473000Y-123749000D03*
X110172500Y-134886500D03*
X110172500Y-136461500D03*
D43*
X90932000Y-120379000D03*
X90932000Y-124079000D03*
D11*
X88392000Y-133807000D03*
X88392000Y-135382000D03*
X90170000Y-133807000D03*
X90170000Y-135382000D03*
D13*
X103124000Y-123749000D03*
X103124000Y-122174000D03*
D44*
X104946000Y-74062000D03*
X105446000Y-74062000D03*
X105946000Y-74062000D03*
X106446000Y-74062000D03*
X106946000Y-74062000D03*
X107446000Y-74062000D03*
X107946000Y-74062000D03*
X108446000Y-74062000D03*
X108946000Y-74062000D03*
X109446000Y-74062000D03*
X109946000Y-74062000D03*
X110446000Y-74062000D03*
D45*
X111146000Y-73362000D03*
X111146000Y-72862000D03*
X111146000Y-72362000D03*
X111146000Y-71862000D03*
X111146000Y-71362000D03*
X111146000Y-70862000D03*
X111146000Y-70362000D03*
X111146000Y-69862000D03*
X111146000Y-69362000D03*
X111146000Y-68862000D03*
X111146000Y-68362000D03*
X111146000Y-67862000D03*
D44*
X110446000Y-67162000D03*
X109946000Y-67162000D03*
X109446000Y-67162000D03*
X108946000Y-67162000D03*
X108446000Y-67162000D03*
X107946000Y-67162000D03*
X107446000Y-67162000D03*
X106946000Y-67162000D03*
X106446000Y-67162000D03*
X105946000Y-67162000D03*
X105446000Y-67162000D03*
X104946000Y-67162000D03*
D45*
X104246000Y-67862000D03*
X104246000Y-68362000D03*
X104246000Y-68862000D03*
X104246000Y-69362000D03*
X104246000Y-69862000D03*
X104246000Y-70362000D03*
X104246000Y-70862000D03*
X104246000Y-71362000D03*
X104246000Y-71862000D03*
X104246000Y-72362000D03*
X104246000Y-72862000D03*
X104246000Y-73362000D03*
D46*
X107696000Y-70612000D03*
D12*
X107975500Y-59055000D03*
X106400500Y-59055000D03*
D10*
X106934000Y-82550000D03*
X108509000Y-82550000D03*
D26*
X108331000Y-86741000D03*
D47*
X109856000Y-78994000D03*
X111506000Y-78994000D03*
X110618000Y-80772000D03*
X112268000Y-80772000D03*
D48*
X112268000Y-84200000D03*
X112268000Y-82550000D03*
D49*
X118110000Y-66231000D03*
X118110000Y-67881000D03*
D47*
X120016000Y-66294000D03*
X121666000Y-66294000D03*
D50*
X114020000Y-82550000D03*
X115570000Y-82550000D03*
D49*
X116078000Y-67184000D03*
X116078000Y-68834000D03*
D51*
X120015000Y-62979000D03*
X120015000Y-64529000D03*
D19*
X100965000Y-98679000D03*
D20*
X98425000Y-98679000D03*
X100965000Y-96139000D03*
X98425000Y-96139000D03*
X100965000Y-93599000D03*
X98425000Y-93599000D03*
X100965000Y-91059000D03*
X98425000Y-91059000D03*
X100965000Y-88519000D03*
X98425000Y-88519000D03*
D14*
X117094000Y-71836000D03*
X117094000Y-70866000D03*
X113284000Y-69850000D03*
X113284000Y-68880000D03*
D17*
X97005000Y-70358000D03*
X96035000Y-70358000D03*
D29*
X99568000Y-116885800D03*
X99568000Y-115935800D03*
X99568000Y-114985800D03*
X97368000Y-114985800D03*
X97368000Y-115935800D03*
X97368000Y-116885800D03*
D52*
X83448000Y-125349000D03*
X85598000Y-125349000D03*
D12*
X90805100Y-129159000D03*
X89230100Y-129159000D03*
X90805000Y-127508000D03*
X89230000Y-127508000D03*
D10*
X92710000Y-127508000D03*
X94285000Y-127508000D03*
D53*
X124968000Y-73660000D03*
D54*
X122428000Y-71120000D03*
X122428000Y-76200000D03*
X127508000Y-71120000D03*
X127508000Y-76200000D03*
D12*
X90805100Y-130937000D03*
X89230100Y-130937000D03*
D26*
X104381300Y-115938300D03*
X104394000Y-113030000D03*
X93345000Y-113030000D03*
D10*
X76073000Y-77978000D03*
X77648000Y-77978000D03*
D12*
X75438000Y-87503000D03*
X73863000Y-87503000D03*
D26*
X65786000Y-81153000D03*
X81788000Y-85471000D03*
D29*
X73492000Y-83571000D03*
X73492000Y-84521000D03*
X73492000Y-85471000D03*
X75692000Y-85471000D03*
X75692000Y-83571000D03*
D11*
X65786000Y-84404000D03*
X65786000Y-85979000D03*
D10*
X69088000Y-84455000D03*
X70663000Y-84455000D03*
D55*
X76185000Y-75879000D03*
X76835000Y-75879000D03*
X77485000Y-75879000D03*
X77485000Y-73219000D03*
X76185000Y-73219000D03*
D26*
X81026000Y-76708000D03*
D11*
X72644000Y-98501000D03*
X72644000Y-100076000D03*
D19*
X59944000Y-123190000D03*
D20*
X62484000Y-123190000D03*
X65024000Y-123190000D03*
D56*
X88259000Y-109982000D03*
X91059000Y-109982000D03*
D10*
X88785500Y-107569000D03*
X90360500Y-107569000D03*
D16*
X101854000Y-67333000D03*
X101854000Y-68303000D03*
D15*
X96035000Y-71628000D03*
X97005000Y-71628000D03*
D11*
X142494000Y-56616500D03*
X142494000Y-58191500D03*
D13*
X144272000Y-58191500D03*
X144272000Y-56616500D03*
D25*
X133792000Y-133620000D03*
X131892000Y-133620000D03*
X132842000Y-135620000D03*
D10*
X119862500Y-113538000D03*
X121437500Y-113538000D03*
D14*
X167640000Y-93449000D03*
X167640000Y-92479000D03*
D12*
X189763500Y-75438000D03*
X188188500Y-75438000D03*
X189763500Y-131826000D03*
X188188500Y-131826000D03*
X197129500Y-109474000D03*
X195554500Y-109474000D03*
D16*
X186182000Y-69873000D03*
X186182000Y-70843000D03*
D12*
X189763500Y-130048000D03*
X188188500Y-130048000D03*
X189763500Y-94234000D03*
X188188500Y-94234000D03*
D11*
X141986000Y-119735500D03*
X141986000Y-121310500D03*
D12*
X161061500Y-85598000D03*
X159486500Y-85598000D03*
D57*
X123874000Y-94882000D03*
X123874000Y-95382000D03*
X123874000Y-95882000D03*
X123874000Y-96382000D03*
X123874000Y-96882000D03*
X123874000Y-97382000D03*
X123874000Y-97882000D03*
X123874000Y-98382000D03*
X123874000Y-98882000D03*
X123874000Y-99382000D03*
X123874000Y-99882000D03*
X123874000Y-100382000D03*
X123874000Y-100882000D03*
X123874000Y-101382000D03*
X123874000Y-101882000D03*
X123874000Y-102382000D03*
X123874000Y-102882000D03*
X123874000Y-103382000D03*
X123874000Y-103882000D03*
X123874000Y-104382000D03*
X123874000Y-104882000D03*
X123874000Y-105382000D03*
X123874000Y-105882000D03*
X123874000Y-106382000D03*
X123874000Y-106882000D03*
X123874000Y-107382000D03*
X123874000Y-107882000D03*
X123874000Y-108382000D03*
X123874000Y-108882000D03*
X123874000Y-109382000D03*
X123874000Y-109882000D03*
X123874000Y-110382000D03*
X123874000Y-110882000D03*
X123874000Y-111382000D03*
X123874000Y-111882000D03*
X123874000Y-112382000D03*
D58*
X126124000Y-114632000D03*
X126624000Y-114632000D03*
X127124000Y-114632000D03*
X127624000Y-114632000D03*
X128124000Y-114632000D03*
X128624000Y-114632000D03*
X129124000Y-114632000D03*
X129624000Y-114632000D03*
X130124000Y-114632000D03*
X130624000Y-114632000D03*
X131124000Y-114632000D03*
X131624000Y-114632000D03*
X132124000Y-114632000D03*
X132624000Y-114632000D03*
X133124000Y-114632000D03*
X133624000Y-114632000D03*
X134124000Y-114632000D03*
X134624000Y-114632000D03*
X135124000Y-114632000D03*
X135624000Y-114632000D03*
X136124000Y-114632000D03*
X136624000Y-114632000D03*
X137124000Y-114632000D03*
X137624000Y-114632000D03*
X138124000Y-114632000D03*
X138624000Y-114632000D03*
X139124000Y-114632000D03*
X139624000Y-114632000D03*
X140124000Y-114632000D03*
X140624000Y-114632000D03*
X141124000Y-114632000D03*
X141624000Y-114632000D03*
X142124000Y-114632000D03*
X142624000Y-114632000D03*
X143124000Y-114632000D03*
X143624000Y-114632000D03*
D57*
X145874000Y-112382000D03*
X145874000Y-111882000D03*
X145874000Y-111382000D03*
X145874000Y-110882000D03*
X145874000Y-110382000D03*
X145874000Y-109882000D03*
X145874000Y-109382000D03*
X145874000Y-108882000D03*
X145874000Y-108382000D03*
X145874000Y-107882000D03*
X145874000Y-107382000D03*
X145874000Y-106882000D03*
X145874000Y-106382000D03*
X145874000Y-105882000D03*
X145874000Y-105382000D03*
X145874000Y-104882000D03*
X145874000Y-104382000D03*
X145874000Y-103882000D03*
X145874000Y-103382000D03*
X145874000Y-102882000D03*
X145874000Y-102382000D03*
X145874000Y-101882000D03*
X145874000Y-101382000D03*
X145874000Y-100882000D03*
X145874000Y-100382000D03*
X145874000Y-99882000D03*
X145874000Y-99382000D03*
X145874000Y-98882000D03*
X145874000Y-98382000D03*
X145874000Y-97882000D03*
X145874000Y-97382000D03*
X145874000Y-96882000D03*
X145874000Y-96382000D03*
X145874000Y-95882000D03*
X145874000Y-95382000D03*
X145874000Y-94882000D03*
D58*
X143624000Y-92632000D03*
X143124000Y-92632000D03*
X142624000Y-92632000D03*
X142124000Y-92632000D03*
X141624000Y-92632000D03*
X141124000Y-92632000D03*
X140624000Y-92632000D03*
X140124000Y-92632000D03*
X139624000Y-92632000D03*
X139124000Y-92632000D03*
X138624000Y-92632000D03*
X138124000Y-92632000D03*
X137624000Y-92632000D03*
X137124000Y-92632000D03*
X136624000Y-92632000D03*
X136124000Y-92632000D03*
X135624000Y-92632000D03*
X135124000Y-92632000D03*
X134624000Y-92632000D03*
X134124000Y-92632000D03*
X133624000Y-92632000D03*
X133124000Y-92632000D03*
X132624000Y-92632000D03*
X132124000Y-92632000D03*
X131624000Y-92632000D03*
X131124000Y-92632000D03*
X130624000Y-92632000D03*
X130124000Y-92632000D03*
X129624000Y-92632000D03*
X129124000Y-92632000D03*
X128624000Y-92632000D03*
X128124000Y-92632000D03*
X127624000Y-92632000D03*
X127124000Y-92632000D03*
X126624000Y-92632000D03*
X126124000Y-92632000D03*
D59*
X134874000Y-103632000D03*
D19*
X185166000Y-56896000D03*
D20*
X182626000Y-56896000D03*
X180086000Y-56896000D03*
X177546000Y-56896000D03*
X175006000Y-56896000D03*
X172466000Y-56896000D03*
X169926000Y-56896000D03*
X167386000Y-56896000D03*
X164846000Y-56896000D03*
X162306000Y-56896000D03*
X159766000Y-56896000D03*
X157226000Y-56896000D03*
X154686000Y-56896000D03*
X152146000Y-56896000D03*
D10*
X149072500Y-107950000D03*
X150647500Y-107950000D03*
D17*
X109428000Y-77470000D03*
X108458000Y-77470000D03*
X109451000Y-76200000D03*
X108481000Y-76200000D03*
D60*
X139086000Y-125069600D03*
X139086000Y-126339600D03*
X139086000Y-127609600D03*
X139086000Y-128879600D03*
X144886000Y-128879600D03*
X144886000Y-127609600D03*
X144886000Y-126339600D03*
X144886000Y-125069600D03*
D61*
X141986000Y-126974600D03*
D10*
X142976500Y-123063000D03*
X144551500Y-123063000D03*
X119354500Y-99568000D03*
X120929500Y-99568000D03*
D16*
X121666000Y-109243000D03*
X121666000Y-110213000D03*
D26*
X136144000Y-131064000D03*
D16*
X163830000Y-92479000D03*
X163830000Y-93449000D03*
D14*
X162560000Y-93449000D03*
X162560000Y-92479000D03*
D10*
X168884500Y-104394000D03*
X170459500Y-104394000D03*
D25*
X129982000Y-133620000D03*
X128082000Y-133620000D03*
X129032000Y-135620000D03*
D18*
X148336000Y-143764000D03*
X144526000Y-143764000D03*
D62*
X176120000Y-95515000D03*
X176120000Y-96165000D03*
X176120000Y-96815000D03*
X176120000Y-97465000D03*
X176120000Y-98115000D03*
X176120000Y-98765000D03*
X176120000Y-99415000D03*
X176120000Y-100065000D03*
X182020000Y-100065000D03*
X182020000Y-99415000D03*
X182020000Y-98765000D03*
X182020000Y-98115000D03*
X182020000Y-97465000D03*
X182020000Y-96815000D03*
X182020000Y-96165000D03*
X182020000Y-95515000D03*
D16*
X186182000Y-88669000D03*
X186182000Y-89639000D03*
D11*
X192024000Y-127228500D03*
X192024000Y-128803500D03*
D12*
X197129500Y-69088000D03*
X195554500Y-69088000D03*
D63*
X193868000Y-135466000D03*
X194818000Y-135466000D03*
X195768000Y-135466000D03*
X195768000Y-133266000D03*
X193868000Y-133266000D03*
D10*
X194030500Y-137414000D03*
X195605500Y-137414000D03*
D63*
X193868000Y-117686000D03*
X194818000Y-117686000D03*
X195768000Y-117686000D03*
X195768000Y-115486000D03*
X193868000Y-115486000D03*
D10*
X194030500Y-119634000D03*
X195605500Y-119634000D03*
D63*
X193614000Y-79078000D03*
X194564000Y-79078000D03*
X195514000Y-79078000D03*
X195514000Y-76878000D03*
X193614000Y-76878000D03*
D12*
X197129500Y-87884000D03*
X195554500Y-87884000D03*
D11*
X192024000Y-89636500D03*
X192024000Y-91211500D03*
D63*
X193868000Y-97874000D03*
X194818000Y-97874000D03*
X195768000Y-97874000D03*
X195768000Y-95674000D03*
X193868000Y-95674000D03*
D10*
X194030500Y-99822000D03*
X195605500Y-99822000D03*
D64*
X160795000Y-96914000D03*
X161595000Y-96914000D03*
X162395000Y-96914000D03*
X163195000Y-96914000D03*
X163995000Y-96914000D03*
X164795000Y-96914000D03*
X165595000Y-96914000D03*
X160795000Y-97714000D03*
X161595000Y-97714000D03*
X162395000Y-97714000D03*
X163195000Y-97714000D03*
X163995000Y-97714000D03*
X164795000Y-97714000D03*
X165595000Y-97714000D03*
X160795000Y-98514000D03*
X161595000Y-98514000D03*
X162395000Y-98514000D03*
X163195000Y-98514000D03*
X163995000Y-98514000D03*
X164795000Y-98514000D03*
X165595000Y-98514000D03*
X160795000Y-99314000D03*
X161595000Y-99314000D03*
X162395000Y-99314000D03*
X163195000Y-99314000D03*
X163995000Y-99314000D03*
X164795000Y-99314000D03*
X165595000Y-99314000D03*
X160795000Y-100114000D03*
X161595000Y-100114000D03*
X162395000Y-100114000D03*
X163195000Y-100114000D03*
X163995000Y-100114000D03*
X164795000Y-100114000D03*
X165595000Y-100114000D03*
X160795000Y-100914000D03*
X161595000Y-100914000D03*
X162395000Y-100914000D03*
X163195000Y-100914000D03*
X163995000Y-100914000D03*
X164795000Y-100914000D03*
X165595000Y-100914000D03*
X160795000Y-101714000D03*
X161595000Y-101714000D03*
X162395000Y-101714000D03*
X163195000Y-101714000D03*
X163995000Y-101714000D03*
X164795000Y-101714000D03*
X165595000Y-101714000D03*
D17*
X150345000Y-109347000D03*
X149375000Y-109347000D03*
D12*
X117246500Y-57912000D03*
X115671500Y-57912000D03*
D65*
X59436000Y-63627000D03*
X59436000Y-67877000D03*
X59436000Y-59377000D03*
D10*
X70104000Y-63754000D03*
X71679000Y-63754000D03*
D26*
X87630000Y-63500000D03*
X66802000Y-59944000D03*
X71882000Y-59944000D03*
D13*
X74676000Y-65278000D03*
X74676000Y-63703000D03*
X74676000Y-68631000D03*
X74676000Y-67056000D03*
D10*
X81026000Y-61214000D03*
X82601000Y-61214000D03*
D13*
X76708000Y-68631000D03*
X76708000Y-67056000D03*
D26*
X87630000Y-67056000D03*
D12*
X68377000Y-63754000D03*
X66802000Y-63754000D03*
D10*
X76657000Y-65278000D03*
X78232000Y-65278000D03*
X80518000Y-69342000D03*
X82093000Y-69342000D03*
D11*
X63754000Y-63703000D03*
X63754000Y-65278000D03*
D66*
X81818000Y-63332000D03*
X81168000Y-63332000D03*
X80518000Y-63332000D03*
X80518000Y-65532000D03*
X81168000Y-65532000D03*
X81818000Y-65532000D03*
D65*
X59436000Y-84328000D03*
X59436000Y-88578000D03*
X59436000Y-80078000D03*
D13*
X68326000Y-131445000D03*
X68326000Y-129870000D03*
D10*
X58039000Y-138811000D03*
X59614000Y-138811000D03*
D11*
X68326000Y-132969000D03*
X68326000Y-134544000D03*
D67*
X63821000Y-129203000D03*
X63821000Y-129703000D03*
X63821000Y-130203000D03*
X63821000Y-130703000D03*
X63821000Y-131203000D03*
X63821000Y-131703000D03*
X63821000Y-132203000D03*
X63821000Y-132703000D03*
X63821000Y-133203000D03*
X63821000Y-133703000D03*
X63821000Y-134203000D03*
X63821000Y-134703000D03*
X62121000Y-134453000D03*
X62121000Y-133953000D03*
X62121000Y-133453000D03*
X62121000Y-132953000D03*
X62121000Y-132453000D03*
X62121000Y-131953000D03*
X62121000Y-131453000D03*
X62121000Y-130953000D03*
X62121000Y-130453000D03*
X62121000Y-129953000D03*
X62121000Y-129453000D03*
X62121000Y-128953000D03*
D68*
X55961000Y-127463000D03*
X61911000Y-127823000D03*
X61911000Y-136083000D03*
X55961000Y-136443000D03*
D11*
X66421000Y-128879500D03*
X66421000Y-130454500D03*
X70104000Y-118338500D03*
X70104000Y-119913500D03*
X64770000Y-118338500D03*
X64770000Y-119913500D03*
D26*
X75438000Y-140335000D03*
X176784000Y-139446000D03*
X172339000Y-71628000D03*
X132842000Y-69596000D03*
D67*
X68314000Y-118356000D03*
X68314000Y-117856000D03*
X68314000Y-117356000D03*
X66814000Y-117356000D03*
X66814000Y-117856000D03*
X66814000Y-118356000D03*
D15*
X105941000Y-78740000D03*
X106911000Y-78740000D03*
D69*
X77724000Y-120656000D03*
X77724000Y-115056000D03*
D12*
X68351500Y-115316000D03*
X66776500Y-115316000D03*
D11*
X72136000Y-118338500D03*
X72136000Y-119913500D03*
X64770000Y-115036500D03*
X64770000Y-116611500D03*
X61214000Y-115036500D03*
X61214000Y-116611500D03*
D53*
X98171000Y-81026000D03*
D54*
X100711000Y-83566000D03*
X100711000Y-78486000D03*
X95631000Y-83566000D03*
X95631000Y-78486000D03*
D36*
X209931000Y-67310000D03*
D26*
X208151000Y-68330000D03*
X209931000Y-69350000D03*
X208151000Y-70370000D03*
X209931000Y-71390000D03*
X208151000Y-72410000D03*
X209931000Y-73430000D03*
X208151000Y-74450000D03*
D37*
X209041000Y-62740000D03*
X209041000Y-79000000D03*
D11*
X72009000Y-76047500D03*
X72009000Y-77622500D03*
X72009000Y-80057500D03*
X72009000Y-81632500D03*
D70*
X195479000Y-73253600D03*
X193929000Y-73253600D03*
X195478400Y-91948000D03*
X193928400Y-91948000D03*
X195376800Y-111861600D03*
X193826800Y-111861600D03*
X195199000Y-129590800D03*
X193649000Y-129590800D03*
D71*
X79248000Y-61214000D03*
X56515000Y-138811000D03*
X70104000Y-134493000D03*
X70104000Y-129794000D03*
X111633000Y-129032000D03*
X100834000Y-138561000D03*
X95631000Y-127127000D03*
X169545000Y-85598000D03*
D72*
X158369000Y-96901000D03*
D71*
X93218000Y-135255000D03*
X134112000Y-113030000D03*
D72*
X163195000Y-101714000D03*
D71*
X137906880Y-85455880D03*
X120396000Y-82550000D03*
X161671000Y-88392000D03*
X61214000Y-119888000D03*
X136525000Y-94234000D03*
X65278000Y-66802000D03*
X139446000Y-113299000D03*
X196646800Y-91973400D03*
X132588000Y-132080000D03*
X161036000Y-92202000D03*
X144018000Y-96139000D03*
X88265000Y-126111000D03*
X131826000Y-62230000D03*
X59436000Y-70104000D03*
D73*
X62103000Y-106426000D03*
D71*
X90932000Y-143637000D03*
X93075880Y-130825120D03*
X125603000Y-96139000D03*
X123952000Y-60198000D03*
X59436000Y-57404000D03*
X188976000Y-70866000D03*
X166878000Y-106426000D03*
X121539000Y-62992000D03*
X130556000Y-94234000D03*
X139065000Y-130302000D03*
X93853000Y-121539000D03*
X109347000Y-120777000D03*
X188976000Y-109474000D03*
X128651000Y-132080000D03*
X74676000Y-70104000D03*
D73*
X85725000Y-106299000D03*
D71*
X140462000Y-90805000D03*
X126873000Y-91059000D03*
X72009000Y-85852000D03*
X88392000Y-87630000D03*
X196494400Y-129616200D03*
D73*
X100584000Y-132842000D03*
D71*
X144272000Y-59563000D03*
X79756000Y-111125000D03*
X177673000Y-98806000D03*
X125603000Y-86487000D03*
X103886000Y-144272000D03*
X147320000Y-89916000D03*
X72390000Y-87503000D03*
X68707000Y-121285000D03*
X121031000Y-58801000D03*
X143129000Y-121793000D03*
D72*
X164795000Y-100163999D03*
D71*
X59436000Y-77978000D03*
D73*
X75184000Y-103886000D03*
D71*
X111760000Y-136525000D03*
X93319880Y-137261880D03*
X196596000Y-111810800D03*
X152146000Y-114046000D03*
X101473000Y-115951000D03*
X128778000Y-59436000D03*
D73*
X134874000Y-103632000D03*
D71*
X72009000Y-83058000D03*
X141986000Y-113299000D03*
X141986000Y-127000000D03*
X188976000Y-89662000D03*
X65786000Y-87376000D03*
X124333000Y-132080000D03*
D72*
X160795000Y-96914000D03*
D71*
X157861000Y-85598000D03*
X106553000Y-129540000D03*
X188976000Y-127254000D03*
X144018000Y-100711000D03*
X79121000Y-77978000D03*
X119888000Y-114808000D03*
X195580000Y-101346000D03*
X147574000Y-106934000D03*
X87122000Y-135890000D03*
X137033000Y-56134000D03*
X128016000Y-116586000D03*
X59436000Y-90678000D03*
X102870000Y-126873000D03*
X196723000Y-73253600D03*
X152019000Y-107950000D03*
D73*
X76327000Y-100457000D03*
D71*
X94361000Y-133858000D03*
X195326000Y-82550000D03*
X119380000Y-98298000D03*
X171958000Y-104394000D03*
X69342000Y-116332000D03*
X195580000Y-138684000D03*
X114554000Y-102870000D03*
D73*
X62230000Y-100076000D03*
D71*
X195580000Y-121158000D03*
X83947000Y-61214000D03*
X79502000Y-64389000D03*
X145923000Y-113665000D03*
X140970000Y-124460000D03*
X81407000Y-126238000D03*
X194056000Y-121158000D03*
X122301000Y-96901000D03*
D73*
X85725000Y-71755000D03*
D71*
X125222000Y-115570000D03*
X103886000Y-125222000D03*
X140589000Y-119761000D03*
X136779000Y-91186000D03*
X140081000Y-94107000D03*
X111633000Y-130810000D03*
X140716000Y-113299000D03*
X191008000Y-74168000D03*
X131826000Y-57785000D03*
X132588000Y-113030000D03*
X193802000Y-82550000D03*
X134112000Y-94488000D03*
X143510000Y-125095000D03*
X145796000Y-56642000D03*
X194056000Y-101346000D03*
X121412000Y-114808000D03*
X144018000Y-97409000D03*
X123825000Y-93853000D03*
D73*
X96393000Y-109982000D03*
D71*
X122174000Y-105918000D03*
X177673000Y-96901000D03*
X190881000Y-130683000D03*
D73*
X96393000Y-112649000D03*
D71*
X98334000Y-138517000D03*
X90170000Y-94234000D03*
X190881000Y-92837000D03*
X119380000Y-105918000D03*
X103834000Y-138609000D03*
D73*
X68072000Y-74676000D03*
D71*
X144653000Y-114554000D03*
X118110000Y-98298000D03*
X109347000Y-143764000D03*
X74549000Y-77978000D03*
X191008000Y-112776000D03*
X166370000Y-88392000D03*
X140208000Y-132207000D03*
X151384000Y-132207000D03*
D73*
X72898000Y-74676000D03*
D71*
X168402000Y-95250000D03*
X97409000Y-117983000D03*
X166878000Y-108204000D03*
D73*
X88392000Y-74422000D03*
D71*
X83058000Y-139573000D03*
X144272000Y-91440000D03*
X122301000Y-98933000D03*
X145923000Y-93726000D03*
D72*
X166370000Y-98298000D03*
D71*
X126238000Y-117729000D03*
X194056000Y-138684000D03*
X126111000Y-90424000D03*
D73*
X89662000Y-111887000D03*
D71*
X144018000Y-101854000D03*
X73406000Y-112649000D03*
X65786000Y-117602000D03*
X111887000Y-63119000D03*
X148590000Y-111506000D03*
D72*
X103632000Y-75946000D03*
D71*
X113919000Y-84201000D03*
X105918000Y-65405000D03*
D72*
X102890000Y-71862000D03*
D71*
X118364000Y-71882000D03*
X105918000Y-79629000D03*
X119380000Y-85163002D03*
D72*
X102636000Y-69362000D03*
D71*
X117348000Y-69723000D03*
X111379000Y-74930000D03*
X107296000Y-65405000D03*
X121666000Y-64770000D03*
X75438000Y-96266000D03*
X95250000Y-108204000D03*
X137160000Y-53340000D03*
X90170000Y-106172000D03*
X158496000Y-81280000D03*
X77724000Y-82677000D03*
X126492000Y-107188000D03*
X108204000Y-111252000D03*
X106250620Y-77802620D03*
X111887000Y-64135000D03*
D72*
X101727000Y-74930000D03*
D71*
X102870000Y-66675000D03*
X95377000Y-72517000D03*
X109474000Y-77901800D03*
X94234000Y-73914000D03*
X114173000Y-64973200D03*
D73*
X107696000Y-70612000D03*
D71*
X115138200Y-73837800D03*
X114300000Y-57912000D03*
X108458000Y-83653000D03*
X118364000Y-70866000D03*
X115163600Y-70053200D03*
X100330000Y-69342000D03*
X104648000Y-63373000D03*
X109347000Y-57277000D03*
X101619074Y-70084926D03*
X98420347Y-70480347D03*
X102878105Y-70857895D03*
X98425000Y-71501000D03*
D72*
X163195000Y-98514000D03*
X163830000Y-96012000D03*
X164795000Y-98514000D03*
X167640000Y-104140000D03*
X166370000Y-97276500D03*
X165595000Y-100914000D03*
X160020000Y-104648000D03*
D71*
X66040000Y-132969000D03*
X60960000Y-131445000D03*
X65299807Y-131729046D03*
X141732000Y-111887000D03*
X141732000Y-110871000D03*
X141732000Y-109870997D03*
X141732000Y-108870994D03*
X59309000Y-128397000D03*
X60579000Y-132969000D03*
X142240000Y-102108000D03*
X89662000Y-84709000D03*
X128016000Y-97536000D03*
X132715000Y-97536000D03*
X122174000Y-104656990D03*
X113284000Y-102870000D03*
X127762000Y-90043000D03*
X128399000Y-90932000D03*
X130937000Y-89535000D03*
X131318000Y-90551000D03*
X132145347Y-90964673D03*
X132974000Y-90424000D03*
X134769620Y-90431620D03*
X136611120Y-89479120D03*
X137423623Y-89921236D03*
X138409377Y-89854722D03*
X138974000Y-90678000D03*
X141986000Y-89408000D03*
X136271000Y-137414000D03*
X121412000Y-67564000D03*
X120396000Y-68834000D03*
X84328000Y-65532000D03*
X83058000Y-64262000D03*
X98224963Y-68399037D03*
D72*
X96045029Y-74074029D03*
D71*
X98879037Y-67744963D03*
D72*
X96486971Y-74515971D03*
D71*
X148463000Y-105029000D03*
X138303000Y-75311000D03*
X138303000Y-58547000D03*
X104140000Y-74676000D03*
X148463000Y-85598000D03*
X116586000Y-78994000D03*
X99314000Y-136144000D03*
X114808000Y-124460000D03*
X114038352Y-123946902D03*
X97917000Y-135382000D03*
D72*
X159766000Y-103251000D03*
X163195000Y-100914000D03*
X163195000Y-100114000D03*
D71*
X190754000Y-116459000D03*
X190754000Y-134366000D03*
X190500000Y-77978000D03*
X190627000Y-96647000D03*
X138557000Y-112649000D03*
X178562000Y-105537000D03*
X143637000Y-108585000D03*
X104013000Y-66040000D03*
X143637000Y-107188000D03*
D72*
X106582559Y-65006265D03*
D71*
X143637000Y-105537000D03*
D72*
X106946000Y-66108386D03*
D74*
X163195000Y-101714000D02*
X163195000Y-101714000D01*
X160795000Y-96914000D02*
X160795000Y-96914000D01*
D75*
X81026000Y-61214000D02*
X79248000Y-61214000D01*
X81168000Y-63332000D02*
X81168000Y-61356000D01*
X81168000Y-61356000D02*
X81026000Y-61214000D01*
X62371000Y-134703000D02*
X63821000Y-134703000D01*
X62121000Y-128953000D02*
X62121000Y-128033000D01*
X61911000Y-136083000D02*
X61911000Y-134663000D01*
X61911000Y-134663000D02*
X62121000Y-134453000D01*
X70053000Y-134544000D02*
X70104000Y-134493000D01*
X58039000Y-138811000D02*
X56515000Y-138811000D01*
X68326000Y-129870000D02*
X70028000Y-129870000D01*
X70028000Y-129870000D02*
X70104000Y-129794000D01*
X63821000Y-129203000D02*
X63571000Y-128953000D01*
X63571000Y-128953000D02*
X62121000Y-128953000D01*
X68326000Y-134544000D02*
X70053000Y-134544000D01*
X62121000Y-128033000D02*
X61911000Y-127823000D01*
X62121000Y-134453000D02*
X62371000Y-134703000D01*
X100834000Y-138561000D02*
X100834000Y-138517000D01*
X94627000Y-133592000D02*
X94361000Y-133858000D01*
X187576000Y-89912000D02*
X188726000Y-89912000D01*
X127787500Y-119126000D02*
X127787500Y-117754500D01*
X96134000Y-133592000D02*
X96134000Y-134092000D01*
X135890000Y-86461500D02*
X136901260Y-86461500D01*
X106426000Y-122174000D02*
X108077000Y-122174000D01*
X119354500Y-99568000D02*
X119354500Y-98323500D01*
X124272000Y-132141000D02*
X124333000Y-132080000D01*
X91948000Y-135382000D02*
X93091000Y-135382000D01*
X170459500Y-104394000D02*
X171958000Y-104394000D01*
X173990000Y-97491000D02*
X174614000Y-98115000D01*
X78511500Y-112395000D02*
X78511500Y-112369500D01*
X195605500Y-101320500D02*
X195580000Y-101346000D01*
X195605500Y-119634000D02*
X195605500Y-121132500D01*
X99568000Y-115935800D02*
X101457800Y-115935800D01*
X93091000Y-135382000D02*
X93218000Y-135255000D01*
X95275400Y-122173900D02*
X96977200Y-122173900D01*
X129565500Y-62230000D02*
X131826000Y-62230000D01*
X94909000Y-136092000D02*
X94134000Y-136092000D01*
X106501000Y-129592000D02*
X106553000Y-129540000D01*
X89154000Y-86868000D02*
X88392000Y-87630000D01*
X175120000Y-98115000D02*
X176120000Y-98115000D01*
X88392000Y-135382000D02*
X90170000Y-135382000D01*
X145874000Y-96882000D02*
X144761000Y-96882000D01*
X124272000Y-133620000D02*
X124272000Y-132141000D01*
X163326000Y-85948000D02*
X163326000Y-86737000D01*
X163326000Y-86737000D02*
X161671000Y-88392000D01*
X159486500Y-85598000D02*
X157861000Y-85598000D01*
X167665500Y-85123000D02*
X167415490Y-84872990D01*
X120015000Y-62979000D02*
X121526000Y-62979000D01*
X195427600Y-111810800D02*
X195376800Y-111861600D01*
X121526000Y-62979000D02*
X121539000Y-62992000D01*
X111696500Y-136461500D02*
X111760000Y-136525000D01*
X70104000Y-119913500D02*
X70078500Y-119913500D01*
X195605500Y-138658500D02*
X195580000Y-138684000D01*
X110172500Y-136461500D02*
X111696500Y-136461500D01*
X91948000Y-135382000D02*
X90170000Y-135382000D01*
X145874000Y-101382000D02*
X144689000Y-101382000D01*
X119862500Y-111760000D02*
X119862500Y-113538000D01*
X93319880Y-136906120D02*
X93319880Y-137261880D01*
X94134000Y-136092000D02*
X93319880Y-136906120D01*
X137624000Y-92632000D02*
X137624000Y-93389000D01*
X195351500Y-82524500D02*
X195326000Y-82550000D01*
X139124000Y-114632000D02*
X139124000Y-113621000D01*
X135624000Y-93333000D02*
X136525000Y-94234000D01*
X161313000Y-92479000D02*
X161036000Y-92202000D01*
D74*
X164795000Y-100114000D02*
X164795000Y-100163999D01*
D75*
X108077000Y-122174000D02*
X108077000Y-122047000D01*
X141624000Y-114632000D02*
X141624000Y-113661000D01*
X167665500Y-85598000D02*
X167665500Y-85123000D01*
X174614000Y-98115000D02*
X175120000Y-98115000D01*
X93381000Y-135092000D02*
X93218000Y-135255000D01*
X188188500Y-130048000D02*
X188188500Y-128041500D01*
X101457800Y-115935800D02*
X101473000Y-115951000D01*
X131826000Y-60706000D02*
X131826000Y-62230000D01*
X59436000Y-59377000D02*
X59436000Y-57404000D01*
X129624000Y-92632000D02*
X129624000Y-93302000D01*
D74*
X148654402Y-96671490D02*
X150384990Y-96671490D01*
D75*
X188188500Y-112268000D02*
X188188500Y-110261500D01*
X140124000Y-91143000D02*
X140462000Y-90805000D01*
X136901260Y-86461500D02*
X137906880Y-85455880D01*
X195168000Y-99822000D02*
X195605500Y-99822000D01*
X190376000Y-127504000D02*
X189226000Y-127504000D01*
X173990000Y-97053500D02*
X173990000Y-97491000D01*
X103334000Y-128392000D02*
X103334000Y-127337000D01*
X72390000Y-85471000D02*
X72009000Y-85852000D01*
X103124000Y-122174000D02*
X104775000Y-122174000D01*
X138912500Y-86461500D02*
X137906880Y-85455880D01*
X108828000Y-135592000D02*
X106259000Y-135592000D01*
X100834000Y-142745000D02*
X100834000Y-138561000D01*
X190376000Y-89912000D02*
X189226000Y-89912000D01*
X125360000Y-96382000D02*
X125603000Y-96139000D01*
X94285000Y-128468000D02*
X94909000Y-129092000D01*
X115570000Y-82550000D02*
X120396000Y-82550000D01*
X176982000Y-98115000D02*
X177673000Y-98806000D01*
X59436000Y-70104000D02*
X59436000Y-67877000D01*
X106259000Y-135592000D02*
X105034000Y-135592000D01*
X188188500Y-71653500D02*
X188976000Y-70866000D01*
D76*
X64770000Y-119913500D02*
X61239500Y-119913500D01*
D75*
X89230100Y-127508100D02*
X89230000Y-127508000D01*
X114808000Y-103124000D02*
X114554000Y-102870000D01*
X187576000Y-109724000D02*
X188726000Y-109724000D01*
X131624000Y-92632000D02*
X131624000Y-93632000D01*
X194818000Y-99472000D02*
X195168000Y-99822000D01*
X123977500Y-60223500D02*
X123952000Y-60198000D01*
D74*
X161595000Y-98514000D02*
X162395000Y-97714000D01*
D75*
X142646500Y-121310500D02*
X143129000Y-121793000D01*
X103334000Y-127337000D02*
X102870000Y-126873000D01*
X76835000Y-75879000D02*
X76835000Y-77602500D01*
X189226000Y-89912000D02*
X188976000Y-89662000D01*
X128082000Y-132649000D02*
X128651000Y-132080000D01*
D77*
X72522000Y-100198000D02*
X72644000Y-100076000D01*
X74168000Y-108712000D02*
X73406000Y-107950000D01*
X75608000Y-108712000D02*
X74168000Y-108712000D01*
D75*
X65786000Y-85979000D02*
X65786000Y-87376000D01*
X127787500Y-116814500D02*
X128016000Y-116586000D01*
X195168000Y-137414000D02*
X194818000Y-137064000D01*
X145874000Y-107382000D02*
X147126000Y-107382000D01*
X87630000Y-135382000D02*
X87122000Y-135890000D01*
X119862500Y-114782500D02*
X119888000Y-114808000D01*
D74*
X161982501Y-97301501D02*
X161182501Y-97301501D01*
D75*
X147126000Y-107382000D02*
X147574000Y-106934000D01*
X167415490Y-84872990D02*
X164701010Y-84872990D01*
X128016000Y-116586000D02*
X128624000Y-115978000D01*
X141986000Y-121310500D02*
X142646500Y-121310500D01*
X68314000Y-117356000D02*
X68318000Y-117356000D01*
D74*
X145874000Y-96882000D02*
X148443892Y-96882000D01*
D75*
X128082000Y-133620000D02*
X128082000Y-132649000D01*
X143129000Y-121793000D02*
X143129000Y-122910500D01*
X188188500Y-73660000D02*
X188188500Y-71653500D01*
X145821500Y-89916000D02*
X147320000Y-89916000D01*
X195168000Y-119634000D02*
X195605500Y-119634000D01*
X127124000Y-91310000D02*
X126873000Y-91059000D01*
X111087000Y-129578000D02*
X111633000Y-129032000D01*
X96134000Y-133592000D02*
X94627000Y-133592000D01*
D77*
X64262000Y-100126900D02*
X62280900Y-100126900D01*
X73406000Y-107950000D02*
X73406000Y-105664000D01*
X60452000Y-106426000D02*
X62103000Y-106426000D01*
D75*
X125346000Y-95882000D02*
X125603000Y-96139000D01*
D74*
X163995000Y-100914000D02*
X163195000Y-101714000D01*
D75*
X94909000Y-136092000D02*
X96134000Y-136092000D01*
X167665500Y-85598000D02*
X169545000Y-85598000D01*
X125476000Y-60223500D02*
X123977500Y-60223500D01*
X141624000Y-113661000D02*
X141986000Y-113299000D01*
X76835000Y-77602500D02*
X77210500Y-77978000D01*
X128624000Y-115978000D02*
X128624000Y-114632000D01*
X190376000Y-109724000D02*
X189226000Y-109724000D01*
X94909000Y-135092000D02*
X96134000Y-135092000D01*
X139446000Y-86461500D02*
X138912500Y-86461500D01*
D77*
X83820000Y-107950000D02*
X84074000Y-107950000D01*
D75*
X196596000Y-111810800D02*
X195427600Y-111810800D01*
X150647500Y-114046000D02*
X152146000Y-114046000D01*
X73863000Y-87503000D02*
X72390000Y-87503000D01*
X164401001Y-85172999D02*
X164326000Y-85172999D01*
X139124000Y-113976656D02*
X139124000Y-114632000D01*
X129028000Y-59613000D02*
X128778000Y-59363000D01*
X109697500Y-136461500D02*
X108828000Y-135592000D01*
X140124000Y-92632000D02*
X140124000Y-91143000D01*
D74*
X162395000Y-97714000D02*
X161982501Y-97301501D01*
D75*
X77648000Y-77978000D02*
X79121000Y-77978000D01*
X130065500Y-59613000D02*
X129028000Y-59613000D01*
X94909000Y-129092000D02*
X96134000Y-129092000D01*
X127124000Y-92632000D02*
X127124000Y-91310000D01*
X127000000Y-86461500D02*
X125628500Y-86461500D01*
X143129000Y-122910500D02*
X142976500Y-123063000D01*
X59436000Y-88578000D02*
X59436000Y-90678000D01*
X188976000Y-70866000D02*
X189226000Y-71116000D01*
X123874000Y-95882000D02*
X125346000Y-95882000D01*
X137624000Y-93389000D02*
X136779000Y-94234000D01*
X108077000Y-122047000D02*
X109347000Y-120777000D01*
X100834000Y-138517000D02*
X100834000Y-137292000D01*
D76*
X61239500Y-119913500D02*
X61214000Y-119888000D01*
D75*
X90380000Y-86868000D02*
X89154000Y-86868000D01*
X104775000Y-122174000D02*
X106426000Y-122174000D01*
X139086000Y-130281000D02*
X139065000Y-130302000D01*
D74*
X160994999Y-97113999D02*
X160795000Y-96914000D01*
D75*
X77210500Y-77978000D02*
X77648000Y-77978000D01*
X138346000Y-56134000D02*
X137033000Y-56134000D01*
X90380000Y-86868000D02*
X92964000Y-86868000D01*
X187576000Y-71116000D02*
X188726000Y-71116000D01*
X74676000Y-68631000D02*
X74676000Y-70104000D01*
X93342760Y-131092000D02*
X93075880Y-130825120D01*
X119354500Y-98323500D02*
X119380000Y-98298000D01*
D76*
X150647500Y-107950000D02*
X152019000Y-107950000D01*
D75*
X89230000Y-127508000D02*
X89230000Y-127076000D01*
X136779000Y-94234000D02*
X136525000Y-94234000D01*
X188188500Y-110261500D02*
X188976000Y-109474000D01*
X188726000Y-71116000D02*
X188976000Y-70866000D01*
X144761000Y-96882000D02*
X144018000Y-96139000D01*
X73492000Y-85471000D02*
X72390000Y-85471000D01*
X195605500Y-121132500D02*
X195580000Y-121158000D01*
X194564000Y-79078000D02*
X194564000Y-80676000D01*
X188188500Y-92456000D02*
X188188500Y-90449500D01*
X162560000Y-92479000D02*
X161313000Y-92479000D01*
X144272000Y-58191500D02*
X144272000Y-59563000D01*
X194564000Y-80676000D02*
X194914000Y-81026000D01*
X144689000Y-101382000D02*
X144018000Y-100711000D01*
X110172500Y-136461500D02*
X109697500Y-136461500D01*
X96134000Y-131092000D02*
X93342760Y-131092000D01*
X188726000Y-127504000D02*
X188976000Y-127254000D01*
X103822500Y-142875000D02*
X103822500Y-144208500D01*
X119862500Y-113538000D02*
X119862500Y-114782500D01*
X189226000Y-71116000D02*
X190376000Y-71116000D01*
X195478400Y-91948000D02*
X196621400Y-91948000D01*
D74*
X148443892Y-96882000D02*
X148654402Y-96671490D01*
D75*
X188726000Y-89912000D02*
X188976000Y-89662000D01*
X135624000Y-92632000D02*
X135624000Y-93333000D01*
X164701010Y-84872990D02*
X164401001Y-85172999D01*
X72009000Y-81632500D02*
X72009000Y-83058000D01*
X189226000Y-127504000D02*
X188976000Y-127254000D01*
X131022000Y-94234000D02*
X130556000Y-94234000D01*
X194818000Y-117686000D02*
X194818000Y-119284000D01*
X195199000Y-129590800D02*
X196469000Y-129590800D01*
X134112000Y-86461500D02*
X135890000Y-86461500D01*
D77*
X74422000Y-100076000D02*
X75946000Y-100076000D01*
D74*
X150647500Y-96934000D02*
X150647500Y-97409000D01*
X161182501Y-97301501D02*
X160994999Y-97113999D01*
D75*
X131892000Y-132776000D02*
X132588000Y-132080000D01*
X194818000Y-136246000D02*
X194818000Y-135466000D01*
D74*
X163995000Y-100914000D02*
X164044999Y-100914000D01*
D75*
X188188500Y-128041500D02*
X188976000Y-127254000D01*
X95250000Y-127508000D02*
X95631000Y-127127000D01*
X196621400Y-91948000D02*
X196646800Y-91973400D01*
X195605500Y-137414000D02*
X195605500Y-138658500D01*
X119354500Y-103124000D02*
X114808000Y-103124000D01*
X128778000Y-59363000D02*
X128778000Y-59436000D01*
X189226000Y-109724000D02*
X188976000Y-109474000D01*
X88392000Y-135382000D02*
X87630000Y-135382000D01*
X125628500Y-86461500D02*
X125603000Y-86487000D01*
X117246500Y-57912000D02*
X120142000Y-57912000D01*
X63754000Y-65278000D02*
X65278000Y-66802000D01*
X165608000Y-106403000D02*
X166855000Y-106403000D01*
X89230100Y-130937000D02*
X89230100Y-129159000D01*
D77*
X75946000Y-100076000D02*
X76327000Y-100457000D01*
D75*
X78511500Y-112369500D02*
X79756000Y-111125000D01*
X94909000Y-135092000D02*
X93381000Y-135092000D01*
X139124000Y-113621000D02*
X139446000Y-113299000D01*
X100266500Y-142875000D02*
X100704000Y-142875000D01*
X194818000Y-119284000D02*
X195168000Y-119634000D01*
X94285000Y-127508000D02*
X94285000Y-128468000D01*
X103822500Y-144208500D02*
X103886000Y-144272000D01*
X134124000Y-113042000D02*
X134112000Y-113030000D01*
X129624000Y-93302000D02*
X130556000Y-94234000D01*
X187576000Y-127504000D02*
X188726000Y-127504000D01*
X67773000Y-128879500D02*
X68326000Y-129432500D01*
X194818000Y-97874000D02*
X194818000Y-99472000D01*
X139086000Y-128879600D02*
X139086000Y-130281000D01*
X70104000Y-119913500D02*
X72136000Y-119913500D01*
X134124000Y-114632000D02*
X134124000Y-113042000D01*
X166855000Y-106403000D02*
X166878000Y-106426000D01*
X90154000Y-142301000D02*
X90154000Y-142859000D01*
D77*
X72644000Y-100076000D02*
X74422000Y-100076000D01*
D75*
X94487900Y-122173900D02*
X93853000Y-121539000D01*
X59436000Y-77978000D02*
X59436000Y-80078000D01*
X68326000Y-129432500D02*
X68326000Y-129870000D01*
X188726000Y-109724000D02*
X188976000Y-109474000D01*
X196469000Y-129590800D02*
X196494400Y-129616200D01*
X120142000Y-57912000D02*
X121031000Y-58801000D01*
D77*
X62280900Y-100126900D02*
X62230000Y-100076000D01*
D75*
X188188500Y-90449500D02*
X188976000Y-89662000D01*
X70078500Y-119913500D02*
X68707000Y-121285000D01*
D74*
X150384990Y-96671490D02*
X150647500Y-96934000D01*
D75*
X195605500Y-137414000D02*
X195168000Y-137414000D01*
X127787500Y-117754500D02*
X127787500Y-116814500D01*
X131892000Y-133620000D02*
X131892000Y-132776000D01*
D77*
X84074000Y-107950000D02*
X85725000Y-106299000D01*
D75*
X95275400Y-122173900D02*
X94487900Y-122173900D01*
X89230100Y-129159000D02*
X89230100Y-127508100D01*
D77*
X73406000Y-105664000D02*
X75184000Y-103886000D01*
X58674000Y-106426000D02*
X60452000Y-106426000D01*
D75*
X123874000Y-96382000D02*
X125360000Y-96382000D01*
X105034000Y-129592000D02*
X106501000Y-129592000D01*
X194818000Y-137064000D02*
X194818000Y-136246000D01*
X195351500Y-81026000D02*
X195351500Y-82524500D01*
X131624000Y-93632000D02*
X131022000Y-94234000D01*
X100704000Y-142875000D02*
X100834000Y-142745000D01*
X66421000Y-128879500D02*
X67773000Y-128879500D01*
X176120000Y-98115000D02*
X176982000Y-98115000D01*
X68318000Y-117356000D02*
X69342000Y-116332000D01*
X89230000Y-127076000D02*
X88265000Y-126111000D01*
X90154000Y-142859000D02*
X90932000Y-143637000D01*
D77*
X70526000Y-100198000D02*
X72522000Y-100198000D01*
D75*
X194914000Y-81026000D02*
X195351500Y-81026000D01*
X110172500Y-129578000D02*
X111087000Y-129578000D01*
X195479000Y-73253600D02*
X196723000Y-73253600D01*
X141624000Y-114632000D02*
X141624000Y-113976656D01*
X195605500Y-99822000D02*
X195605500Y-101320500D01*
X94285000Y-127508000D02*
X95250000Y-127508000D01*
X82601000Y-61214000D02*
X83947000Y-61214000D01*
X81168000Y-64857000D02*
X80700000Y-64389000D01*
X80700000Y-64389000D02*
X79502000Y-64389000D01*
X81168000Y-65532000D02*
X81168000Y-64857000D01*
X103834000Y-138609000D02*
X103834000Y-137847000D01*
X98334000Y-138517000D02*
X98334000Y-137632000D01*
X193826800Y-110286300D02*
X193802000Y-110261500D01*
X140208000Y-133858000D02*
X140208000Y-132207000D01*
X127624000Y-113632000D02*
X127624000Y-114632000D01*
X190376000Y-90412000D02*
X190376000Y-92281000D01*
X110947000Y-143764000D02*
X109347000Y-143764000D01*
X190500000Y-73660000D02*
X191008000Y-74168000D01*
X111290000Y-131153000D02*
X111633000Y-130810000D01*
X193868000Y-119471500D02*
X194030500Y-119634000D01*
X189763500Y-112268000D02*
X190500000Y-112268000D01*
X189763500Y-131826000D02*
X189763500Y-131800500D01*
D74*
X164795000Y-99314000D02*
X165595000Y-98514000D01*
D75*
X193928400Y-90575900D02*
X193802000Y-90449500D01*
X139624000Y-92632000D02*
X139624000Y-93650000D01*
X193548000Y-128041500D02*
X192786000Y-128041500D01*
X174879000Y-97224000D02*
X175120000Y-97465000D01*
X174465000Y-95478500D02*
X174879000Y-95892500D01*
X189763500Y-75438000D02*
X189763500Y-75412500D01*
X192786000Y-110261500D02*
X192024000Y-111023500D01*
X137124000Y-91531000D02*
X136779000Y-91186000D01*
X126124000Y-114632000D02*
X126124000Y-113632000D01*
X123874000Y-95382000D02*
X123874000Y-94882000D01*
X132124000Y-114632000D02*
X132124000Y-113494000D01*
X144246500Y-91414500D02*
X144272000Y-91440000D01*
X192024000Y-128803500D02*
X192024000Y-129540000D01*
X139624000Y-93650000D02*
X140081000Y-94107000D01*
X100834000Y-127885000D02*
X100834000Y-128392000D01*
X145874000Y-97382000D02*
X149045500Y-97382000D01*
X103834000Y-127167000D02*
X103834000Y-125274000D01*
X141124000Y-114632000D02*
X141124000Y-113707000D01*
X140995500Y-123063000D02*
X140995500Y-124434500D01*
X130844000Y-60113000D02*
X131826000Y-59131000D01*
X87249000Y-141351000D02*
X85344000Y-139446000D01*
X74355000Y-73219000D02*
X72898000Y-74676000D01*
X190376000Y-110224000D02*
X190376000Y-112093000D01*
X167894000Y-95758000D02*
X168402000Y-95250000D01*
X122210000Y-105882000D02*
X122174000Y-105918000D01*
X74483000Y-77912000D02*
X74549000Y-77978000D01*
X193868000Y-97874000D02*
X193868000Y-99659500D01*
X145770500Y-56616500D02*
X145796000Y-56642000D01*
X126124000Y-113632000D02*
X126345000Y-113411000D01*
X144886000Y-125069600D02*
X143535400Y-125069600D01*
X123874000Y-112757000D02*
X123874000Y-112382000D01*
X144246500Y-92384500D02*
X143999000Y-92632000D01*
X123874000Y-96882000D02*
X122320000Y-96882000D01*
X193868000Y-135466000D02*
X193868000Y-137251500D01*
X145874000Y-94882000D02*
X145874000Y-93775000D01*
X121437500Y-113538000D02*
X123093000Y-113538000D01*
X127403000Y-113411000D02*
X127624000Y-113632000D01*
X190376000Y-112093000D02*
X190201000Y-112268000D01*
X190201000Y-112268000D02*
X189763500Y-112268000D01*
X109671000Y-132092000D02*
X110172500Y-131590500D01*
X88154000Y-141351000D02*
X87249000Y-141351000D01*
X103822500Y-141300000D02*
X103834000Y-141288500D01*
X123874000Y-93902000D02*
X123825000Y-93853000D01*
X76185000Y-73219000D02*
X74355000Y-73219000D01*
X128624000Y-93632000D02*
X128403000Y-93853000D01*
X173990000Y-95478500D02*
X174465000Y-95478500D01*
X144886000Y-123397500D02*
X144551500Y-123063000D01*
X166370000Y-88392000D02*
X166370000Y-85877500D01*
X134112000Y-88671500D02*
X134112000Y-88036500D01*
X104775000Y-124333000D02*
X103886000Y-125222000D01*
X193868000Y-117686000D02*
X193868000Y-119471500D01*
X165100000Y-92479000D02*
X163830000Y-92479000D01*
X194030500Y-99822000D02*
X194030500Y-101320500D01*
X189763500Y-114020500D02*
X191008000Y-112776000D01*
X126345000Y-113411000D02*
X127403000Y-113411000D01*
X103834000Y-141288500D02*
X103834000Y-138609000D01*
X103834000Y-125274000D02*
X103886000Y-125222000D01*
X189763500Y-92456000D02*
X190500000Y-92456000D01*
X133124000Y-113566000D02*
X132588000Y-113030000D01*
X98691500Y-142400000D02*
X98334000Y-142042500D01*
X85344000Y-139446000D02*
X83185000Y-139446000D01*
X126212500Y-119126000D02*
X126212500Y-117754500D01*
X119354500Y-101346000D02*
X118110000Y-100101500D01*
X110172500Y-131590500D02*
X110172500Y-131153000D01*
X123874000Y-111882000D02*
X123874000Y-111382000D01*
X144246500Y-89916000D02*
X144246500Y-91338500D01*
X128303000Y-86461500D02*
X127000000Y-87764500D01*
X193928400Y-91948000D02*
X193928400Y-90575900D01*
X126124000Y-89350000D02*
X127000000Y-88474000D01*
X123874000Y-94882000D02*
X123874000Y-93902000D01*
X103834000Y-127167000D02*
X103834000Y-128392000D01*
X167894000Y-96543000D02*
X167894000Y-95758000D01*
X149072500Y-114046000D02*
X146304000Y-114046000D01*
X104775000Y-123749000D02*
X104775000Y-124333000D01*
X145874000Y-101882000D02*
X144046000Y-101882000D01*
X119380000Y-105918000D02*
X119380000Y-104927500D01*
X121437500Y-114782500D02*
X121412000Y-114808000D01*
X190376000Y-129873000D02*
X190376000Y-128379000D01*
X190500000Y-112268000D02*
X191008000Y-112776000D01*
X189763500Y-130048000D02*
X190246000Y-130048000D01*
X141124000Y-113707000D02*
X140716000Y-113299000D01*
X193776500Y-81026000D02*
X193776500Y-82524500D01*
X146304000Y-114046000D02*
X145923000Y-113665000D01*
X139624000Y-88652000D02*
X139446000Y-88474000D01*
X177109000Y-97465000D02*
X177673000Y-96901000D01*
X189763500Y-73660000D02*
X190500000Y-73660000D01*
D77*
X91059000Y-109982000D02*
X91059000Y-110490000D01*
D75*
X101473000Y-124333000D02*
X100834000Y-124972000D01*
D77*
X91059000Y-110490000D02*
X89662000Y-111887000D01*
D75*
X166370000Y-85877500D02*
X166090500Y-85598000D01*
X106259000Y-132092000D02*
X105034000Y-132092000D01*
X101473000Y-123749000D02*
X103124000Y-123749000D01*
X192024000Y-111760000D02*
X191008000Y-112776000D01*
X130065500Y-59113000D02*
X131808000Y-59113000D01*
X144272000Y-56616500D02*
X145770500Y-56616500D01*
X143124000Y-114632000D02*
X143624000Y-114632000D01*
X103834000Y-137847000D02*
X103834000Y-137292000D01*
X130556000Y-86461500D02*
X132334000Y-86461500D01*
X126124000Y-90411000D02*
X126111000Y-90424000D01*
X144575000Y-114632000D02*
X144653000Y-114554000D01*
X190376000Y-128379000D02*
X190376000Y-128004000D01*
X193614000Y-80863500D02*
X193776500Y-81026000D01*
X88877000Y-94234000D02*
X90170000Y-94234000D01*
X76073000Y-77978000D02*
X74549000Y-77978000D01*
X166139000Y-108204000D02*
X166878000Y-108204000D01*
X123874000Y-112382000D02*
X123874000Y-111882000D01*
X165100000Y-89662000D02*
X166370000Y-88392000D01*
X192786000Y-71653500D02*
X192024000Y-72415500D01*
X128778000Y-86461500D02*
X128303000Y-86461500D01*
X165100000Y-92479000D02*
X165100000Y-89662000D01*
X123874000Y-105882000D02*
X122210000Y-105882000D01*
X143624000Y-114632000D02*
X144575000Y-114632000D01*
X132334000Y-86461500D02*
X132809000Y-86461500D01*
D77*
X93726000Y-109982000D02*
X96393000Y-112649000D01*
D75*
X97368000Y-117942000D02*
X97409000Y-117983000D01*
X131826000Y-59131000D02*
X131826000Y-57785000D01*
X118110000Y-100101500D02*
X118110000Y-98298000D01*
X140614500Y-119735500D02*
X140589000Y-119761000D01*
X193776500Y-82524500D02*
X193802000Y-82550000D01*
X145874000Y-94882000D02*
X145874000Y-95382000D01*
X193929000Y-73253600D02*
X193929000Y-71780500D01*
X190201000Y-92456000D02*
X189763500Y-92456000D01*
X144246500Y-91338500D02*
X144246500Y-92384500D01*
X132809000Y-86461500D02*
X134112000Y-87764500D01*
X140995500Y-124434500D02*
X140970000Y-124460000D01*
X72009000Y-75565000D02*
X72898000Y-74676000D01*
D77*
X93726000Y-109982000D02*
X96393000Y-109982000D01*
D75*
X176120000Y-97465000D02*
X177109000Y-97465000D01*
X192786000Y-128041500D02*
X192024000Y-128803500D01*
X142011500Y-56134000D02*
X142494000Y-56616500D01*
X123093000Y-113538000D02*
X123874000Y-112757000D01*
X189763500Y-131800500D02*
X190881000Y-130683000D01*
X190376000Y-92281000D02*
X190201000Y-92456000D01*
X140624000Y-93564000D02*
X140081000Y-94107000D01*
X190500000Y-92456000D02*
X190881000Y-92837000D01*
X121437500Y-113538000D02*
X121437500Y-114782500D01*
X106259000Y-132092000D02*
X109671000Y-132092000D01*
X189763500Y-73660000D02*
X190201000Y-73660000D01*
X140546000Y-56134000D02*
X142011500Y-56134000D01*
X193929000Y-71780500D02*
X193802000Y-71653500D01*
X194030500Y-138658500D02*
X194056000Y-138684000D01*
X137124000Y-92632000D02*
X137124000Y-91531000D01*
X126845000Y-93853000D02*
X126624000Y-93632000D01*
D77*
X72898000Y-74676000D02*
X68072000Y-74676000D01*
D75*
X98691500Y-142875000D02*
X98691500Y-142400000D01*
X126124000Y-114668000D02*
X125222000Y-115570000D01*
X190376000Y-71991000D02*
X190376000Y-71616000D01*
X83185000Y-139446000D02*
X83058000Y-139573000D01*
X139624000Y-92632000D02*
X139624000Y-88652000D01*
X144272000Y-56616500D02*
X142494000Y-56616500D01*
X145874000Y-97382000D02*
X144045000Y-97382000D01*
X194030500Y-119634000D02*
X194030500Y-121132500D01*
X192024000Y-73152000D02*
X191008000Y-74168000D01*
X193826800Y-111861600D02*
X193826800Y-110286300D01*
X192024000Y-72415500D02*
X192024000Y-73152000D01*
D74*
X166154000Y-98514000D02*
X166370000Y-98298000D01*
D75*
X126624000Y-93632000D02*
X126624000Y-92632000D01*
X192024000Y-91211500D02*
X192024000Y-91694000D01*
X126124000Y-92632000D02*
X126124000Y-90411000D01*
D74*
X165595000Y-98514000D02*
X166154000Y-98514000D01*
D75*
X193802000Y-71653500D02*
X192786000Y-71653500D01*
X190201000Y-73660000D02*
X190376000Y-73485000D01*
X194030500Y-101320500D02*
X194056000Y-101346000D01*
X190376000Y-73485000D02*
X190376000Y-71991000D01*
X98334000Y-142042500D02*
X98334000Y-139292000D01*
X164751000Y-85598000D02*
X166090500Y-85598000D01*
X144046000Y-101882000D02*
X144018000Y-101854000D01*
X193614000Y-79078000D02*
X193614000Y-80863500D01*
X132124000Y-113494000D02*
X132588000Y-113030000D01*
X101473000Y-123749000D02*
X101473000Y-124333000D01*
X110172500Y-131153000D02*
X111290000Y-131153000D01*
X127000000Y-87764500D02*
X127000000Y-88036500D01*
X145874000Y-112382000D02*
X145874000Y-113616000D01*
X130065500Y-59113000D02*
X130065500Y-58613000D01*
X98334000Y-139292000D02*
X98334000Y-138517000D01*
X194030500Y-121132500D02*
X194056000Y-121158000D01*
X122352000Y-98882000D02*
X122301000Y-98933000D01*
X128624000Y-92632000D02*
X128624000Y-93632000D01*
X190201000Y-130048000D02*
X190376000Y-129873000D01*
X126212500Y-117754500D02*
X126238000Y-117729000D01*
X128403000Y-93853000D02*
X126845000Y-93853000D01*
X164338000Y-106403000D02*
X166139000Y-108204000D01*
X163068000Y-106403000D02*
X164338000Y-106403000D01*
X139446000Y-88474000D02*
X139446000Y-88036500D01*
X119380000Y-104927500D02*
X119354500Y-104902000D01*
X134124000Y-92632000D02*
X134124000Y-94476000D01*
X192786000Y-90449500D02*
X192024000Y-91211500D01*
X122320000Y-96882000D02*
X122301000Y-96901000D01*
X133124000Y-114632000D02*
X133124000Y-113566000D01*
X97368000Y-116885800D02*
X97368000Y-117942000D01*
X189763500Y-93954500D02*
X190881000Y-92837000D01*
X83448000Y-125349000D02*
X82296000Y-125349000D01*
X130556000Y-86461500D02*
X128778000Y-86461500D01*
X189763500Y-75412500D02*
X191008000Y-74168000D01*
X192024000Y-91694000D02*
X190881000Y-92837000D01*
X145874000Y-93775000D02*
X145923000Y-93726000D01*
X126624000Y-92632000D02*
X126124000Y-92632000D01*
X174879000Y-95892500D02*
X174879000Y-97224000D01*
X127000000Y-88474000D02*
X127000000Y-88036500D01*
X141986000Y-119735500D02*
X140614500Y-119735500D01*
X149045500Y-97382000D02*
X149072500Y-97409000D01*
X145874000Y-113616000D02*
X145923000Y-113665000D01*
X72009000Y-76047500D02*
X72009000Y-75565000D01*
X82296000Y-125349000D02*
X81407000Y-126238000D01*
X192024000Y-129540000D02*
X190881000Y-130683000D01*
X134112000Y-87764500D02*
X134112000Y-88036500D01*
X190246000Y-130048000D02*
X190881000Y-130683000D01*
X144045000Y-97382000D02*
X144018000Y-97409000D01*
X193649000Y-129590800D02*
X193649000Y-128142500D01*
X98334000Y-138517000D02*
X98334000Y-138517000D01*
X193802000Y-110261500D02*
X192786000Y-110261500D01*
X123874000Y-98882000D02*
X122352000Y-98882000D01*
X193868000Y-137251500D02*
X194030500Y-137414000D01*
X143535400Y-125069600D02*
X143510000Y-125095000D01*
X151384000Y-133858000D02*
X151384000Y-132207000D01*
X193649000Y-128142500D02*
X193548000Y-128041500D01*
X189763500Y-130048000D02*
X190201000Y-130048000D01*
X140624000Y-92632000D02*
X140624000Y-93564000D01*
X134124000Y-94476000D02*
X134112000Y-94488000D01*
X143999000Y-92632000D02*
X143624000Y-92632000D01*
X193802000Y-90449500D02*
X192786000Y-90449500D01*
X144886000Y-125069600D02*
X144886000Y-123397500D01*
X189763500Y-94234000D02*
X189763500Y-93954500D01*
X131808000Y-59113000D02*
X131826000Y-59131000D01*
X192024000Y-111023500D02*
X192024000Y-111760000D01*
X194030500Y-137414000D02*
X194030500Y-138658500D01*
X100834000Y-124972000D02*
X100834000Y-127885000D01*
X103124000Y-123749000D02*
X104775000Y-123749000D01*
X193868000Y-99659500D02*
X194030500Y-99822000D01*
D77*
X91059000Y-109982000D02*
X93726000Y-109982000D01*
D75*
X126124000Y-90411000D02*
X126124000Y-89350000D01*
X189763500Y-114046000D02*
X189763500Y-114020500D01*
X126124000Y-114632000D02*
X126124000Y-114668000D01*
X134112000Y-88671500D02*
X134112000Y-92620000D01*
X144246500Y-91338500D02*
X144246500Y-91414500D01*
X130065500Y-60113000D02*
X130844000Y-60113000D01*
X175120000Y-97465000D02*
X176120000Y-97465000D01*
D77*
X88392000Y-74422000D02*
X85725000Y-71755000D01*
D75*
X134112000Y-92620000D02*
X134124000Y-92632000D01*
X94501900Y-123748900D02*
X94800400Y-123748900D01*
X90932000Y-120379000D02*
X91132000Y-120379000D01*
X94800400Y-123748900D02*
X95275400Y-123748900D01*
X95275400Y-123748900D02*
X95275400Y-124688600D01*
X95275400Y-124688600D02*
X93597490Y-126366510D01*
X91132000Y-120379000D02*
X94501900Y-123748900D01*
X94540000Y-129592000D02*
X96134000Y-129592000D01*
X93597490Y-126366510D02*
X93597490Y-128649490D01*
X93597490Y-128649490D02*
X94540000Y-129592000D01*
X109403000Y-134592000D02*
X106259000Y-134592000D01*
X94909000Y-134592000D02*
X96134000Y-134592000D01*
X93208000Y-134592000D02*
X94909000Y-134592000D01*
X106426000Y-123749000D02*
X106426000Y-125075000D01*
X97477999Y-129608999D02*
X97477999Y-133916001D01*
X104334000Y-129145998D02*
X103870999Y-129608999D01*
X96977200Y-124186400D02*
X96834000Y-124329600D01*
X104366000Y-134592000D02*
X105034000Y-134592000D01*
X108077000Y-123749000D02*
X106426000Y-123749000D01*
X106259000Y-134592000D02*
X105034000Y-134592000D01*
X96834000Y-128965000D02*
X96834000Y-128392000D01*
X104334000Y-127167000D02*
X104334000Y-129145998D01*
X103870999Y-129608999D02*
X103870999Y-134096999D01*
X110744000Y-123748800D02*
X108077200Y-123748800D01*
X109697500Y-134886500D02*
X109403000Y-134592000D01*
X108077200Y-123748800D02*
X108077000Y-123749000D01*
X91948000Y-133807000D02*
X92423000Y-133807000D01*
X92423000Y-133807000D02*
X93208000Y-134592000D01*
X96834000Y-127167000D02*
X96834000Y-128392000D01*
X103870999Y-129608999D02*
X97477999Y-129608999D01*
X103870999Y-134096999D02*
X104366000Y-134592000D01*
X96802000Y-134592000D02*
X96134000Y-134592000D01*
X96977200Y-123748900D02*
X96977200Y-124186400D01*
X96834000Y-124329600D02*
X96834000Y-127167000D01*
X97477999Y-133916001D02*
X96802000Y-134592000D01*
X110172500Y-134886500D02*
X109697500Y-134886500D01*
X106426000Y-125075000D02*
X104334000Y-127167000D01*
X97477999Y-129608999D02*
X96834000Y-128965000D01*
X92710000Y-127508000D02*
X92272500Y-127508000D01*
X94068298Y-130092000D02*
X94909000Y-130092000D01*
X94909000Y-130092000D02*
X96134000Y-130092000D01*
X92710000Y-127508000D02*
X92710000Y-128733702D01*
X92710000Y-128733702D02*
X94068298Y-130092000D01*
X90932000Y-126167500D02*
X90932000Y-124079000D01*
X92272500Y-127508000D02*
X90932000Y-126167500D01*
X190376000Y-70616000D02*
X191799500Y-70616000D01*
X193294000Y-70866000D02*
X195554500Y-70866000D01*
X193040000Y-70612000D02*
X193294000Y-70866000D01*
X192024000Y-70840500D02*
X192049500Y-70840500D01*
X192049500Y-70840500D02*
X192278000Y-70612000D01*
X191799500Y-70616000D02*
X192024000Y-70840500D01*
X192278000Y-70612000D02*
X193040000Y-70612000D01*
D76*
X192024000Y-109448500D02*
X195529000Y-109448500D01*
X190376000Y-109224000D02*
X191799500Y-109224000D01*
X195529000Y-109448500D02*
X195554500Y-109474000D01*
X191799500Y-109224000D02*
X192024000Y-109448500D01*
D75*
X193802000Y-70078500D02*
X195097500Y-70078500D01*
X190376000Y-70116000D02*
X193764500Y-70116000D01*
X193764500Y-70116000D02*
X193802000Y-70078500D01*
X195097500Y-70078500D02*
X195554500Y-69621500D01*
X195554500Y-69621500D02*
X195554500Y-69088000D01*
D76*
X193802000Y-108686500D02*
X194564000Y-108686500D01*
X194564000Y-108686500D02*
X195554500Y-107696000D01*
X193764500Y-108724000D02*
X193802000Y-108686500D01*
X190376000Y-108724000D02*
X193764500Y-108724000D01*
D75*
X192049500Y-89662000D02*
X192024000Y-89636500D01*
X195554500Y-89662000D02*
X192049500Y-89662000D01*
D76*
X190376000Y-89412000D02*
X191799500Y-89412000D01*
X191799500Y-89412000D02*
X192024000Y-89636500D01*
X190376000Y-127004000D02*
X191799500Y-127004000D01*
X195529000Y-127228500D02*
X195554500Y-127254000D01*
X191799500Y-127004000D02*
X192024000Y-127228500D01*
X192024000Y-127228500D02*
X195529000Y-127228500D01*
D75*
X194302500Y-88900000D02*
X195013500Y-88900000D01*
X195013500Y-88900000D02*
X195554500Y-88359000D01*
X193764500Y-88912000D02*
X193802000Y-88874500D01*
X193802000Y-88874500D02*
X194277000Y-88874500D01*
X190376000Y-88912000D02*
X193764500Y-88912000D01*
X194277000Y-88874500D02*
X194302500Y-88900000D01*
X195554500Y-88359000D02*
X195554500Y-87884000D01*
D76*
X194564000Y-126466500D02*
X195554500Y-125476000D01*
X193548000Y-126466500D02*
X194564000Y-126466500D01*
X193510500Y-126504000D02*
X193548000Y-126466500D01*
X190376000Y-126504000D02*
X193510500Y-126504000D01*
X67268998Y-117856000D02*
X66814000Y-117856000D01*
D75*
X66040000Y-117856000D02*
X65786000Y-117602000D01*
D76*
X70086500Y-118356000D02*
X70104000Y-118338500D01*
D75*
X75608000Y-109662000D02*
X73543000Y-109662000D01*
D76*
X68314000Y-118356000D02*
X70086500Y-118356000D01*
D75*
X73543000Y-109662000D02*
X73406000Y-109525000D01*
D76*
X66548000Y-120904000D02*
X64770000Y-120904000D01*
X68314000Y-118356000D02*
X67768998Y-118356000D01*
X70104000Y-118338500D02*
X72136000Y-118338500D01*
D75*
X76388000Y-109662000D02*
X75608000Y-109662000D01*
X73406000Y-111760000D02*
X73406000Y-109525000D01*
X76708000Y-109342000D02*
X76388000Y-109662000D01*
D76*
X68314000Y-118356000D02*
X68314000Y-119138000D01*
X67768998Y-118356000D02*
X67268998Y-117856000D01*
D75*
X75608000Y-107762000D02*
X76388000Y-107762000D01*
D76*
X68314000Y-119138000D02*
X66548000Y-120904000D01*
D75*
X76388000Y-107762000D02*
X76708000Y-108082000D01*
X73406000Y-112649000D02*
X73406000Y-111760000D01*
X76708000Y-108082000D02*
X76708000Y-109342000D01*
X66814000Y-117856000D02*
X66040000Y-117856000D01*
D76*
X64770000Y-120904000D02*
X62484000Y-123190000D01*
D77*
X74422000Y-98501000D02*
X79045000Y-98501000D01*
X72644000Y-98501000D02*
X72441000Y-98298000D01*
D75*
X69106000Y-99248000D02*
X70056000Y-98298000D01*
D77*
X72441000Y-98298000D02*
X70526000Y-98298000D01*
X74422000Y-98501000D02*
X72644000Y-98501000D01*
X79045000Y-98501000D02*
X80518000Y-97028000D01*
D75*
X70056000Y-98298000D02*
X70526000Y-98298000D01*
X68326000Y-99248000D02*
X69106000Y-99248000D01*
X83617000Y-109728000D02*
X83820000Y-109525000D01*
X88785500Y-104279500D02*
X88773000Y-104267000D01*
X88785500Y-107569000D02*
X88785500Y-104279500D01*
X84531000Y-109525000D02*
X86487000Y-107569000D01*
X81026000Y-109728000D02*
X83617000Y-109728000D01*
X80960000Y-109662000D02*
X81026000Y-109728000D01*
X86487000Y-107569000D02*
X88785500Y-107569000D01*
X77808000Y-109662000D02*
X80960000Y-109662000D01*
X83820000Y-109525000D02*
X84531000Y-109525000D01*
D77*
X68326000Y-100198000D02*
X68326000Y-102108000D01*
X68326000Y-102108000D02*
X68580000Y-102362000D01*
X70155000Y-101887000D02*
X70155000Y-102362000D01*
X70526000Y-99248000D02*
X69919186Y-99248000D01*
X69919186Y-99248000D02*
X69407093Y-99760093D01*
X69407093Y-101139093D02*
X70155000Y-101887000D01*
X69407093Y-99760093D02*
X69407093Y-101139093D01*
X70155000Y-107899000D02*
X70104000Y-107950000D01*
X70155000Y-102362000D02*
X70155000Y-107899000D01*
D78*
X85598000Y-115062000D02*
X77730000Y-115062000D01*
X77730000Y-115062000D02*
X77724000Y-115056000D01*
D75*
X76936500Y-114268500D02*
X77724000Y-115056000D01*
X76936500Y-112395000D02*
X76936500Y-114268500D01*
X61214000Y-115036500D02*
X64770000Y-115036500D01*
X64770000Y-114599000D02*
X65450000Y-113919000D01*
D78*
X85598000Y-112643000D02*
X88259000Y-109982000D01*
D75*
X77724000Y-115056000D02*
X73374000Y-115056000D01*
X73374000Y-115056000D02*
X72237000Y-113919000D01*
X64770000Y-115036500D02*
X64770000Y-114599000D01*
D78*
X85598000Y-115062000D02*
X85598000Y-112643000D01*
D75*
X65450000Y-113919000D02*
X72237000Y-113919000D01*
D77*
X60503000Y-107950000D02*
X60452000Y-108001000D01*
X66040000Y-103632000D02*
X66040000Y-100127000D01*
X64504000Y-105168000D02*
X66040000Y-103632000D01*
X64504000Y-107950000D02*
X60503000Y-107950000D01*
X59944000Y-123190000D02*
X59944000Y-110744000D01*
X64504000Y-107950000D02*
X64504000Y-105168000D01*
X59944000Y-110744000D02*
X60452000Y-110236000D01*
X60452000Y-108001000D02*
X58674000Y-108001000D01*
X60452000Y-110236000D02*
X60452000Y-108001000D01*
D75*
X127990500Y-62230000D02*
X127990500Y-60613000D01*
X127990500Y-60613000D02*
X127490500Y-60113000D01*
X102636000Y-69362000D02*
X104246000Y-69362000D01*
X102890000Y-71862000D02*
X103846000Y-71862000D01*
X114874000Y-68834000D02*
X115763000Y-69723000D01*
X109474000Y-63119000D02*
X110744000Y-63119000D01*
X117094000Y-71836000D02*
X115870000Y-71836000D01*
X112903000Y-63142000D02*
X114150000Y-63142000D01*
X107296000Y-65405000D02*
X107446000Y-65555000D01*
X127490500Y-59613000D02*
X127490500Y-59113000D01*
X106911000Y-78740000D02*
X106022000Y-79629000D01*
X107446000Y-74062000D02*
X107446000Y-74923180D01*
X107188000Y-64343000D02*
X105918000Y-64343000D01*
X108436000Y-73152000D02*
X107956000Y-73152000D01*
X114150000Y-63142000D02*
X114173000Y-63165000D01*
X107446000Y-65555000D02*
X107446000Y-67162000D01*
X107446000Y-74923180D02*
X106911000Y-75458180D01*
X107188000Y-64343000D02*
X107188000Y-65297000D01*
X107956000Y-73152000D02*
X107446000Y-73662000D01*
X102616000Y-75946000D02*
X103632000Y-75946000D01*
X127490500Y-58613000D02*
X130757000Y-55346500D01*
X106911000Y-78420000D02*
X106911000Y-78740000D01*
X108946000Y-74062000D02*
X108946000Y-73662000D01*
X135925500Y-55184000D02*
X135763000Y-55346500D01*
X112268000Y-84200000D02*
X113918000Y-84200000D01*
X105946000Y-74062000D02*
X105946000Y-73662000D01*
X104246000Y-69862000D02*
X104246000Y-69362000D01*
X111910000Y-63142000D02*
X111887000Y-63119000D01*
X127490500Y-59113000D02*
X127490500Y-58613000D01*
X101392000Y-71862000D02*
X102890000Y-71862000D01*
X106911000Y-75458180D02*
X106911000Y-78420000D01*
X108946000Y-67162000D02*
X108946000Y-66060000D01*
X118318000Y-71836000D02*
X118364000Y-71882000D01*
X108946000Y-66060000D02*
X108821000Y-65935000D01*
X150345000Y-109751000D02*
X148590000Y-111506000D01*
X101854000Y-68303000D02*
X100584000Y-68303000D01*
X138346000Y-55184000D02*
X135925500Y-55184000D01*
X101854000Y-68598000D02*
X102493000Y-69237000D01*
X106022000Y-79629000D02*
X105918000Y-79629000D01*
X123418500Y-58648500D02*
X123190000Y-58420000D01*
X108458000Y-76223000D02*
X108481000Y-76200000D01*
X130757000Y-55346500D02*
X135763000Y-55346500D01*
X102511000Y-69237000D02*
X102636000Y-69362000D01*
X105918000Y-65405000D02*
X105918000Y-67134000D01*
X108821000Y-63452000D02*
X109154000Y-63119000D01*
X108458000Y-77470000D02*
X108458000Y-76223000D01*
X108436000Y-73152000D02*
X108331000Y-73152000D01*
X102493000Y-69237000D02*
X102511000Y-69237000D01*
X103846000Y-71862000D02*
X104246000Y-71862000D01*
X105918000Y-67134000D02*
X105946000Y-67162000D01*
X112903000Y-63142000D02*
X111910000Y-63142000D01*
X110744000Y-63119000D02*
X111887000Y-63119000D01*
X108946000Y-74062000D02*
X108946000Y-75735000D01*
X100904000Y-71374000D02*
X101392000Y-71862000D01*
X150345000Y-109347000D02*
X150345000Y-109751000D01*
X121666000Y-66294000D02*
X121666000Y-64770000D01*
X114554000Y-74884000D02*
X113330000Y-74884000D01*
X102636000Y-69362000D02*
X102636000Y-69362000D01*
X107188000Y-65297000D02*
X107296000Y-65405000D01*
X112880000Y-63119000D02*
X112903000Y-63142000D01*
X108821000Y-65935000D02*
X108821000Y-63452000D01*
X106456000Y-73152000D02*
X106936000Y-73152000D01*
X113330000Y-74884000D02*
X113284000Y-74930000D01*
X113918000Y-84200000D02*
X113919000Y-84201000D01*
X108946000Y-73662000D02*
X108436000Y-73152000D01*
X127455000Y-58648500D02*
X127490500Y-58613000D01*
X125476000Y-58648500D02*
X127455000Y-58648500D01*
X125476000Y-58648500D02*
X123418500Y-58648500D01*
X117094000Y-71836000D02*
X118318000Y-71836000D01*
X115870000Y-71836000D02*
X115824000Y-71882000D01*
X114554000Y-68834000D02*
X114874000Y-68834000D01*
X109154000Y-63119000D02*
X109474000Y-63119000D01*
X100330000Y-71374000D02*
X100904000Y-71374000D01*
X114508000Y-68880000D02*
X114554000Y-68834000D01*
X101854000Y-68303000D02*
X101854000Y-68598000D01*
X105918000Y-64389000D02*
X105918000Y-65451000D01*
X106936000Y-73152000D02*
X107446000Y-73662000D01*
X107446000Y-73662000D02*
X107446000Y-74062000D01*
X113284000Y-68880000D02*
X114508000Y-68880000D01*
X113284000Y-74930000D02*
X111379000Y-74930000D01*
X115763000Y-69723000D02*
X117348000Y-69723000D01*
X108946000Y-75735000D02*
X108481000Y-76200000D01*
X105946000Y-73662000D02*
X106456000Y-73152000D01*
X91242600Y-129159000D02*
X90805100Y-129159000D01*
X90805000Y-127033000D02*
X90805000Y-127508000D01*
X90805000Y-127508000D02*
X90805000Y-129158900D01*
X92329000Y-129159000D02*
X91242600Y-129159000D01*
X89121000Y-125349000D02*
X90805000Y-127033000D01*
X96134000Y-130592000D02*
X93762000Y-130592000D01*
X90805000Y-129158900D02*
X90805100Y-129159000D01*
X85598000Y-125349000D02*
X89121000Y-125349000D01*
X93762000Y-130592000D02*
X92329000Y-129159000D01*
X85598000Y-125349000D02*
X85598000Y-120396000D01*
X88392000Y-133807000D02*
X86411000Y-133807000D01*
X94018318Y-133092000D02*
X94909000Y-133092000D01*
X85344000Y-134874000D02*
X85344000Y-137296000D01*
X88392000Y-133807000D02*
X90170000Y-133807000D01*
X90170000Y-133369500D02*
X90495010Y-133044490D01*
X90170000Y-133807000D02*
X90170000Y-133369500D01*
X94909000Y-133092000D02*
X96134000Y-133092000D01*
X93970808Y-133044490D02*
X94018318Y-133092000D01*
X90495010Y-133044490D02*
X93970808Y-133044490D01*
X86411000Y-133807000D02*
X85344000Y-134874000D01*
X80518000Y-63332000D02*
X75047000Y-63332000D01*
X75047000Y-63332000D02*
X74676000Y-63703000D01*
X74676000Y-63703000D02*
X71730000Y-63703000D01*
X71730000Y-63703000D02*
X71679000Y-63754000D01*
X71882000Y-59944000D02*
X71882000Y-63551000D01*
X71882000Y-63551000D02*
X71679000Y-63754000D01*
X68377000Y-63754000D02*
X70104000Y-63754000D01*
X161061500Y-85598000D02*
X162401000Y-85598000D01*
X127254000Y-107442000D02*
X127254000Y-107950000D01*
X90360500Y-106362500D02*
X90170000Y-106172000D01*
X90360500Y-107569000D02*
X94615000Y-107569000D01*
X76830000Y-83571000D02*
X77724000Y-82677000D01*
X74676000Y-84587000D02*
X75692000Y-83571000D01*
X74676000Y-86741000D02*
X74676000Y-84587000D01*
X138702000Y-53340000D02*
X140546000Y-55184000D01*
X137160000Y-53340000D02*
X138702000Y-53340000D01*
X125322000Y-109882000D02*
X123874000Y-109882000D01*
X127000000Y-107188000D02*
X127254000Y-107442000D01*
X161061500Y-83845500D02*
X161061500Y-85598000D01*
X158496000Y-81280000D02*
X161061500Y-83845500D01*
X119089010Y-111034990D02*
X120712490Y-111034990D01*
X90360500Y-107569000D02*
X90360500Y-106362500D01*
X94615000Y-107569000D02*
X95250000Y-108204000D01*
X118872000Y-111252000D02*
X119089010Y-111034990D01*
X75438000Y-87503000D02*
X74676000Y-86741000D01*
X108204000Y-111252000D02*
X118872000Y-111252000D01*
X126492000Y-107188000D02*
X127000000Y-107188000D01*
X75692000Y-83571000D02*
X76830000Y-83571000D01*
X75438000Y-96266000D02*
X75438000Y-92456000D01*
X127254000Y-107950000D02*
X125322000Y-109882000D01*
X120712490Y-111034990D02*
X121437500Y-111760000D01*
X75438000Y-92456000D02*
X75438000Y-87503000D01*
X74676000Y-65278000D02*
X74676000Y-67056000D01*
X74676000Y-65278000D02*
X76657000Y-65278000D01*
X76708000Y-67056000D02*
X76708000Y-65329000D01*
X76708000Y-65329000D02*
X76657000Y-65278000D01*
X96035000Y-71859000D02*
X95377000Y-72517000D01*
X92253000Y-75217000D02*
X93556000Y-73914000D01*
X102212000Y-67333000D02*
X102870000Y-66675000D01*
X105941000Y-78112240D02*
X106250620Y-77802620D01*
X114173000Y-64973200D02*
X114173000Y-64135000D01*
X100584000Y-67333000D02*
X101854000Y-67333000D01*
X110744000Y-64089000D02*
X111841000Y-64089000D01*
X108509000Y-83602000D02*
X108458000Y-83653000D01*
X114630200Y-73837800D02*
X114554000Y-73914000D01*
X101854000Y-67333000D02*
X102212000Y-67333000D01*
X101646000Y-75946000D02*
X101646000Y-75011000D01*
X115138200Y-73837800D02*
X114630200Y-73837800D01*
X109474000Y-77516000D02*
X109428000Y-77470000D01*
X105918000Y-63373000D02*
X104648000Y-63373000D01*
X115163600Y-70053200D02*
X114803200Y-70053200D01*
X111841000Y-64089000D02*
X111887000Y-64135000D01*
X107188000Y-63373000D02*
X105918000Y-63373000D01*
X96035000Y-71628000D02*
X96035000Y-71859000D01*
X114803200Y-70053200D02*
X114554000Y-69804000D01*
X92253000Y-75692000D02*
X92253000Y-75217000D01*
X115671500Y-57912000D02*
X114300000Y-57912000D01*
X108509000Y-82550000D02*
X108509000Y-83602000D01*
X93556000Y-73914000D02*
X94234000Y-73914000D01*
X105941000Y-78740000D02*
X105941000Y-78112240D01*
X101646000Y-75011000D02*
X101727000Y-74930000D01*
X117094000Y-70866000D02*
X118364000Y-70866000D01*
X108001000Y-57277000D02*
X109347000Y-57277000D01*
X100330000Y-70404000D02*
X100330000Y-69342000D01*
X109474000Y-77901800D02*
X109474000Y-77516000D01*
X106934000Y-80772000D02*
X106934000Y-80297000D01*
X107950000Y-78586642D02*
X107387980Y-78024622D01*
X106934000Y-80772000D02*
X106934000Y-82550000D01*
X107946000Y-74062000D02*
X107946000Y-75059590D01*
X107946000Y-75059590D02*
X107387980Y-75617610D01*
X107387980Y-75617610D02*
X107387980Y-78024622D01*
X106934000Y-80297000D02*
X107950000Y-79281000D01*
X107950000Y-79281000D02*
X107950000Y-78586642D01*
X107837990Y-75804010D02*
X108446000Y-75196000D01*
X108509000Y-78509232D02*
X107837990Y-77838222D01*
X108509000Y-80772000D02*
X108509000Y-80297000D01*
X107837990Y-77838222D02*
X107837990Y-75804010D01*
X108509000Y-80297000D02*
X108512019Y-80293981D01*
X108446000Y-75015768D02*
X108446000Y-74062000D01*
X108446000Y-75196000D02*
X108446000Y-75015768D01*
X108509000Y-80772000D02*
X108509000Y-78509232D01*
X106375000Y-57328000D02*
X106426000Y-57277000D01*
X107946000Y-61101000D02*
X106375000Y-59530000D01*
X107946000Y-67162000D02*
X107946000Y-61101000D01*
X106375000Y-59530000D02*
X106375000Y-59055000D01*
X106375000Y-59055000D02*
X106375000Y-57328000D01*
X108446000Y-60464000D02*
X108458000Y-60452000D01*
X108458000Y-60452000D02*
X108458000Y-59817000D01*
X108458000Y-59563000D02*
X108458000Y-59817000D01*
X107950000Y-59055000D02*
X108458000Y-59563000D01*
X108446000Y-66941000D02*
X108446000Y-60464000D01*
X108446000Y-67162000D02*
X108446000Y-66941000D01*
X112268000Y-82550000D02*
X112268000Y-80772000D01*
X112268000Y-82550000D02*
X114020000Y-82550000D01*
X112268000Y-80772000D02*
X112268000Y-79756000D01*
X112268000Y-79756000D02*
X111506000Y-78994000D01*
X86380000Y-93098000D02*
X86380000Y-91948000D01*
X87630000Y-91948000D02*
X91135000Y-88443000D01*
X92489000Y-88443000D02*
X92964000Y-88443000D01*
X87516000Y-94234000D02*
X86380000Y-93098000D01*
X87907000Y-94234000D02*
X87516000Y-94234000D01*
X91135000Y-88443000D02*
X92489000Y-88443000D01*
X86380000Y-91948000D02*
X87630000Y-91948000D01*
X118110000Y-66231000D02*
X116631000Y-66231000D01*
X120015000Y-66293000D02*
X120016000Y-66294000D01*
X120015000Y-64529000D02*
X120015000Y-66293000D01*
X116631000Y-66231000D02*
X116078000Y-66784000D01*
X118173000Y-66294000D02*
X118110000Y-66231000D01*
X116078000Y-66784000D02*
X116078000Y-67184000D01*
X120016000Y-66294000D02*
X118173000Y-66294000D01*
X90678000Y-77318000D02*
X90526000Y-77470000D01*
X90678000Y-75692000D02*
X90678000Y-77318000D01*
X90678000Y-75217000D02*
X95537000Y-70358000D01*
X90678000Y-75692000D02*
X90678000Y-75217000D01*
X95537000Y-70358000D02*
X95740000Y-70358000D01*
X95740000Y-70358000D02*
X96035000Y-70358000D01*
X103846000Y-70362000D02*
X104246000Y-70362000D01*
X97005000Y-70358000D02*
X98298000Y-70358000D01*
X103520904Y-70084926D02*
X103797978Y-70362000D01*
X103797978Y-70362000D02*
X103846000Y-70362000D01*
X98298000Y-70358000D02*
X98420347Y-70480347D01*
X101619074Y-70084926D02*
X103520904Y-70084926D01*
X97005000Y-71628000D02*
X98298000Y-71628000D01*
X104241895Y-70857895D02*
X104246000Y-70862000D01*
X102878105Y-70857895D02*
X104241895Y-70857895D01*
X98298000Y-71628000D02*
X98425000Y-71501000D01*
D74*
X163195000Y-98514000D02*
X162395000Y-98514000D01*
D75*
X163830000Y-93449000D02*
X162560000Y-93449000D01*
D74*
X163830000Y-93449000D02*
X163830000Y-96012000D01*
X163195000Y-98514000D02*
X163195000Y-98514000D01*
X164407499Y-100526499D02*
X164407499Y-105363501D01*
D75*
X165608000Y-105433000D02*
X164338000Y-105433000D01*
D74*
X164407499Y-105363501D02*
X164338000Y-105433000D01*
X163995000Y-100114000D02*
X164407499Y-100526499D01*
D75*
X161798000Y-105433000D02*
X163068000Y-105433000D01*
D74*
X163068000Y-102641000D02*
X163068000Y-105433000D01*
D75*
X160528000Y-105433000D02*
X161798000Y-105433000D01*
D74*
X163995000Y-101714000D02*
X163068000Y-102641000D01*
X159512000Y-105387000D02*
X160528000Y-106403000D01*
D75*
X167640000Y-92479000D02*
X166370000Y-92479000D01*
X160528000Y-106403000D02*
X161798000Y-106403000D01*
D74*
X167894000Y-104394000D02*
X168884500Y-104394000D01*
D75*
X169164000Y-96543000D02*
X170434000Y-96543000D01*
D74*
X164795000Y-97714000D02*
X164795000Y-98514000D01*
X168681490Y-97025510D02*
X166620990Y-97025510D01*
X163995000Y-97714000D02*
X164795000Y-97714000D01*
X169164000Y-96543000D02*
X168681490Y-97025510D01*
D75*
X169164000Y-94003000D02*
X167640000Y-92479000D01*
D74*
X159512000Y-105156000D02*
X159512000Y-105387000D01*
D75*
X169164000Y-96543000D02*
X169164000Y-94003000D01*
D74*
X160020000Y-104648000D02*
X159512000Y-105156000D01*
X167640000Y-104140000D02*
X167894000Y-104394000D01*
X165595000Y-100114000D02*
X165595000Y-100914000D01*
X166620990Y-97025510D02*
X166370000Y-97276500D01*
D75*
X165100000Y-96609000D02*
X164795000Y-96914000D01*
X165100000Y-93449000D02*
X165100000Y-96609000D01*
X166370000Y-93449000D02*
X167640000Y-93449000D01*
X164795000Y-96914000D02*
X163995000Y-96914000D01*
X165100000Y-93449000D02*
X166370000Y-93449000D01*
D74*
X163808999Y-97326499D02*
X165207499Y-97326499D01*
X167693000Y-97714000D02*
X167894000Y-97513000D01*
D75*
X167718400Y-97688600D02*
X167894000Y-97513000D01*
D74*
X165207499Y-97326499D02*
X165395001Y-97514001D01*
X165395001Y-97514001D02*
X165595000Y-97714000D01*
X165595000Y-97714000D02*
X167693000Y-97714000D01*
D75*
X167894000Y-97513000D02*
X169164000Y-97513000D01*
D74*
X163195000Y-97714000D02*
X163421498Y-97714000D01*
D75*
X170434000Y-97513000D02*
X169164000Y-97513000D01*
D74*
X163421498Y-97714000D02*
X163808999Y-97326499D01*
D75*
X66040000Y-132969000D02*
X68326000Y-132969000D01*
X62121000Y-131953000D02*
X61468000Y-131953000D01*
X61468000Y-131953000D02*
X60960000Y-131445000D01*
X63821000Y-131703000D02*
X65273761Y-131703000D01*
X65273761Y-131703000D02*
X65299807Y-131729046D01*
D76*
X68875500Y-132419500D02*
X68326000Y-132969000D01*
X69515978Y-132554500D02*
X96096500Y-132554500D01*
X96096500Y-132554500D02*
X96134000Y-132592000D01*
X69515978Y-132554500D02*
X69380978Y-132419500D01*
X69380978Y-132419500D02*
X68875500Y-132419500D01*
D75*
X68326000Y-131445000D02*
X68326000Y-131900490D01*
X68326000Y-131900490D02*
X67945000Y-132281490D01*
X62620998Y-131453000D02*
X63370998Y-132203000D01*
X63370998Y-132203000D02*
X63821000Y-132203000D01*
X64987806Y-132379047D02*
X64811759Y-132203000D01*
X62121000Y-131453000D02*
X62620998Y-131453000D01*
X67945000Y-132281490D02*
X65765508Y-132281490D01*
X64811759Y-132203000D02*
X63821000Y-132203000D01*
X65765508Y-132281490D02*
X65667951Y-132379047D01*
X65667951Y-132379047D02*
X64987806Y-132379047D01*
D76*
X68875500Y-131994500D02*
X68326000Y-131445000D01*
X96096500Y-132129500D02*
X96134000Y-132092000D01*
X69692022Y-132129500D02*
X69557022Y-131994500D01*
X69557022Y-131994500D02*
X68875500Y-131994500D01*
X69692022Y-132129500D02*
X96096500Y-132129500D01*
D75*
X111546000Y-70362000D02*
X111146000Y-70362000D01*
X115824000Y-70912000D02*
X112096000Y-70912000D01*
X112096000Y-70912000D02*
X111546000Y-70362000D01*
X109446000Y-76195000D02*
X109451000Y-76200000D01*
X109446000Y-74062000D02*
X109446000Y-76195000D01*
X111744000Y-73960000D02*
X111146000Y-73362000D01*
X113284000Y-73960000D02*
X111744000Y-73960000D01*
X113284000Y-69850000D02*
X111158000Y-69850000D01*
X111158000Y-69850000D02*
X111146000Y-69862000D01*
X112903000Y-66105000D02*
X111146000Y-67862000D01*
X112903000Y-64747000D02*
X112903000Y-64112000D01*
X112903000Y-64747000D02*
X112903000Y-66105000D01*
X109474000Y-67134000D02*
X109446000Y-67162000D01*
X109474000Y-64724000D02*
X109474000Y-64089000D01*
X109474000Y-64724000D02*
X109474000Y-67134000D01*
X66802000Y-63754000D02*
X66802000Y-59944000D01*
X63754000Y-63703000D02*
X66751000Y-63703000D01*
X66751000Y-63703000D02*
X66802000Y-63754000D01*
X63678000Y-63627000D02*
X63754000Y-63703000D01*
X59436000Y-63627000D02*
X63678000Y-63627000D01*
X69088000Y-84455000D02*
X65837000Y-84455000D01*
X65837000Y-84455000D02*
X65786000Y-84404000D01*
X65786000Y-81153000D02*
X65786000Y-84404000D01*
X59512000Y-84404000D02*
X59436000Y-84328000D01*
X65710000Y-84328000D02*
X65786000Y-84404000D01*
X65786000Y-84404000D02*
X59512000Y-84404000D01*
X141737000Y-111882000D02*
X141732000Y-111887000D01*
X145874000Y-111882000D02*
X141737000Y-111882000D01*
X142300002Y-111382000D02*
X141732000Y-110871000D01*
X145874000Y-111382000D02*
X142300002Y-111382000D01*
X141789002Y-110871000D02*
X141732000Y-110871000D01*
X142816002Y-110882000D02*
X141804999Y-109870997D01*
X145874000Y-110882000D02*
X142816002Y-110882000D01*
X141804999Y-109870997D02*
X141732000Y-109870997D01*
X141804999Y-108870994D02*
X141732000Y-108870994D01*
X143316005Y-110382000D02*
X141804999Y-108870994D01*
X145874000Y-110382000D02*
X143316005Y-110382000D01*
X104267000Y-78867000D02*
X104267000Y-86360000D01*
X106426000Y-76708000D02*
X104267000Y-78867000D01*
X106946000Y-74892836D02*
X106426000Y-75412836D01*
X106946000Y-74062000D02*
X106946000Y-74892836D01*
X103505000Y-87122000D02*
X97917000Y-87122000D01*
X106426000Y-75412836D02*
X106426000Y-76708000D01*
X97028000Y-89662000D02*
X98425000Y-91059000D01*
X97028000Y-88011000D02*
X97028000Y-89662000D01*
X104267000Y-86360000D02*
X103505000Y-87122000D01*
X97917000Y-87122000D02*
X97028000Y-88011000D01*
X97575001Y-92749001D02*
X98425000Y-93599000D01*
X106446000Y-74062000D02*
X106446000Y-74756426D01*
X96652990Y-91826990D02*
X97575001Y-92749001D01*
X103251000Y-86741000D02*
X97767656Y-86741000D01*
X96652990Y-87855666D02*
X96652990Y-91826990D01*
X105975990Y-75226436D02*
X105975990Y-76521600D01*
X103816990Y-86175010D02*
X103251000Y-86741000D01*
X105975990Y-76521600D02*
X103816990Y-78680600D01*
X97767656Y-86741000D02*
X96652990Y-87855666D01*
X103816990Y-78680600D02*
X103816990Y-86175010D01*
X106446000Y-74756426D02*
X105975990Y-75226436D01*
X97612321Y-86365991D02*
X96277980Y-87700332D01*
X103366980Y-78494200D02*
X103366980Y-85990020D01*
X103366980Y-85990020D02*
X102991010Y-86365990D01*
X105446000Y-76415180D02*
X103366980Y-78494200D01*
X96277980Y-93991980D02*
X97575001Y-95289001D01*
X102991010Y-86365990D02*
X97612321Y-86365991D01*
X97575001Y-95289001D02*
X98425000Y-96139000D01*
X96277980Y-87700332D02*
X96277980Y-93991980D01*
X105446000Y-74062000D02*
X105446000Y-76415180D01*
X102870000Y-78232000D02*
X102870000Y-85598000D01*
X102870000Y-85598000D02*
X102477020Y-85990980D01*
X97456988Y-85990980D02*
X95902970Y-87544998D01*
X104946000Y-74062000D02*
X104946000Y-76156000D01*
X104946000Y-76156000D02*
X102870000Y-78232000D01*
X95902970Y-87544998D02*
X95902970Y-96156970D01*
X95902970Y-96156970D02*
X97575001Y-97829001D01*
X102477020Y-85990980D02*
X97456988Y-85990980D01*
X97575001Y-97829001D02*
X98425000Y-98679000D01*
D76*
X202759238Y-74450000D02*
X206627000Y-74450000D01*
X201803781Y-75389482D02*
X201818729Y-75454977D01*
X201465499Y-75992290D02*
X201412976Y-75950405D01*
X201889761Y-75143761D02*
X201847876Y-75196284D01*
X201818730Y-75256809D02*
X201803780Y-75322304D01*
X200935169Y-76098353D02*
X198843022Y-78190500D01*
X202671380Y-74362142D02*
X202759238Y-74450000D01*
X201803780Y-75322304D02*
X201803781Y-75389482D01*
X201889762Y-75568025D02*
X202172605Y-75850868D01*
X202120083Y-76317018D02*
X202059556Y-76346166D01*
X206627000Y-74450000D02*
X208151000Y-74450000D01*
X198843022Y-78190500D02*
X197196501Y-78190500D01*
X201352450Y-75921257D02*
X201286955Y-75906309D01*
X201286955Y-75906309D02*
X201219777Y-75906308D01*
X201412976Y-75950405D02*
X201352450Y-75921257D01*
X202671380Y-74362142D02*
X201889761Y-75143761D01*
X196309001Y-79078000D02*
X195514000Y-79078000D01*
X201926883Y-76361115D02*
X201861390Y-76346165D01*
X201861390Y-76346165D02*
X201800863Y-76317019D01*
X202172605Y-76275132D02*
X202120083Y-76317018D01*
X202172605Y-75850868D02*
X202214490Y-75903391D01*
X202258586Y-76029412D02*
X202258587Y-76096590D01*
X202243638Y-75963917D02*
X202258586Y-76029412D01*
X201847877Y-75515502D02*
X201889762Y-75568025D01*
X201847876Y-75196284D02*
X201818730Y-75256809D01*
X197196501Y-78190500D02*
X196309001Y-79078000D01*
X202214490Y-75903391D02*
X202243638Y-75963917D01*
X201994063Y-76361114D02*
X201926883Y-76361115D01*
X202214489Y-76222611D02*
X202172605Y-76275132D01*
X201041234Y-75992289D02*
X200935169Y-76098353D01*
X202258587Y-76096590D02*
X202243637Y-76162085D01*
X202059556Y-76346166D02*
X201994063Y-76361114D01*
X201219777Y-75906308D02*
X201154282Y-75921258D01*
X202671380Y-74362142D02*
X202679574Y-74353948D01*
X202243637Y-76162085D02*
X202214489Y-76222611D01*
X201818729Y-75454977D02*
X201847877Y-75515502D01*
X201800863Y-76317019D02*
X201748341Y-76275132D01*
X201154282Y-75921258D02*
X201093756Y-75950406D01*
X201093756Y-75950406D02*
X201041234Y-75992289D01*
X201748341Y-76275132D02*
X201465499Y-75992290D01*
X205740000Y-73406000D02*
X206105998Y-73406000D01*
X202503538Y-73928940D02*
X203693060Y-73928940D01*
X197145490Y-77765490D02*
X196258000Y-76878000D01*
X209931000Y-73430000D02*
X208431000Y-73430000D01*
X202495336Y-73937142D02*
X202503530Y-73928948D01*
X202503538Y-73928940D02*
X202495336Y-73937142D01*
X196258000Y-76878000D02*
X195514000Y-76878000D01*
X198666978Y-77765490D02*
X197145490Y-77765490D01*
X202503528Y-73928940D02*
X198666978Y-77765490D01*
X202503538Y-73928940D02*
X202503528Y-73928940D01*
X203693060Y-73928940D02*
X205217060Y-73928940D01*
X205217060Y-73928940D02*
X205740000Y-73406000D01*
X206105998Y-73406000D02*
X207899000Y-73406000D01*
D75*
X208431000Y-73430000D02*
X208177000Y-73430000D01*
X208177000Y-73430000D02*
X208157001Y-73410001D01*
X208157001Y-73410001D02*
X207899000Y-73410001D01*
D76*
X200805881Y-115469726D02*
X200763996Y-115417203D01*
X200571755Y-114984779D02*
X200600903Y-114924254D01*
X203495522Y-113358000D02*
X203503043Y-113291243D01*
X200600903Y-114924254D02*
X200642789Y-114871732D01*
X201420283Y-114334419D02*
X201405335Y-114268925D01*
X200763996Y-115417203D02*
X200642788Y-115295995D01*
X202888000Y-113291243D02*
X202895522Y-113358000D01*
X195768000Y-117686000D02*
X196563001Y-117686000D01*
X202895522Y-113529413D02*
X202903043Y-113596169D01*
X203488000Y-113596169D02*
X203495522Y-113529413D01*
X201698505Y-114814397D02*
X201698505Y-114747218D01*
X201683556Y-114681724D02*
X201654409Y-114621198D01*
X203495522Y-113529413D02*
X203495522Y-113358000D01*
X200849977Y-115662925D02*
X200849977Y-115595746D01*
X203128765Y-113821891D02*
X203195522Y-113829413D01*
X196563001Y-117686000D02*
X197450501Y-116798500D01*
X203503043Y-113291243D02*
X203525231Y-113227834D01*
X203608475Y-113123450D02*
X203665356Y-113087709D01*
X203262278Y-113821891D02*
X203325687Y-113799703D01*
X200755837Y-114800700D02*
X200821331Y-114785751D01*
X203560972Y-113170953D02*
X203608475Y-113123450D01*
X201405335Y-114201746D02*
X201420283Y-114136251D01*
X200585453Y-115927449D02*
X200650948Y-115912501D01*
X200888510Y-114785751D02*
X200954004Y-114800700D01*
X201654409Y-114940417D02*
X201683556Y-114879891D01*
X201683556Y-114879891D02*
X201698505Y-114814397D01*
X200642788Y-115295995D02*
X200600903Y-115243473D01*
X201597382Y-113917140D02*
X202526022Y-112988500D01*
X204638572Y-113058000D02*
X206627000Y-113058000D01*
X202865812Y-113227834D02*
X202888000Y-113291243D01*
X201067053Y-114871733D02*
X201188260Y-114992940D01*
X202595522Y-113058000D02*
X202662278Y-113065521D01*
X200763996Y-115841468D02*
X200805881Y-115788945D01*
X201449431Y-114075726D02*
X201491317Y-114023204D01*
X201654409Y-114621198D02*
X201612524Y-114568675D01*
X201491317Y-114023204D02*
X201597382Y-113917140D01*
X200835028Y-115728419D02*
X200849977Y-115662925D01*
X200695311Y-114829847D02*
X200755837Y-114800700D01*
X200642789Y-114871732D02*
X200642789Y-114871733D01*
X200571755Y-115182947D02*
X200556807Y-115117453D01*
X199846783Y-115678375D02*
X199907309Y-115649228D01*
X201366802Y-115078921D02*
X201433981Y-115078921D01*
X203665356Y-113087709D02*
X203728765Y-113065521D01*
X203325687Y-113799703D02*
X203382568Y-113763962D01*
X203430071Y-113716459D02*
X203465812Y-113659578D01*
X200218525Y-115720261D02*
X200339732Y-115841468D01*
X199972803Y-115634279D02*
X200039982Y-115634279D01*
X199794261Y-115720261D02*
X199846783Y-115678375D01*
X200642789Y-114871733D02*
X200695311Y-114829847D01*
X202782568Y-113123450D02*
X202830071Y-113170953D01*
X200849977Y-115595746D02*
X200835028Y-115530252D01*
X201449431Y-114394945D02*
X201420283Y-114334419D01*
X203382568Y-113763962D02*
X203430071Y-113716459D01*
X200339732Y-115841468D02*
X200392254Y-115883353D01*
X201405335Y-114268925D02*
X201405335Y-114201746D01*
X203795522Y-113058000D02*
X204638572Y-113058000D01*
X202830071Y-113170953D02*
X202865812Y-113227834D01*
X200039982Y-115634279D02*
X200105476Y-115649228D01*
X202960972Y-113716459D02*
X203008475Y-113763962D01*
X200954004Y-114800700D02*
X201014530Y-114829847D01*
X200805881Y-115788945D02*
X200835028Y-115728419D01*
X197450501Y-116798500D02*
X198716022Y-116798500D01*
X203065356Y-113799703D02*
X203128765Y-113821891D01*
X200600903Y-115243473D02*
X200571755Y-115182947D01*
X199907309Y-115649228D02*
X199972803Y-115634279D01*
X201612524Y-114568675D02*
X201491316Y-114447467D01*
X203008475Y-113763962D02*
X203065356Y-113799703D01*
X201698505Y-114747218D02*
X201683556Y-114681724D01*
X206627000Y-113058000D02*
X208151000Y-113058000D01*
X203728765Y-113065521D02*
X203795522Y-113058000D01*
X201612524Y-114992940D02*
X201654409Y-114940417D01*
X201188260Y-114992940D02*
X201240782Y-115034825D01*
X200105476Y-115649228D02*
X200166002Y-115678375D01*
X200821331Y-114785751D02*
X200888510Y-114785751D01*
X200392254Y-115883353D02*
X200452780Y-115912501D01*
X203195522Y-113829413D02*
X203262278Y-113821891D01*
X200556807Y-115117453D02*
X200556807Y-115050274D01*
X200452780Y-115912501D02*
X200518274Y-115927449D01*
X203465812Y-113659578D02*
X203488000Y-113596169D01*
X201420283Y-114136251D02*
X201449431Y-114075726D01*
X202925231Y-113659578D02*
X202960972Y-113716459D01*
X200835028Y-115530252D02*
X200805881Y-115469726D01*
X204638572Y-113058000D02*
X204722000Y-113058000D01*
X201499476Y-115063973D02*
X201560001Y-115034825D01*
X201491316Y-114447467D02*
X201449431Y-114394945D01*
X200556807Y-115050274D02*
X200571755Y-114984779D01*
X198716022Y-116798500D02*
X199794261Y-115720261D01*
X200650948Y-115912501D02*
X200711473Y-115883353D01*
X201301308Y-115063973D02*
X201366802Y-115078921D01*
X202903043Y-113596169D02*
X202925231Y-113659578D01*
X202662278Y-113065521D02*
X202725687Y-113087709D01*
X202725687Y-113087709D02*
X202782568Y-113123450D01*
X201560001Y-115034825D02*
X201612524Y-114992940D01*
X203525231Y-113227834D02*
X203560972Y-113170953D01*
X202526022Y-112988500D02*
X202595522Y-113058000D01*
X200711473Y-115883353D02*
X200763996Y-115841468D01*
X200518274Y-115927449D02*
X200585453Y-115927449D01*
X201240782Y-115034825D02*
X201301308Y-115063973D01*
X202895522Y-113358000D02*
X202895522Y-113529413D01*
X201433981Y-115078921D02*
X201499476Y-115063973D01*
X201014530Y-114829847D02*
X201067053Y-114871733D01*
X200166002Y-115678375D02*
X200218525Y-115720261D01*
X201103721Y-113717197D02*
X201103720Y-113650019D01*
X201298812Y-112904021D02*
X201442004Y-113047213D01*
D75*
X208177000Y-112038000D02*
X208157001Y-112018001D01*
D76*
X200788567Y-113082563D02*
X200803515Y-113017069D01*
X195768000Y-115486000D02*
X196563001Y-115486000D01*
X198539978Y-116373500D02*
X201017739Y-113895739D01*
X200927071Y-112862135D02*
X200987596Y-112832989D01*
X201059624Y-113523999D02*
X201017739Y-113471475D01*
X209931000Y-112038000D02*
X208431000Y-112038000D01*
D75*
X208431000Y-112038000D02*
X208177000Y-112038000D01*
D76*
X206153998Y-112014000D02*
X206375000Y-112014000D01*
X206375000Y-112014000D02*
X207899000Y-112014000D01*
X205604498Y-112563500D02*
X206153998Y-112014000D01*
X201088771Y-113782692D02*
X201103721Y-113717197D01*
X201120269Y-112818040D02*
X201185764Y-112832988D01*
X201103720Y-113650019D02*
X201088772Y-113584524D01*
X201555053Y-113118245D02*
X201620547Y-113133193D01*
X203699498Y-112563500D02*
X205604498Y-112563500D01*
X200832662Y-113275763D02*
X200803514Y-113215237D01*
X201687725Y-113133194D02*
X201753219Y-113118246D01*
D75*
X208157001Y-112018001D02*
X207899000Y-112018001D01*
D76*
X201442004Y-113047213D02*
X201494527Y-113089097D01*
X201866267Y-113047212D02*
X201972331Y-112941147D01*
X200832663Y-112956543D02*
X200874548Y-112904020D01*
X200788566Y-113149743D02*
X200788567Y-113082563D01*
X201494527Y-113089097D02*
X201555053Y-113118245D01*
X201088772Y-113584524D02*
X201059624Y-113523999D01*
X201059625Y-113843217D02*
X201088771Y-113782692D01*
X201620547Y-113133193D02*
X201687725Y-113133194D01*
X200987596Y-112832989D02*
X201053091Y-112818039D01*
X201053091Y-112818039D02*
X201120269Y-112818040D01*
X201753219Y-113118246D02*
X201813745Y-113089098D01*
X200803515Y-113017069D02*
X200832663Y-112956543D01*
X200803514Y-113215237D02*
X200788566Y-113149743D01*
X200874548Y-113328284D02*
X200832662Y-113275763D01*
X197450501Y-116373500D02*
X198539978Y-116373500D01*
X196563001Y-115486000D02*
X197450501Y-116373500D01*
X201246289Y-112862136D02*
X201298812Y-112904021D01*
X201813745Y-113089098D02*
X201866267Y-113047212D01*
X201972331Y-112941147D02*
X202349978Y-112563500D01*
X201017739Y-113471475D02*
X200874548Y-113328284D01*
X201185764Y-112832988D02*
X201246289Y-112862136D01*
X201017739Y-113895739D02*
X201059625Y-113843217D01*
X200874548Y-112904020D02*
X200927071Y-112862135D01*
X202349978Y-112563500D02*
X203699498Y-112563500D01*
X200180751Y-95614336D02*
X200247929Y-95614336D01*
X198716022Y-96986500D02*
X200002207Y-95700316D01*
X200435667Y-95709513D02*
X200488190Y-95751398D01*
X200945913Y-95530969D02*
X200945913Y-95463791D01*
X201161950Y-94780758D02*
X201222476Y-94809906D01*
X200488190Y-95751398D02*
X200548716Y-95780546D01*
X200903258Y-94809905D02*
X200963784Y-94780757D01*
X200850734Y-94851789D02*
X200903258Y-94809905D01*
X200247929Y-95614336D02*
X200313424Y-95629285D01*
X202003093Y-94971538D02*
X202018041Y-94906044D01*
X200859930Y-95709513D02*
X200901816Y-95656990D01*
X202018040Y-94838866D02*
X202003092Y-94773372D01*
X201948522Y-93754000D02*
X206627000Y-93754000D01*
X200373950Y-95658433D02*
X200426473Y-95700319D01*
X200002209Y-95700319D02*
X200054730Y-95658433D01*
X201879538Y-95126473D02*
X201932060Y-95084587D01*
X200746883Y-95780545D02*
X200807408Y-95751397D01*
X200945913Y-95463791D02*
X200930964Y-95398296D01*
X201029278Y-94765809D02*
X201096456Y-94765810D01*
X201657377Y-94375002D02*
X201628229Y-94314477D01*
X200901816Y-95337770D02*
X200859930Y-95285249D01*
X200054730Y-95658433D02*
X200115256Y-95629285D01*
X197450501Y-96986500D02*
X198716022Y-96986500D01*
X201096456Y-94765810D02*
X201161950Y-94780758D01*
X201274999Y-94851790D02*
X201507796Y-95084587D01*
X200426473Y-95700319D02*
X200435667Y-95709513D01*
X200901816Y-95656990D02*
X200930964Y-95596464D01*
X201686338Y-95170570D02*
X201753518Y-95170569D01*
X200963784Y-94780757D02*
X201029278Y-94765809D01*
X200779703Y-94964837D02*
X200808849Y-94904310D01*
X200614210Y-95795494D02*
X200681388Y-95795493D01*
X201222476Y-94809906D02*
X201274999Y-94851790D01*
X200313424Y-95629285D02*
X200373950Y-95658433D01*
X200681388Y-95795493D02*
X200746883Y-95780545D01*
X201973945Y-95032064D02*
X202003093Y-94971538D01*
X196563001Y-97874000D02*
X197450501Y-96986500D01*
X201628229Y-94314477D02*
X201613281Y-94248982D01*
X202003092Y-94773372D02*
X201973944Y-94712846D01*
X200764753Y-95030330D02*
X200779703Y-94964837D01*
X201507796Y-95084587D02*
X201560318Y-95126474D01*
X200548716Y-95780546D02*
X200614210Y-95795494D01*
X201657376Y-94055784D02*
X201699261Y-94003261D01*
X201628230Y-94116309D02*
X201657376Y-94055784D01*
X200808849Y-94904310D02*
X200850734Y-94851789D01*
X206627000Y-93754000D02*
X208151000Y-93754000D01*
X200850735Y-95276054D02*
X200808850Y-95223530D01*
X200808850Y-95223530D02*
X200779702Y-95163003D01*
X201613281Y-94248982D02*
X201613280Y-94181804D01*
X201699261Y-94003261D02*
X201948522Y-93754000D01*
X202018041Y-94906044D02*
X202018040Y-94838866D01*
X201613280Y-94181804D02*
X201628230Y-94116309D01*
X201932060Y-95084587D02*
X201973945Y-95032064D01*
X200115256Y-95629285D02*
X200180751Y-95614336D01*
X200930964Y-95596464D02*
X200945913Y-95530969D01*
X200859930Y-95285249D02*
X200850735Y-95276054D01*
X201620845Y-95155620D02*
X201686338Y-95170570D01*
X200779702Y-95163003D02*
X200764754Y-95097510D01*
X201973944Y-94712846D02*
X201932060Y-94660323D01*
X195768000Y-97874000D02*
X196563001Y-97874000D01*
X201560318Y-95126474D02*
X201620845Y-95155620D01*
X201699262Y-94427525D02*
X201657377Y-94375002D01*
X200764754Y-95097510D02*
X200764753Y-95030330D01*
X200807408Y-95751397D02*
X200859930Y-95709513D01*
X201819011Y-95155621D02*
X201879538Y-95126473D01*
X201753518Y-95170569D02*
X201819011Y-95155621D01*
X200930964Y-95398296D02*
X200901816Y-95337770D01*
X201932060Y-94660323D02*
X201699262Y-94427525D01*
X200002207Y-95700316D02*
X200002209Y-95700319D01*
X203597010Y-93328990D02*
X201772488Y-93328990D01*
X197450501Y-96561500D02*
X196563001Y-95674000D01*
X198539978Y-96561500D02*
X197450501Y-96561500D01*
D75*
X208157001Y-92714001D02*
X207899000Y-92714001D01*
D76*
X206375000Y-92710000D02*
X207899000Y-92710000D01*
X203597010Y-93328990D02*
X204545956Y-93328990D01*
D75*
X208431000Y-92734000D02*
X208177000Y-92734000D01*
X208177000Y-92734000D02*
X208157001Y-92714001D01*
D76*
X209931000Y-92734000D02*
X208431000Y-92734000D01*
X206220989Y-92710000D02*
X206375000Y-92710000D01*
X196563001Y-95674000D02*
X195768000Y-95674000D01*
X205601999Y-93328990D02*
X206220989Y-92710000D01*
X201772488Y-93328990D02*
X198539978Y-96561500D01*
X204545956Y-93328990D02*
X205601999Y-93328990D01*
X201046664Y-134101711D02*
X201017516Y-134041185D01*
X202121564Y-134008865D02*
X202174086Y-133966980D01*
X201273036Y-134857393D02*
X201325558Y-134815508D01*
X200901294Y-134815508D02*
X200953817Y-134857393D01*
X201367443Y-134762985D02*
X201396590Y-134702459D01*
X196563001Y-135466000D02*
X197450501Y-134578500D01*
X202043143Y-132775379D02*
X202526022Y-132292500D01*
X202174086Y-133966980D02*
X202215971Y-133914457D01*
X206627000Y-132362000D02*
X208151000Y-132362000D01*
X201512814Y-133729972D02*
X201749822Y-133966980D01*
X201928365Y-134052962D02*
X201995544Y-134052962D01*
X201802345Y-134008865D02*
X201862871Y-134038013D01*
X201862871Y-134038013D02*
X201928365Y-134052962D01*
X201411539Y-134636965D02*
X201411539Y-134569786D01*
X200664286Y-134578500D02*
X200901294Y-134815508D01*
X201002567Y-133975691D02*
X201002567Y-133908512D01*
X201396590Y-134504292D02*
X201367443Y-134443766D01*
X203591840Y-132292500D02*
X203661340Y-132362000D01*
X201851095Y-133127163D02*
X201851095Y-133059984D01*
X201895192Y-132933964D02*
X201937078Y-132881443D01*
X200953817Y-134857393D02*
X201014343Y-134886541D01*
X200418564Y-134492518D02*
X200485743Y-134492518D01*
X202215971Y-133914457D02*
X202245118Y-133853931D01*
X201325558Y-134815508D02*
X201367443Y-134762985D01*
X201017516Y-134041185D02*
X201002567Y-133975691D01*
X202260067Y-133721258D02*
X202245118Y-133655764D01*
X202061038Y-134038013D02*
X202121564Y-134008865D01*
X201017516Y-133843018D02*
X201046664Y-133782492D01*
X201334271Y-133643990D02*
X201399765Y-133658939D01*
X203661340Y-132362000D02*
X206627000Y-132362000D01*
X201267092Y-133643990D02*
X201334271Y-133643990D01*
X200551237Y-134507467D02*
X200611763Y-134536614D01*
X200240022Y-134578500D02*
X200292544Y-134536614D01*
X201201598Y-133658939D02*
X201267092Y-133643990D01*
X201995544Y-134052962D02*
X202061038Y-134038013D01*
X201325558Y-134391243D02*
X201088549Y-134154234D01*
X201937078Y-132881443D02*
X202043143Y-132775379D01*
X200611763Y-134536614D02*
X200664286Y-134578500D01*
X202215971Y-133595238D02*
X202174086Y-133542715D01*
X201079837Y-134901490D02*
X201147016Y-134901490D01*
X201212510Y-134886541D02*
X201273036Y-134857393D01*
X202245118Y-133853931D02*
X202260067Y-133788437D01*
X201088549Y-134154234D02*
X201046664Y-134101711D01*
X202260067Y-133788437D02*
X202260067Y-133721258D01*
X201141072Y-133688086D02*
X201201598Y-133658939D01*
X201866044Y-132994490D02*
X201895192Y-132933964D01*
X200353070Y-134507467D02*
X200418564Y-134492518D01*
X200485743Y-134492518D02*
X200551237Y-134507467D01*
X201937077Y-133305706D02*
X201895192Y-133253183D01*
X202245118Y-133655764D02*
X202215971Y-133595238D01*
X201367443Y-134443766D02*
X201325558Y-134391243D01*
X195768000Y-135466000D02*
X196563001Y-135466000D01*
X201147016Y-134901490D02*
X201212510Y-134886541D01*
X201866044Y-133192657D02*
X201851095Y-133127163D01*
X201002567Y-133908512D02*
X201017516Y-133843018D01*
X201411539Y-134569786D02*
X201396590Y-134504292D01*
X202526022Y-132292500D02*
X203591840Y-132292500D01*
X201749822Y-133966980D02*
X201802345Y-134008865D01*
X201396590Y-134702459D02*
X201411539Y-134636965D01*
X201088550Y-133729972D02*
X201141072Y-133688086D01*
X201460291Y-133688086D02*
X201512814Y-133729972D01*
X201851095Y-133059984D02*
X201866044Y-132994490D01*
X200292544Y-134536614D02*
X200353070Y-134507467D01*
X202174086Y-133542715D02*
X201937077Y-133305706D01*
X201399765Y-133658939D02*
X201460291Y-133688086D01*
X201046664Y-133782492D02*
X201088550Y-133729972D01*
X201014343Y-134886541D02*
X201079837Y-134901490D01*
X197450501Y-134578500D02*
X200240022Y-134578500D01*
X201895192Y-133253183D02*
X201866044Y-133192657D01*
D75*
X208431000Y-131342000D02*
X208177000Y-131342000D01*
D76*
X199763978Y-133837020D02*
X199756456Y-133770263D01*
X206375000Y-131318000D02*
X207899000Y-131318000D01*
X205604498Y-131867500D02*
X206153998Y-131318000D01*
X199876931Y-134088049D02*
X199829428Y-134040546D01*
X199171499Y-133770263D02*
X199163978Y-133837020D01*
X199594143Y-133566729D02*
X199530734Y-133544541D01*
X199134268Y-133983665D02*
X199098527Y-134040546D01*
X199051024Y-134088049D02*
X198994143Y-134123790D01*
X199933812Y-134123790D02*
X199876931Y-134088049D01*
X199829428Y-134040546D02*
X199793687Y-133983665D01*
X198863978Y-134153500D02*
X197450501Y-134153500D01*
X199397221Y-133544541D02*
X199333812Y-133566729D01*
X199530734Y-133544541D02*
X199463978Y-133537020D01*
X199333812Y-133566729D02*
X199276931Y-133602470D01*
X198930734Y-134145978D02*
X198863978Y-134153500D01*
X197450501Y-134153500D02*
X196563001Y-133266000D01*
X199163978Y-133853500D02*
X199156456Y-133920256D01*
X199763978Y-133853500D02*
X199763978Y-133837020D01*
X199193687Y-133706854D02*
X199171499Y-133770263D01*
X202349978Y-131867500D02*
X200063978Y-134153500D01*
X199463978Y-133537020D02*
X199397221Y-133544541D01*
X203699498Y-131867500D02*
X205604498Y-131867500D01*
X199276931Y-133602470D02*
X199229428Y-133649973D01*
X196563001Y-133266000D02*
X195768000Y-133266000D01*
X199156456Y-133920256D02*
X199134268Y-133983665D01*
X206153998Y-131318000D02*
X206375000Y-131318000D01*
X199651024Y-133602470D02*
X199594143Y-133566729D01*
X199734268Y-133706854D02*
X199698527Y-133649973D01*
X198994143Y-134123790D02*
X198930734Y-134145978D01*
X203699498Y-131867500D02*
X202349978Y-131867500D01*
X199771499Y-133920256D02*
X199763978Y-133853500D01*
X199098527Y-134040546D02*
X199051024Y-134088049D01*
X200063978Y-134153500D02*
X199997221Y-134145978D01*
D75*
X208177000Y-131342000D02*
X208157001Y-131322001D01*
D76*
X199698527Y-133649973D02*
X199651024Y-133602470D01*
X199163978Y-133837020D02*
X199163978Y-133853500D01*
X199997221Y-134145978D02*
X199933812Y-134123790D01*
X199756456Y-133770263D02*
X199734268Y-133706854D01*
X209931000Y-131342000D02*
X208431000Y-131342000D01*
X199793687Y-133983665D02*
X199771499Y-133920256D01*
X199229428Y-133649973D02*
X199193687Y-133706854D01*
D75*
X208157001Y-131322001D02*
X207899000Y-131322001D01*
X62721000Y-132953000D02*
X62121000Y-132953000D01*
X63821000Y-130703000D02*
X62956002Y-130703000D01*
X62956002Y-130703000D02*
X62706002Y-130453000D01*
X62121000Y-132953000D02*
X61357000Y-132953000D01*
X61357000Y-132953000D02*
X61341000Y-132969000D01*
X61341000Y-132969000D02*
X60579000Y-132969000D01*
X60595000Y-132953000D02*
X60579000Y-132969000D01*
X62706002Y-130453000D02*
X62121000Y-130453000D01*
D77*
X61365000Y-130453000D02*
X59309000Y-128397000D01*
D75*
X62121000Y-130453000D02*
X61365000Y-130453000D01*
X63821000Y-133203000D02*
X63221000Y-133203000D01*
X63221000Y-133203000D02*
X62971000Y-132953000D01*
X62971000Y-132953000D02*
X62721000Y-132953000D01*
D77*
X59309000Y-127127000D02*
X59309000Y-128397000D01*
X65024000Y-123190000D02*
X62357000Y-125857000D01*
X62357000Y-125857000D02*
X60579000Y-125857000D01*
X60579000Y-125857000D02*
X59309000Y-127127000D01*
D75*
X59614000Y-132860998D02*
X59614000Y-138336000D01*
X60230999Y-132243999D02*
X59614000Y-132860998D01*
X60927001Y-132243999D02*
X60230999Y-132243999D01*
X62121000Y-132453000D02*
X61136002Y-132453000D01*
X61136002Y-132453000D02*
X60927001Y-132243999D01*
X59614000Y-138336000D02*
X59614000Y-138811000D01*
X64918000Y-131203000D02*
X64421000Y-131203000D01*
X64421000Y-131203000D02*
X63821000Y-131203000D01*
X66421000Y-130454500D02*
X65666500Y-130454500D01*
X65666500Y-130454500D02*
X64918000Y-131203000D01*
X88951000Y-80975000D02*
X88900000Y-81026000D01*
X88900000Y-83947000D02*
X89662000Y-84709000D01*
X142240000Y-102108000D02*
X145014000Y-104882000D01*
X88900000Y-81026000D02*
X88900000Y-82228081D01*
X88900000Y-82228081D02*
X88900000Y-83947000D01*
X145014000Y-104882000D02*
X145874000Y-104882000D01*
X88951000Y-77470000D02*
X88951000Y-80975000D01*
D76*
X132715000Y-97536000D02*
X128016000Y-97536000D01*
D75*
X86360000Y-86848000D02*
X86380000Y-86868000D01*
X86360000Y-81026000D02*
X86360000Y-86848000D01*
X124170000Y-72862000D02*
X122138000Y-72862000D01*
X124968000Y-73660000D02*
X124170000Y-72862000D01*
X122138000Y-72862000D02*
X111146000Y-72862000D01*
X120929500Y-104902000D02*
X120929500Y-105377000D01*
X123779010Y-103931990D02*
X121424510Y-103931990D01*
X109870001Y-106568001D02*
X109307999Y-106005999D01*
X109307999Y-106005999D02*
X108458000Y-105156000D01*
X123874000Y-103882000D02*
X123829000Y-103882000D01*
X123829000Y-103882000D02*
X123779010Y-103931990D01*
X120929500Y-104427000D02*
X120929500Y-104902000D01*
X121424510Y-103931990D02*
X120929500Y-104427000D01*
X119738499Y-106568001D02*
X109870001Y-106568001D01*
X120929500Y-105377000D02*
X119738499Y-106568001D01*
X114719010Y-102146010D02*
X120604490Y-102146010D01*
X109822999Y-101440999D02*
X114013999Y-101440999D01*
X120604490Y-102146010D02*
X120929500Y-101821000D01*
X108458000Y-100076000D02*
X109822999Y-101440999D01*
X120929500Y-101821000D02*
X120929500Y-101346000D01*
X114013999Y-101440999D02*
X114719010Y-102146010D01*
X121490500Y-102382000D02*
X120929500Y-101821000D01*
X123874000Y-102382000D02*
X121490500Y-102382000D01*
X123874000Y-104382000D02*
X122948000Y-104382000D01*
X122948000Y-104382000D02*
X122448990Y-104382000D01*
X122448990Y-104382000D02*
X122174000Y-104656990D01*
X115100010Y-103924010D02*
X114338010Y-103924010D01*
X123874000Y-103382000D02*
X121187500Y-103382000D01*
X114338010Y-103924010D02*
X113284000Y-102870000D01*
X120929500Y-103124000D02*
X120929500Y-103599000D01*
X121187500Y-103382000D02*
X120929500Y-103124000D01*
X120604490Y-103924010D02*
X115100010Y-103924010D01*
X120929500Y-103599000D02*
X120604490Y-103924010D01*
X127624000Y-92632000D02*
X127624000Y-90181000D01*
X127624000Y-90181000D02*
X127762000Y-90043000D01*
X128124000Y-92632000D02*
X128124000Y-91207000D01*
X128124000Y-91207000D02*
X128399000Y-90932000D01*
X130624000Y-92632000D02*
X130624000Y-89848000D01*
X130624000Y-89848000D02*
X130937000Y-89535000D01*
X131333344Y-91186000D02*
X131333344Y-90566344D01*
X132124000Y-92632000D02*
X132124000Y-91976656D01*
X132124000Y-91976656D02*
X131333344Y-91186000D01*
X131333344Y-90566344D02*
X131318000Y-90551000D01*
X132624000Y-91443326D02*
X132145347Y-90964673D01*
X132624000Y-92632000D02*
X132624000Y-91443326D01*
X133124000Y-92632000D02*
X133124000Y-90396000D01*
X133124000Y-90396000D02*
X133223000Y-90297000D01*
X134624000Y-90577240D02*
X134769620Y-90431620D01*
X134624000Y-92632000D02*
X134624000Y-90577240D01*
X136124000Y-92632000D02*
X136124000Y-90847344D01*
X136611120Y-90360224D02*
X136611120Y-89479120D01*
X136124000Y-90847344D02*
X136611120Y-90360224D01*
X137423623Y-90961967D02*
X137423623Y-89921236D01*
X138124000Y-91662344D02*
X137423623Y-90961967D01*
X138124000Y-92632000D02*
X138098000Y-92632000D01*
X138124000Y-92632000D02*
X138124000Y-91662344D01*
X138624000Y-92632000D02*
X138624000Y-91632000D01*
X138176000Y-91184000D02*
X138176000Y-90088099D01*
X138176000Y-90088099D02*
X138409377Y-89854722D01*
X138624000Y-91632000D02*
X138176000Y-91184000D01*
X139124000Y-92632000D02*
X139124000Y-90828000D01*
X139124000Y-90828000D02*
X138974000Y-90678000D01*
X141124000Y-90270000D02*
X141986000Y-89408000D01*
X141124000Y-92632000D02*
X141124000Y-90270000D01*
X125222000Y-138176000D02*
X119634000Y-143764000D01*
X125222000Y-135620000D02*
X125222000Y-138176000D01*
X120904000Y-146304000D02*
X114587000Y-146304000D01*
X114587000Y-146304000D02*
X112522000Y-144239000D01*
X112522000Y-144239000D02*
X112522000Y-143764000D01*
X123444000Y-143764000D02*
X120904000Y-146304000D01*
X129032000Y-135620000D02*
X129032000Y-140716000D01*
X129032000Y-140716000D02*
X132080000Y-143764000D01*
X140208000Y-139446000D02*
X135890000Y-143764000D01*
X140208000Y-135433000D02*
X140208000Y-139446000D01*
X134477000Y-135620000D02*
X136271000Y-137414000D01*
X132842000Y-135620000D02*
X134477000Y-135620000D01*
X151384000Y-140716000D02*
X148336000Y-143764000D01*
X151384000Y-135433000D02*
X151384000Y-140716000D01*
X81026000Y-107578000D02*
X77992000Y-107578000D01*
X77992000Y-107578000D02*
X77808000Y-107762000D01*
X126172000Y-132920000D02*
X132624000Y-126468000D01*
X126172000Y-133620000D02*
X126172000Y-132920000D01*
X132624000Y-114632000D02*
X132624000Y-125694000D01*
X132624000Y-126468000D02*
X132624000Y-125694000D01*
X133624000Y-115995590D02*
X133341990Y-116277600D01*
X133624000Y-114632000D02*
X133624000Y-115995590D01*
X133341990Y-129560010D02*
X129982000Y-132920000D01*
X129982000Y-132920000D02*
X129982000Y-133620000D01*
X133341990Y-116277600D02*
X133341990Y-129560010D01*
X133792000Y-132920000D02*
X133792000Y-133620000D01*
X134624000Y-115632000D02*
X133792000Y-116464000D01*
X134624000Y-114632000D02*
X134624000Y-115632000D01*
X133792000Y-116464000D02*
X133792000Y-132920000D01*
X101473000Y-122174000D02*
X99822100Y-122174000D01*
X99822100Y-122174000D02*
X99822000Y-122173900D01*
X103433800Y-116885800D02*
X99568000Y-116885800D01*
X99568000Y-121919900D02*
X99822000Y-122173900D01*
X104381300Y-115938300D02*
X103433800Y-116885800D01*
X99568000Y-116885800D02*
X99568000Y-121919900D01*
X99568000Y-114985800D02*
X98788000Y-114985800D01*
X99568000Y-114985800D02*
X102438200Y-114985800D01*
X102438200Y-114985800D02*
X104394000Y-113030000D01*
X98334000Y-127167000D02*
X98334000Y-128392000D01*
X99347000Y-123748900D02*
X99822000Y-123748900D01*
X98334000Y-125674400D02*
X98334000Y-127167000D01*
X99822000Y-123748900D02*
X99822000Y-124186400D01*
X98788000Y-114985800D02*
X98679000Y-115062000D01*
X98712999Y-115095999D02*
X98679000Y-115062000D01*
X98712999Y-123114899D02*
X98712999Y-115095999D01*
X98712999Y-123114899D02*
X99347000Y-123748900D01*
X99822000Y-124186400D02*
X98334000Y-125674400D01*
X98679000Y-115062000D02*
X98712999Y-115060801D01*
D76*
X176071041Y-99415000D02*
X175941041Y-99545000D01*
D74*
X164407499Y-99726499D02*
X164194999Y-99513999D01*
D76*
X173717500Y-99272500D02*
X166758554Y-99272500D01*
X166292046Y-99739008D02*
X166236499Y-99739008D01*
X174535000Y-99545000D02*
X173990000Y-99545000D01*
D74*
X166279537Y-99726499D02*
X164407499Y-99726499D01*
D76*
X166758554Y-99272500D02*
X166292046Y-99739008D01*
D74*
X164194999Y-99513999D02*
X163995000Y-99314000D01*
D76*
X175941041Y-99545000D02*
X174535000Y-99545000D01*
D74*
X166236499Y-99701501D02*
X166249501Y-99701501D01*
D76*
X176120000Y-99415000D02*
X176071041Y-99415000D01*
D74*
X166292046Y-99739008D02*
X166279537Y-99726499D01*
D76*
X173990000Y-99545000D02*
X173717500Y-99272500D01*
X173717500Y-98847500D02*
X166582500Y-98847500D01*
X175149999Y-98914999D02*
X175094999Y-98969999D01*
X175094999Y-99120000D02*
X174535000Y-99120000D01*
X176120000Y-98765000D02*
X175970001Y-98914999D01*
X174535000Y-99120000D02*
X173990000Y-98575000D01*
X175094999Y-98969999D02*
X175094999Y-99120000D01*
X166116000Y-99314000D02*
X165595000Y-99314000D01*
X166582500Y-98847500D02*
X166116000Y-99314000D01*
X173990000Y-98575000D02*
X173717500Y-98847500D01*
X175970001Y-98914999D02*
X175149999Y-98914999D01*
X183070000Y-96165000D02*
X183388000Y-95847000D01*
D75*
X186409000Y-70616000D02*
X186182000Y-70843000D01*
X187576000Y-70616000D02*
X186409000Y-70616000D01*
D76*
X182445000Y-94469998D02*
X182445000Y-74211041D01*
X182445000Y-74211041D02*
X185813041Y-70843000D01*
X185813041Y-70843000D02*
X186182000Y-70843000D01*
X183388000Y-95412998D02*
X182445000Y-94469998D01*
X182020000Y-96165000D02*
X183070000Y-96165000D01*
X183388000Y-95847000D02*
X183388000Y-95412998D01*
X181786757Y-84133521D02*
X181720000Y-84126000D01*
X182020000Y-95515000D02*
X182020000Y-84426000D01*
X181436679Y-84060549D02*
X181389176Y-84013046D01*
X181954550Y-83413046D02*
X181990291Y-83356165D01*
X181850166Y-84155709D02*
X181786757Y-84133521D01*
X181850166Y-83496290D02*
X181907047Y-83460549D01*
X182020000Y-74035000D02*
X185512520Y-70542480D01*
D75*
X186448000Y-70116000D02*
X187576000Y-70116000D01*
D76*
X181493560Y-83555709D02*
X181556969Y-83533521D01*
X181720000Y-83526000D02*
X181786757Y-83518478D01*
X182020000Y-84426000D02*
X182012479Y-84359243D01*
X181389176Y-83638953D02*
X181436679Y-83591450D01*
X181323725Y-83826000D02*
X181331247Y-83759243D01*
X181389176Y-84013046D02*
X181353435Y-83956165D01*
X181907047Y-83460549D02*
X181954550Y-83413046D01*
X181990291Y-83356165D02*
X182012479Y-83292756D01*
X182020000Y-83226000D02*
X182020000Y-74035000D01*
X181331247Y-83759243D02*
X181353435Y-83695834D01*
X181720000Y-84126000D02*
X181623725Y-84126000D01*
X182012479Y-84359243D02*
X181990291Y-84295834D01*
X181436679Y-83591450D02*
X181493560Y-83555709D01*
X181556969Y-84118478D02*
X181493560Y-84096290D01*
X181353435Y-83956165D02*
X181331247Y-83892756D01*
X182012479Y-83292756D02*
X182020000Y-83226000D01*
X181623725Y-84126000D02*
X181556969Y-84118478D01*
X181990291Y-84295834D02*
X181954550Y-84238953D01*
X181954550Y-84238953D02*
X181907047Y-84191450D01*
D75*
X186205000Y-69873000D02*
X186448000Y-70116000D01*
X186182000Y-69873000D02*
X186205000Y-69873000D01*
D76*
X181786757Y-83518478D02*
X181850166Y-83496290D01*
X181353435Y-83695834D02*
X181389176Y-83638953D01*
X181623725Y-83526000D02*
X181720000Y-83526000D01*
X185512520Y-70542480D02*
X186182000Y-69873000D01*
X181331247Y-83892756D02*
X181323725Y-83826000D01*
X181493560Y-84096290D02*
X181436679Y-84060549D01*
X181907047Y-84191450D02*
X181850166Y-84155709D01*
X181556969Y-83533521D02*
X181623725Y-83526000D01*
D75*
X90985100Y-131592000D02*
X90805100Y-131412000D01*
X94909000Y-131592000D02*
X90985100Y-131592000D01*
X94909000Y-131592000D02*
X96134000Y-131592000D01*
X90805100Y-131412000D02*
X90805100Y-130937000D01*
D76*
X183145001Y-98765000D02*
X183257501Y-98652500D01*
X182020000Y-98765000D02*
X183145001Y-98765000D01*
X185757000Y-107988480D02*
X185586990Y-108158490D01*
X183822978Y-98652500D02*
X185757000Y-100586522D01*
X185757000Y-108973520D02*
X185757000Y-109026000D01*
X185757000Y-100586522D02*
X185757000Y-107988480D01*
D75*
X186409000Y-109224000D02*
X186182000Y-109451000D01*
D76*
X185757000Y-109026000D02*
X186182000Y-109451000D01*
X185586990Y-108158490D02*
X185586990Y-108803510D01*
D75*
X187576000Y-109224000D02*
X186409000Y-109224000D01*
D76*
X185586990Y-108803510D02*
X185757000Y-108973520D01*
X183257501Y-98652500D02*
X183822978Y-98652500D01*
X186182000Y-108056000D02*
X186182000Y-108481000D01*
X183999022Y-98227500D02*
X186182000Y-100410478D01*
D75*
X187576000Y-108724000D02*
X186425000Y-108724000D01*
X186425000Y-108724000D02*
X186182000Y-108481000D01*
D76*
X183257501Y-98227500D02*
X183999022Y-98227500D01*
X183145001Y-98115000D02*
X183257501Y-98227500D01*
X186182000Y-100410478D02*
X186182000Y-108056000D01*
X182020000Y-98115000D02*
X183145001Y-98115000D01*
D75*
X187198000Y-74885000D02*
X187751000Y-75438000D01*
X187751000Y-75438000D02*
X188188500Y-75438000D01*
X187198000Y-71882000D02*
X187198000Y-74885000D01*
X187464000Y-71616000D02*
X187198000Y-71882000D01*
X187576000Y-71616000D02*
X187464000Y-71616000D01*
X187576000Y-110224000D02*
X187576000Y-110620000D01*
X187751000Y-114046000D02*
X188188500Y-114046000D01*
X187198000Y-110998000D02*
X187198000Y-113493000D01*
X187198000Y-113493000D02*
X187751000Y-114046000D01*
X187576000Y-110620000D02*
X187198000Y-110998000D01*
D76*
X183257501Y-97352500D02*
X183872022Y-97352500D01*
X185124500Y-96100022D02*
X185124500Y-90327541D01*
X183872022Y-97352500D02*
X185124500Y-96100022D01*
X183145001Y-97465000D02*
X183257501Y-97352500D01*
X185124500Y-90327541D02*
X185813041Y-89639000D01*
X182020000Y-97465000D02*
X183145001Y-97465000D01*
D75*
X187576000Y-89412000D02*
X186409000Y-89412000D01*
X186409000Y-89412000D02*
X186182000Y-89639000D01*
D76*
X185813041Y-89639000D02*
X186182000Y-89639000D01*
X184699500Y-90151500D02*
X185512520Y-89338480D01*
D75*
X186425000Y-88912000D02*
X186182000Y-88669000D01*
D76*
X183695978Y-96927500D02*
X184699500Y-95923978D01*
X183145001Y-96815000D02*
X183257501Y-96927500D01*
X183257501Y-96927500D02*
X183695978Y-96927500D01*
X185512520Y-89338480D02*
X186182000Y-88669000D01*
X182020000Y-96815000D02*
X183145001Y-96815000D01*
X184699500Y-95923978D02*
X184699500Y-90151500D01*
D75*
X187576000Y-88912000D02*
X186425000Y-88912000D01*
D76*
X181990290Y-108609834D02*
X182012478Y-108673243D01*
X181907046Y-108505450D02*
X181954549Y-108552953D01*
X181907046Y-107774549D02*
X181850165Y-107810290D01*
X181353434Y-108009834D02*
X181331246Y-108073243D01*
X185512520Y-126584520D02*
X186182000Y-127254000D01*
X181436678Y-108374549D02*
X181493559Y-108410290D01*
X181850165Y-107810290D02*
X181786756Y-107832478D01*
X181850165Y-108469709D02*
X181907046Y-108505450D01*
X181323725Y-108140000D02*
X181331246Y-108206756D01*
X181331246Y-108073243D02*
X181323725Y-108140000D01*
X181954549Y-107727046D02*
X181907046Y-107774549D01*
X182020000Y-100065000D02*
X182020000Y-107540000D01*
X182020000Y-108740000D02*
X182020000Y-123092000D01*
X181389175Y-108327046D02*
X181436678Y-108374549D01*
X181353434Y-108270165D02*
X181389175Y-108327046D01*
X181786756Y-108447521D02*
X181850165Y-108469709D01*
X181786756Y-107832478D02*
X181720000Y-107840000D01*
D75*
X187576000Y-127004000D02*
X186432000Y-127004000D01*
D76*
X181493559Y-108410290D02*
X181556968Y-108432478D01*
D75*
X186432000Y-127004000D02*
X186182000Y-127254000D01*
D76*
X181493559Y-107869709D02*
X181436678Y-107905450D01*
X182012478Y-108673243D02*
X182020000Y-108740000D01*
X181954549Y-108552953D02*
X181990290Y-108609834D01*
X181389175Y-107952953D02*
X181353434Y-108009834D01*
X181331246Y-108206756D02*
X181353434Y-108270165D01*
X181556968Y-108432478D02*
X181623725Y-108440000D01*
X181436678Y-107905450D02*
X181389175Y-107952953D01*
X181990290Y-107670165D02*
X181954549Y-107727046D01*
X181720000Y-108440000D02*
X181786756Y-108447521D01*
X181623725Y-107840000D02*
X181556968Y-107847521D01*
X181556968Y-107847521D02*
X181493559Y-107869709D01*
X181720000Y-107840000D02*
X181623725Y-107840000D01*
X182012478Y-107606756D02*
X181990290Y-107670165D01*
X182020000Y-107540000D02*
X182012478Y-107606756D01*
X182020000Y-123092000D02*
X185512520Y-126584520D01*
X181623725Y-108440000D02*
X181720000Y-108440000D01*
D75*
X187576000Y-126504000D02*
X186402000Y-126504000D01*
D76*
X183070000Y-99415000D02*
X183388000Y-99733000D01*
D75*
X186402000Y-126504000D02*
X186182000Y-126284000D01*
D76*
X183388000Y-100167002D02*
X182445000Y-101110002D01*
X182020000Y-99415000D02*
X183070000Y-99415000D01*
X183388000Y-99733000D02*
X183388000Y-100167002D01*
X182445000Y-122915959D02*
X185813041Y-126284000D01*
X185813041Y-126284000D02*
X186182000Y-126284000D01*
X182445000Y-101110002D02*
X182445000Y-122915959D01*
D75*
X187198000Y-90678000D02*
X187198000Y-93681000D01*
X187751000Y-94234000D02*
X188188500Y-94234000D01*
X187464000Y-90412000D02*
X187198000Y-90678000D01*
X187198000Y-93681000D02*
X187751000Y-94234000D01*
X187576000Y-90412000D02*
X187464000Y-90412000D01*
X187198000Y-131273000D02*
X187751000Y-131826000D01*
X187576000Y-128004000D02*
X187576000Y-128379000D01*
X187751000Y-131826000D02*
X188188500Y-131826000D01*
X187198000Y-128757000D02*
X187198000Y-131273000D01*
X187576000Y-128379000D02*
X187198000Y-128757000D01*
D77*
X68326000Y-98298000D02*
X66294000Y-98298000D01*
X66294000Y-98298000D02*
X66040000Y-98552000D01*
X64262000Y-98551900D02*
X66039900Y-98551900D01*
X66039900Y-98551900D02*
X66040000Y-98552000D01*
D75*
X73492000Y-84521000D02*
X70729000Y-84521000D01*
X70729000Y-84521000D02*
X70663000Y-84455000D01*
X77485000Y-75879000D02*
X80197000Y-75879000D01*
X77485000Y-73219000D02*
X77485000Y-68933000D01*
X77183000Y-68631000D02*
X76708000Y-68631000D01*
X77485000Y-75879000D02*
X77485000Y-73219000D01*
X77485000Y-68933000D02*
X77183000Y-68631000D01*
X80197000Y-75879000D02*
X81026000Y-76708000D01*
X80518000Y-65532000D02*
X80518000Y-67564000D01*
X78232000Y-65278000D02*
X80264000Y-65278000D01*
X80264000Y-65278000D02*
X80518000Y-65532000D01*
X80518000Y-67564000D02*
X80518000Y-69342000D01*
D76*
X110193000Y-75695522D02*
X110193000Y-78657000D01*
D75*
X121711000Y-107882000D02*
X121666000Y-107927000D01*
D76*
X109946000Y-74062000D02*
X109946000Y-75448522D01*
X109946000Y-75448522D02*
X110193000Y-75695522D01*
X121393500Y-107654500D02*
X106210978Y-107654500D01*
X110193000Y-78657000D02*
X109856000Y-78994000D01*
X121666000Y-107927000D02*
X121393500Y-107654500D01*
D75*
X123874000Y-107882000D02*
X121711000Y-107882000D01*
D76*
X109855000Y-86277660D02*
X109855000Y-85979000D01*
X105705500Y-91605978D02*
X109856000Y-87455478D01*
X105705500Y-107149022D02*
X105705500Y-91605978D01*
X108331000Y-86741000D02*
X109391660Y-86741000D01*
X106210978Y-107654500D02*
X105705500Y-107149022D01*
X109856000Y-87455478D02*
X109855000Y-85979000D01*
X109856000Y-81109000D02*
X109856000Y-78994000D01*
X109391660Y-86741000D02*
X109855000Y-86277660D01*
X109855000Y-85979000D02*
X109856000Y-81109000D01*
D75*
X122109232Y-107382000D02*
X121684232Y-106957000D01*
D76*
X110446000Y-75267000D02*
X110446000Y-74062000D01*
X121393500Y-107229500D02*
X106387022Y-107229500D01*
X121666000Y-106957000D02*
X121393500Y-107229500D01*
D75*
X121684232Y-106957000D02*
X121666000Y-106957000D01*
D76*
X106130500Y-91782022D02*
X110281000Y-87631522D01*
X106387022Y-107229500D02*
X106130500Y-106972978D01*
X111506000Y-88265000D02*
X110445340Y-88265000D01*
X110281000Y-87631522D02*
X110281000Y-81109000D01*
X110281000Y-81109000D02*
X110618000Y-80772000D01*
X110445340Y-88265000D02*
X110281000Y-88100660D01*
X106130500Y-106972978D02*
X106130500Y-91782022D01*
X110618000Y-75439000D02*
X110446000Y-75267000D01*
X110618000Y-80772000D02*
X110618000Y-75439000D01*
D75*
X123874000Y-107382000D02*
X122109232Y-107382000D01*
D76*
X110281000Y-88100660D02*
X110281000Y-87631522D01*
X127762005Y-67564005D02*
X127762000Y-67564000D01*
X148059000Y-67564000D02*
X129840522Y-67564000D01*
X112982490Y-68263990D02*
X114999990Y-68263990D01*
X115570000Y-68834000D02*
X116078000Y-68834000D01*
X132842000Y-66040000D02*
X132842000Y-67310010D01*
X111146000Y-68862000D02*
X112384480Y-68862000D01*
D79*
X163826000Y-83801000D02*
X163826000Y-85248000D01*
X164061000Y-83566000D02*
X163826000Y-83801000D01*
D76*
X164061000Y-83566000D02*
X148059000Y-67564000D01*
X121412000Y-67564000D02*
X127762000Y-67564000D01*
X114999990Y-68263990D02*
X115570000Y-68834000D01*
X112384480Y-68862000D02*
X112982490Y-68263990D01*
X116078000Y-68834000D02*
X120396000Y-68834000D01*
X129840522Y-67564000D02*
X129840517Y-67564005D01*
X129840517Y-67564005D02*
X127762005Y-67564005D01*
X132842000Y-67310010D02*
X132588005Y-67564005D01*
X112283426Y-68362000D02*
X112806446Y-67838980D01*
X121736001Y-68239001D02*
X121985992Y-67989010D01*
X129664483Y-67989005D02*
X127679015Y-67989005D01*
X118110000Y-67881000D02*
X120442002Y-67881000D01*
X132842000Y-68325990D02*
X132505015Y-67989005D01*
X129664488Y-67989010D02*
X129664483Y-67989005D01*
X115218054Y-67881000D02*
X118110000Y-67881000D01*
X112806446Y-67838980D02*
X115176034Y-67838980D01*
X121985992Y-67989010D02*
X127679010Y-67989010D01*
D79*
X163326000Y-85248000D02*
X163326000Y-83801000D01*
D76*
X115176034Y-67838980D02*
X115218054Y-67881000D01*
D79*
X163326000Y-83801000D02*
X163091000Y-83566000D01*
D76*
X163091000Y-83197041D02*
X163091000Y-83566000D01*
X127679015Y-67989005D02*
X127679010Y-67989010D01*
X111146000Y-68362000D02*
X111183500Y-68399500D01*
X120800003Y-68239001D02*
X121736001Y-68239001D01*
X147882969Y-67989010D02*
X129664488Y-67989010D01*
X147882969Y-67989010D02*
X163091000Y-83197041D01*
X132842000Y-69596010D02*
X132842000Y-68326000D01*
X120442002Y-67881000D02*
X120800003Y-68239001D01*
X111146000Y-68362000D02*
X112283426Y-68362000D01*
X81818000Y-63332000D02*
X82128000Y-63332000D01*
X82128000Y-63332000D02*
X83058000Y-64262000D01*
D75*
X84328000Y-65532000D02*
X84582000Y-65532000D01*
X82955500Y-64219500D02*
X83015500Y-64219500D01*
X83015500Y-64219500D02*
X83058000Y-64262000D01*
D76*
X93386500Y-76873975D02*
X93386500Y-85178022D01*
X93386500Y-85178022D02*
X94148500Y-85940022D01*
X85701737Y-65428263D02*
X86002263Y-65428263D01*
X95607740Y-65428261D02*
X98224963Y-68045484D01*
X95607738Y-65428263D02*
X95607740Y-65428261D01*
X84939737Y-65428263D02*
X85701737Y-65428263D01*
X99701978Y-72824500D02*
X99101500Y-72224022D01*
X84836000Y-65532000D02*
X84939737Y-65428263D01*
X84328000Y-65532000D02*
X84836000Y-65532000D01*
X104208500Y-72824500D02*
X99701978Y-72824500D01*
X96045029Y-74215450D02*
X95037496Y-75222979D01*
X98578516Y-68399037D02*
X98224963Y-68399037D01*
X94148500Y-100926022D02*
X103162978Y-109940500D01*
X99101500Y-72224022D02*
X99101500Y-68922021D01*
D75*
X121666000Y-110213000D02*
X121781590Y-110213000D01*
D76*
X95037496Y-75222979D02*
X93386500Y-76873975D01*
X121393500Y-109940500D02*
X121666000Y-110213000D01*
X99101500Y-68922021D02*
X98578516Y-68399037D01*
X104246000Y-72862000D02*
X104208500Y-72824500D01*
X86002263Y-65428263D02*
X87630000Y-67056000D01*
D75*
X123112590Y-108882000D02*
X123874000Y-108882000D01*
D76*
X98224963Y-68045484D02*
X98224963Y-68399037D01*
X96045029Y-74074029D02*
X96045029Y-74215450D01*
X85701737Y-65428263D02*
X95607738Y-65428263D01*
X103162978Y-109940500D02*
X121393500Y-109940500D01*
X94148500Y-85940022D02*
X94148500Y-100926022D01*
D75*
X121781590Y-110213000D02*
X123112590Y-108882000D01*
D76*
X82093000Y-67564000D02*
X82093000Y-65807000D01*
X82093000Y-65807000D02*
X81818000Y-65532000D01*
D75*
X122115180Y-109243000D02*
X121666000Y-109243000D01*
D76*
X96486971Y-74515971D02*
X96345550Y-74515971D01*
X121393500Y-109515500D02*
X121666000Y-109243000D01*
X93811500Y-85001978D02*
X94573500Y-85763978D01*
X99526500Y-72047978D02*
X99526500Y-68745979D01*
X81818000Y-65532000D02*
X83566000Y-65532000D01*
X86126747Y-65003253D02*
X87630000Y-63500000D01*
X103339022Y-109515500D02*
X121393500Y-109515500D01*
D75*
X123874000Y-108382000D02*
X123874000Y-108409000D01*
X123874000Y-108409000D02*
X123851010Y-108431990D01*
D76*
X83566000Y-65532000D02*
X83566000Y-65294998D01*
X94573500Y-85763978D02*
X94573500Y-100749978D01*
X95783774Y-65003253D02*
X98525484Y-67744963D01*
X84798255Y-65003253D02*
X86126747Y-65003253D01*
X83566000Y-65294998D02*
X84003999Y-64856999D01*
X98525484Y-67744963D02*
X98879037Y-67744963D01*
X93811500Y-77050019D02*
X93811500Y-85001978D01*
X99526500Y-68745979D02*
X98879037Y-68098516D01*
D75*
X122926189Y-108431991D02*
X122115180Y-109243000D01*
D76*
X84652001Y-64856999D02*
X84798255Y-65003253D01*
X104246000Y-72362000D02*
X104208500Y-72399500D01*
X86126747Y-65003253D02*
X95783774Y-65003253D01*
X96345550Y-74515971D02*
X93811500Y-77050019D01*
X94573500Y-100749978D02*
X103339022Y-109515500D01*
D75*
X123851010Y-108431990D02*
X122926189Y-108431991D01*
D76*
X99878022Y-72399500D02*
X99526500Y-72047978D01*
X98879037Y-68098516D02*
X98879037Y-67744963D01*
X84003999Y-64856999D02*
X84652001Y-64856999D01*
D75*
X82093000Y-67564000D02*
X82093000Y-69342000D01*
D76*
X104208500Y-72399500D02*
X99878022Y-72399500D01*
D75*
X139420500Y-123063000D02*
X139420500Y-121767500D01*
X139420500Y-121767500D02*
X138303000Y-120650000D01*
X139086000Y-125069600D02*
X139086000Y-123270500D01*
X139086000Y-123270500D02*
X139420500Y-122936000D01*
X138303000Y-120650000D02*
X140124000Y-118829000D01*
X140124000Y-118829000D02*
X140124000Y-114632000D01*
X122768500Y-101882000D02*
X120929500Y-100043000D01*
X120929500Y-100043000D02*
X120929500Y-99568000D01*
X123874000Y-101882000D02*
X122768500Y-101882000D01*
X130124000Y-92632000D02*
X130124000Y-88906000D01*
X130556000Y-88474000D02*
X130556000Y-88036500D01*
X130124000Y-88906000D02*
X130556000Y-88474000D01*
X129124000Y-91632000D02*
X129124000Y-92632000D01*
X128778000Y-88474000D02*
X129124000Y-88820000D01*
X129124000Y-88820000D02*
X129124000Y-91632000D01*
X128778000Y-88036500D02*
X128778000Y-88474000D01*
X133624000Y-88851500D02*
X133624000Y-91632000D01*
X133624000Y-91632000D02*
X133624000Y-92632000D01*
X132334000Y-88036500D02*
X132809000Y-88036500D01*
X132809000Y-88036500D02*
X133624000Y-88851500D01*
X135890000Y-90551000D02*
X135124000Y-91317000D01*
X135124000Y-91317000D02*
X135124000Y-92632000D01*
X135890000Y-88036500D02*
X135890000Y-90551000D01*
X141078500Y-58191500D02*
X140546000Y-57659000D01*
X140546000Y-57659000D02*
X140546000Y-57084000D01*
X142494000Y-58191500D02*
X141078500Y-58191500D01*
X104140000Y-74676000D02*
X104140000Y-73468000D01*
X135763000Y-56921500D02*
X138183500Y-56921500D01*
X138183500Y-56921500D02*
X138346000Y-57084000D01*
D76*
X147610000Y-105882000D02*
X148463000Y-105029000D01*
D75*
X104285999Y-73401999D02*
X104246000Y-73362000D01*
X148463000Y-85598000D02*
X138303000Y-75438000D01*
X138303000Y-58547000D02*
X138303000Y-57127000D01*
X138303000Y-57127000D02*
X138346000Y-57084000D01*
D76*
X145874000Y-105882000D02*
X147610000Y-105882000D01*
D75*
X136906000Y-76708000D02*
X138303000Y-75311000D01*
X116586000Y-78994000D02*
X134620000Y-78994000D01*
X138303000Y-75438000D02*
X138303000Y-75311000D01*
X104140000Y-73468000D02*
X104246000Y-73362000D01*
X134620000Y-78994000D02*
X136906000Y-76708000D01*
X135925500Y-57084000D02*
X135763000Y-56921500D01*
X127124000Y-114632000D02*
X127124000Y-115632000D01*
X120836000Y-121920000D02*
X117348000Y-121920000D01*
X96834000Y-137100000D02*
X96837500Y-137096500D01*
X99314000Y-136144000D02*
X97616029Y-136144000D01*
X127124000Y-115632000D02*
X120836000Y-121920000D01*
X96837500Y-136922529D02*
X96934975Y-136825054D01*
X96834000Y-138517000D02*
X96834000Y-137292000D01*
X96393000Y-138958000D02*
X96834000Y-138517000D01*
X117348000Y-121920000D02*
X114808000Y-124460000D01*
X96837500Y-137096500D02*
X96837500Y-136922529D01*
X96834000Y-137292000D02*
X96834000Y-137100000D01*
X96393000Y-142875000D02*
X96393000Y-138958000D01*
X97616029Y-136144000D02*
X96934975Y-136825054D01*
X130124000Y-115632000D02*
X130124000Y-114632000D01*
X117050002Y-133604000D02*
X130124000Y-120530002D01*
X130124000Y-120530002D02*
X130124000Y-115632000D01*
X114046000Y-133604000D02*
X117050002Y-133604000D01*
X106259000Y-133592000D02*
X105034000Y-133592000D01*
X114034000Y-133592000D02*
X114046000Y-133604000D01*
X106259000Y-133592000D02*
X114034000Y-133592000D01*
X116440264Y-121544990D02*
X114038352Y-123946902D01*
X92964000Y-142875000D02*
X92964000Y-138537000D01*
X126624000Y-115601656D02*
X120680666Y-121544990D01*
X96329500Y-136588500D02*
X96641185Y-136588500D01*
X126624000Y-114632000D02*
X126624000Y-115601656D01*
X96641185Y-136588500D02*
X97466685Y-135763000D01*
X96326000Y-136592000D02*
X96329500Y-136588500D01*
X97472500Y-135763000D02*
X97853500Y-135382000D01*
X96134000Y-136592000D02*
X96326000Y-136592000D01*
X94909000Y-136592000D02*
X96134000Y-136592000D01*
X92964000Y-138537000D02*
X94909000Y-136592000D01*
X120680666Y-121544990D02*
X116440264Y-121544990D01*
X97466685Y-135763000D02*
X97472500Y-135763000D01*
X97853500Y-135382000D02*
X97917000Y-135382000D01*
X117475000Y-131699000D02*
X129624000Y-119550000D01*
X106259000Y-133092000D02*
X105034000Y-133092000D01*
X129624000Y-119550000D02*
X129624000Y-114632000D01*
X117475000Y-131699000D02*
X114359998Y-131699000D01*
X112966998Y-133092000D02*
X106259000Y-133092000D01*
X114359998Y-131699000D02*
X112966998Y-133092000D01*
X111911994Y-135382000D02*
X110621994Y-134092000D01*
X106259000Y-134092000D02*
X105034000Y-134092000D01*
X117475000Y-135382000D02*
X111911994Y-135382000D01*
X117475000Y-135382000D02*
X130624000Y-122233000D01*
X110621994Y-134092000D02*
X106259000Y-134092000D01*
X130624000Y-122233000D02*
X130624000Y-114632000D01*
X129124000Y-115632000D02*
X129124000Y-114632000D01*
X129124000Y-118927428D02*
X129124000Y-115632000D01*
X114046000Y-129794000D02*
X114795999Y-129044001D01*
X114795999Y-129044001D02*
X119007427Y-129044001D01*
X111248000Y-132592000D02*
X114046000Y-129794000D01*
X106259000Y-132592000D02*
X111248000Y-132592000D01*
X106259000Y-132592000D02*
X105034000Y-132592000D01*
X119007427Y-129044001D02*
X129124000Y-118927428D01*
X98148000Y-114985800D02*
X97368000Y-114985800D01*
X97834000Y-125537990D02*
X98227219Y-125144771D01*
X97834000Y-127167000D02*
X97834000Y-125537990D01*
X95300800Y-114985800D02*
X93345000Y-113030000D01*
X98227219Y-125144771D02*
X98227219Y-115065019D01*
X97368000Y-114985800D02*
X95300800Y-114985800D01*
X98227219Y-115065019D02*
X98148000Y-114985800D01*
X97834000Y-127167000D02*
X97834000Y-128392000D01*
X97334000Y-127167000D02*
X97334000Y-128392000D01*
X97334000Y-127167000D02*
X97334000Y-124636094D01*
X97777210Y-119748210D02*
X96512999Y-118483999D01*
X97777210Y-124192884D02*
X97777210Y-119748210D01*
X96588000Y-115935800D02*
X97368000Y-115935800D01*
X97368000Y-115935800D02*
X93347500Y-115935800D01*
X97334000Y-124636094D02*
X97777210Y-124192884D01*
X96512999Y-118483999D02*
X96512999Y-116010801D01*
X93347500Y-115935800D02*
X93345000Y-115938300D01*
X96512999Y-116010801D02*
X96588000Y-115935800D01*
X99314000Y-110490000D02*
X81788000Y-92964000D01*
X81788000Y-92964000D02*
X81788000Y-88011000D01*
X123874000Y-110882000D02*
X121445490Y-110882000D01*
X121053490Y-110490000D02*
X99314000Y-110490000D01*
X75692000Y-85471000D02*
X81788000Y-85471000D01*
X81788000Y-88011000D02*
X81788000Y-85471000D01*
X121445490Y-110882000D02*
X121053490Y-110490000D01*
X138624000Y-115632000D02*
X138624000Y-114632000D01*
X139086000Y-127609600D02*
X135924598Y-127609600D01*
X135924598Y-127609600D02*
X136144000Y-127829002D01*
X135068999Y-126754001D02*
X135068999Y-119187001D01*
X135068999Y-119187001D02*
X138624000Y-115632000D01*
X136144000Y-127829002D02*
X136144000Y-131064000D01*
X135924598Y-127609600D02*
X135068999Y-126754001D01*
X142124000Y-114632000D02*
X142124000Y-116402998D01*
X146456400Y-127609600D02*
X147828000Y-126238000D01*
X142124000Y-116402998D02*
X147828000Y-122106998D01*
X142124000Y-114632000D02*
X142162000Y-114632000D01*
X147828000Y-122106998D02*
X147828000Y-125177340D01*
X144886000Y-127609600D02*
X146456400Y-127609600D01*
X147828000Y-125177340D02*
X147828000Y-126238000D01*
X145694400Y-126339600D02*
X146558000Y-125476000D01*
X140624000Y-116494000D02*
X144780000Y-120650000D01*
X144886000Y-126339600D02*
X145694400Y-126339600D01*
X140624000Y-114632000D02*
X140624000Y-116494000D01*
X145529999Y-121399999D02*
X144780000Y-120650000D01*
X146558000Y-125476000D02*
X146558000Y-122428000D01*
X146558000Y-122428000D02*
X145529999Y-121399999D01*
X136245600Y-126339600D02*
X136144000Y-126238000D01*
X139086000Y-126339600D02*
X136245600Y-126339600D01*
X139624000Y-115393410D02*
X139624000Y-114632000D01*
X136144000Y-126238000D02*
X136144000Y-118873410D01*
X136144000Y-118873410D02*
X139624000Y-115393410D01*
X147828000Y-131064000D02*
X147828000Y-129930198D01*
X148903001Y-121672411D02*
X148903001Y-126754001D01*
X142624000Y-115393410D02*
X148903001Y-121672411D01*
X146777402Y-128879600D02*
X145686000Y-128879600D01*
X147828000Y-129930198D02*
X146777402Y-128879600D01*
X142624000Y-114632000D02*
X142624000Y-115393410D01*
X145686000Y-128879600D02*
X144886000Y-128879600D01*
X148903001Y-126754001D02*
X146777402Y-128879600D01*
D74*
X162395000Y-96914000D02*
X161750510Y-96269510D01*
X161750510Y-96269510D02*
X147066000Y-96269510D01*
X146953510Y-96382000D02*
X145874000Y-96382000D01*
X147066000Y-96269510D02*
X146953510Y-96382000D01*
X145874000Y-99382000D02*
X160727000Y-99382000D01*
X160727000Y-99382000D02*
X160795000Y-99314000D01*
X158826000Y-97714000D02*
X160795000Y-97714000D01*
X148495958Y-97882000D02*
X148685468Y-98071510D01*
X148685468Y-98071510D02*
X158468490Y-98071510D01*
X145874000Y-97882000D02*
X148495958Y-97882000D01*
X158468490Y-98071510D02*
X158826000Y-97714000D01*
X146749000Y-102382000D02*
X145874000Y-102382000D01*
X161595000Y-100114000D02*
X161207499Y-100501501D01*
X161207499Y-100501501D02*
X148629499Y-100501501D01*
X148629499Y-100501501D02*
X146749000Y-102382000D01*
X160991499Y-98126499D02*
X161207499Y-98342499D01*
X161207499Y-98342499D02*
X161207499Y-98926499D01*
X161207499Y-98926499D02*
X161395001Y-99114001D01*
X160353498Y-98382000D02*
X160608999Y-98126499D01*
X161395001Y-99114001D02*
X161595000Y-99314000D01*
X160608999Y-98126499D02*
X160991499Y-98126499D01*
X145874000Y-98382000D02*
X160353498Y-98382000D01*
X146749000Y-100882000D02*
X147517000Y-100114000D01*
X147517000Y-100114000D02*
X160795000Y-100114000D01*
X145874000Y-100882000D02*
X146749000Y-100882000D01*
X145874000Y-98882000D02*
X160427000Y-98882000D01*
X160427000Y-98882000D02*
X160795000Y-98514000D01*
X159053498Y-102882000D02*
X160633997Y-101301501D01*
X161395001Y-101113999D02*
X161595000Y-100914000D01*
X145874000Y-102882000D02*
X159053498Y-102882000D01*
X160633997Y-101301501D02*
X161207499Y-101301501D01*
X161207499Y-101301501D02*
X161395001Y-101113999D01*
X146904501Y-99726499D02*
X161982501Y-99726499D01*
X146749000Y-99882000D02*
X146904501Y-99726499D01*
X161982501Y-99726499D02*
X162195001Y-99513999D01*
X145874000Y-99882000D02*
X146749000Y-99882000D01*
X162195001Y-99513999D02*
X162395000Y-99314000D01*
X159635000Y-103382000D02*
X159766000Y-103251000D01*
X145874000Y-103382000D02*
X159635000Y-103382000D01*
D75*
X159486999Y-93205999D02*
X162995001Y-96714001D01*
X145874000Y-95882000D02*
X152022000Y-95882000D01*
X152022000Y-95882000D02*
X155448000Y-92456000D01*
X156197999Y-93205999D02*
X159486999Y-93205999D01*
X155448000Y-92456000D02*
X156197999Y-93205999D01*
X162995001Y-96714001D02*
X163195000Y-96914000D01*
X152269000Y-103882000D02*
X153797000Y-105410000D01*
X153797000Y-105410000D02*
X154857660Y-105410000D01*
X145874000Y-103882000D02*
X152269000Y-103882000D01*
X160223000Y-103886000D02*
X162395000Y-101714000D01*
X154857660Y-105410000D02*
X156381660Y-103886000D01*
X156381660Y-103886000D02*
X160223000Y-103886000D01*
X163826000Y-87761000D02*
X162433000Y-89154000D01*
X160826660Y-89154000D02*
X159766000Y-89154000D01*
X163826000Y-85948000D02*
X163826000Y-87761000D01*
X162433000Y-89154000D02*
X160826660Y-89154000D01*
X90154000Y-140401000D02*
X90154000Y-139506298D01*
X94909000Y-135592000D02*
X96134000Y-135592000D01*
X90154000Y-139506298D02*
X94068298Y-135592000D01*
X94068298Y-135592000D02*
X94909000Y-135592000D01*
X191600000Y-95674000D02*
X190627000Y-96647000D01*
X193868000Y-115486000D02*
X191727000Y-115486000D01*
X137624000Y-113632000D02*
X137624000Y-113582000D01*
X191600000Y-76878000D02*
X190500000Y-77978000D01*
X193868000Y-95674000D02*
X191600000Y-95674000D01*
X137624000Y-113582000D02*
X138557000Y-112649000D01*
X191727000Y-115486000D02*
X190754000Y-116459000D01*
X193614000Y-76878000D02*
X191600000Y-76878000D01*
X137624000Y-114632000D02*
X137624000Y-113632000D01*
X193868000Y-133266000D02*
X191854000Y-133266000D01*
X191854000Y-133266000D02*
X190754000Y-134366000D01*
X144368315Y-109882000D02*
X144874000Y-109882000D01*
X104013000Y-66040000D02*
X104724000Y-66040000D01*
X143637000Y-109150685D02*
X144368315Y-109882000D01*
X105446000Y-66762000D02*
X105446000Y-67162000D01*
X143637000Y-108585000D02*
X143637000Y-109150685D01*
X104724000Y-66040000D02*
X105446000Y-66762000D01*
X144874000Y-109882000D02*
X145874000Y-109882000D01*
X144874000Y-108382000D02*
X143680000Y-107188000D01*
X106582559Y-65731825D02*
X106582559Y-65006265D01*
X106446000Y-67162000D02*
X106446000Y-65868384D01*
X106446000Y-65868384D02*
X106582559Y-65731825D01*
X143680000Y-107188000D02*
X143637000Y-107188000D01*
X145874000Y-108382000D02*
X144874000Y-108382000D01*
X145874000Y-106382000D02*
X144482000Y-106382000D01*
X106946000Y-66108386D02*
X106946000Y-67162000D01*
X144482000Y-106382000D02*
X143637000Y-105537000D01*
D76*
X200552165Y-71419709D02*
X200609046Y-71455450D01*
X204224998Y-71390000D02*
X206359000Y-71390000D01*
X200729521Y-72121491D02*
X200751709Y-72184900D01*
X201387450Y-71502953D02*
X201434953Y-71455450D01*
X207653998Y-71390000D02*
X207669998Y-71374000D01*
X209931000Y-71390000D02*
X208423000Y-71390000D01*
X201351709Y-71559834D02*
X201387450Y-71502953D01*
D75*
X207653998Y-71390000D02*
X208423000Y-71390000D01*
D76*
X201322000Y-72054735D02*
X201322000Y-71690000D01*
X201491834Y-71419709D02*
X201555243Y-71397521D01*
X200656549Y-71502953D02*
X200692290Y-71559834D01*
X201292290Y-72184900D02*
X201314478Y-72121491D01*
X200891834Y-72325025D02*
X200955243Y-72347213D01*
X201322000Y-71690000D02*
X201329521Y-71623243D01*
X201209046Y-72289284D02*
X201256549Y-72241781D01*
X200834953Y-72289284D02*
X200891834Y-72325025D01*
X202242549Y-71390000D02*
X204224998Y-71390000D01*
X201088756Y-72347213D02*
X201152165Y-72325025D01*
X201152165Y-72325025D02*
X201209046Y-72289284D01*
X206359000Y-71390000D02*
X207653998Y-71390000D01*
X200488756Y-71397521D02*
X200552165Y-71419709D01*
X201256549Y-72241781D02*
X201292290Y-72184900D01*
X200787450Y-72241781D02*
X200834953Y-72289284D01*
X200714478Y-71623243D02*
X200722000Y-71690000D01*
X200722000Y-72054735D02*
X200729521Y-72121491D01*
X200422000Y-71390000D02*
X200488756Y-71397521D01*
X198830459Y-71390000D02*
X200422000Y-71390000D01*
X200751709Y-72184900D02*
X200787450Y-72241781D01*
X200609046Y-71455450D02*
X200656549Y-71502953D01*
X200692290Y-71559834D02*
X200714478Y-71623243D01*
X201434953Y-71455450D02*
X201491834Y-71419709D01*
X200722000Y-71690000D02*
X200722000Y-72054735D01*
X201314478Y-72121491D02*
X201322000Y-72054735D01*
X201022000Y-72354735D02*
X201088756Y-72347213D01*
X200955243Y-72347213D02*
X201022000Y-72354735D01*
X201555243Y-71397521D02*
X201622000Y-71390000D01*
X198306459Y-70866000D02*
X198830459Y-71390000D01*
X201329521Y-71623243D02*
X201351709Y-71559834D01*
X201622000Y-71390000D02*
X202242549Y-71390000D01*
X197129500Y-70866000D02*
X198306459Y-70866000D01*
X201574756Y-110005522D02*
X201508000Y-109998000D01*
X201695046Y-110063451D02*
X201638165Y-110027710D01*
X202041243Y-110955214D02*
X201977834Y-110933026D01*
X201508000Y-109998000D02*
X198091000Y-109998000D01*
X201808000Y-110662735D02*
X201808000Y-110298000D01*
X209931000Y-109998000D02*
X208423000Y-109998000D01*
X201977834Y-110933026D02*
X201920953Y-110897285D01*
X202174756Y-110955214D02*
X202108000Y-110962735D01*
X202400478Y-110729492D02*
X202378290Y-110792901D01*
D75*
X207883000Y-109998000D02*
X208423000Y-109998000D01*
D76*
X202108000Y-110962735D02*
X202041243Y-110955214D01*
X202577834Y-110027710D02*
X202520953Y-110063451D01*
X201638165Y-110027710D02*
X201574756Y-110005522D01*
X202408000Y-110662735D02*
X202400478Y-110729492D01*
X201873450Y-110849782D02*
X201837709Y-110792901D01*
X202437709Y-110167835D02*
X202415521Y-110231244D01*
X202342549Y-110849782D02*
X202295046Y-110897285D01*
X202415521Y-110231244D02*
X202408000Y-110298000D01*
X201778290Y-110167835D02*
X201742549Y-110110954D01*
X201742549Y-110110954D02*
X201695046Y-110063451D01*
X201815521Y-110729492D02*
X201808000Y-110662735D01*
X202295046Y-110897285D02*
X202238165Y-110933026D01*
X206359000Y-109998000D02*
X207883000Y-109998000D01*
X202641243Y-110005522D02*
X202577834Y-110027710D01*
X202408000Y-110298000D02*
X202408000Y-110662735D01*
X202708000Y-109998000D02*
X202641243Y-110005522D01*
X197567000Y-109474000D02*
X197129500Y-109474000D01*
X201808000Y-110298000D02*
X201800478Y-110231244D01*
X198091000Y-109998000D02*
X197567000Y-109474000D01*
X202473450Y-110110954D02*
X202437709Y-110167835D01*
X202238165Y-110933026D02*
X202174756Y-110955214D01*
X201920953Y-110897285D02*
X201873450Y-110849782D01*
X206359000Y-109998000D02*
X202708000Y-109998000D01*
X201800478Y-110231244D02*
X201778290Y-110167835D01*
X202378290Y-110792901D02*
X202342549Y-110849782D01*
X201837709Y-110792901D02*
X201815521Y-110729492D01*
X202520953Y-110063451D02*
X202473450Y-110110954D01*
X200338834Y-70114312D02*
X200402243Y-70092124D01*
X197129500Y-69088000D02*
X198087261Y-70045761D01*
X198787489Y-69811812D02*
X198852983Y-69796863D01*
X198332982Y-70131741D02*
X198398476Y-70116793D01*
X200938834Y-70935290D02*
X201002243Y-70957478D01*
X200535756Y-70092124D02*
X200599165Y-70114312D01*
X198935790Y-70470025D02*
X198893904Y-70522548D01*
X200056046Y-70899549D02*
X200103549Y-70852046D01*
X201002243Y-70957478D02*
X201069000Y-70965000D01*
X200599165Y-70114312D02*
X200656046Y-70150053D01*
X198511524Y-70045760D02*
X198674440Y-69882845D01*
X199046182Y-69840959D02*
X199098705Y-69882845D01*
X200234450Y-70197556D02*
X200281953Y-70150053D01*
X200656046Y-70150053D02*
X200703549Y-70197556D01*
X198985656Y-69811812D02*
X199046182Y-69840959D01*
X198849808Y-70715747D02*
X198864757Y-70781241D01*
X198852983Y-69796863D02*
X198920162Y-69796863D01*
X199184686Y-70061388D02*
X199184686Y-70128567D01*
X199006500Y-70965000D02*
X199869000Y-70965000D01*
X200402243Y-70092124D02*
X200469000Y-70084603D01*
X200798709Y-70795165D02*
X200834450Y-70852046D01*
X199869000Y-70965000D02*
X199935756Y-70957478D01*
X200881953Y-70899549D02*
X200938834Y-70935290D01*
X199098705Y-69882845D02*
X199140590Y-69935368D01*
X198893904Y-70522548D02*
X198864757Y-70583074D01*
X198200308Y-70116793D02*
X198265803Y-70131741D01*
X198864757Y-70583074D02*
X198849808Y-70648568D01*
X200769000Y-70665000D02*
X200776521Y-70731756D01*
X199935756Y-70957478D02*
X199999165Y-70935290D01*
X199140590Y-69935368D02*
X199169738Y-69995893D01*
X200703549Y-70197556D02*
X200739290Y-70254437D01*
X198726963Y-69840959D02*
X198787489Y-69811812D01*
X198087261Y-70045761D02*
X198139783Y-70087645D01*
X198920162Y-69796863D02*
X198985656Y-69811812D01*
X198864757Y-70781241D02*
X198893904Y-70841767D01*
X206490000Y-70370000D02*
X208151000Y-70370000D01*
X199999165Y-70935290D02*
X200056046Y-70899549D01*
X198139783Y-70087645D02*
X198200308Y-70116793D01*
X198849808Y-70648568D02*
X198849808Y-70715747D01*
X200169000Y-70665000D02*
X200169000Y-70384603D01*
X199184686Y-70128567D02*
X199169738Y-70194061D01*
X199169738Y-70194061D02*
X199140590Y-70254587D01*
X198935790Y-70894290D02*
X199006500Y-70965000D01*
X198459002Y-70087645D02*
X198511524Y-70045760D01*
X200761478Y-70317846D02*
X200769000Y-70384603D01*
X200103549Y-70852046D02*
X200139290Y-70795165D01*
X199140590Y-70254587D02*
X199098705Y-70307109D01*
X198893904Y-70841767D02*
X198935790Y-70894290D01*
X200769000Y-70384603D02*
X200769000Y-70665000D01*
X200469000Y-70084603D02*
X200535756Y-70092124D01*
X198265803Y-70131741D02*
X198332982Y-70131741D01*
X200161478Y-70731756D02*
X200169000Y-70665000D01*
X201069000Y-70965000D02*
X205895000Y-70965000D01*
X205895000Y-70965000D02*
X206490000Y-70370000D01*
X199098705Y-70307109D02*
X198935790Y-70470025D01*
X199169738Y-69995893D02*
X199184686Y-70061388D01*
X200176521Y-70317846D02*
X200198709Y-70254437D01*
X200776521Y-70731756D02*
X200798709Y-70795165D01*
X200739290Y-70254437D02*
X200761478Y-70317846D01*
X200198709Y-70254437D02*
X200234450Y-70197556D01*
X198398476Y-70116793D02*
X198459002Y-70087645D01*
X200139290Y-70795165D02*
X200161478Y-70731756D01*
X200834450Y-70852046D02*
X200881953Y-70899549D01*
X198674440Y-69882845D02*
X198726963Y-69840959D01*
X200169000Y-70384603D02*
X200176521Y-70317846D01*
X200281953Y-70150053D02*
X200338834Y-70114312D01*
X201306709Y-109403165D02*
X201342450Y-109460046D01*
X201389953Y-109507549D02*
X201446834Y-109543290D01*
X201247290Y-108887436D02*
X201269478Y-108950845D01*
X199273075Y-108722419D02*
X199273075Y-108789598D01*
X200706709Y-108887436D02*
X200742450Y-108830555D01*
X200443756Y-109565478D02*
X200507165Y-109543290D01*
X200669478Y-109339756D02*
X200677000Y-109273000D01*
X198271018Y-108795503D02*
X198336512Y-108810452D01*
X200647290Y-109403165D02*
X200669478Y-109339756D01*
X198964614Y-109520477D02*
X199006500Y-109573000D01*
X201284521Y-109339756D02*
X201306709Y-109403165D01*
X198403691Y-108810452D02*
X198469186Y-108795503D01*
X198157971Y-108724471D02*
X198210492Y-108766355D01*
X200742450Y-108830555D02*
X200789953Y-108783052D01*
X199008550Y-108457895D02*
X199074044Y-108472844D01*
X200910243Y-108725123D02*
X200977000Y-108717602D01*
X201164046Y-108783052D02*
X201211549Y-108830555D01*
X199134570Y-108501991D02*
X199187093Y-108543877D01*
X199273075Y-108789598D02*
X199258126Y-108855093D01*
X201043756Y-108725123D02*
X201107165Y-108747311D01*
X199228978Y-108915618D02*
X199187093Y-108968141D01*
X198875877Y-108472844D02*
X198941371Y-108457895D01*
X198941371Y-108457895D02*
X199008550Y-108457895D01*
X201269478Y-108950845D02*
X201277000Y-109017602D01*
X199258126Y-108656925D02*
X199273075Y-108722419D01*
X198762828Y-108543877D02*
X198815351Y-108501991D01*
X206627000Y-108978000D02*
X208151000Y-108978000D01*
X200377000Y-109573000D02*
X200443756Y-109565478D01*
X201277000Y-109273000D02*
X201284521Y-109339756D01*
X198935467Y-109459951D02*
X198964614Y-109520477D01*
X201446834Y-109543290D02*
X201510243Y-109565478D01*
X200684521Y-108950845D02*
X200706709Y-108887436D01*
X198920518Y-109327278D02*
X198920518Y-109394457D01*
X200564046Y-109507549D02*
X200611549Y-109460046D01*
X198529711Y-108766355D02*
X198582234Y-108724470D01*
X201277000Y-109017602D02*
X201277000Y-109273000D01*
X199187093Y-108543877D02*
X199228978Y-108596399D01*
X200677000Y-109273000D02*
X200677000Y-109017602D01*
X198920518Y-109394457D02*
X198935467Y-109459951D01*
X199006500Y-109573000D02*
X200377000Y-109573000D01*
X201211549Y-108830555D02*
X201247290Y-108887436D01*
X201510243Y-109565478D02*
X201577000Y-109573000D01*
X200789953Y-108783052D02*
X200846834Y-108747311D01*
X198935467Y-109261784D02*
X198920518Y-109327278D01*
X201577000Y-109573000D02*
X206032000Y-109573000D01*
X198469186Y-108795503D02*
X198529711Y-108766355D01*
X199228978Y-108596399D02*
X199258126Y-108656925D01*
X198815351Y-108501991D02*
X198875877Y-108472844D01*
X198210492Y-108766355D02*
X198271018Y-108795503D01*
X198582234Y-108724470D02*
X198762828Y-108543877D01*
X198336512Y-108810452D02*
X198403691Y-108810452D01*
X206032000Y-109573000D02*
X206627000Y-108978000D01*
X199187093Y-108968141D02*
X199006500Y-109148735D01*
X199258126Y-108855093D02*
X199228978Y-108915618D01*
X200507165Y-109543290D02*
X200564046Y-109507549D01*
X201342450Y-109460046D02*
X201389953Y-109507549D01*
X199074044Y-108472844D02*
X199134570Y-108501991D01*
X198964614Y-109201258D02*
X198935467Y-109261784D01*
X200977000Y-108717602D02*
X201043756Y-108725123D01*
X200611549Y-109460046D02*
X200647290Y-109403165D01*
X201107165Y-108747311D02*
X201164046Y-108783052D01*
X197129500Y-107696000D02*
X198157971Y-108724471D01*
X200677000Y-109017602D02*
X200684521Y-108950845D01*
X199006500Y-109148735D02*
X198964614Y-109201258D01*
X200846834Y-108747311D02*
X200910243Y-108725123D01*
X201046000Y-90994000D02*
X201038478Y-90927244D01*
X209931000Y-90694000D02*
X208423000Y-90694000D01*
X201016290Y-90863835D02*
X200980549Y-90806954D01*
X204224998Y-90694000D02*
X201946000Y-90694000D01*
X201646000Y-91253524D02*
X201638478Y-91320281D01*
X201053521Y-91320281D02*
X201046000Y-91253524D01*
X201346000Y-91553524D02*
X201279243Y-91546003D01*
X201046000Y-91253524D02*
X201046000Y-90994000D01*
X201815834Y-90723710D02*
X201758953Y-90759451D01*
X201158953Y-91488074D02*
X201111450Y-91440571D01*
X201653521Y-90927244D02*
X201646000Y-90994000D01*
X201758953Y-90759451D02*
X201711450Y-90806954D01*
X201476165Y-91523815D02*
X201412756Y-91546003D01*
X198306459Y-89662000D02*
X197129500Y-89662000D01*
X200933046Y-90759451D02*
X200876165Y-90723710D01*
X201075709Y-91383690D02*
X201053521Y-91320281D01*
X201533046Y-91488074D02*
X201476165Y-91523815D01*
X201638478Y-91320281D02*
X201616290Y-91383690D01*
X199338459Y-90694000D02*
X198306459Y-89662000D01*
X201412756Y-91546003D02*
X201346000Y-91553524D01*
X201111450Y-91440571D02*
X201075709Y-91383690D01*
X201038478Y-90927244D02*
X201016290Y-90863835D01*
X201580549Y-91440571D02*
X201533046Y-91488074D01*
X201279243Y-91546003D02*
X201215834Y-91523815D01*
D75*
X207883000Y-90694000D02*
X208423000Y-90694000D01*
D76*
X201711450Y-90806954D02*
X201675709Y-90863835D01*
X200980549Y-90806954D02*
X200933046Y-90759451D01*
X201675709Y-90863835D02*
X201653521Y-90927244D01*
X201946000Y-90694000D02*
X201879243Y-90701522D01*
X201215834Y-91523815D02*
X201158953Y-91488074D01*
X204224998Y-90694000D02*
X206359000Y-90694000D01*
X201879243Y-90701522D02*
X201815834Y-90723710D01*
X200812756Y-90701522D02*
X200746000Y-90694000D01*
X206359000Y-90694000D02*
X207883000Y-90694000D01*
X201646000Y-90994000D02*
X201646000Y-91253524D01*
X200746000Y-90694000D02*
X199338459Y-90694000D01*
X200876165Y-90723710D02*
X200812756Y-90701522D01*
X201616290Y-91383690D02*
X201580549Y-91440571D01*
X199471210Y-129336719D02*
X199429325Y-129284197D01*
X199523733Y-129378605D02*
X199471210Y-129336719D01*
X197156459Y-127254000D02*
X197129500Y-127254000D01*
X198306459Y-127254000D02*
X197156459Y-127254000D01*
D75*
X208423000Y-129302000D02*
X207883000Y-129302000D01*
D76*
X200301937Y-129260115D02*
X200241410Y-129230967D01*
X199471211Y-128912455D02*
X199505929Y-128877734D01*
X199716932Y-129422702D02*
X199649752Y-129422701D01*
X200043244Y-129230968D02*
X199982717Y-129260114D01*
X199842951Y-129378604D02*
X199782427Y-129407753D01*
X199591911Y-128632012D02*
X199576963Y-128566519D01*
X199576963Y-128764687D02*
X199591912Y-128699192D01*
X206359000Y-129302000D02*
X207883000Y-129302000D01*
X200175917Y-129216019D02*
X200108737Y-129216018D01*
X199982717Y-129260114D02*
X199930195Y-129302001D01*
X209931000Y-129302000D02*
X208423000Y-129302000D01*
X199385228Y-129090997D02*
X199400178Y-129025504D01*
X199547814Y-128825211D02*
X199576963Y-128764687D01*
X200241410Y-129230967D02*
X200175917Y-129216019D01*
X199385229Y-129158177D02*
X199385228Y-129090997D01*
X199649752Y-129422701D02*
X199584259Y-129407753D01*
X199505930Y-128453471D02*
X198306459Y-127254000D01*
X204224998Y-129302000D02*
X206359000Y-129302000D01*
X199584259Y-129407753D02*
X199523733Y-129378605D01*
X204224998Y-129302000D02*
X200354459Y-129302000D01*
X199400177Y-129223670D02*
X199385229Y-129158177D01*
X199547815Y-128505993D02*
X199505930Y-128453471D01*
X199429324Y-128964977D02*
X199471211Y-128912455D01*
X199895474Y-129336719D02*
X199842951Y-129378604D01*
X199576963Y-128566519D02*
X199547815Y-128505993D01*
X199429325Y-129284197D02*
X199400177Y-129223670D01*
X199505929Y-128877734D02*
X199547814Y-128825211D01*
X200108737Y-129216018D02*
X200043244Y-129230968D01*
X200354459Y-129302000D02*
X200301937Y-129260115D01*
X199930195Y-129302001D02*
X199895474Y-129336719D01*
X199400178Y-129025504D02*
X199429324Y-128964977D01*
X199591912Y-128699192D02*
X199591911Y-128632012D01*
X199782427Y-129407753D02*
X199716932Y-129422702D01*
X199443467Y-89957784D02*
X199472614Y-89897258D01*
X206617000Y-89674000D02*
X208151000Y-89674000D01*
X198665971Y-89420471D02*
X197891149Y-88645649D01*
X201362243Y-89473729D02*
X201298834Y-89495917D01*
X201495756Y-89473729D02*
X201429000Y-89466208D01*
X201841953Y-90203549D02*
X201794450Y-90156046D01*
X198779018Y-89491503D02*
X198718492Y-89462355D01*
X199544846Y-89206042D02*
X199479352Y-89191093D01*
X200959165Y-90239290D02*
X200895756Y-90261478D01*
X199728928Y-89390123D02*
X199699780Y-89329597D01*
X202029000Y-90269000D02*
X201962243Y-90261478D01*
X198718492Y-89462355D02*
X198665971Y-89420471D01*
X201559165Y-89495917D02*
X201495756Y-89473729D01*
X201729000Y-89969000D02*
X201729000Y-89766208D01*
X201616046Y-89531658D02*
X201559165Y-89495917D01*
X201736521Y-90035756D02*
X201729000Y-89969000D01*
X206617000Y-89674000D02*
X206022000Y-90269000D01*
X199443467Y-90155951D02*
X199428518Y-90090457D01*
X199428518Y-90090457D02*
X199428518Y-90023278D01*
X199412173Y-89191093D02*
X199346679Y-89206042D01*
X199286153Y-89235189D02*
X199233630Y-89277075D01*
X199514500Y-89844735D02*
X199657895Y-89701339D01*
X199090234Y-89420470D02*
X199037711Y-89462355D01*
X198911691Y-89506452D02*
X198844513Y-89506452D01*
X199233630Y-89277075D02*
X199090234Y-89420470D01*
X201962243Y-90261478D02*
X201898834Y-90239290D01*
X200895756Y-90261478D02*
X200829000Y-90269000D01*
X201241953Y-89531658D02*
X201194450Y-89579161D01*
X199728928Y-89588291D02*
X199743877Y-89522796D01*
X199743877Y-89455618D02*
X199728928Y-89390123D01*
X198977186Y-89491503D02*
X198911691Y-89506452D01*
X199743877Y-89522796D02*
X199743877Y-89455618D01*
X199699780Y-89329597D02*
X199657895Y-89277075D01*
X199428518Y-90023278D02*
X199443467Y-89957784D01*
X199657895Y-89701339D02*
X199699780Y-89648816D01*
X197891149Y-88645649D02*
X197129500Y-87884000D01*
X201194450Y-89579161D02*
X201158709Y-89636042D01*
X201158709Y-89636042D02*
X201136521Y-89699451D01*
X199699780Y-89648816D02*
X199728928Y-89588291D01*
X199037711Y-89462355D02*
X198977186Y-89491503D01*
X201129000Y-89969000D02*
X201121478Y-90035756D01*
X201729000Y-89766208D02*
X201721478Y-89699451D01*
X201121478Y-90035756D02*
X201099290Y-90099165D01*
X201721478Y-89699451D02*
X201699290Y-89636042D01*
X201063549Y-90156046D02*
X201016046Y-90203549D01*
X201699290Y-89636042D02*
X201663549Y-89579161D01*
X199514500Y-90269000D02*
X199472614Y-90216477D01*
X201136521Y-89699451D02*
X201129000Y-89766208D01*
X201016046Y-90203549D02*
X200959165Y-90239290D01*
X201898834Y-90239290D02*
X201841953Y-90203549D01*
X199605372Y-89235189D02*
X199544846Y-89206042D01*
X199472614Y-89897258D02*
X199514500Y-89844735D01*
X199346679Y-89206042D02*
X199286153Y-89235189D01*
X201429000Y-89466208D02*
X201362243Y-89473729D01*
X199479352Y-89191093D02*
X199412173Y-89191093D01*
X199472614Y-90216477D02*
X199443467Y-90155951D01*
X201758709Y-90099165D02*
X201736521Y-90035756D01*
X201298834Y-89495917D02*
X201241953Y-89531658D01*
X199657895Y-89277075D02*
X199605372Y-89235189D01*
X201794450Y-90156046D02*
X201758709Y-90099165D01*
X198844513Y-89506452D02*
X198779018Y-89491503D01*
X201663549Y-89579161D02*
X201616046Y-89531658D01*
X201129000Y-89766208D02*
X201129000Y-89969000D01*
X206627000Y-89674000D02*
X206617000Y-89674000D01*
X206022000Y-90269000D02*
X202029000Y-90269000D01*
X201099290Y-90099165D02*
X201063549Y-90156046D01*
X200829000Y-90269000D02*
X199514500Y-90269000D01*
X201063746Y-127903049D02*
X201130503Y-127895527D01*
X201000337Y-127925237D02*
X201063746Y-127903049D01*
X201130503Y-127895527D02*
X201197259Y-127903049D01*
X201260668Y-127925237D02*
X201317549Y-127960978D01*
X201730503Y-128876990D02*
X206121000Y-128876990D01*
X201430503Y-128195527D02*
X201430503Y-128576990D01*
X200838024Y-128128771D02*
X200860212Y-128065362D01*
X200717549Y-128811540D02*
X200765052Y-128764037D01*
X201430503Y-128576990D02*
X201438024Y-128643747D01*
X201600337Y-128847281D02*
X201663746Y-128869469D01*
X198374000Y-126283000D02*
X198374000Y-126720487D01*
X197567000Y-125476000D02*
X198374000Y-126283000D01*
X201495953Y-128764037D02*
X201543456Y-128811540D01*
X201663746Y-128869469D02*
X201730503Y-128876990D01*
X200530503Y-128876990D02*
X200597259Y-128869469D01*
X201197259Y-127903049D02*
X201260668Y-127925237D01*
X200830503Y-128576990D02*
X200830503Y-128195527D01*
X200830503Y-128195527D02*
X200838024Y-128128771D01*
X200860212Y-128065362D02*
X200895953Y-128008481D01*
X200822981Y-128643747D02*
X200830503Y-128576990D01*
X200943456Y-127960978D02*
X201000337Y-127925237D01*
X201438024Y-128643747D02*
X201460212Y-128707156D01*
X206121000Y-128876990D02*
X206715990Y-128282000D01*
X200660668Y-128847281D02*
X200717549Y-128811540D01*
X201400793Y-128065362D02*
X201422981Y-128128771D01*
X201422981Y-128128771D02*
X201430503Y-128195527D01*
X201460212Y-128707156D02*
X201495953Y-128764037D01*
X200800793Y-128707156D02*
X200822981Y-128643747D01*
X201317549Y-127960978D02*
X201365052Y-128008481D01*
X200597259Y-128869469D02*
X200660668Y-128847281D01*
X200765052Y-128764037D02*
X200800793Y-128707156D01*
X201365052Y-128008481D02*
X201400793Y-128065362D01*
X201543456Y-128811540D02*
X201600337Y-128847281D01*
X206715990Y-128282000D02*
X208151000Y-128282000D01*
X200895953Y-128008481D02*
X200943456Y-127960978D01*
X197129500Y-125476000D02*
X197567000Y-125476000D01*
X198374000Y-126720487D02*
X200530503Y-128876990D01*
D75*
X149375000Y-108252500D02*
X149072500Y-107950000D01*
X149004500Y-107882000D02*
X149072500Y-107950000D01*
X149375000Y-109347000D02*
X149375000Y-108252500D01*
X145874000Y-107882000D02*
X149004500Y-107882000D01*
X66776500Y-117318500D02*
X66814000Y-117356000D01*
X66776500Y-115316000D02*
X66776500Y-117318500D01*
X77724000Y-119106000D02*
X77724000Y-120656000D01*
X68351500Y-115316000D02*
X69977000Y-115316000D01*
X75585000Y-116967000D02*
X77724000Y-119106000D01*
X68914000Y-117856000D02*
X69803000Y-116967000D01*
X69803000Y-116967000D02*
X70358000Y-116967000D01*
X69977000Y-115316000D02*
X70485000Y-115824000D01*
X70485000Y-115824000D02*
X70485000Y-116840000D01*
X68314000Y-117856000D02*
X68914000Y-117856000D01*
X70358000Y-116967000D02*
X75585000Y-116967000D01*
X70485000Y-116840000D02*
X70358000Y-116967000D01*
X64787500Y-118356000D02*
X64770000Y-118338500D01*
X66814000Y-118356000D02*
X64787500Y-118356000D01*
X64770000Y-116611500D02*
X64770000Y-118338500D01*
X61214000Y-116611500D02*
X64770000Y-116611500D01*
X76185000Y-75879000D02*
X73752500Y-75879000D01*
X72009000Y-80057500D02*
X72009000Y-77622500D01*
X73752500Y-75879000D02*
X72009000Y-77622500D01*
M02*
