M48
; DRILL file {KiCad 9.0.0-9.0.0-2~ubuntu24.04.1} date 2025-03-10T11:08:01+0100
; FORMAT={-:-/ absolute / metric / decimal}
; #@! TF.CreationDate,2025-03-10T11:08:01+01:00
; #@! TF.GenerationSoftware,Kicad,Pcbnew,9.0.0-9.0.0-2~ubuntu24.04.1
; #@! TF.FileFunction,Plated,1,4,PTH
FMAT,2
METRIC
; #@! TA.AperFunction,Plated,PTH,ViaDrill
T1C0.200
; #@! TA.AperFunction,Plated,PTH,ViaDrill
T2C0.300
; #@! TA.AperFunction,Plated,PTH,ViaDrill
T3C0.400
; #@! TA.AperFunction,Plated,PTH,ComponentDrill
T4C0.700
; #@! TA.AperFunction,Plated,PTH,ViaDrill
T5C0.800
; #@! TA.AperFunction,Plated,PTH,ComponentDrill
T6C0.890
; #@! TA.AperFunction,Plated,PTH,ComponentDrill
T7C1.000
; #@! TA.AperFunction,Plated,PTH,ComponentDrill
T8C1.016
; #@! TA.AperFunction,Plated,PTH,ComponentDrill
T9C1.100
; #@! TA.AperFunction,Plated,PTH,ComponentDrill
T10C1.400
; #@! TA.AperFunction,Plated,PTH,ComponentDrill
T11C1.500
; #@! TA.AperFunction,Plated,PTH,ComponentDrill
T12C1.570
; #@! TA.AperFunction,Plated,PTH,ComponentDrill
T13C1.700
%
G90
G05
T1
X101.727Y-74.93
X102.636Y-69.362
X102.89Y-71.862
X103.632Y-75.946
X106.583Y-65.006
X106.946Y-66.108
X158.369Y-96.901
X159.766Y-103.251
X160.02Y-104.648
X160.795Y-96.914
X163.195Y-98.514
X163.195Y-100.114
X163.195Y-100.914
X163.195Y-101.714
X163.83Y-96.012
X164.795Y-98.514
X164.795Y-100.164
X165.595Y-100.914
X166.37Y-97.276
X166.37Y-98.298
X167.64Y-104.14
T2
X96.045Y-74.074
X96.487Y-74.516
T3
X56.515Y-138.811
X59.309Y-128.397
X59.436Y-57.404
X59.436Y-70.104
X59.436Y-77.978
X59.436Y-90.678
X60.579Y-132.969
X60.96Y-131.445
X61.214Y-119.888
X65.278Y-66.802
X65.3Y-131.729
X65.786Y-87.376
X65.786Y-117.602
X66.04Y-132.969
X68.707Y-121.285
X69.342Y-116.332
X70.104Y-129.794
X70.104Y-134.493
X72.009Y-83.058
X72.009Y-85.852
X72.39Y-87.503
X73.406Y-112.649
X74.549Y-77.978
X74.676Y-70.104
X75.438Y-96.266
X77.724Y-82.677
X79.121Y-77.978
X79.248Y-61.214
X79.502Y-64.389
X79.756Y-111.125
X81.407Y-126.238
X83.058Y-64.262
X83.058Y-139.573
X83.947Y-61.214
X84.328Y-65.532
X87.122Y-135.89
X88.265Y-126.111
X88.392Y-87.63
X89.662Y-84.709
X90.17Y-94.234
X90.17Y-106.172
X90.932Y-143.637
X93.076Y-130.825
X93.218Y-135.255
X93.32Y-137.262
X93.853Y-121.539
X94.234Y-73.914
X94.361Y-133.858
X95.25Y-108.204
X95.377Y-72.517
X95.631Y-127.127
X97.409Y-117.983
X97.917Y-135.382
X98.225Y-68.399
X98.334Y-138.517
X98.42Y-70.48
X98.425Y-71.501
X98.879Y-67.745
X99.314Y-136.144
X100.33Y-69.342
X100.834Y-138.561
X101.473Y-115.951
X101.619Y-70.085
X102.87Y-66.675
X102.87Y-126.873
X102.878Y-70.858
X103.834Y-138.609
X103.886Y-125.222
X103.886Y-144.272
X104.013Y-66.04
X104.14Y-74.676
X104.648Y-63.373
X105.918Y-65.405
X105.918Y-79.629
X106.251Y-77.803
X106.553Y-129.54
X107.296Y-65.405
X108.204Y-111.252
X108.458Y-83.653
X109.347Y-57.277
X109.347Y-120.777
X109.347Y-143.764
X109.474Y-77.902
X111.379Y-74.93
X111.633Y-129.032
X111.633Y-130.81
X111.76Y-136.525
X111.887Y-63.119
X111.887Y-64.135
X113.284Y-102.87
X113.919Y-84.201
X114.038Y-123.947
X114.173Y-64.973
X114.3Y-57.912
X114.554Y-102.87
X114.808Y-124.46
X115.138Y-73.838
X115.164Y-70.053
X116.586Y-78.994
X117.348Y-69.723
X118.11Y-98.298
X118.364Y-70.866
X118.364Y-71.882
X119.38Y-85.163
X119.38Y-98.298
X119.38Y-105.918
X119.888Y-114.808
X120.396Y-68.834
X120.396Y-82.55
X121.031Y-58.801
X121.412Y-67.564
X121.412Y-114.808
X121.539Y-62.992
X121.666Y-64.77
X122.174Y-104.657
X122.174Y-105.918
X122.301Y-96.901
X122.301Y-98.933
X123.825Y-93.853
X123.952Y-60.198
X124.333Y-132.08
X125.222Y-115.57
X125.603Y-86.487
X125.603Y-96.139
X126.111Y-90.424
X126.238Y-117.729
X126.492Y-107.188
X126.873Y-91.059
X127.762Y-90.043
X128.016Y-97.536
X128.016Y-116.586
X128.399Y-90.932
X128.651Y-132.08
X128.778Y-59.436
X130.556Y-94.234
X130.937Y-89.535
X131.318Y-90.551
X131.826Y-57.785
X131.826Y-62.23
X132.145Y-90.965
X132.588Y-113.03
X132.588Y-132.08
X132.715Y-97.536
X132.974Y-90.424
X134.112Y-94.488
X134.112Y-113.03
X134.77Y-90.432
X136.271Y-137.414
X136.525Y-94.234
X136.611Y-89.479
X136.779Y-91.186
X137.033Y-56.134
X137.16Y-53.34
X137.424Y-89.921
X137.907Y-85.456
X138.303Y-58.547
X138.303Y-75.311
X138.409Y-89.855
X138.557Y-112.649
X138.974Y-90.678
X139.065Y-130.302
X139.446Y-113.299
X140.081Y-94.107
X140.208Y-132.207
X140.462Y-90.805
X140.589Y-119.761
X140.716Y-113.299
X140.97Y-124.46
X141.732Y-108.871
X141.732Y-109.871
X141.732Y-110.871
X141.732Y-111.887
X141.986Y-89.408
X141.986Y-113.299
X141.986Y-127.0
X142.24Y-102.108
X143.129Y-121.793
X143.51Y-125.095
X143.637Y-105.537
X143.637Y-107.188
X143.637Y-108.585
X144.018Y-96.139
X144.018Y-97.409
X144.018Y-100.711
X144.018Y-101.854
X144.272Y-59.563
X144.272Y-91.44
X144.653Y-114.554
X145.796Y-56.642
X145.923Y-93.726
X145.923Y-113.665
X147.32Y-89.916
X147.574Y-106.934
X148.463Y-85.598
X148.463Y-105.029
X148.59Y-111.506
X151.384Y-132.207
X152.019Y-107.95
X152.146Y-114.046
X157.861Y-85.598
X158.496Y-81.28
X161.036Y-92.202
X161.671Y-88.392
X166.37Y-88.392
X166.878Y-106.426
X166.878Y-108.204
X168.402Y-95.25
X169.545Y-85.598
X171.958Y-104.394
X177.673Y-96.901
X177.673Y-98.806
X178.562Y-105.537
X188.976Y-70.866
X188.976Y-89.662
X188.976Y-109.474
X188.976Y-127.254
X190.5Y-77.978
X190.627Y-96.647
X190.754Y-116.459
X190.754Y-134.366
X190.881Y-92.837
X190.881Y-130.683
X191.008Y-74.168
X191.008Y-112.776
X193.802Y-82.55
X194.056Y-101.346
X194.056Y-121.158
X194.056Y-138.684
X195.326Y-82.55
X195.58Y-101.346
X195.58Y-121.158
X195.58Y-138.684
X196.494Y-129.616
X196.596Y-111.811
X196.647Y-91.973
X196.723Y-73.254
T4
X60.452Y-110.236
X65.786Y-81.153
X66.802Y-59.944
X71.882Y-59.944
X75.438Y-140.335
X81.026Y-76.708
X81.788Y-85.471
X85.344Y-134.874
X85.598Y-115.062
X85.598Y-120.396
X87.63Y-63.5
X87.63Y-67.056
X88.773Y-104.267
X92.964Y-142.875
X93.345Y-113.03
X93.345Y-115.938
X96.393Y-142.875
X104.381Y-115.938
X104.394Y-113.03
X108.331Y-86.741
X110.744Y-123.749
X111.506Y-88.265
X114.046Y-129.794
X114.046Y-133.604
X117.475Y-131.699
X117.475Y-135.382
X123.19Y-58.42
X132.842Y-66.04
X132.842Y-69.596
X136.144Y-126.238
X136.144Y-131.064
X138.303Y-120.65
X144.78Y-120.65
X147.828Y-126.238
X147.828Y-131.064
X153.797Y-105.41
X155.448Y-92.456
X159.766Y-89.154
X172.339Y-71.628
X176.784Y-139.446
T5
X62.103Y-106.426
X62.23Y-100.076
X68.072Y-74.676
X72.898Y-74.676
X75.184Y-103.886
X76.327Y-100.457
X85.725Y-71.755
X85.725Y-106.299
X88.392Y-74.422
X89.662Y-111.887
X96.393Y-109.982
X96.393Y-112.649
X100.584Y-132.842
X107.696Y-70.612
X134.874Y-103.632
T6
X208.151Y-68.33
X208.151Y-70.37
X208.151Y-72.41
X208.151Y-74.45
X208.151Y-87.634
X208.151Y-89.674
X208.151Y-91.714
X208.151Y-93.754
X208.151Y-106.938
X208.151Y-108.978
X208.151Y-111.018
X208.151Y-113.058
X208.151Y-126.242
X208.151Y-128.282
X208.151Y-130.322
X208.151Y-132.362
X209.931Y-67.31
X209.931Y-69.35
X209.931Y-71.39
X209.931Y-73.43
X209.931Y-86.614
X209.931Y-88.654
X209.931Y-90.694
X209.931Y-92.734
X209.931Y-105.918
X209.931Y-107.958
X209.931Y-109.998
X209.931Y-112.038
X209.931Y-125.222
X209.931Y-127.262
X209.931Y-129.302
X209.931Y-131.342
T7
X59.944Y-123.19
X62.484Y-123.19
X65.024Y-123.19
X86.36Y-81.026
X88.9Y-81.026
X91.44Y-81.026
X98.425Y-88.519
X98.425Y-91.059
X98.425Y-93.599
X98.425Y-96.139
X98.425Y-98.679
X100.965Y-88.519
X100.965Y-91.059
X100.965Y-93.599
X100.965Y-96.139
X100.965Y-98.679
X152.146Y-56.896
X154.686Y-56.896
X157.226Y-56.896
X159.766Y-56.896
X162.306Y-56.896
X164.846Y-56.896
X167.386Y-56.896
X169.926Y-56.896
X172.466Y-56.896
X175.006Y-56.896
X177.546Y-56.896
X180.086Y-56.896
X182.626Y-56.896
X185.166Y-56.896
T8
X108.458Y-94.996
X108.458Y-97.536
X108.458Y-100.076
X108.458Y-102.616
X108.458Y-105.156
X110.998Y-94.996
X110.998Y-97.536
X110.998Y-100.076
X110.998Y-102.616
X110.998Y-105.156
T9
X55.961Y-127.463
X55.961Y-136.443
X61.911Y-127.823
X61.911Y-136.083
T10
X80.518Y-97.028
X80.518Y-100.838
X119.634Y-143.764
X123.444Y-143.764
X132.08Y-143.764
X135.89Y-143.764
X144.526Y-143.764
X148.336Y-143.764
T11
X98.171Y-81.026
X124.968Y-73.66
T12
X209.041Y-62.74
X209.041Y-79.0
X209.041Y-82.044
X209.041Y-98.304
X209.041Y-101.348
X209.041Y-117.608
X209.041Y-120.652
X209.041Y-136.912
T13
X95.631Y-78.486
X95.631Y-83.566
X100.711Y-78.486
X100.711Y-83.566
X122.428Y-71.12
X122.428Y-76.2
X127.508Y-71.12
X127.508Y-76.2
M30
