G04 #@! TF.GenerationSoftware,KiCad,Pcbnew,9.0.0-9.0.0-2~ubuntu24.04.1*
G04 #@! TF.CreationDate,2025-03-10T11:02:05+01:00*
G04 #@! TF.ProjectId,Receiver,52656365-6976-4657-922e-6b696361645f,rev?*
G04 #@! TF.SameCoordinates,Original*
G04 #@! TF.FileFunction,Paste,Bot*
G04 #@! TF.FilePolarity,Positive*
%FSLAX46Y46*%
G04 Gerber Fmt 4.6, Leading zero omitted, Abs format (unit mm)*
G04 Created by KiCad (PCBNEW 9.0.0-9.0.0-2~ubuntu24.04.1) date 2025-03-10 11:02:05*
%MOMM*%
%LPD*%
G01*
G04 APERTURE LIST*
%ADD10C,0.150000*%
%ADD11R,5.080000X1.500000*%
G04 APERTURE END LIST*
D10*
X171323000Y-74422000D02*
X171323000Y-73660000D01*
X194183000Y-77724000D02*
X194691000Y-77724000D01*
X194945000Y-95758000D02*
X194437000Y-95758000D01*
X194437000Y-95250000D02*
X194437000Y-95758000D01*
X194691000Y-77216000D02*
X194691000Y-78232000D01*
X171323000Y-73914000D02*
X171323000Y-73660000D01*
X194437000Y-95758000D02*
X193929000Y-95758000D01*
X171323000Y-73914000D02*
X171069000Y-73914000D01*
X171323000Y-73660000D02*
X171323000Y-73406000D01*
X194437000Y-95758000D02*
X194437000Y-96266000D01*
X194691000Y-77724000D02*
X195199000Y-77724000D01*
X171323000Y-73660000D02*
X171323000Y-74168000D01*
X171069000Y-73914000D02*
X171577000Y-73914000D01*
X194691000Y-77724000D02*
X194183000Y-77724000D01*
X194437000Y-95758000D02*
X194437000Y-95250000D01*
X171577000Y-73914000D02*
X171831000Y-73914000D01*
X194691000Y-77724000D02*
X194691000Y-77216000D01*
X171323000Y-74168000D02*
X171323000Y-74422000D01*
X193929000Y-95758000D02*
X194945000Y-95758000D01*
X171069000Y-73914000D02*
X170815000Y-73914000D01*
D11*
X225552000Y-139133000D03*
X225552000Y-147633000D03*
X225552000Y-94810000D03*
X225552000Y-103310000D03*
X225552000Y-72585000D03*
X225552000Y-81085000D03*
X225552000Y-117035000D03*
X225552000Y-125535000D03*
M02*
