G04 #@! TF.GenerationSoftware,KiCad,Pcbnew,9.0.0-9.0.0-2~ubuntu24.04.1*
G04 #@! TF.CreationDate,2025-03-10T11:02:05+01:00*
G04 #@! TF.ProjectId,Receiver,52656365-6976-4657-922e-6b696361645f,rev?*
G04 #@! TF.SameCoordinates,Original*
G04 #@! TF.FileFunction,Soldermask,Bot*
G04 #@! TF.FilePolarity,Negative*
%FSLAX46Y46*%
G04 Gerber Fmt 4.6, Leading zero omitted, Abs format (unit mm)*
G04 Created by KiCad (PCBNEW 9.0.0-9.0.0-2~ubuntu24.04.1) date 2025-03-10 11:02:05*
%MOMM*%
%LPD*%
G01*
G04 APERTURE LIST*
G04 APERTURE END LIST*
G36*
X74327057Y-154887710D02*
G01*
X74536139Y-154955645D01*
X74732020Y-155055451D01*
X74909877Y-155184671D01*
X75065329Y-155340123D01*
X75194549Y-155517980D01*
X75294355Y-155713861D01*
X75362290Y-155922943D01*
X75396681Y-156140079D01*
X75396681Y-156359921D01*
X75362290Y-156577057D01*
X75294355Y-156786139D01*
X75194549Y-156982020D01*
X75065329Y-157159877D01*
X74909877Y-157315329D01*
X74732020Y-157444549D01*
X74536139Y-157544355D01*
X74327057Y-157612290D01*
X74109921Y-157646681D01*
X73890079Y-157646681D01*
X73672943Y-157612290D01*
X73463861Y-157544355D01*
X73267980Y-157444549D01*
X73090123Y-157315329D01*
X72934671Y-157159877D01*
X72805451Y-156982020D01*
X72705645Y-156786139D01*
X72637710Y-156577057D01*
X72603319Y-156359921D01*
X72603319Y-156140079D01*
X72637710Y-155922943D01*
X72705645Y-155713861D01*
X72805451Y-155517980D01*
X72934671Y-155340123D01*
X73090123Y-155184671D01*
X73267980Y-155055451D01*
X73463861Y-154955645D01*
X73672943Y-154887710D01*
X73890079Y-154853319D01*
X74109921Y-154853319D01*
X74327057Y-154887710D01*
G37*
G36*
X226327057Y-154887710D02*
G01*
X226536139Y-154955645D01*
X226732020Y-155055451D01*
X226909877Y-155184671D01*
X227065329Y-155340123D01*
X227194549Y-155517980D01*
X227294355Y-155713861D01*
X227362290Y-155922943D01*
X227396681Y-156140079D01*
X227396681Y-156359921D01*
X227362290Y-156577057D01*
X227294355Y-156786139D01*
X227194549Y-156982020D01*
X227065329Y-157159877D01*
X226909877Y-157315329D01*
X226732020Y-157444549D01*
X226536139Y-157544355D01*
X226327057Y-157612290D01*
X226109921Y-157646681D01*
X225890079Y-157646681D01*
X225672943Y-157612290D01*
X225463861Y-157544355D01*
X225267980Y-157444549D01*
X225090123Y-157315329D01*
X224934671Y-157159877D01*
X224805451Y-156982020D01*
X224705645Y-156786139D01*
X224637710Y-156577057D01*
X224603319Y-156359921D01*
X224603319Y-156140079D01*
X224637710Y-155922943D01*
X224705645Y-155713861D01*
X224805451Y-155517980D01*
X224934671Y-155340123D01*
X225090123Y-155184671D01*
X225267980Y-155055451D01*
X225463861Y-154955645D01*
X225672943Y-154887710D01*
X225890079Y-154853319D01*
X226109921Y-154853319D01*
X226327057Y-154887710D01*
G37*
G36*
X148601494Y-151524782D02*
G01*
X148767139Y-151593395D01*
X148916216Y-151693005D01*
X149042995Y-151819784D01*
X149142605Y-151968861D01*
X149211218Y-152134506D01*
X149246196Y-152310354D01*
X149246196Y-152489646D01*
X149211218Y-152665494D01*
X149142605Y-152831139D01*
X149042995Y-152980216D01*
X148916216Y-153106995D01*
X148767139Y-153206605D01*
X148601494Y-153275218D01*
X148425646Y-153310196D01*
X148246354Y-153310196D01*
X148070506Y-153275218D01*
X147904861Y-153206605D01*
X147755784Y-153106995D01*
X147629005Y-152980216D01*
X147529395Y-152831139D01*
X147460782Y-152665494D01*
X147425804Y-152489646D01*
X147425804Y-152310354D01*
X147460782Y-152134506D01*
X147529395Y-151968861D01*
X147629005Y-151819784D01*
X147755784Y-151693005D01*
X147904861Y-151593395D01*
X148070506Y-151524782D01*
X148246354Y-151489804D01*
X148425646Y-151489804D01*
X148601494Y-151524782D01*
G37*
G36*
X151141494Y-151524782D02*
G01*
X151307139Y-151593395D01*
X151456216Y-151693005D01*
X151582995Y-151819784D01*
X151682605Y-151968861D01*
X151751218Y-152134506D01*
X151786196Y-152310354D01*
X151786196Y-152489646D01*
X151751218Y-152665494D01*
X151682605Y-152831139D01*
X151582995Y-152980216D01*
X151456216Y-153106995D01*
X151307139Y-153206605D01*
X151141494Y-153275218D01*
X150965646Y-153310196D01*
X150786354Y-153310196D01*
X150610506Y-153275218D01*
X150444861Y-153206605D01*
X150295784Y-153106995D01*
X150169005Y-152980216D01*
X150069395Y-152831139D01*
X150000782Y-152665494D01*
X149965804Y-152489646D01*
X149965804Y-152310354D01*
X150000782Y-152134506D01*
X150069395Y-151968861D01*
X150169005Y-151819784D01*
X150295784Y-151693005D01*
X150444861Y-151593395D01*
X150610506Y-151524782D01*
X150786354Y-151489804D01*
X150965646Y-151489804D01*
X151141494Y-151524782D01*
G37*
G36*
X153681494Y-151524782D02*
G01*
X153847139Y-151593395D01*
X153996216Y-151693005D01*
X154122995Y-151819784D01*
X154222605Y-151968861D01*
X154291218Y-152134506D01*
X154326196Y-152310354D01*
X154326196Y-152489646D01*
X154291218Y-152665494D01*
X154222605Y-152831139D01*
X154122995Y-152980216D01*
X153996216Y-153106995D01*
X153847139Y-153206605D01*
X153681494Y-153275218D01*
X153505646Y-153310196D01*
X153326354Y-153310196D01*
X153150506Y-153275218D01*
X152984861Y-153206605D01*
X152835784Y-153106995D01*
X152709005Y-152980216D01*
X152609395Y-152831139D01*
X152540782Y-152665494D01*
X152505804Y-152489646D01*
X152505804Y-152310354D01*
X152540782Y-152134506D01*
X152609395Y-151968861D01*
X152709005Y-151819784D01*
X152835784Y-151693005D01*
X152984861Y-151593395D01*
X153150506Y-151524782D01*
X153326354Y-151489804D01*
X153505646Y-151489804D01*
X153681494Y-151524782D01*
G37*
G36*
X156221494Y-151524782D02*
G01*
X156387139Y-151593395D01*
X156536216Y-151693005D01*
X156662995Y-151819784D01*
X156762605Y-151968861D01*
X156831218Y-152134506D01*
X156866196Y-152310354D01*
X156866196Y-152489646D01*
X156831218Y-152665494D01*
X156762605Y-152831139D01*
X156662995Y-152980216D01*
X156536216Y-153106995D01*
X156387139Y-153206605D01*
X156221494Y-153275218D01*
X156045646Y-153310196D01*
X155866354Y-153310196D01*
X155690506Y-153275218D01*
X155524861Y-153206605D01*
X155375784Y-153106995D01*
X155249005Y-152980216D01*
X155149395Y-152831139D01*
X155080782Y-152665494D01*
X155045804Y-152489646D01*
X155045804Y-152310354D01*
X155080782Y-152134506D01*
X155149395Y-151968861D01*
X155249005Y-151819784D01*
X155375784Y-151693005D01*
X155524861Y-151593395D01*
X155690506Y-151524782D01*
X155866354Y-151489804D01*
X156045646Y-151489804D01*
X156221494Y-151524782D01*
G37*
G36*
X158761494Y-151524782D02*
G01*
X158927139Y-151593395D01*
X159076216Y-151693005D01*
X159202995Y-151819784D01*
X159302605Y-151968861D01*
X159371218Y-152134506D01*
X159406196Y-152310354D01*
X159406196Y-152489646D01*
X159371218Y-152665494D01*
X159302605Y-152831139D01*
X159202995Y-152980216D01*
X159076216Y-153106995D01*
X158927139Y-153206605D01*
X158761494Y-153275218D01*
X158585646Y-153310196D01*
X158406354Y-153310196D01*
X158230506Y-153275218D01*
X158064861Y-153206605D01*
X157915784Y-153106995D01*
X157789005Y-152980216D01*
X157689395Y-152831139D01*
X157620782Y-152665494D01*
X157585804Y-152489646D01*
X157585804Y-152310354D01*
X157620782Y-152134506D01*
X157689395Y-151968861D01*
X157789005Y-151819784D01*
X157915784Y-151693005D01*
X158064861Y-151593395D01*
X158230506Y-151524782D01*
X158406354Y-151489804D01*
X158585646Y-151489804D01*
X158761494Y-151524782D01*
G37*
G36*
X171811517Y-151502882D02*
G01*
X171828062Y-151513938D01*
X171839118Y-151530483D01*
X171843000Y-151550000D01*
X171843000Y-153250000D01*
X171839118Y-153269517D01*
X171828062Y-153286062D01*
X171811517Y-153297118D01*
X171792000Y-153301000D01*
X170092000Y-153301000D01*
X170072483Y-153297118D01*
X170055938Y-153286062D01*
X170044882Y-153269517D01*
X170041000Y-153250000D01*
X170041000Y-151550000D01*
X170044882Y-151530483D01*
X170055938Y-151513938D01*
X170072483Y-151502882D01*
X170092000Y-151499000D01*
X171792000Y-151499000D01*
X171811517Y-151502882D01*
G37*
G36*
X185527517Y-151502882D02*
G01*
X185544062Y-151513938D01*
X185555118Y-151530483D01*
X185559000Y-151550000D01*
X185559000Y-153250000D01*
X185555118Y-153269517D01*
X185544062Y-153286062D01*
X185527517Y-153297118D01*
X185508000Y-153301000D01*
X183808000Y-153301000D01*
X183788483Y-153297118D01*
X183771938Y-153286062D01*
X183760882Y-153269517D01*
X183757000Y-153250000D01*
X183757000Y-151550000D01*
X183760882Y-151530483D01*
X183771938Y-151513938D01*
X183788483Y-151502882D01*
X183808000Y-151499000D01*
X185508000Y-151499000D01*
X185527517Y-151502882D01*
G37*
G36*
X173743546Y-151537797D02*
G01*
X173906728Y-151605389D01*
X174053588Y-151703518D01*
X174178482Y-151828412D01*
X174276611Y-151975272D01*
X174344203Y-152138454D01*
X174378661Y-152311687D01*
X174378661Y-152488313D01*
X174344203Y-152661546D01*
X174276611Y-152824728D01*
X174178482Y-152971588D01*
X174053588Y-153096482D01*
X173906728Y-153194611D01*
X173743546Y-153262203D01*
X173570313Y-153296661D01*
X173393687Y-153296661D01*
X173220454Y-153262203D01*
X173057272Y-153194611D01*
X172910412Y-153096482D01*
X172785518Y-152971588D01*
X172687389Y-152824728D01*
X172619797Y-152661546D01*
X172585339Y-152488313D01*
X172585339Y-152311687D01*
X172619797Y-152138454D01*
X172687389Y-151975272D01*
X172785518Y-151828412D01*
X172910412Y-151703518D01*
X173057272Y-151605389D01*
X173220454Y-151537797D01*
X173393687Y-151503339D01*
X173570313Y-151503339D01*
X173743546Y-151537797D01*
G37*
G36*
X176283546Y-151537797D02*
G01*
X176446728Y-151605389D01*
X176593588Y-151703518D01*
X176718482Y-151828412D01*
X176816611Y-151975272D01*
X176884203Y-152138454D01*
X176918661Y-152311687D01*
X176918661Y-152488313D01*
X176884203Y-152661546D01*
X176816611Y-152824728D01*
X176718482Y-152971588D01*
X176593588Y-153096482D01*
X176446728Y-153194611D01*
X176283546Y-153262203D01*
X176110313Y-153296661D01*
X175933687Y-153296661D01*
X175760454Y-153262203D01*
X175597272Y-153194611D01*
X175450412Y-153096482D01*
X175325518Y-152971588D01*
X175227389Y-152824728D01*
X175159797Y-152661546D01*
X175125339Y-152488313D01*
X175125339Y-152311687D01*
X175159797Y-152138454D01*
X175227389Y-151975272D01*
X175325518Y-151828412D01*
X175450412Y-151703518D01*
X175597272Y-151605389D01*
X175760454Y-151537797D01*
X175933687Y-151503339D01*
X176110313Y-151503339D01*
X176283546Y-151537797D01*
G37*
G36*
X178823546Y-151537797D02*
G01*
X178986728Y-151605389D01*
X179133588Y-151703518D01*
X179258482Y-151828412D01*
X179356611Y-151975272D01*
X179424203Y-152138454D01*
X179458661Y-152311687D01*
X179458661Y-152488313D01*
X179424203Y-152661546D01*
X179356611Y-152824728D01*
X179258482Y-152971588D01*
X179133588Y-153096482D01*
X178986728Y-153194611D01*
X178823546Y-153262203D01*
X178650313Y-153296661D01*
X178473687Y-153296661D01*
X178300454Y-153262203D01*
X178137272Y-153194611D01*
X177990412Y-153096482D01*
X177865518Y-152971588D01*
X177767389Y-152824728D01*
X177699797Y-152661546D01*
X177665339Y-152488313D01*
X177665339Y-152311687D01*
X177699797Y-152138454D01*
X177767389Y-151975272D01*
X177865518Y-151828412D01*
X177990412Y-151703518D01*
X178137272Y-151605389D01*
X178300454Y-151537797D01*
X178473687Y-151503339D01*
X178650313Y-151503339D01*
X178823546Y-151537797D01*
G37*
G36*
X187459546Y-151537797D02*
G01*
X187622728Y-151605389D01*
X187769588Y-151703518D01*
X187894482Y-151828412D01*
X187992611Y-151975272D01*
X188060203Y-152138454D01*
X188094661Y-152311687D01*
X188094661Y-152488313D01*
X188060203Y-152661546D01*
X187992611Y-152824728D01*
X187894482Y-152971588D01*
X187769588Y-153096482D01*
X187622728Y-153194611D01*
X187459546Y-153262203D01*
X187286313Y-153296661D01*
X187109687Y-153296661D01*
X186936454Y-153262203D01*
X186773272Y-153194611D01*
X186626412Y-153096482D01*
X186501518Y-152971588D01*
X186403389Y-152824728D01*
X186335797Y-152661546D01*
X186301339Y-152488313D01*
X186301339Y-152311687D01*
X186335797Y-152138454D01*
X186403389Y-151975272D01*
X186501518Y-151828412D01*
X186626412Y-151703518D01*
X186773272Y-151605389D01*
X186936454Y-151537797D01*
X187109687Y-151503339D01*
X187286313Y-151503339D01*
X187459546Y-151537797D01*
G37*
G36*
X189999546Y-151537797D02*
G01*
X190162728Y-151605389D01*
X190309588Y-151703518D01*
X190434482Y-151828412D01*
X190532611Y-151975272D01*
X190600203Y-152138454D01*
X190634661Y-152311687D01*
X190634661Y-152488313D01*
X190600203Y-152661546D01*
X190532611Y-152824728D01*
X190434482Y-152971588D01*
X190309588Y-153096482D01*
X190162728Y-153194611D01*
X189999546Y-153262203D01*
X189826313Y-153296661D01*
X189649687Y-153296661D01*
X189476454Y-153262203D01*
X189313272Y-153194611D01*
X189166412Y-153096482D01*
X189041518Y-152971588D01*
X188943389Y-152824728D01*
X188875797Y-152661546D01*
X188841339Y-152488313D01*
X188841339Y-152311687D01*
X188875797Y-152138454D01*
X188943389Y-151975272D01*
X189041518Y-151828412D01*
X189166412Y-151703518D01*
X189313272Y-151605389D01*
X189476454Y-151537797D01*
X189649687Y-151503339D01*
X189826313Y-151503339D01*
X189999546Y-151537797D01*
G37*
G36*
X192539546Y-151537797D02*
G01*
X192702728Y-151605389D01*
X192849588Y-151703518D01*
X192974482Y-151828412D01*
X193072611Y-151975272D01*
X193140203Y-152138454D01*
X193174661Y-152311687D01*
X193174661Y-152488313D01*
X193140203Y-152661546D01*
X193072611Y-152824728D01*
X192974482Y-152971588D01*
X192849588Y-153096482D01*
X192702728Y-153194611D01*
X192539546Y-153262203D01*
X192366313Y-153296661D01*
X192189687Y-153296661D01*
X192016454Y-153262203D01*
X191853272Y-153194611D01*
X191706412Y-153096482D01*
X191581518Y-152971588D01*
X191483389Y-152824728D01*
X191415797Y-152661546D01*
X191381339Y-152488313D01*
X191381339Y-152311687D01*
X191415797Y-152138454D01*
X191483389Y-151975272D01*
X191581518Y-151828412D01*
X191706412Y-151703518D01*
X191853272Y-151605389D01*
X192016454Y-151537797D01*
X192189687Y-151503339D01*
X192366313Y-151503339D01*
X192539546Y-151537797D01*
G37*
G36*
X87608518Y-150109491D02*
G01*
X87753589Y-150169581D01*
X87884149Y-150256819D01*
X87995181Y-150367851D01*
X88082419Y-150498411D01*
X88142509Y-150643482D01*
X88173143Y-150797488D01*
X88173143Y-150954512D01*
X88142509Y-151108518D01*
X88082419Y-151253589D01*
X87995181Y-151384149D01*
X87884149Y-151495181D01*
X87753589Y-151582419D01*
X87608518Y-151642509D01*
X87454512Y-151673143D01*
X87297488Y-151673143D01*
X87143482Y-151642509D01*
X86998411Y-151582419D01*
X86867851Y-151495181D01*
X86756819Y-151384149D01*
X86669581Y-151253589D01*
X86609491Y-151108518D01*
X86578857Y-150954512D01*
X86578857Y-150797488D01*
X86609491Y-150643482D01*
X86669581Y-150498411D01*
X86756819Y-150367851D01*
X86867851Y-150256819D01*
X86998411Y-150169581D01*
X87143482Y-150109491D01*
X87297488Y-150078857D01*
X87454512Y-150078857D01*
X87608518Y-150109491D01*
G37*
G36*
X159379117Y-148949282D02*
G01*
X159395662Y-148960338D01*
X159406718Y-148976883D01*
X159410600Y-148996400D01*
X159410600Y-150723600D01*
X159406718Y-150743117D01*
X159395662Y-150759662D01*
X159379117Y-150770718D01*
X159359600Y-150774600D01*
X157632400Y-150774600D01*
X157612883Y-150770718D01*
X157596338Y-150759662D01*
X157585282Y-150743117D01*
X157581400Y-150723600D01*
X157581400Y-148996400D01*
X157585282Y-148976883D01*
X157596338Y-148960338D01*
X157612883Y-148949282D01*
X157632400Y-148945400D01*
X159359600Y-148945400D01*
X159379117Y-148949282D01*
G37*
G36*
X148601494Y-148984782D02*
G01*
X148767139Y-149053395D01*
X148916216Y-149153005D01*
X149042995Y-149279784D01*
X149142605Y-149428861D01*
X149211218Y-149594506D01*
X149246196Y-149770354D01*
X149246196Y-149949646D01*
X149211218Y-150125494D01*
X149142605Y-150291139D01*
X149042995Y-150440216D01*
X148916216Y-150566995D01*
X148767139Y-150666605D01*
X148601494Y-150735218D01*
X148425646Y-150770196D01*
X148246354Y-150770196D01*
X148070506Y-150735218D01*
X147904861Y-150666605D01*
X147755784Y-150566995D01*
X147629005Y-150440216D01*
X147529395Y-150291139D01*
X147460782Y-150125494D01*
X147425804Y-149949646D01*
X147425804Y-149770354D01*
X147460782Y-149594506D01*
X147529395Y-149428861D01*
X147629005Y-149279784D01*
X147755784Y-149153005D01*
X147904861Y-149053395D01*
X148070506Y-148984782D01*
X148246354Y-148949804D01*
X148425646Y-148949804D01*
X148601494Y-148984782D01*
G37*
G36*
X151141494Y-148984782D02*
G01*
X151307139Y-149053395D01*
X151456216Y-149153005D01*
X151582995Y-149279784D01*
X151682605Y-149428861D01*
X151751218Y-149594506D01*
X151786196Y-149770354D01*
X151786196Y-149949646D01*
X151751218Y-150125494D01*
X151682605Y-150291139D01*
X151582995Y-150440216D01*
X151456216Y-150566995D01*
X151307139Y-150666605D01*
X151141494Y-150735218D01*
X150965646Y-150770196D01*
X150786354Y-150770196D01*
X150610506Y-150735218D01*
X150444861Y-150666605D01*
X150295784Y-150566995D01*
X150169005Y-150440216D01*
X150069395Y-150291139D01*
X150000782Y-150125494D01*
X149965804Y-149949646D01*
X149965804Y-149770354D01*
X150000782Y-149594506D01*
X150069395Y-149428861D01*
X150169005Y-149279784D01*
X150295784Y-149153005D01*
X150444861Y-149053395D01*
X150610506Y-148984782D01*
X150786354Y-148949804D01*
X150965646Y-148949804D01*
X151141494Y-148984782D01*
G37*
G36*
X153681494Y-148984782D02*
G01*
X153847139Y-149053395D01*
X153996216Y-149153005D01*
X154122995Y-149279784D01*
X154222605Y-149428861D01*
X154291218Y-149594506D01*
X154326196Y-149770354D01*
X154326196Y-149949646D01*
X154291218Y-150125494D01*
X154222605Y-150291139D01*
X154122995Y-150440216D01*
X153996216Y-150566995D01*
X153847139Y-150666605D01*
X153681494Y-150735218D01*
X153505646Y-150770196D01*
X153326354Y-150770196D01*
X153150506Y-150735218D01*
X152984861Y-150666605D01*
X152835784Y-150566995D01*
X152709005Y-150440216D01*
X152609395Y-150291139D01*
X152540782Y-150125494D01*
X152505804Y-149949646D01*
X152505804Y-149770354D01*
X152540782Y-149594506D01*
X152609395Y-149428861D01*
X152709005Y-149279784D01*
X152835784Y-149153005D01*
X152984861Y-149053395D01*
X153150506Y-148984782D01*
X153326354Y-148949804D01*
X153505646Y-148949804D01*
X153681494Y-148984782D01*
G37*
G36*
X156221494Y-148984782D02*
G01*
X156387139Y-149053395D01*
X156536216Y-149153005D01*
X156662995Y-149279784D01*
X156762605Y-149428861D01*
X156831218Y-149594506D01*
X156866196Y-149770354D01*
X156866196Y-149949646D01*
X156831218Y-150125494D01*
X156762605Y-150291139D01*
X156662995Y-150440216D01*
X156536216Y-150566995D01*
X156387139Y-150666605D01*
X156221494Y-150735218D01*
X156045646Y-150770196D01*
X155866354Y-150770196D01*
X155690506Y-150735218D01*
X155524861Y-150666605D01*
X155375784Y-150566995D01*
X155249005Y-150440216D01*
X155149395Y-150291139D01*
X155080782Y-150125494D01*
X155045804Y-149949646D01*
X155045804Y-149770354D01*
X155080782Y-149594506D01*
X155149395Y-149428861D01*
X155249005Y-149279784D01*
X155375784Y-149153005D01*
X155524861Y-149053395D01*
X155690506Y-148984782D01*
X155866354Y-148949804D01*
X156045646Y-148949804D01*
X156221494Y-148984782D01*
G37*
G36*
X171203546Y-148997797D02*
G01*
X171366728Y-149065389D01*
X171513588Y-149163518D01*
X171638482Y-149288412D01*
X171736611Y-149435272D01*
X171804203Y-149598454D01*
X171838661Y-149771687D01*
X171838661Y-149948313D01*
X171804203Y-150121546D01*
X171736611Y-150284728D01*
X171638482Y-150431588D01*
X171513588Y-150556482D01*
X171366728Y-150654611D01*
X171203546Y-150722203D01*
X171030313Y-150756661D01*
X170853687Y-150756661D01*
X170680454Y-150722203D01*
X170517272Y-150654611D01*
X170370412Y-150556482D01*
X170245518Y-150431588D01*
X170147389Y-150284728D01*
X170079797Y-150121546D01*
X170045339Y-149948313D01*
X170045339Y-149771687D01*
X170079797Y-149598454D01*
X170147389Y-149435272D01*
X170245518Y-149288412D01*
X170370412Y-149163518D01*
X170517272Y-149065389D01*
X170680454Y-148997797D01*
X170853687Y-148963339D01*
X171030313Y-148963339D01*
X171203546Y-148997797D01*
G37*
G36*
X173743546Y-148997797D02*
G01*
X173906728Y-149065389D01*
X174053588Y-149163518D01*
X174178482Y-149288412D01*
X174276611Y-149435272D01*
X174344203Y-149598454D01*
X174378661Y-149771687D01*
X174378661Y-149948313D01*
X174344203Y-150121546D01*
X174276611Y-150284728D01*
X174178482Y-150431588D01*
X174053588Y-150556482D01*
X173906728Y-150654611D01*
X173743546Y-150722203D01*
X173570313Y-150756661D01*
X173393687Y-150756661D01*
X173220454Y-150722203D01*
X173057272Y-150654611D01*
X172910412Y-150556482D01*
X172785518Y-150431588D01*
X172687389Y-150284728D01*
X172619797Y-150121546D01*
X172585339Y-149948313D01*
X172585339Y-149771687D01*
X172619797Y-149598454D01*
X172687389Y-149435272D01*
X172785518Y-149288412D01*
X172910412Y-149163518D01*
X173057272Y-149065389D01*
X173220454Y-148997797D01*
X173393687Y-148963339D01*
X173570313Y-148963339D01*
X173743546Y-148997797D01*
G37*
G36*
X176283546Y-148997797D02*
G01*
X176446728Y-149065389D01*
X176593588Y-149163518D01*
X176718482Y-149288412D01*
X176816611Y-149435272D01*
X176884203Y-149598454D01*
X176918661Y-149771687D01*
X176918661Y-149948313D01*
X176884203Y-150121546D01*
X176816611Y-150284728D01*
X176718482Y-150431588D01*
X176593588Y-150556482D01*
X176446728Y-150654611D01*
X176283546Y-150722203D01*
X176110313Y-150756661D01*
X175933687Y-150756661D01*
X175760454Y-150722203D01*
X175597272Y-150654611D01*
X175450412Y-150556482D01*
X175325518Y-150431588D01*
X175227389Y-150284728D01*
X175159797Y-150121546D01*
X175125339Y-149948313D01*
X175125339Y-149771687D01*
X175159797Y-149598454D01*
X175227389Y-149435272D01*
X175325518Y-149288412D01*
X175450412Y-149163518D01*
X175597272Y-149065389D01*
X175760454Y-148997797D01*
X175933687Y-148963339D01*
X176110313Y-148963339D01*
X176283546Y-148997797D01*
G37*
G36*
X178823546Y-148997797D02*
G01*
X178986728Y-149065389D01*
X179133588Y-149163518D01*
X179258482Y-149288412D01*
X179356611Y-149435272D01*
X179424203Y-149598454D01*
X179458661Y-149771687D01*
X179458661Y-149948313D01*
X179424203Y-150121546D01*
X179356611Y-150284728D01*
X179258482Y-150431588D01*
X179133588Y-150556482D01*
X178986728Y-150654611D01*
X178823546Y-150722203D01*
X178650313Y-150756661D01*
X178473687Y-150756661D01*
X178300454Y-150722203D01*
X178137272Y-150654611D01*
X177990412Y-150556482D01*
X177865518Y-150431588D01*
X177767389Y-150284728D01*
X177699797Y-150121546D01*
X177665339Y-149948313D01*
X177665339Y-149771687D01*
X177699797Y-149598454D01*
X177767389Y-149435272D01*
X177865518Y-149288412D01*
X177990412Y-149163518D01*
X178137272Y-149065389D01*
X178300454Y-148997797D01*
X178473687Y-148963339D01*
X178650313Y-148963339D01*
X178823546Y-148997797D01*
G37*
G36*
X184919546Y-148997797D02*
G01*
X185082728Y-149065389D01*
X185229588Y-149163518D01*
X185354482Y-149288412D01*
X185452611Y-149435272D01*
X185520203Y-149598454D01*
X185554661Y-149771687D01*
X185554661Y-149948313D01*
X185520203Y-150121546D01*
X185452611Y-150284728D01*
X185354482Y-150431588D01*
X185229588Y-150556482D01*
X185082728Y-150654611D01*
X184919546Y-150722203D01*
X184746313Y-150756661D01*
X184569687Y-150756661D01*
X184396454Y-150722203D01*
X184233272Y-150654611D01*
X184086412Y-150556482D01*
X183961518Y-150431588D01*
X183863389Y-150284728D01*
X183795797Y-150121546D01*
X183761339Y-149948313D01*
X183761339Y-149771687D01*
X183795797Y-149598454D01*
X183863389Y-149435272D01*
X183961518Y-149288412D01*
X184086412Y-149163518D01*
X184233272Y-149065389D01*
X184396454Y-148997797D01*
X184569687Y-148963339D01*
X184746313Y-148963339D01*
X184919546Y-148997797D01*
G37*
G36*
X187459546Y-148997797D02*
G01*
X187622728Y-149065389D01*
X187769588Y-149163518D01*
X187894482Y-149288412D01*
X187992611Y-149435272D01*
X188060203Y-149598454D01*
X188094661Y-149771687D01*
X188094661Y-149948313D01*
X188060203Y-150121546D01*
X187992611Y-150284728D01*
X187894482Y-150431588D01*
X187769588Y-150556482D01*
X187622728Y-150654611D01*
X187459546Y-150722203D01*
X187286313Y-150756661D01*
X187109687Y-150756661D01*
X186936454Y-150722203D01*
X186773272Y-150654611D01*
X186626412Y-150556482D01*
X186501518Y-150431588D01*
X186403389Y-150284728D01*
X186335797Y-150121546D01*
X186301339Y-149948313D01*
X186301339Y-149771687D01*
X186335797Y-149598454D01*
X186403389Y-149435272D01*
X186501518Y-149288412D01*
X186626412Y-149163518D01*
X186773272Y-149065389D01*
X186936454Y-148997797D01*
X187109687Y-148963339D01*
X187286313Y-148963339D01*
X187459546Y-148997797D01*
G37*
G36*
X189999546Y-148997797D02*
G01*
X190162728Y-149065389D01*
X190309588Y-149163518D01*
X190434482Y-149288412D01*
X190532611Y-149435272D01*
X190600203Y-149598454D01*
X190634661Y-149771687D01*
X190634661Y-149948313D01*
X190600203Y-150121546D01*
X190532611Y-150284728D01*
X190434482Y-150431588D01*
X190309588Y-150556482D01*
X190162728Y-150654611D01*
X189999546Y-150722203D01*
X189826313Y-150756661D01*
X189649687Y-150756661D01*
X189476454Y-150722203D01*
X189313272Y-150654611D01*
X189166412Y-150556482D01*
X189041518Y-150431588D01*
X188943389Y-150284728D01*
X188875797Y-150121546D01*
X188841339Y-149948313D01*
X188841339Y-149771687D01*
X188875797Y-149598454D01*
X188943389Y-149435272D01*
X189041518Y-149288412D01*
X189166412Y-149163518D01*
X189313272Y-149065389D01*
X189476454Y-148997797D01*
X189649687Y-148963339D01*
X189826313Y-148963339D01*
X189999546Y-148997797D01*
G37*
G36*
X192539546Y-148997797D02*
G01*
X192702728Y-149065389D01*
X192849588Y-149163518D01*
X192974482Y-149288412D01*
X193072611Y-149435272D01*
X193140203Y-149598454D01*
X193174661Y-149771687D01*
X193174661Y-149948313D01*
X193140203Y-150121546D01*
X193072611Y-150284728D01*
X192974482Y-150431588D01*
X192849588Y-150556482D01*
X192702728Y-150654611D01*
X192539546Y-150722203D01*
X192366313Y-150756661D01*
X192189687Y-150756661D01*
X192016454Y-150722203D01*
X191853272Y-150654611D01*
X191706412Y-150556482D01*
X191581518Y-150431588D01*
X191483389Y-150284728D01*
X191415797Y-150121546D01*
X191381339Y-149948313D01*
X191381339Y-149771687D01*
X191415797Y-149598454D01*
X191483389Y-149435272D01*
X191581518Y-149288412D01*
X191706412Y-149163518D01*
X191853272Y-149065389D01*
X192016454Y-148997797D01*
X192189687Y-148963339D01*
X192366313Y-148963339D01*
X192539546Y-148997797D01*
G37*
G36*
X104118518Y-149093491D02*
G01*
X104263589Y-149153581D01*
X104394149Y-149240819D01*
X104505181Y-149351851D01*
X104592419Y-149482411D01*
X104652509Y-149627482D01*
X104683143Y-149781488D01*
X104683143Y-149938512D01*
X104652509Y-150092518D01*
X104592419Y-150237589D01*
X104505181Y-150368149D01*
X104394149Y-150479181D01*
X104263589Y-150566419D01*
X104118518Y-150626509D01*
X103964512Y-150657143D01*
X103807488Y-150657143D01*
X103653482Y-150626509D01*
X103508411Y-150566419D01*
X103377851Y-150479181D01*
X103266819Y-150368149D01*
X103179581Y-150237589D01*
X103119491Y-150092518D01*
X103088857Y-149938512D01*
X103088857Y-149781488D01*
X103119491Y-149627482D01*
X103179581Y-149482411D01*
X103266819Y-149351851D01*
X103377851Y-149240819D01*
X103508411Y-149153581D01*
X103653482Y-149093491D01*
X103807488Y-149062857D01*
X103964512Y-149062857D01*
X104118518Y-149093491D01*
G37*
G36*
X107547518Y-149093491D02*
G01*
X107692589Y-149153581D01*
X107823149Y-149240819D01*
X107934181Y-149351851D01*
X108021419Y-149482411D01*
X108081509Y-149627482D01*
X108112143Y-149781488D01*
X108112143Y-149938512D01*
X108081509Y-150092518D01*
X108021419Y-150237589D01*
X107934181Y-150368149D01*
X107823149Y-150479181D01*
X107692589Y-150566419D01*
X107547518Y-150626509D01*
X107393512Y-150657143D01*
X107236488Y-150657143D01*
X107082482Y-150626509D01*
X106937411Y-150566419D01*
X106806851Y-150479181D01*
X106695819Y-150368149D01*
X106608581Y-150237589D01*
X106548491Y-150092518D01*
X106517857Y-149938512D01*
X106517857Y-149781488D01*
X106548491Y-149627482D01*
X106608581Y-149482411D01*
X106695819Y-149351851D01*
X106806851Y-149240819D01*
X106937411Y-149153581D01*
X107082482Y-149093491D01*
X107236488Y-149062857D01*
X107393512Y-149062857D01*
X107547518Y-149093491D01*
G37*
G36*
X228111517Y-146835882D02*
G01*
X228128062Y-146846938D01*
X228139118Y-146863483D01*
X228143000Y-146883000D01*
X228143000Y-148383000D01*
X228139118Y-148402517D01*
X228128062Y-148419062D01*
X228111517Y-148430118D01*
X228092000Y-148434000D01*
X223012000Y-148434000D01*
X222992483Y-148430118D01*
X222975938Y-148419062D01*
X222964882Y-148402517D01*
X222961000Y-148383000D01*
X222961000Y-146883000D01*
X222964882Y-146863483D01*
X222975938Y-146846938D01*
X222992483Y-146835882D01*
X223012000Y-146832000D01*
X228092000Y-146832000D01*
X228111517Y-146835882D01*
G37*
G36*
X71292004Y-142836338D02*
G01*
X71428019Y-142892677D01*
X71550429Y-142974469D01*
X71654531Y-143078571D01*
X71736323Y-143200981D01*
X71792662Y-143336996D01*
X71821384Y-143481389D01*
X71821384Y-143628611D01*
X71792662Y-143773004D01*
X71736323Y-143909019D01*
X71654531Y-144031429D01*
X71550429Y-144135531D01*
X71428019Y-144217323D01*
X71292004Y-144273662D01*
X71147611Y-144302384D01*
X71000389Y-144302384D01*
X70855996Y-144273662D01*
X70719981Y-144217323D01*
X70597571Y-144135531D01*
X70493469Y-144031429D01*
X70411677Y-143909019D01*
X70355338Y-143773004D01*
X70326616Y-143628611D01*
X70326616Y-143481389D01*
X70355338Y-143336996D01*
X70411677Y-143200981D01*
X70493469Y-143078571D01*
X70597571Y-142974469D01*
X70719981Y-142892677D01*
X70855996Y-142836338D01*
X71000389Y-142807616D01*
X71147611Y-142807616D01*
X71292004Y-142836338D01*
G37*
G36*
X78332361Y-142143500D02*
G01*
X78342657Y-142143500D01*
X78372322Y-142151448D01*
X78426513Y-142162228D01*
X78452090Y-142172822D01*
X78475291Y-142179039D01*
X78496090Y-142191047D01*
X78521668Y-142201642D01*
X78567605Y-142232336D01*
X78594209Y-142247696D01*
X78601491Y-142254978D01*
X78607305Y-142258863D01*
X78680136Y-142331694D01*
X78684020Y-142337507D01*
X78691304Y-142344791D01*
X78706665Y-142371398D01*
X78737357Y-142417331D01*
X78747950Y-142442905D01*
X78759961Y-142463709D01*
X78766178Y-142486913D01*
X78776771Y-142512486D01*
X78787549Y-142566672D01*
X78795500Y-142596343D01*
X78795500Y-142606638D01*
X78796865Y-142613501D01*
X78796865Y-142716498D01*
X78795500Y-142723360D01*
X78795500Y-142733657D01*
X78787548Y-142763330D01*
X78776771Y-142817513D01*
X78766179Y-142843084D01*
X78759961Y-142866291D01*
X78747948Y-142887096D01*
X78737357Y-142912668D01*
X78706669Y-142958594D01*
X78691304Y-142985209D01*
X78684018Y-142992494D01*
X78680136Y-142998305D01*
X78607305Y-143071136D01*
X78601494Y-143075018D01*
X78594209Y-143082304D01*
X78567594Y-143097669D01*
X78521668Y-143128357D01*
X78496096Y-143138948D01*
X78475291Y-143150961D01*
X78452084Y-143157179D01*
X78426513Y-143167771D01*
X78372329Y-143178549D01*
X78342657Y-143186500D01*
X78332361Y-143186500D01*
X78325499Y-143187865D01*
X78222501Y-143187865D01*
X78215639Y-143186500D01*
X78205343Y-143186500D01*
X78175672Y-143178549D01*
X78121486Y-143167771D01*
X78095912Y-143157178D01*
X78072709Y-143150961D01*
X78051907Y-143138951D01*
X78026330Y-143128357D01*
X77980397Y-143097664D01*
X77953791Y-143082304D01*
X77946506Y-143075019D01*
X77902933Y-143045904D01*
X77770782Y-143116539D01*
X77770782Y-143118362D01*
X77771384Y-143121389D01*
X77771384Y-143268611D01*
X77742662Y-143413004D01*
X77686323Y-143549019D01*
X77604531Y-143671429D01*
X77500429Y-143775531D01*
X77378019Y-143857323D01*
X77242004Y-143913662D01*
X77097611Y-143942384D01*
X76950389Y-143942384D01*
X76805996Y-143913662D01*
X76669981Y-143857323D01*
X76547571Y-143775531D01*
X76443469Y-143671429D01*
X76361677Y-143549019D01*
X76305338Y-143413004D01*
X76276616Y-143268611D01*
X76276616Y-143121389D01*
X76305338Y-142976996D01*
X76361677Y-142840981D01*
X76443469Y-142718571D01*
X76547571Y-142614469D01*
X76669981Y-142532677D01*
X76805996Y-142476338D01*
X76950389Y-142447616D01*
X77097611Y-142447616D01*
X77242004Y-142476338D01*
X77378019Y-142532677D01*
X77500429Y-142614469D01*
X77597506Y-142711546D01*
X77740244Y-142668248D01*
X77752500Y-142606634D01*
X77752500Y-142596343D01*
X77760446Y-142566686D01*
X77771228Y-142512485D01*
X77781823Y-142486904D01*
X77788039Y-142463709D01*
X77800045Y-142442912D01*
X77810642Y-142417331D01*
X77841340Y-142371387D01*
X77856696Y-142344791D01*
X77863976Y-142337510D01*
X77867863Y-142331694D01*
X77940694Y-142258863D01*
X77946510Y-142254976D01*
X77953791Y-142247696D01*
X77980387Y-142232340D01*
X78026331Y-142201642D01*
X78051911Y-142191046D01*
X78072709Y-142179039D01*
X78095906Y-142172823D01*
X78121486Y-142162228D01*
X78175678Y-142151448D01*
X78205343Y-142143500D01*
X78215639Y-142143500D01*
X78222501Y-142142135D01*
X78325499Y-142142135D01*
X78332361Y-142143500D01*
G37*
G36*
X127613518Y-141854491D02*
G01*
X127758589Y-141914581D01*
X127889149Y-142001819D01*
X128000181Y-142112851D01*
X128087419Y-142243411D01*
X128147509Y-142388482D01*
X128178143Y-142542488D01*
X128178143Y-142699512D01*
X128147509Y-142853518D01*
X128087419Y-142998589D01*
X128000181Y-143129149D01*
X127889149Y-143240181D01*
X127758589Y-143327419D01*
X127613518Y-143387509D01*
X127459512Y-143418143D01*
X127302488Y-143418143D01*
X127148482Y-143387509D01*
X127003411Y-143327419D01*
X126872851Y-143240181D01*
X126761819Y-143129149D01*
X126674581Y-142998589D01*
X126614491Y-142853518D01*
X126583857Y-142699512D01*
X126583857Y-142542488D01*
X126614491Y-142388482D01*
X126674581Y-142243411D01*
X126761819Y-142112851D01*
X126872851Y-142001819D01*
X127003411Y-141914581D01*
X127148482Y-141854491D01*
X127302488Y-141823857D01*
X127459512Y-141823857D01*
X127613518Y-141854491D01*
G37*
G36*
X96498518Y-140711491D02*
G01*
X96643589Y-140771581D01*
X96774149Y-140858819D01*
X96885181Y-140969851D01*
X96972419Y-141100411D01*
X97032509Y-141245482D01*
X97063143Y-141399488D01*
X97063143Y-141556512D01*
X97032509Y-141710518D01*
X96972419Y-141855589D01*
X96885181Y-141986149D01*
X96774149Y-142097181D01*
X96643589Y-142184419D01*
X96498518Y-142244509D01*
X96344512Y-142275143D01*
X96187488Y-142275143D01*
X96033482Y-142244509D01*
X95888411Y-142184419D01*
X95757851Y-142097181D01*
X95646819Y-141986149D01*
X95559581Y-141855589D01*
X95499491Y-141710518D01*
X95468857Y-141556512D01*
X95468857Y-141399488D01*
X95499491Y-141245482D01*
X95559581Y-141100411D01*
X95646819Y-140969851D01*
X95757851Y-140858819D01*
X95888411Y-140771581D01*
X96033482Y-140711491D01*
X96187488Y-140680857D01*
X96344512Y-140680857D01*
X96498518Y-140711491D01*
G37*
G36*
X123549518Y-140076491D02*
G01*
X123694589Y-140136581D01*
X123825149Y-140223819D01*
X123936181Y-140334851D01*
X124023419Y-140465411D01*
X124083509Y-140610482D01*
X124114143Y-140764488D01*
X124114143Y-140921512D01*
X124083509Y-141075518D01*
X124023419Y-141220589D01*
X123936181Y-141351149D01*
X123825149Y-141462181D01*
X123694589Y-141549419D01*
X123549518Y-141609509D01*
X123395512Y-141640143D01*
X123238488Y-141640143D01*
X123084482Y-141609509D01*
X122939411Y-141549419D01*
X122808851Y-141462181D01*
X122697819Y-141351149D01*
X122610581Y-141220589D01*
X122550491Y-141075518D01*
X122519857Y-140921512D01*
X122519857Y-140764488D01*
X122550491Y-140610482D01*
X122610581Y-140465411D01*
X122697819Y-140334851D01*
X122808851Y-140223819D01*
X122939411Y-140136581D01*
X123084482Y-140076491D01*
X123238488Y-140045857D01*
X123395512Y-140045857D01*
X123549518Y-140076491D01*
G37*
G36*
X228111517Y-138335882D02*
G01*
X228128062Y-138346938D01*
X228139118Y-138363483D01*
X228143000Y-138383000D01*
X228143000Y-139883000D01*
X228139118Y-139902517D01*
X228128062Y-139919062D01*
X228111517Y-139930118D01*
X228092000Y-139934000D01*
X223012000Y-139934000D01*
X222992483Y-139930118D01*
X222975938Y-139919062D01*
X222964882Y-139902517D01*
X222961000Y-139883000D01*
X222961000Y-138383000D01*
X222964882Y-138363483D01*
X222975938Y-138346938D01*
X222992483Y-138335882D01*
X223012000Y-138332000D01*
X228092000Y-138332000D01*
X228111517Y-138335882D01*
G37*
G36*
X127613518Y-138171491D02*
G01*
X127758589Y-138231581D01*
X127889149Y-138318819D01*
X128000181Y-138429851D01*
X128087419Y-138560411D01*
X128147509Y-138705482D01*
X128178143Y-138859488D01*
X128178143Y-139016512D01*
X128147509Y-139170518D01*
X128087419Y-139315589D01*
X128000181Y-139446149D01*
X127889149Y-139557181D01*
X127758589Y-139644419D01*
X127613518Y-139704509D01*
X127459512Y-139735143D01*
X127302488Y-139735143D01*
X127148482Y-139704509D01*
X127003411Y-139644419D01*
X126872851Y-139557181D01*
X126761819Y-139446149D01*
X126674581Y-139315589D01*
X126614491Y-139170518D01*
X126583857Y-139016512D01*
X126583857Y-138859488D01*
X126614491Y-138705482D01*
X126674581Y-138560411D01*
X126761819Y-138429851D01*
X126872851Y-138318819D01*
X127003411Y-138231581D01*
X127148482Y-138171491D01*
X127302488Y-138140857D01*
X127459512Y-138140857D01*
X127613518Y-138171491D01*
G37*
G36*
X123549518Y-136393491D02*
G01*
X123694589Y-136453581D01*
X123825149Y-136540819D01*
X123936181Y-136651851D01*
X124023419Y-136782411D01*
X124083509Y-136927482D01*
X124114143Y-137081488D01*
X124114143Y-137238512D01*
X124083509Y-137392518D01*
X124023419Y-137537589D01*
X123936181Y-137668149D01*
X123825149Y-137779181D01*
X123694589Y-137866419D01*
X123549518Y-137926509D01*
X123395512Y-137957143D01*
X123238488Y-137957143D01*
X123084482Y-137926509D01*
X122939411Y-137866419D01*
X122808851Y-137779181D01*
X122697819Y-137668149D01*
X122610581Y-137537589D01*
X122550491Y-137392518D01*
X122519857Y-137238512D01*
X122519857Y-137081488D01*
X122550491Y-136927482D01*
X122610581Y-136782411D01*
X122697819Y-136651851D01*
X122808851Y-136540819D01*
X122939411Y-136453581D01*
X123084482Y-136393491D01*
X123238488Y-136362857D01*
X123395512Y-136362857D01*
X123549518Y-136393491D01*
G37*
G36*
X78417889Y-135117621D02*
G01*
X78502894Y-135166699D01*
X78572301Y-135236106D01*
X78621379Y-135321111D01*
X78646783Y-135415922D01*
X78646783Y-135514078D01*
X78621379Y-135608889D01*
X78572301Y-135693894D01*
X78502894Y-135763301D01*
X78417889Y-135812379D01*
X78323078Y-135837783D01*
X78224922Y-135837783D01*
X78130111Y-135812379D01*
X78045106Y-135763301D01*
X77975699Y-135693894D01*
X77926621Y-135608889D01*
X77901217Y-135514078D01*
X77901217Y-135415922D01*
X77926621Y-135321111D01*
X77975699Y-135236106D01*
X78045106Y-135166699D01*
X78130111Y-135117621D01*
X78224922Y-135092217D01*
X78323078Y-135092217D01*
X78417889Y-135117621D01*
G37*
G36*
X77242004Y-134216338D02*
G01*
X77378019Y-134272677D01*
X77500429Y-134354469D01*
X77604531Y-134458571D01*
X77686323Y-134580981D01*
X77742662Y-134716996D01*
X77771384Y-134861389D01*
X77771384Y-135008611D01*
X77742662Y-135153004D01*
X77741479Y-135155858D01*
X77727452Y-135226378D01*
X77687506Y-135286160D01*
X77686323Y-135289019D01*
X77604531Y-135411429D01*
X77500429Y-135515531D01*
X77378019Y-135597323D01*
X77242004Y-135653662D01*
X77097611Y-135682384D01*
X76950389Y-135682384D01*
X76805996Y-135653662D01*
X76669981Y-135597323D01*
X76547571Y-135515531D01*
X76443469Y-135411429D01*
X76361677Y-135289019D01*
X76305338Y-135153004D01*
X76276616Y-135008611D01*
X76276616Y-134861389D01*
X76305338Y-134716996D01*
X76361677Y-134580981D01*
X76443469Y-134458571D01*
X76547571Y-134354469D01*
X76669981Y-134272677D01*
X76805996Y-134216338D01*
X76950389Y-134187616D01*
X77097611Y-134187616D01*
X77242004Y-134216338D01*
G37*
G36*
X71292004Y-133856338D02*
G01*
X71428019Y-133912677D01*
X71550429Y-133994469D01*
X71654531Y-134098571D01*
X71736323Y-134220981D01*
X71792662Y-134356996D01*
X71821384Y-134501389D01*
X71821384Y-134648611D01*
X71792662Y-134793004D01*
X71736323Y-134929019D01*
X71654531Y-135051429D01*
X71550429Y-135155531D01*
X71428019Y-135237323D01*
X71292004Y-135293662D01*
X71147611Y-135322384D01*
X71000389Y-135322384D01*
X70855996Y-135293662D01*
X70719981Y-135237323D01*
X70597571Y-135155531D01*
X70493469Y-135051429D01*
X70411677Y-134929019D01*
X70355338Y-134793004D01*
X70326616Y-134648611D01*
X70326616Y-134501389D01*
X70355338Y-134356996D01*
X70411677Y-134220981D01*
X70493469Y-134098571D01*
X70597571Y-133994469D01*
X70719981Y-133912677D01*
X70855996Y-133856338D01*
X71000389Y-133827616D01*
X71147611Y-133827616D01*
X71292004Y-133856338D01*
G37*
G36*
X211306518Y-132583491D02*
G01*
X211451589Y-132643581D01*
X211582149Y-132730819D01*
X211693181Y-132841851D01*
X211780419Y-132972411D01*
X211840509Y-133117482D01*
X211871143Y-133271488D01*
X211871143Y-133428512D01*
X211840509Y-133582518D01*
X211780419Y-133727589D01*
X211693181Y-133858149D01*
X211582149Y-133969181D01*
X211451589Y-134056419D01*
X211306518Y-134116509D01*
X211152512Y-134147143D01*
X210995488Y-134147143D01*
X210841482Y-134116509D01*
X210696411Y-134056419D01*
X210565851Y-133969181D01*
X210454819Y-133858149D01*
X210367581Y-133727589D01*
X210307491Y-133582518D01*
X210276857Y-133428512D01*
X210276857Y-133271488D01*
X210307491Y-133117482D01*
X210367581Y-132972411D01*
X210454819Y-132841851D01*
X210565851Y-132730819D01*
X210696411Y-132643581D01*
X210841482Y-132583491D01*
X210995488Y-132552857D01*
X211152512Y-132552857D01*
X211306518Y-132583491D01*
G37*
G36*
X122279518Y-131186491D02*
G01*
X122424589Y-131246581D01*
X122555149Y-131333819D01*
X122666181Y-131444851D01*
X122753419Y-131575411D01*
X122813509Y-131720482D01*
X122844143Y-131874488D01*
X122844143Y-132031512D01*
X122813509Y-132185518D01*
X122753419Y-132330589D01*
X122666181Y-132461149D01*
X122555149Y-132572181D01*
X122424589Y-132659419D01*
X122279518Y-132719509D01*
X122125512Y-132750143D01*
X121968488Y-132750143D01*
X121814482Y-132719509D01*
X121669411Y-132659419D01*
X121538851Y-132572181D01*
X121427819Y-132461149D01*
X121340581Y-132330589D01*
X121280491Y-132185518D01*
X121249857Y-132031512D01*
X121249857Y-131874488D01*
X121280491Y-131720482D01*
X121340581Y-131575411D01*
X121427819Y-131444851D01*
X121538851Y-131333819D01*
X121669411Y-131246581D01*
X121814482Y-131186491D01*
X121968488Y-131155857D01*
X122125512Y-131155857D01*
X122279518Y-131186491D01*
G37*
G36*
X96879518Y-126995491D02*
G01*
X97024589Y-127055581D01*
X97155149Y-127142819D01*
X97266181Y-127253851D01*
X97353419Y-127384411D01*
X97413509Y-127529482D01*
X97444143Y-127683488D01*
X97444143Y-127840512D01*
X97413509Y-127994518D01*
X97353419Y-128139589D01*
X97266181Y-128270149D01*
X97155149Y-128381181D01*
X97024589Y-128468419D01*
X96879518Y-128528509D01*
X96725512Y-128559143D01*
X96568488Y-128559143D01*
X96414482Y-128528509D01*
X96269411Y-128468419D01*
X96138851Y-128381181D01*
X96027819Y-128270149D01*
X95940581Y-128139589D01*
X95880491Y-127994518D01*
X95849857Y-127840512D01*
X95849857Y-127683488D01*
X95880491Y-127529482D01*
X95940581Y-127384411D01*
X96027819Y-127253851D01*
X96138851Y-127142819D01*
X96269411Y-127055581D01*
X96414482Y-126995491D01*
X96568488Y-126964857D01*
X96725512Y-126964857D01*
X96879518Y-126995491D01*
G37*
G36*
X228111517Y-124737882D02*
G01*
X228128062Y-124748938D01*
X228139118Y-124765483D01*
X228143000Y-124785000D01*
X228143000Y-126285000D01*
X228139118Y-126304517D01*
X228128062Y-126321062D01*
X228111517Y-126332118D01*
X228092000Y-126336000D01*
X223012000Y-126336000D01*
X222992483Y-126332118D01*
X222975938Y-126321062D01*
X222964882Y-126304517D01*
X222961000Y-126285000D01*
X222961000Y-124785000D01*
X222964882Y-124765483D01*
X222975938Y-124748938D01*
X222992483Y-124737882D01*
X223012000Y-124734000D01*
X228092000Y-124734000D01*
X228111517Y-124737882D01*
G37*
G36*
X103356518Y-123312491D02*
G01*
X103501589Y-123372581D01*
X103632149Y-123459819D01*
X103743181Y-123570851D01*
X103830419Y-123701411D01*
X103890509Y-123846482D01*
X103921143Y-124000488D01*
X103921143Y-124157512D01*
X103890509Y-124311518D01*
X103830419Y-124456589D01*
X103743181Y-124587149D01*
X103632149Y-124698181D01*
X103501589Y-124785419D01*
X103356518Y-124845509D01*
X103202512Y-124876143D01*
X103045488Y-124876143D01*
X102891482Y-124845509D01*
X102746411Y-124785419D01*
X102615851Y-124698181D01*
X102504819Y-124587149D01*
X102417581Y-124456589D01*
X102357491Y-124311518D01*
X102326857Y-124157512D01*
X102326857Y-124000488D01*
X102357491Y-123846482D01*
X102417581Y-123701411D01*
X102504819Y-123570851D01*
X102615851Y-123459819D01*
X102746411Y-123372581D01*
X102891482Y-123312491D01*
X103045488Y-123281857D01*
X103202512Y-123281857D01*
X103356518Y-123312491D01*
G37*
G36*
X115675518Y-123312491D02*
G01*
X115820589Y-123372581D01*
X115951149Y-123459819D01*
X116062181Y-123570851D01*
X116149419Y-123701411D01*
X116209509Y-123846482D01*
X116240143Y-124000488D01*
X116240143Y-124157512D01*
X116209509Y-124311518D01*
X116149419Y-124456589D01*
X116062181Y-124587149D01*
X115951149Y-124698181D01*
X115820589Y-124785419D01*
X115675518Y-124845509D01*
X115521512Y-124876143D01*
X115364488Y-124876143D01*
X115210482Y-124845509D01*
X115065411Y-124785419D01*
X114934851Y-124698181D01*
X114823819Y-124587149D01*
X114736581Y-124456589D01*
X114676491Y-124311518D01*
X114645857Y-124157512D01*
X114645857Y-124000488D01*
X114676491Y-123846482D01*
X114736581Y-123701411D01*
X114823819Y-123570851D01*
X114934851Y-123459819D01*
X115065411Y-123372581D01*
X115210482Y-123312491D01*
X115364488Y-123281857D01*
X115521512Y-123281857D01*
X115675518Y-123312491D01*
G37*
G36*
X75191546Y-121057797D02*
G01*
X75354728Y-121125389D01*
X75501588Y-121223518D01*
X75626482Y-121348412D01*
X75724611Y-121495272D01*
X75792203Y-121658454D01*
X75826661Y-121831687D01*
X75826661Y-122008313D01*
X75792203Y-122181546D01*
X75724611Y-122344728D01*
X75626482Y-122491588D01*
X75501588Y-122616482D01*
X75354728Y-122714611D01*
X75191546Y-122782203D01*
X75018313Y-122816661D01*
X74841687Y-122816661D01*
X74668454Y-122782203D01*
X74505272Y-122714611D01*
X74358412Y-122616482D01*
X74233518Y-122491588D01*
X74135389Y-122344728D01*
X74067797Y-122181546D01*
X74033339Y-122008313D01*
X74033339Y-121831687D01*
X74067797Y-121658454D01*
X74135389Y-121495272D01*
X74233518Y-121348412D01*
X74358412Y-121223518D01*
X74505272Y-121125389D01*
X74668454Y-121057797D01*
X74841687Y-121023339D01*
X75018313Y-121023339D01*
X75191546Y-121057797D01*
G37*
G36*
X103356518Y-120391491D02*
G01*
X103501589Y-120451581D01*
X103632149Y-120538819D01*
X103743181Y-120649851D01*
X103830419Y-120780411D01*
X103890509Y-120925482D01*
X103921143Y-121079488D01*
X103921143Y-121236512D01*
X103890509Y-121390518D01*
X103830419Y-121535589D01*
X103743181Y-121666149D01*
X103632149Y-121777181D01*
X103501589Y-121864419D01*
X103356518Y-121924509D01*
X103202512Y-121955143D01*
X103045488Y-121955143D01*
X102891482Y-121924509D01*
X102746411Y-121864419D01*
X102615851Y-121777181D01*
X102504819Y-121666149D01*
X102417581Y-121535589D01*
X102357491Y-121390518D01*
X102326857Y-121236512D01*
X102326857Y-121079488D01*
X102357491Y-120925482D01*
X102417581Y-120780411D01*
X102504819Y-120649851D01*
X102615851Y-120538819D01*
X102746411Y-120451581D01*
X102891482Y-120391491D01*
X103045488Y-120360857D01*
X103202512Y-120360857D01*
X103356518Y-120391491D01*
G37*
G36*
X115675518Y-120391491D02*
G01*
X115820589Y-120451581D01*
X115951149Y-120538819D01*
X116062181Y-120649851D01*
X116149419Y-120780411D01*
X116209509Y-120925482D01*
X116240143Y-121079488D01*
X116240143Y-121236512D01*
X116209509Y-121390518D01*
X116149419Y-121535589D01*
X116062181Y-121666149D01*
X115951149Y-121777181D01*
X115820589Y-121864419D01*
X115675518Y-121924509D01*
X115521512Y-121955143D01*
X115364488Y-121955143D01*
X115210482Y-121924509D01*
X115065411Y-121864419D01*
X114934851Y-121777181D01*
X114823819Y-121666149D01*
X114736581Y-121535589D01*
X114676491Y-121390518D01*
X114645857Y-121236512D01*
X114645857Y-121079488D01*
X114676491Y-120925482D01*
X114736581Y-120780411D01*
X114823819Y-120649851D01*
X114934851Y-120538819D01*
X115065411Y-120451581D01*
X115210482Y-120391491D01*
X115364488Y-120360857D01*
X115521512Y-120360857D01*
X115675518Y-120391491D01*
G37*
G36*
X75191546Y-118517797D02*
G01*
X75354728Y-118585389D01*
X75501588Y-118683518D01*
X75626482Y-118808412D01*
X75724611Y-118955272D01*
X75792203Y-119118454D01*
X75826661Y-119291687D01*
X75826661Y-119468313D01*
X75792203Y-119641546D01*
X75724611Y-119804728D01*
X75626482Y-119951588D01*
X75501588Y-120076482D01*
X75354728Y-120174611D01*
X75191546Y-120242203D01*
X75018313Y-120276661D01*
X74841687Y-120276661D01*
X74668454Y-120242203D01*
X74505272Y-120174611D01*
X74358412Y-120076482D01*
X74233518Y-119951588D01*
X74135389Y-119804728D01*
X74067797Y-119641546D01*
X74033339Y-119468313D01*
X74033339Y-119291687D01*
X74067797Y-119118454D01*
X74135389Y-118955272D01*
X74233518Y-118808412D01*
X74358412Y-118683518D01*
X74505272Y-118585389D01*
X74668454Y-118517797D01*
X74841687Y-118483339D01*
X75018313Y-118483339D01*
X75191546Y-118517797D01*
G37*
G36*
X228111517Y-116237882D02*
G01*
X228128062Y-116248938D01*
X228139118Y-116265483D01*
X228143000Y-116285000D01*
X228143000Y-117785000D01*
X228139118Y-117804517D01*
X228128062Y-117821062D01*
X228111517Y-117832118D01*
X228092000Y-117836000D01*
X223012000Y-117836000D01*
X222992483Y-117832118D01*
X222975938Y-117821062D01*
X222964882Y-117804517D01*
X222961000Y-117785000D01*
X222961000Y-116285000D01*
X222964882Y-116265483D01*
X222975938Y-116248938D01*
X222992483Y-116237882D01*
X223012000Y-116234000D01*
X228092000Y-116234000D01*
X228111517Y-116237882D01*
G37*
G36*
X75799517Y-115942882D02*
G01*
X75816062Y-115953938D01*
X75827118Y-115970483D01*
X75831000Y-115990000D01*
X75831000Y-117690000D01*
X75827118Y-117709517D01*
X75816062Y-117726062D01*
X75799517Y-117737118D01*
X75780000Y-117741000D01*
X74080000Y-117741000D01*
X74060483Y-117737118D01*
X74043938Y-117726062D01*
X74032882Y-117709517D01*
X74029000Y-117690000D01*
X74029000Y-115990000D01*
X74032882Y-115970483D01*
X74043938Y-115953938D01*
X74060483Y-115942882D01*
X74080000Y-115939000D01*
X75780000Y-115939000D01*
X75799517Y-115942882D01*
G37*
G36*
X102086518Y-112009491D02*
G01*
X102231589Y-112069581D01*
X102362149Y-112156819D01*
X102473181Y-112267851D01*
X102560419Y-112398411D01*
X102620509Y-112543482D01*
X102651143Y-112697488D01*
X102651143Y-112854512D01*
X102620509Y-113008518D01*
X102560419Y-113153589D01*
X102473181Y-113284149D01*
X102362149Y-113395181D01*
X102231589Y-113482419D01*
X102086518Y-113542509D01*
X101932512Y-113573143D01*
X101775488Y-113573143D01*
X101621482Y-113542509D01*
X101476411Y-113482419D01*
X101345851Y-113395181D01*
X101234819Y-113284149D01*
X101147581Y-113153589D01*
X101087491Y-113008518D01*
X101056857Y-112854512D01*
X101056857Y-112697488D01*
X101087491Y-112543482D01*
X101147581Y-112398411D01*
X101234819Y-112267851D01*
X101345851Y-112156819D01*
X101476411Y-112069581D01*
X101621482Y-112009491D01*
X101775488Y-111978857D01*
X101932512Y-111978857D01*
X102086518Y-112009491D01*
G37*
G36*
X128123517Y-107306882D02*
G01*
X128140062Y-107317938D01*
X128151118Y-107334483D01*
X128155000Y-107354000D01*
X128155000Y-109054000D01*
X128151118Y-109073517D01*
X128140062Y-109090062D01*
X128123517Y-109101118D01*
X128104000Y-109105000D01*
X126404000Y-109105000D01*
X126384483Y-109101118D01*
X126367938Y-109090062D01*
X126356882Y-109073517D01*
X126353000Y-109054000D01*
X126353000Y-107354000D01*
X126356882Y-107334483D01*
X126367938Y-107317938D01*
X126384483Y-107306882D01*
X126404000Y-107303000D01*
X128104000Y-107303000D01*
X128123517Y-107306882D01*
G37*
G36*
X130055546Y-107341797D02*
G01*
X130218728Y-107409389D01*
X130365588Y-107507518D01*
X130490482Y-107632412D01*
X130588611Y-107779272D01*
X130656203Y-107942454D01*
X130690661Y-108115687D01*
X130690661Y-108292313D01*
X130656203Y-108465546D01*
X130588611Y-108628728D01*
X130490482Y-108775588D01*
X130365588Y-108900482D01*
X130218728Y-108998611D01*
X130055546Y-109066203D01*
X129882313Y-109100661D01*
X129705687Y-109100661D01*
X129532454Y-109066203D01*
X129369272Y-108998611D01*
X129222412Y-108900482D01*
X129097518Y-108775588D01*
X128999389Y-108628728D01*
X128931797Y-108465546D01*
X128897339Y-108292313D01*
X128897339Y-108115687D01*
X128931797Y-107942454D01*
X128999389Y-107779272D01*
X129097518Y-107632412D01*
X129222412Y-107507518D01*
X129369272Y-107409389D01*
X129532454Y-107341797D01*
X129705687Y-107307339D01*
X129882313Y-107307339D01*
X130055546Y-107341797D01*
G37*
G36*
X132595546Y-107341797D02*
G01*
X132758728Y-107409389D01*
X132905588Y-107507518D01*
X133030482Y-107632412D01*
X133128611Y-107779272D01*
X133196203Y-107942454D01*
X133230661Y-108115687D01*
X133230661Y-108292313D01*
X133196203Y-108465546D01*
X133128611Y-108628728D01*
X133030482Y-108775588D01*
X132905588Y-108900482D01*
X132758728Y-108998611D01*
X132595546Y-109066203D01*
X132422313Y-109100661D01*
X132245687Y-109100661D01*
X132072454Y-109066203D01*
X131909272Y-108998611D01*
X131762412Y-108900482D01*
X131637518Y-108775588D01*
X131539389Y-108628728D01*
X131471797Y-108465546D01*
X131437339Y-108292313D01*
X131437339Y-108115687D01*
X131471797Y-107942454D01*
X131539389Y-107779272D01*
X131637518Y-107632412D01*
X131762412Y-107507518D01*
X131909272Y-107409389D01*
X132072454Y-107341797D01*
X132245687Y-107307339D01*
X132422313Y-107307339D01*
X132595546Y-107341797D01*
G37*
G36*
X135135546Y-107341797D02*
G01*
X135298728Y-107409389D01*
X135445588Y-107507518D01*
X135570482Y-107632412D01*
X135668611Y-107779272D01*
X135736203Y-107942454D01*
X135770661Y-108115687D01*
X135770661Y-108292313D01*
X135736203Y-108465546D01*
X135668611Y-108628728D01*
X135570482Y-108775588D01*
X135445588Y-108900482D01*
X135298728Y-108998611D01*
X135135546Y-109066203D01*
X134962313Y-109100661D01*
X134785687Y-109100661D01*
X134612454Y-109066203D01*
X134449272Y-108998611D01*
X134302412Y-108900482D01*
X134177518Y-108775588D01*
X134079389Y-108628728D01*
X134011797Y-108465546D01*
X133977339Y-108292313D01*
X133977339Y-108115687D01*
X134011797Y-107942454D01*
X134079389Y-107779272D01*
X134177518Y-107632412D01*
X134302412Y-107507518D01*
X134449272Y-107409389D01*
X134612454Y-107341797D01*
X134785687Y-107307339D01*
X134962313Y-107307339D01*
X135135546Y-107341797D01*
G37*
G36*
X137675546Y-107341797D02*
G01*
X137838728Y-107409389D01*
X137985588Y-107507518D01*
X138110482Y-107632412D01*
X138208611Y-107779272D01*
X138276203Y-107942454D01*
X138310661Y-108115687D01*
X138310661Y-108292313D01*
X138276203Y-108465546D01*
X138208611Y-108628728D01*
X138110482Y-108775588D01*
X137985588Y-108900482D01*
X137838728Y-108998611D01*
X137675546Y-109066203D01*
X137502313Y-109100661D01*
X137325687Y-109100661D01*
X137152454Y-109066203D01*
X136989272Y-108998611D01*
X136842412Y-108900482D01*
X136717518Y-108775588D01*
X136619389Y-108628728D01*
X136551797Y-108465546D01*
X136517339Y-108292313D01*
X136517339Y-108115687D01*
X136551797Y-107942454D01*
X136619389Y-107779272D01*
X136717518Y-107632412D01*
X136842412Y-107507518D01*
X136989272Y-107409389D01*
X137152454Y-107341797D01*
X137325687Y-107307339D01*
X137502313Y-107307339D01*
X137675546Y-107341797D01*
G37*
G36*
X77956518Y-106929491D02*
G01*
X78101589Y-106989581D01*
X78232149Y-107076819D01*
X78343181Y-107187851D01*
X78430419Y-107318411D01*
X78490509Y-107463482D01*
X78521143Y-107617488D01*
X78521143Y-107774512D01*
X78490509Y-107928518D01*
X78430419Y-108073589D01*
X78343181Y-108204149D01*
X78232149Y-108315181D01*
X78101589Y-108402419D01*
X77956518Y-108462509D01*
X77802512Y-108493143D01*
X77645488Y-108493143D01*
X77491482Y-108462509D01*
X77346411Y-108402419D01*
X77215851Y-108315181D01*
X77104819Y-108204149D01*
X77017581Y-108073589D01*
X76957491Y-107928518D01*
X76926857Y-107774512D01*
X76926857Y-107617488D01*
X76957491Y-107463482D01*
X77017581Y-107318411D01*
X77104819Y-107187851D01*
X77215851Y-107076819D01*
X77346411Y-106989581D01*
X77491482Y-106929491D01*
X77645488Y-106898857D01*
X77802512Y-106898857D01*
X77956518Y-106929491D01*
G37*
G36*
X127515546Y-104801797D02*
G01*
X127678728Y-104869389D01*
X127825588Y-104967518D01*
X127950482Y-105092412D01*
X128048611Y-105239272D01*
X128116203Y-105402454D01*
X128150661Y-105575687D01*
X128150661Y-105752313D01*
X128116203Y-105925546D01*
X128048611Y-106088728D01*
X127950482Y-106235588D01*
X127825588Y-106360482D01*
X127678728Y-106458611D01*
X127515546Y-106526203D01*
X127342313Y-106560661D01*
X127165687Y-106560661D01*
X126992454Y-106526203D01*
X126829272Y-106458611D01*
X126682412Y-106360482D01*
X126557518Y-106235588D01*
X126459389Y-106088728D01*
X126391797Y-105925546D01*
X126357339Y-105752313D01*
X126357339Y-105575687D01*
X126391797Y-105402454D01*
X126459389Y-105239272D01*
X126557518Y-105092412D01*
X126682412Y-104967518D01*
X126829272Y-104869389D01*
X126992454Y-104801797D01*
X127165687Y-104767339D01*
X127342313Y-104767339D01*
X127515546Y-104801797D01*
G37*
G36*
X130055546Y-104801797D02*
G01*
X130218728Y-104869389D01*
X130365588Y-104967518D01*
X130490482Y-105092412D01*
X130588611Y-105239272D01*
X130656203Y-105402454D01*
X130690661Y-105575687D01*
X130690661Y-105752313D01*
X130656203Y-105925546D01*
X130588611Y-106088728D01*
X130490482Y-106235588D01*
X130365588Y-106360482D01*
X130218728Y-106458611D01*
X130055546Y-106526203D01*
X129882313Y-106560661D01*
X129705687Y-106560661D01*
X129532454Y-106526203D01*
X129369272Y-106458611D01*
X129222412Y-106360482D01*
X129097518Y-106235588D01*
X128999389Y-106088728D01*
X128931797Y-105925546D01*
X128897339Y-105752313D01*
X128897339Y-105575687D01*
X128931797Y-105402454D01*
X128999389Y-105239272D01*
X129097518Y-105092412D01*
X129222412Y-104967518D01*
X129369272Y-104869389D01*
X129532454Y-104801797D01*
X129705687Y-104767339D01*
X129882313Y-104767339D01*
X130055546Y-104801797D01*
G37*
G36*
X132595546Y-104801797D02*
G01*
X132758728Y-104869389D01*
X132905588Y-104967518D01*
X133030482Y-105092412D01*
X133128611Y-105239272D01*
X133196203Y-105402454D01*
X133230661Y-105575687D01*
X133230661Y-105752313D01*
X133196203Y-105925546D01*
X133128611Y-106088728D01*
X133030482Y-106235588D01*
X132905588Y-106360482D01*
X132758728Y-106458611D01*
X132595546Y-106526203D01*
X132422313Y-106560661D01*
X132245687Y-106560661D01*
X132072454Y-106526203D01*
X131909272Y-106458611D01*
X131762412Y-106360482D01*
X131637518Y-106235588D01*
X131539389Y-106088728D01*
X131471797Y-105925546D01*
X131437339Y-105752313D01*
X131437339Y-105575687D01*
X131471797Y-105402454D01*
X131539389Y-105239272D01*
X131637518Y-105092412D01*
X131762412Y-104967518D01*
X131909272Y-104869389D01*
X132072454Y-104801797D01*
X132245687Y-104767339D01*
X132422313Y-104767339D01*
X132595546Y-104801797D01*
G37*
G36*
X135135546Y-104801797D02*
G01*
X135298728Y-104869389D01*
X135445588Y-104967518D01*
X135570482Y-105092412D01*
X135668611Y-105239272D01*
X135736203Y-105402454D01*
X135770661Y-105575687D01*
X135770661Y-105752313D01*
X135736203Y-105925546D01*
X135668611Y-106088728D01*
X135570482Y-106235588D01*
X135445588Y-106360482D01*
X135298728Y-106458611D01*
X135135546Y-106526203D01*
X134962313Y-106560661D01*
X134785687Y-106560661D01*
X134612454Y-106526203D01*
X134449272Y-106458611D01*
X134302412Y-106360482D01*
X134177518Y-106235588D01*
X134079389Y-106088728D01*
X134011797Y-105925546D01*
X133977339Y-105752313D01*
X133977339Y-105575687D01*
X134011797Y-105402454D01*
X134079389Y-105239272D01*
X134177518Y-105092412D01*
X134302412Y-104967518D01*
X134449272Y-104869389D01*
X134612454Y-104801797D01*
X134785687Y-104767339D01*
X134962313Y-104767339D01*
X135135546Y-104801797D01*
G37*
G36*
X137675546Y-104801797D02*
G01*
X137838728Y-104869389D01*
X137985588Y-104967518D01*
X138110482Y-105092412D01*
X138208611Y-105239272D01*
X138276203Y-105402454D01*
X138310661Y-105575687D01*
X138310661Y-105752313D01*
X138276203Y-105925546D01*
X138208611Y-106088728D01*
X138110482Y-106235588D01*
X137985588Y-106360482D01*
X137838728Y-106458611D01*
X137675546Y-106526203D01*
X137502313Y-106560661D01*
X137325687Y-106560661D01*
X137152454Y-106526203D01*
X136989272Y-106458611D01*
X136842412Y-106360482D01*
X136717518Y-106235588D01*
X136619389Y-106088728D01*
X136551797Y-105925546D01*
X136517339Y-105752313D01*
X136517339Y-105575687D01*
X136551797Y-105402454D01*
X136619389Y-105239272D01*
X136717518Y-105092412D01*
X136842412Y-104967518D01*
X136989272Y-104869389D01*
X137152454Y-104801797D01*
X137325687Y-104767339D01*
X137502313Y-104767339D01*
X137675546Y-104801797D01*
G37*
G36*
X228111517Y-102512882D02*
G01*
X228128062Y-102523938D01*
X228139118Y-102540483D01*
X228143000Y-102560000D01*
X228143000Y-104060000D01*
X228139118Y-104079517D01*
X228128062Y-104096062D01*
X228111517Y-104107118D01*
X228092000Y-104111000D01*
X223012000Y-104111000D01*
X222992483Y-104107118D01*
X222975938Y-104096062D01*
X222964882Y-104079517D01*
X222961000Y-104060000D01*
X222961000Y-102560000D01*
X222964882Y-102540483D01*
X222975938Y-102523938D01*
X222992483Y-102512882D01*
X223012000Y-102509000D01*
X228092000Y-102509000D01*
X228111517Y-102512882D01*
G37*
G36*
X102848518Y-100071491D02*
G01*
X102993589Y-100131581D01*
X103124149Y-100218819D01*
X103235181Y-100329851D01*
X103322419Y-100460411D01*
X103382509Y-100605482D01*
X103413143Y-100759488D01*
X103413143Y-100916512D01*
X103382509Y-101070518D01*
X103322419Y-101215589D01*
X103235181Y-101346149D01*
X103124149Y-101457181D01*
X102993589Y-101544419D01*
X102848518Y-101604509D01*
X102694512Y-101635143D01*
X102537488Y-101635143D01*
X102383482Y-101604509D01*
X102238411Y-101544419D01*
X102107851Y-101457181D01*
X101996819Y-101346149D01*
X101909581Y-101215589D01*
X101849491Y-101070518D01*
X101818857Y-100916512D01*
X101818857Y-100759488D01*
X101849491Y-100605482D01*
X101909581Y-100460411D01*
X101996819Y-100329851D01*
X102107851Y-100218819D01*
X102238411Y-100131581D01*
X102383482Y-100071491D01*
X102537488Y-100040857D01*
X102694512Y-100040857D01*
X102848518Y-100071491D01*
G37*
G36*
X73257518Y-96261491D02*
G01*
X73402589Y-96321581D01*
X73533149Y-96408819D01*
X73644181Y-96519851D01*
X73731419Y-96650411D01*
X73791509Y-96795482D01*
X73822143Y-96949488D01*
X73822143Y-97106512D01*
X73791509Y-97260518D01*
X73731419Y-97405589D01*
X73644181Y-97536149D01*
X73533149Y-97647181D01*
X73402589Y-97734419D01*
X73257518Y-97794509D01*
X73103512Y-97825143D01*
X72946488Y-97825143D01*
X72792482Y-97794509D01*
X72647411Y-97734419D01*
X72516851Y-97647181D01*
X72405819Y-97536149D01*
X72318581Y-97405589D01*
X72258491Y-97260518D01*
X72227857Y-97106512D01*
X72227857Y-96949488D01*
X72258491Y-96795482D01*
X72318581Y-96650411D01*
X72405819Y-96519851D01*
X72516851Y-96408819D01*
X72647411Y-96321581D01*
X72792482Y-96261491D01*
X72946488Y-96230857D01*
X73103512Y-96230857D01*
X73257518Y-96261491D01*
G37*
G36*
X189370517Y-94426882D02*
G01*
X189387062Y-94437938D01*
X189398118Y-94454483D01*
X189402000Y-94474000D01*
X189402000Y-97074000D01*
X189398118Y-97093517D01*
X189387062Y-97110062D01*
X189370517Y-97121118D01*
X189351000Y-97125000D01*
X186751000Y-97125000D01*
X186731483Y-97121118D01*
X186714938Y-97110062D01*
X186703882Y-97093517D01*
X186700000Y-97074000D01*
X186700000Y-94474000D01*
X186703882Y-94454483D01*
X186714938Y-94437938D01*
X186731483Y-94426882D01*
X186751000Y-94423000D01*
X189351000Y-94423000D01*
X189370517Y-94426882D01*
G37*
G36*
X228111517Y-94012882D02*
G01*
X228128062Y-94023938D01*
X228139118Y-94040483D01*
X228143000Y-94060000D01*
X228143000Y-95560000D01*
X228139118Y-95579517D01*
X228128062Y-95596062D01*
X228111517Y-95607118D01*
X228092000Y-95611000D01*
X223012000Y-95611000D01*
X222992483Y-95607118D01*
X222975938Y-95596062D01*
X222964882Y-95579517D01*
X222961000Y-95560000D01*
X222961000Y-94060000D01*
X222964882Y-94040483D01*
X222975938Y-94023938D01*
X222992483Y-94012882D01*
X223012000Y-94009000D01*
X228092000Y-94009000D01*
X228111517Y-94012882D01*
G37*
G36*
X188366385Y-89380328D02*
G01*
X188568005Y-89445839D01*
X188756896Y-89542083D01*
X188928404Y-89666692D01*
X189078308Y-89816596D01*
X189202917Y-89988104D01*
X189299161Y-90176995D01*
X189364672Y-90378615D01*
X189397835Y-90588002D01*
X189397835Y-90799998D01*
X189364672Y-91009385D01*
X189299161Y-91211005D01*
X189202917Y-91399896D01*
X189078308Y-91571404D01*
X188928404Y-91721308D01*
X188756896Y-91845917D01*
X188568005Y-91942161D01*
X188366385Y-92007672D01*
X188156998Y-92040835D01*
X187945002Y-92040835D01*
X187735615Y-92007672D01*
X187533995Y-91942161D01*
X187345104Y-91845917D01*
X187173596Y-91721308D01*
X187023692Y-91571404D01*
X186899083Y-91399896D01*
X186802839Y-91211005D01*
X186737328Y-91009385D01*
X186704165Y-90799998D01*
X186704165Y-90588002D01*
X186737328Y-90378615D01*
X186802839Y-90176995D01*
X186899083Y-89988104D01*
X187023692Y-89816596D01*
X187173596Y-89666692D01*
X187345104Y-89542083D01*
X187533995Y-89445839D01*
X187735615Y-89380328D01*
X187945002Y-89347165D01*
X188156998Y-89347165D01*
X188366385Y-89380328D01*
G37*
G36*
X75657498Y-89884061D02*
G01*
X75669016Y-89884061D01*
X75714023Y-89893013D01*
X75811260Y-89908414D01*
X75842536Y-89918576D01*
X75871089Y-89924256D01*
X75911387Y-89940948D01*
X75968052Y-89959360D01*
X76021135Y-89986407D01*
X76061438Y-90003101D01*
X76085647Y-90019277D01*
X76114943Y-90034204D01*
X76194583Y-90092066D01*
X76232747Y-90117566D01*
X76240891Y-90125710D01*
X76248315Y-90131104D01*
X76364895Y-90247684D01*
X76370288Y-90255107D01*
X76378434Y-90263253D01*
X76403936Y-90301420D01*
X76461795Y-90381056D01*
X76476720Y-90410348D01*
X76492899Y-90434562D01*
X76509594Y-90474869D01*
X76536639Y-90527947D01*
X76555048Y-90584604D01*
X76571744Y-90624911D01*
X76577424Y-90653469D01*
X76587585Y-90684739D01*
X76602984Y-90781967D01*
X76611939Y-90826984D01*
X76611939Y-90838502D01*
X76613375Y-90847569D01*
X76613375Y-91012430D01*
X76611939Y-91021496D01*
X76611939Y-91033016D01*
X76602983Y-91078035D01*
X76587585Y-91175260D01*
X76577425Y-91206528D01*
X76571744Y-91235089D01*
X76555047Y-91275398D01*
X76536639Y-91332052D01*
X76509596Y-91385125D01*
X76492899Y-91425438D01*
X76476718Y-91449654D01*
X76461795Y-91478943D01*
X76403945Y-91558566D01*
X76378434Y-91596747D01*
X76370285Y-91604895D01*
X76364895Y-91612315D01*
X76248315Y-91728895D01*
X76240895Y-91734285D01*
X76232747Y-91742434D01*
X76194566Y-91767945D01*
X76114943Y-91825795D01*
X76085654Y-91840718D01*
X76061438Y-91856899D01*
X76021125Y-91873596D01*
X75968052Y-91900639D01*
X75911398Y-91919047D01*
X75871089Y-91935744D01*
X75842528Y-91941425D01*
X75811260Y-91951585D01*
X75714033Y-91966984D01*
X75669016Y-91975939D01*
X75657497Y-91975939D01*
X75648431Y-91977375D01*
X75483569Y-91977375D01*
X75474503Y-91975939D01*
X75462984Y-91975939D01*
X75417967Y-91966984D01*
X75320739Y-91951585D01*
X75289469Y-91941424D01*
X75260911Y-91935744D01*
X75220604Y-91919048D01*
X75163947Y-91900639D01*
X75110869Y-91873594D01*
X75070562Y-91856899D01*
X75046348Y-91840720D01*
X75017056Y-91825795D01*
X74937420Y-91767936D01*
X74899253Y-91742434D01*
X74891107Y-91734288D01*
X74883684Y-91728895D01*
X74767104Y-91612315D01*
X74761710Y-91604891D01*
X74753566Y-91596747D01*
X74728066Y-91558583D01*
X74670204Y-91478943D01*
X74655277Y-91449647D01*
X74639101Y-91425438D01*
X74622407Y-91385135D01*
X74595360Y-91332052D01*
X74576948Y-91275387D01*
X74560256Y-91235089D01*
X74554576Y-91206536D01*
X74544414Y-91175260D01*
X74529014Y-91078026D01*
X74520061Y-91033016D01*
X74520061Y-91021496D01*
X74518625Y-91012430D01*
X74518625Y-90847569D01*
X74520061Y-90838502D01*
X74520061Y-90826984D01*
X74529013Y-90781977D01*
X74544414Y-90684739D01*
X74554576Y-90653461D01*
X74560256Y-90624911D01*
X74576946Y-90584616D01*
X74595360Y-90527947D01*
X74622409Y-90474858D01*
X74639101Y-90434562D01*
X74655275Y-90410355D01*
X74670204Y-90381056D01*
X74728074Y-90301403D01*
X74753566Y-90263253D01*
X74761707Y-90255111D01*
X74767104Y-90247684D01*
X74883684Y-90131104D01*
X74891111Y-90125707D01*
X74899253Y-90117566D01*
X74937403Y-90092074D01*
X75017056Y-90034204D01*
X75046355Y-90019275D01*
X75070562Y-90003101D01*
X75110858Y-89986409D01*
X75163947Y-89959360D01*
X75220616Y-89940946D01*
X75260911Y-89924256D01*
X75289461Y-89918576D01*
X75320739Y-89908414D01*
X75417977Y-89893013D01*
X75462984Y-89884061D01*
X75474502Y-89884061D01*
X75483569Y-89882625D01*
X75648431Y-89882625D01*
X75657498Y-89884061D01*
G37*
G36*
X72462971Y-87506204D02*
G01*
X72674733Y-87562945D01*
X72877276Y-87646841D01*
X73067136Y-87756457D01*
X73241064Y-87889916D01*
X73396084Y-88044936D01*
X73529543Y-88218864D01*
X73639159Y-88408724D01*
X73723055Y-88611267D01*
X73779796Y-88823029D01*
X73808412Y-89040384D01*
X73808412Y-89259616D01*
X73779796Y-89476971D01*
X73723055Y-89688733D01*
X73639159Y-89891276D01*
X73529543Y-90081136D01*
X73396084Y-90255064D01*
X73241064Y-90410084D01*
X73067136Y-90543543D01*
X72877276Y-90653159D01*
X72674733Y-90737055D01*
X72462971Y-90793796D01*
X72245616Y-90822412D01*
X72026384Y-90822412D01*
X71809029Y-90793796D01*
X71597267Y-90737055D01*
X71394724Y-90653159D01*
X71204864Y-90543543D01*
X71030936Y-90410084D01*
X70875916Y-90255064D01*
X70742457Y-90081136D01*
X70632841Y-89891276D01*
X70548945Y-89688733D01*
X70492204Y-89476971D01*
X70463588Y-89259616D01*
X70463588Y-89040384D01*
X70492204Y-88823029D01*
X70548945Y-88611267D01*
X70632841Y-88408724D01*
X70742457Y-88218864D01*
X70875916Y-88044936D01*
X71030936Y-87889916D01*
X71204864Y-87756457D01*
X71394724Y-87646841D01*
X71597267Y-87562945D01*
X71809029Y-87506204D01*
X72026384Y-87477588D01*
X72245616Y-87477588D01*
X72462971Y-87506204D01*
G37*
G36*
X75445517Y-85562882D02*
G01*
X75462062Y-85573938D01*
X75465548Y-85579155D01*
X75476999Y-85586806D01*
X75476999Y-85609994D01*
X75477000Y-85610000D01*
X75477000Y-87110000D01*
X75473118Y-87129517D01*
X75462062Y-87146062D01*
X75445517Y-87157118D01*
X75426000Y-87161000D01*
X73926000Y-87161000D01*
X73906483Y-87157118D01*
X73889938Y-87146062D01*
X73878882Y-87129517D01*
X73875000Y-87110000D01*
X73875000Y-85610000D01*
X73878882Y-85590483D01*
X73889938Y-85573938D01*
X73906483Y-85562882D01*
X73926000Y-85559000D01*
X75426000Y-85559000D01*
X75445517Y-85562882D01*
G37*
G36*
X141075518Y-84704491D02*
G01*
X141220589Y-84764581D01*
X141351149Y-84851819D01*
X141462181Y-84962851D01*
X141549419Y-85093411D01*
X141609509Y-85238482D01*
X141640143Y-85392488D01*
X141640143Y-85549512D01*
X141609509Y-85703518D01*
X141549419Y-85848589D01*
X141462181Y-85979149D01*
X141351149Y-86090181D01*
X141220589Y-86177419D01*
X141075518Y-86237509D01*
X140921512Y-86268143D01*
X140764488Y-86268143D01*
X140610482Y-86237509D01*
X140465411Y-86177419D01*
X140334851Y-86090181D01*
X140223819Y-85979149D01*
X140136581Y-85848589D01*
X140076491Y-85703518D01*
X140045857Y-85549512D01*
X140045857Y-85392488D01*
X140076491Y-85238482D01*
X140136581Y-85093411D01*
X140223819Y-84962851D01*
X140334851Y-84851819D01*
X140465411Y-84764581D01*
X140610482Y-84704491D01*
X140764488Y-84673857D01*
X140921512Y-84673857D01*
X141075518Y-84704491D01*
G37*
G36*
X76688518Y-84573491D02*
G01*
X76833589Y-84633581D01*
X76964149Y-84720819D01*
X77075181Y-84831851D01*
X77162419Y-84962411D01*
X77222509Y-85107482D01*
X77253143Y-85261488D01*
X77253143Y-85418512D01*
X77222509Y-85572518D01*
X77162419Y-85717589D01*
X77075181Y-85848149D01*
X76964149Y-85959181D01*
X76833589Y-86046419D01*
X76688518Y-86106509D01*
X76534512Y-86137143D01*
X76377488Y-86137143D01*
X76223482Y-86106509D01*
X76078411Y-86046419D01*
X75947851Y-85959181D01*
X75836819Y-85848149D01*
X75749581Y-85717589D01*
X75689491Y-85572518D01*
X75688889Y-85569492D01*
X75678225Y-85543747D01*
X75675906Y-85544208D01*
X75682926Y-85539517D01*
X75658857Y-85418512D01*
X75658857Y-85261488D01*
X75689491Y-85107482D01*
X75749581Y-84962411D01*
X75836819Y-84831851D01*
X75947851Y-84720819D01*
X76078411Y-84633581D01*
X76223482Y-84573491D01*
X76377488Y-84542857D01*
X76534512Y-84542857D01*
X76688518Y-84573491D01*
G37*
G36*
X74908518Y-83553491D02*
G01*
X75053589Y-83613581D01*
X75184149Y-83700819D01*
X75295181Y-83811851D01*
X75382419Y-83942411D01*
X75442509Y-84087482D01*
X75473143Y-84241488D01*
X75473143Y-84398512D01*
X75442509Y-84552518D01*
X75382419Y-84697589D01*
X75295181Y-84828149D01*
X75184149Y-84939181D01*
X75053589Y-85026419D01*
X74908518Y-85086509D01*
X74754512Y-85117143D01*
X74597488Y-85117143D01*
X74443482Y-85086509D01*
X74298411Y-85026419D01*
X74167851Y-84939181D01*
X74056819Y-84828149D01*
X73969581Y-84697589D01*
X73909491Y-84552518D01*
X73878857Y-84398512D01*
X73878857Y-84241488D01*
X73909491Y-84087482D01*
X73969581Y-83942411D01*
X74056819Y-83811851D01*
X74167851Y-83700819D01*
X74298411Y-83613581D01*
X74443482Y-83553491D01*
X74597488Y-83522857D01*
X74754512Y-83522857D01*
X74908518Y-83553491D01*
G37*
G36*
X188366385Y-81490328D02*
G01*
X188568005Y-81555839D01*
X188756896Y-81652083D01*
X188928404Y-81776692D01*
X189078308Y-81926596D01*
X189202917Y-82098104D01*
X189299161Y-82286995D01*
X189364672Y-82488615D01*
X189397835Y-82698002D01*
X189397835Y-82909998D01*
X189364672Y-83119385D01*
X189299161Y-83321005D01*
X189202917Y-83509896D01*
X189078308Y-83681404D01*
X188928404Y-83831308D01*
X188756896Y-83955917D01*
X188568005Y-84052161D01*
X188366385Y-84117672D01*
X188156998Y-84150835D01*
X187945002Y-84150835D01*
X187735615Y-84117672D01*
X187533995Y-84052161D01*
X187345104Y-83955917D01*
X187173596Y-83831308D01*
X187023692Y-83681404D01*
X186899083Y-83509896D01*
X186802839Y-83321005D01*
X186737328Y-83119385D01*
X186704165Y-82909998D01*
X186704165Y-82698002D01*
X186737328Y-82488615D01*
X186802839Y-82286995D01*
X186899083Y-82098104D01*
X187023692Y-81926596D01*
X187173596Y-81776692D01*
X187345104Y-81652083D01*
X187533995Y-81555839D01*
X187735615Y-81490328D01*
X187945002Y-81457165D01*
X188156998Y-81457165D01*
X188366385Y-81490328D01*
G37*
G36*
X76688518Y-82533491D02*
G01*
X76833589Y-82593581D01*
X76964149Y-82680819D01*
X77075181Y-82791851D01*
X77162419Y-82922411D01*
X77222509Y-83067482D01*
X77253143Y-83221488D01*
X77253143Y-83378512D01*
X77222509Y-83532518D01*
X77162419Y-83677589D01*
X77075181Y-83808149D01*
X76964149Y-83919181D01*
X76833589Y-84006419D01*
X76688518Y-84066509D01*
X76534512Y-84097143D01*
X76377488Y-84097143D01*
X76223482Y-84066509D01*
X76078411Y-84006419D01*
X75947851Y-83919181D01*
X75836819Y-83808149D01*
X75749581Y-83677589D01*
X75689491Y-83532518D01*
X75658857Y-83378512D01*
X75658857Y-83221488D01*
X75689491Y-83067482D01*
X75749581Y-82922411D01*
X75836819Y-82791851D01*
X75947851Y-82680819D01*
X76078411Y-82593581D01*
X76223482Y-82533491D01*
X76377488Y-82502857D01*
X76534512Y-82502857D01*
X76688518Y-82533491D01*
G37*
G36*
X74908518Y-81513491D02*
G01*
X75053589Y-81573581D01*
X75184149Y-81660819D01*
X75295181Y-81771851D01*
X75382419Y-81902411D01*
X75442509Y-82047482D01*
X75473143Y-82201488D01*
X75473143Y-82358512D01*
X75442509Y-82512518D01*
X75382419Y-82657589D01*
X75295181Y-82788149D01*
X75184149Y-82899181D01*
X75053589Y-82986419D01*
X74908518Y-83046509D01*
X74754512Y-83077143D01*
X74597488Y-83077143D01*
X74443482Y-83046509D01*
X74298411Y-82986419D01*
X74167851Y-82899181D01*
X74056819Y-82788149D01*
X73969581Y-82657589D01*
X73909491Y-82512518D01*
X73878857Y-82358512D01*
X73878857Y-82201488D01*
X73909491Y-82047482D01*
X73969581Y-81902411D01*
X74056819Y-81771851D01*
X74167851Y-81660819D01*
X74298411Y-81573581D01*
X74443482Y-81513491D01*
X74597488Y-81482857D01*
X74754512Y-81482857D01*
X74908518Y-81513491D01*
G37*
G36*
X76688518Y-80493491D02*
G01*
X76833589Y-80553581D01*
X76964149Y-80640819D01*
X77075181Y-80751851D01*
X77162419Y-80882411D01*
X77222509Y-81027482D01*
X77253143Y-81181488D01*
X77253143Y-81338512D01*
X77222509Y-81492518D01*
X77162419Y-81637589D01*
X77075181Y-81768149D01*
X76964149Y-81879181D01*
X76833589Y-81966419D01*
X76688518Y-82026509D01*
X76534512Y-82057143D01*
X76377488Y-82057143D01*
X76223482Y-82026509D01*
X76078411Y-81966419D01*
X75947851Y-81879181D01*
X75836819Y-81768149D01*
X75749581Y-81637589D01*
X75689491Y-81492518D01*
X75658857Y-81338512D01*
X75658857Y-81181488D01*
X75689491Y-81027482D01*
X75749581Y-80882411D01*
X75836819Y-80751851D01*
X75947851Y-80640819D01*
X76078411Y-80553581D01*
X76223482Y-80493491D01*
X76377488Y-80462857D01*
X76534512Y-80462857D01*
X76688518Y-80493491D01*
G37*
G36*
X172626517Y-79261882D02*
G01*
X172643062Y-79272938D01*
X172654118Y-79289483D01*
X172658000Y-79309000D01*
X172658000Y-81909000D01*
X172654118Y-81928517D01*
X172643062Y-81945062D01*
X172626517Y-81956118D01*
X172607000Y-81960000D01*
X170007000Y-81960000D01*
X169987483Y-81956118D01*
X169970938Y-81945062D01*
X169959882Y-81928517D01*
X169956000Y-81909000D01*
X169956000Y-79309000D01*
X169959882Y-79289483D01*
X169970938Y-79272938D01*
X169987483Y-79261882D01*
X170007000Y-79258000D01*
X172607000Y-79258000D01*
X172626517Y-79261882D01*
G37*
G36*
X176702385Y-79295328D02*
G01*
X176904005Y-79360839D01*
X177092896Y-79457083D01*
X177264404Y-79581692D01*
X177414308Y-79731596D01*
X177538917Y-79903104D01*
X177635161Y-80091995D01*
X177700672Y-80293615D01*
X177733835Y-80503002D01*
X177733835Y-80714998D01*
X177700672Y-80924385D01*
X177635161Y-81126005D01*
X177538917Y-81314896D01*
X177414308Y-81486404D01*
X177264404Y-81636308D01*
X177092896Y-81760917D01*
X176904005Y-81857161D01*
X176702385Y-81922672D01*
X176492998Y-81955835D01*
X176281002Y-81955835D01*
X176071615Y-81922672D01*
X175869995Y-81857161D01*
X175681104Y-81760917D01*
X175509596Y-81636308D01*
X175359692Y-81486404D01*
X175235083Y-81314896D01*
X175138839Y-81126005D01*
X175073328Y-80924385D01*
X175040165Y-80714998D01*
X175040165Y-80503002D01*
X175073328Y-80293615D01*
X175138839Y-80091995D01*
X175235083Y-79903104D01*
X175359692Y-79731596D01*
X175509596Y-79581692D01*
X175681104Y-79457083D01*
X175869995Y-79360839D01*
X176071615Y-79295328D01*
X176281002Y-79262165D01*
X176492998Y-79262165D01*
X176702385Y-79295328D01*
G37*
G36*
X228111517Y-80287882D02*
G01*
X228128062Y-80298938D01*
X228139118Y-80315483D01*
X228143000Y-80335000D01*
X228143000Y-81835000D01*
X228139118Y-81854517D01*
X228128062Y-81871062D01*
X228111517Y-81882118D01*
X228092000Y-81886000D01*
X223012000Y-81886000D01*
X222992483Y-81882118D01*
X222975938Y-81871062D01*
X222964882Y-81854517D01*
X222961000Y-81835000D01*
X222961000Y-80335000D01*
X222964882Y-80315483D01*
X222975938Y-80298938D01*
X222992483Y-80287882D01*
X223012000Y-80284000D01*
X228092000Y-80284000D01*
X228111517Y-80287882D01*
G37*
G36*
X74908518Y-79473491D02*
G01*
X75053589Y-79533581D01*
X75184149Y-79620819D01*
X75295181Y-79731851D01*
X75382419Y-79862411D01*
X75442509Y-80007482D01*
X75473143Y-80161488D01*
X75473143Y-80318512D01*
X75442509Y-80472518D01*
X75382419Y-80617589D01*
X75295181Y-80748149D01*
X75184149Y-80859181D01*
X75053589Y-80946419D01*
X74908518Y-81006509D01*
X74754512Y-81037143D01*
X74597488Y-81037143D01*
X74443482Y-81006509D01*
X74298411Y-80946419D01*
X74167851Y-80859181D01*
X74056819Y-80748149D01*
X73969581Y-80617589D01*
X73909491Y-80472518D01*
X73878857Y-80318512D01*
X73878857Y-80161488D01*
X73909491Y-80007482D01*
X73969581Y-79862411D01*
X74056819Y-79731851D01*
X74167851Y-79620819D01*
X74298411Y-79533581D01*
X74443482Y-79473491D01*
X74597488Y-79442857D01*
X74754512Y-79442857D01*
X74908518Y-79473491D01*
G37*
G36*
X76688518Y-78453491D02*
G01*
X76833589Y-78513581D01*
X76964149Y-78600819D01*
X77075181Y-78711851D01*
X77162419Y-78842411D01*
X77222509Y-78987482D01*
X77253143Y-79141488D01*
X77253143Y-79298512D01*
X77222509Y-79452518D01*
X77162419Y-79597589D01*
X77075181Y-79728149D01*
X76964149Y-79839181D01*
X76833589Y-79926419D01*
X76688518Y-79986509D01*
X76534512Y-80017143D01*
X76377488Y-80017143D01*
X76223482Y-79986509D01*
X76078411Y-79926419D01*
X75947851Y-79839181D01*
X75836819Y-79728149D01*
X75749581Y-79597589D01*
X75689491Y-79452518D01*
X75658857Y-79298512D01*
X75658857Y-79141488D01*
X75689491Y-78987482D01*
X75749581Y-78842411D01*
X75836819Y-78711851D01*
X75947851Y-78600819D01*
X76078411Y-78513581D01*
X76223482Y-78453491D01*
X76377488Y-78422857D01*
X76534512Y-78422857D01*
X76688518Y-78453491D01*
G37*
G36*
X189370517Y-76376882D02*
G01*
X189387062Y-76387938D01*
X189398118Y-76404483D01*
X189402000Y-76424000D01*
X189402000Y-79024000D01*
X189398118Y-79043517D01*
X189387062Y-79060062D01*
X189370517Y-79071118D01*
X189351000Y-79075000D01*
X186751000Y-79075000D01*
X186731483Y-79071118D01*
X186714938Y-79060062D01*
X186703882Y-79043517D01*
X186700000Y-79024000D01*
X186700000Y-76424000D01*
X186703882Y-76404483D01*
X186714938Y-76387938D01*
X186731483Y-76376882D01*
X186751000Y-76373000D01*
X189351000Y-76373000D01*
X189370517Y-76376882D01*
G37*
G36*
X72462971Y-74806204D02*
G01*
X72674733Y-74862945D01*
X72877276Y-74946841D01*
X73067136Y-75056457D01*
X73241064Y-75189916D01*
X73396084Y-75344936D01*
X73529543Y-75518864D01*
X73639159Y-75708724D01*
X73723055Y-75911267D01*
X73779796Y-76123029D01*
X73808412Y-76340384D01*
X73808412Y-76559616D01*
X73779796Y-76776971D01*
X73723055Y-76988733D01*
X73639159Y-77191276D01*
X73529543Y-77381136D01*
X73396084Y-77555064D01*
X73241064Y-77710084D01*
X73067136Y-77843543D01*
X72877276Y-77953159D01*
X72674733Y-78037055D01*
X72462971Y-78093796D01*
X72245616Y-78122412D01*
X72026384Y-78122412D01*
X71809029Y-78093796D01*
X71597267Y-78037055D01*
X71394724Y-77953159D01*
X71204864Y-77843543D01*
X71030936Y-77710084D01*
X70875916Y-77555064D01*
X70742457Y-77381136D01*
X70632841Y-77191276D01*
X70548945Y-76988733D01*
X70492204Y-76776971D01*
X70463588Y-76559616D01*
X70463588Y-76340384D01*
X70492204Y-76123029D01*
X70548945Y-75911267D01*
X70632841Y-75708724D01*
X70742457Y-75518864D01*
X70875916Y-75344936D01*
X71030936Y-75189916D01*
X71204864Y-75056457D01*
X71394724Y-74946841D01*
X71597267Y-74862945D01*
X71809029Y-74806204D01*
X72026384Y-74777588D01*
X72245616Y-74777588D01*
X72462971Y-74806204D01*
G37*
G36*
X75657498Y-73624061D02*
G01*
X75669016Y-73624061D01*
X75714023Y-73633013D01*
X75811260Y-73648414D01*
X75842536Y-73658576D01*
X75871089Y-73664256D01*
X75911387Y-73680948D01*
X75968052Y-73699360D01*
X76021135Y-73726407D01*
X76061438Y-73743101D01*
X76085647Y-73759277D01*
X76114943Y-73774204D01*
X76194583Y-73832066D01*
X76232747Y-73857566D01*
X76240891Y-73865710D01*
X76248315Y-73871104D01*
X76364895Y-73987684D01*
X76370288Y-73995107D01*
X76378434Y-74003253D01*
X76403936Y-74041420D01*
X76461795Y-74121056D01*
X76476720Y-74150348D01*
X76492899Y-74174562D01*
X76509594Y-74214869D01*
X76536639Y-74267947D01*
X76555048Y-74324604D01*
X76571744Y-74364911D01*
X76577424Y-74393469D01*
X76587585Y-74424739D01*
X76602984Y-74521967D01*
X76611939Y-74566984D01*
X76611939Y-74578502D01*
X76613375Y-74587569D01*
X76613375Y-74752430D01*
X76611939Y-74761496D01*
X76611939Y-74773016D01*
X76602983Y-74818035D01*
X76587585Y-74915260D01*
X76577425Y-74946528D01*
X76571744Y-74975089D01*
X76555047Y-75015398D01*
X76536639Y-75072052D01*
X76509596Y-75125125D01*
X76492899Y-75165438D01*
X76476718Y-75189654D01*
X76461795Y-75218943D01*
X76403945Y-75298566D01*
X76378434Y-75336747D01*
X76370285Y-75344895D01*
X76364895Y-75352315D01*
X76248315Y-75468895D01*
X76240895Y-75474285D01*
X76232747Y-75482434D01*
X76194566Y-75507945D01*
X76114943Y-75565795D01*
X76085654Y-75580718D01*
X76061438Y-75596899D01*
X76021125Y-75613596D01*
X75968052Y-75640639D01*
X75911398Y-75659047D01*
X75871089Y-75675744D01*
X75842528Y-75681425D01*
X75811260Y-75691585D01*
X75714033Y-75706984D01*
X75669016Y-75715939D01*
X75657497Y-75715939D01*
X75648431Y-75717375D01*
X75483569Y-75717375D01*
X75474503Y-75715939D01*
X75462984Y-75715939D01*
X75417967Y-75706984D01*
X75320739Y-75691585D01*
X75289469Y-75681424D01*
X75260911Y-75675744D01*
X75220604Y-75659048D01*
X75163947Y-75640639D01*
X75110869Y-75613594D01*
X75070562Y-75596899D01*
X75046348Y-75580720D01*
X75017056Y-75565795D01*
X74937420Y-75507936D01*
X74899253Y-75482434D01*
X74891107Y-75474288D01*
X74883684Y-75468895D01*
X74767104Y-75352315D01*
X74761710Y-75344891D01*
X74753566Y-75336747D01*
X74728066Y-75298583D01*
X74670204Y-75218943D01*
X74655277Y-75189647D01*
X74639101Y-75165438D01*
X74622407Y-75125135D01*
X74595360Y-75072052D01*
X74576948Y-75015387D01*
X74560256Y-74975089D01*
X74554576Y-74946536D01*
X74544414Y-74915260D01*
X74529014Y-74818026D01*
X74520061Y-74773016D01*
X74520061Y-74761496D01*
X74518625Y-74752430D01*
X74518625Y-74587569D01*
X74520061Y-74578502D01*
X74520061Y-74566984D01*
X74529013Y-74521977D01*
X74544414Y-74424739D01*
X74554576Y-74393461D01*
X74560256Y-74364911D01*
X74576946Y-74324616D01*
X74595360Y-74267947D01*
X74622409Y-74214858D01*
X74639101Y-74174562D01*
X74655275Y-74150355D01*
X74670204Y-74121056D01*
X74728074Y-74041403D01*
X74753566Y-74003253D01*
X74761707Y-73995111D01*
X74767104Y-73987684D01*
X74883684Y-73871104D01*
X74891111Y-73865707D01*
X74899253Y-73857566D01*
X74937403Y-73832074D01*
X75017056Y-73774204D01*
X75046355Y-73759275D01*
X75070562Y-73743101D01*
X75110858Y-73726409D01*
X75163947Y-73699360D01*
X75220616Y-73680946D01*
X75260911Y-73664256D01*
X75289461Y-73658576D01*
X75320739Y-73648414D01*
X75417977Y-73633013D01*
X75462984Y-73624061D01*
X75474502Y-73624061D01*
X75483569Y-73622625D01*
X75648431Y-73622625D01*
X75657498Y-73624061D01*
G37*
G36*
X203686518Y-73909491D02*
G01*
X203831589Y-73969581D01*
X203962149Y-74056819D01*
X204073181Y-74167851D01*
X204160419Y-74298411D01*
X204220509Y-74443482D01*
X204251143Y-74597488D01*
X204251143Y-74754512D01*
X204220509Y-74908518D01*
X204160419Y-75053589D01*
X204073181Y-75184149D01*
X203962149Y-75295181D01*
X203831589Y-75382419D01*
X203686518Y-75442509D01*
X203532512Y-75473143D01*
X203375488Y-75473143D01*
X203221482Y-75442509D01*
X203076411Y-75382419D01*
X202945851Y-75295181D01*
X202834819Y-75184149D01*
X202747581Y-75053589D01*
X202687491Y-74908518D01*
X202656857Y-74754512D01*
X202656857Y-74597488D01*
X202687491Y-74443482D01*
X202747581Y-74298411D01*
X202834819Y-74167851D01*
X202945851Y-74056819D01*
X203076411Y-73969581D01*
X203221482Y-73909491D01*
X203375488Y-73878857D01*
X203532512Y-73878857D01*
X203686518Y-73909491D01*
G37*
G36*
X228111517Y-71787882D02*
G01*
X228128062Y-71798938D01*
X228139118Y-71815483D01*
X228143000Y-71835000D01*
X228143000Y-73335000D01*
X228139118Y-73354517D01*
X228128062Y-73371062D01*
X228111517Y-73382118D01*
X228092000Y-73386000D01*
X223012000Y-73386000D01*
X222992483Y-73382118D01*
X222975938Y-73371062D01*
X222964882Y-73354517D01*
X222961000Y-73335000D01*
X222961000Y-71835000D01*
X222964882Y-71815483D01*
X222975938Y-71798938D01*
X222992483Y-71787882D01*
X223012000Y-71784000D01*
X228092000Y-71784000D01*
X228111517Y-71787882D01*
G37*
G36*
X151912532Y-70611493D02*
G01*
X152088036Y-70668518D01*
X152252458Y-70752295D01*
X152401751Y-70860763D01*
X152532237Y-70991249D01*
X152640705Y-71140542D01*
X152724482Y-71304964D01*
X152781507Y-71480468D01*
X152810375Y-71662732D01*
X152810375Y-71847268D01*
X152781507Y-72029532D01*
X152724482Y-72205036D01*
X152640705Y-72369458D01*
X152532237Y-72518751D01*
X152401751Y-72649237D01*
X152252458Y-72757705D01*
X152088036Y-72841482D01*
X151912532Y-72898507D01*
X151730268Y-72927375D01*
X151545732Y-72927375D01*
X151363468Y-72898507D01*
X151187964Y-72841482D01*
X151023542Y-72757705D01*
X150874249Y-72649237D01*
X150743763Y-72518751D01*
X150635295Y-72369458D01*
X150551518Y-72205036D01*
X150494493Y-72029532D01*
X150465625Y-71847268D01*
X150465625Y-71662732D01*
X150494493Y-71480468D01*
X150551518Y-71304964D01*
X150635295Y-71140542D01*
X150743763Y-70991249D01*
X150874249Y-70860763D01*
X151023542Y-70752295D01*
X151187964Y-70668518D01*
X151363468Y-70611493D01*
X151545732Y-70582625D01*
X151730268Y-70582625D01*
X151912532Y-70611493D01*
G37*
G36*
X156992532Y-70611493D02*
G01*
X157168036Y-70668518D01*
X157332458Y-70752295D01*
X157481751Y-70860763D01*
X157612237Y-70991249D01*
X157720705Y-71140542D01*
X157804482Y-71304964D01*
X157861507Y-71480468D01*
X157890375Y-71662732D01*
X157890375Y-71847268D01*
X157861507Y-72029532D01*
X157804482Y-72205036D01*
X157720705Y-72369458D01*
X157612237Y-72518751D01*
X157481751Y-72649237D01*
X157332458Y-72757705D01*
X157168036Y-72841482D01*
X156992532Y-72898507D01*
X156810268Y-72927375D01*
X156625732Y-72927375D01*
X156443468Y-72898507D01*
X156267964Y-72841482D01*
X156103542Y-72757705D01*
X155954249Y-72649237D01*
X155823763Y-72518751D01*
X155715295Y-72369458D01*
X155631518Y-72205036D01*
X155574493Y-72029532D01*
X155545625Y-71847268D01*
X155545625Y-71662732D01*
X155574493Y-71480468D01*
X155631518Y-71304964D01*
X155715295Y-71140542D01*
X155823763Y-70991249D01*
X155954249Y-70860763D01*
X156103542Y-70752295D01*
X156267964Y-70668518D01*
X156443468Y-70611493D01*
X156625732Y-70582625D01*
X156810268Y-70582625D01*
X156992532Y-70611493D01*
G37*
G36*
X102213518Y-71115491D02*
G01*
X102358589Y-71175581D01*
X102489149Y-71262819D01*
X102600181Y-71373851D01*
X102687419Y-71504411D01*
X102747509Y-71649482D01*
X102778143Y-71803488D01*
X102778143Y-71960512D01*
X102747509Y-72114518D01*
X102687419Y-72259589D01*
X102600181Y-72390149D01*
X102489149Y-72501181D01*
X102358589Y-72588419D01*
X102213518Y-72648509D01*
X102059512Y-72679143D01*
X101902488Y-72679143D01*
X101748482Y-72648509D01*
X101603411Y-72588419D01*
X101472851Y-72501181D01*
X101361819Y-72390149D01*
X101274581Y-72259589D01*
X101214491Y-72114518D01*
X101183857Y-71960512D01*
X101183857Y-71803488D01*
X101214491Y-71649482D01*
X101274581Y-71504411D01*
X101361819Y-71373851D01*
X101472851Y-71262819D01*
X101603411Y-71175581D01*
X101748482Y-71115491D01*
X101902488Y-71084857D01*
X102059512Y-71084857D01*
X102213518Y-71115491D01*
G37*
G36*
X142091518Y-69718491D02*
G01*
X142236589Y-69778581D01*
X142367149Y-69865819D01*
X142478181Y-69976851D01*
X142565419Y-70107411D01*
X142625509Y-70252482D01*
X142656143Y-70406488D01*
X142656143Y-70563512D01*
X142625509Y-70717518D01*
X142565419Y-70862589D01*
X142478181Y-70993149D01*
X142367149Y-71104181D01*
X142236589Y-71191419D01*
X142091518Y-71251509D01*
X141937512Y-71282143D01*
X141780488Y-71282143D01*
X141626482Y-71251509D01*
X141481411Y-71191419D01*
X141350851Y-71104181D01*
X141239819Y-70993149D01*
X141152581Y-70862589D01*
X141092491Y-70717518D01*
X141061857Y-70563512D01*
X141061857Y-70406488D01*
X141092491Y-70252482D01*
X141152581Y-70107411D01*
X141239819Y-69976851D01*
X141350851Y-69865819D01*
X141481411Y-69778581D01*
X141626482Y-69718491D01*
X141780488Y-69687857D01*
X141937512Y-69687857D01*
X142091518Y-69718491D01*
G37*
G36*
X154429187Y-68168730D02*
G01*
X154589767Y-68220906D01*
X154740208Y-68297559D01*
X154876806Y-68396803D01*
X154996197Y-68516194D01*
X155095441Y-68652792D01*
X155172094Y-68803233D01*
X155224270Y-68963813D01*
X155250683Y-69130578D01*
X155250683Y-69299422D01*
X155224270Y-69466187D01*
X155172094Y-69626767D01*
X155095441Y-69777208D01*
X154996197Y-69913806D01*
X154876806Y-70033197D01*
X154740208Y-70132441D01*
X154589767Y-70209094D01*
X154429187Y-70261270D01*
X154262422Y-70287683D01*
X154093578Y-70287683D01*
X153926813Y-70261270D01*
X153766233Y-70209094D01*
X153615792Y-70132441D01*
X153479194Y-70033197D01*
X153359803Y-69913806D01*
X153260559Y-69777208D01*
X153183906Y-69626767D01*
X153131730Y-69466187D01*
X153105317Y-69299422D01*
X153105317Y-69130578D01*
X153131730Y-68963813D01*
X153183906Y-68803233D01*
X153260559Y-68652792D01*
X153359803Y-68516194D01*
X153479194Y-68396803D01*
X153615792Y-68297559D01*
X153766233Y-68220906D01*
X153926813Y-68168730D01*
X154093578Y-68142317D01*
X154262422Y-68142317D01*
X154429187Y-68168730D01*
G37*
G36*
X201619517Y-66352882D02*
G01*
X201636062Y-66363938D01*
X201647118Y-66380483D01*
X201651000Y-66400000D01*
X201651000Y-68100000D01*
X201647118Y-68119517D01*
X201636062Y-68136062D01*
X201619517Y-68147118D01*
X201600000Y-68151000D01*
X199900000Y-68151000D01*
X199880483Y-68147118D01*
X199863938Y-68136062D01*
X199852882Y-68119517D01*
X199849000Y-68100000D01*
X199849000Y-66400000D01*
X199852882Y-66380483D01*
X199863938Y-66363938D01*
X199880483Y-66352882D01*
X199900000Y-66349000D01*
X201600000Y-66349000D01*
X201619517Y-66352882D01*
G37*
G36*
X170531546Y-66387797D02*
G01*
X170694728Y-66455389D01*
X170841588Y-66553518D01*
X170966482Y-66678412D01*
X171064611Y-66825272D01*
X171132203Y-66988454D01*
X171166661Y-67161687D01*
X171166661Y-67338313D01*
X171132203Y-67511546D01*
X171064611Y-67674728D01*
X170966482Y-67821588D01*
X170841588Y-67946482D01*
X170694728Y-68044611D01*
X170531546Y-68112203D01*
X170358313Y-68146661D01*
X170181687Y-68146661D01*
X170008454Y-68112203D01*
X169845272Y-68044611D01*
X169698412Y-67946482D01*
X169573518Y-67821588D01*
X169475389Y-67674728D01*
X169407797Y-67511546D01*
X169373339Y-67338313D01*
X169373339Y-67161687D01*
X169407797Y-66988454D01*
X169475389Y-66825272D01*
X169573518Y-66678412D01*
X169698412Y-66553518D01*
X169845272Y-66455389D01*
X170008454Y-66387797D01*
X170181687Y-66353339D01*
X170358313Y-66353339D01*
X170531546Y-66387797D01*
G37*
G36*
X173071546Y-66387797D02*
G01*
X173234728Y-66455389D01*
X173381588Y-66553518D01*
X173506482Y-66678412D01*
X173604611Y-66825272D01*
X173672203Y-66988454D01*
X173706661Y-67161687D01*
X173706661Y-67338313D01*
X173672203Y-67511546D01*
X173604611Y-67674728D01*
X173506482Y-67821588D01*
X173381588Y-67946482D01*
X173234728Y-68044611D01*
X173071546Y-68112203D01*
X172898313Y-68146661D01*
X172721687Y-68146661D01*
X172548454Y-68112203D01*
X172385272Y-68044611D01*
X172238412Y-67946482D01*
X172113518Y-67821588D01*
X172015389Y-67674728D01*
X171947797Y-67511546D01*
X171913339Y-67338313D01*
X171913339Y-67161687D01*
X171947797Y-66988454D01*
X172015389Y-66825272D01*
X172113518Y-66678412D01*
X172238412Y-66553518D01*
X172385272Y-66455389D01*
X172548454Y-66387797D01*
X172721687Y-66353339D01*
X172898313Y-66353339D01*
X173071546Y-66387797D01*
G37*
G36*
X175611546Y-66387797D02*
G01*
X175774728Y-66455389D01*
X175921588Y-66553518D01*
X176046482Y-66678412D01*
X176144611Y-66825272D01*
X176212203Y-66988454D01*
X176246661Y-67161687D01*
X176246661Y-67338313D01*
X176212203Y-67511546D01*
X176144611Y-67674728D01*
X176046482Y-67821588D01*
X175921588Y-67946482D01*
X175774728Y-68044611D01*
X175611546Y-68112203D01*
X175438313Y-68146661D01*
X175261687Y-68146661D01*
X175088454Y-68112203D01*
X174925272Y-68044611D01*
X174778412Y-67946482D01*
X174653518Y-67821588D01*
X174555389Y-67674728D01*
X174487797Y-67511546D01*
X174453339Y-67338313D01*
X174453339Y-67161687D01*
X174487797Y-66988454D01*
X174555389Y-66825272D01*
X174653518Y-66678412D01*
X174778412Y-66553518D01*
X174925272Y-66455389D01*
X175088454Y-66387797D01*
X175261687Y-66353339D01*
X175438313Y-66353339D01*
X175611546Y-66387797D01*
G37*
G36*
X178151546Y-66387797D02*
G01*
X178314728Y-66455389D01*
X178461588Y-66553518D01*
X178586482Y-66678412D01*
X178684611Y-66825272D01*
X178752203Y-66988454D01*
X178786661Y-67161687D01*
X178786661Y-67338313D01*
X178752203Y-67511546D01*
X178684611Y-67674728D01*
X178586482Y-67821588D01*
X178461588Y-67946482D01*
X178314728Y-68044611D01*
X178151546Y-68112203D01*
X177978313Y-68146661D01*
X177801687Y-68146661D01*
X177628454Y-68112203D01*
X177465272Y-68044611D01*
X177318412Y-67946482D01*
X177193518Y-67821588D01*
X177095389Y-67674728D01*
X177027797Y-67511546D01*
X176993339Y-67338313D01*
X176993339Y-67161687D01*
X177027797Y-66988454D01*
X177095389Y-66825272D01*
X177193518Y-66678412D01*
X177318412Y-66553518D01*
X177465272Y-66455389D01*
X177628454Y-66387797D01*
X177801687Y-66353339D01*
X177978313Y-66353339D01*
X178151546Y-66387797D01*
G37*
G36*
X180691546Y-66387797D02*
G01*
X180854728Y-66455389D01*
X181001588Y-66553518D01*
X181126482Y-66678412D01*
X181224611Y-66825272D01*
X181292203Y-66988454D01*
X181326661Y-67161687D01*
X181326661Y-67338313D01*
X181292203Y-67511546D01*
X181224611Y-67674728D01*
X181126482Y-67821588D01*
X181001588Y-67946482D01*
X180854728Y-68044611D01*
X180691546Y-68112203D01*
X180518313Y-68146661D01*
X180341687Y-68146661D01*
X180168454Y-68112203D01*
X180005272Y-68044611D01*
X179858412Y-67946482D01*
X179733518Y-67821588D01*
X179635389Y-67674728D01*
X179567797Y-67511546D01*
X179533339Y-67338313D01*
X179533339Y-67161687D01*
X179567797Y-66988454D01*
X179635389Y-66825272D01*
X179733518Y-66678412D01*
X179858412Y-66553518D01*
X180005272Y-66455389D01*
X180168454Y-66387797D01*
X180341687Y-66353339D01*
X180518313Y-66353339D01*
X180691546Y-66387797D01*
G37*
G36*
X183231546Y-66387797D02*
G01*
X183394728Y-66455389D01*
X183541588Y-66553518D01*
X183666482Y-66678412D01*
X183764611Y-66825272D01*
X183832203Y-66988454D01*
X183866661Y-67161687D01*
X183866661Y-67338313D01*
X183832203Y-67511546D01*
X183764611Y-67674728D01*
X183666482Y-67821588D01*
X183541588Y-67946482D01*
X183394728Y-68044611D01*
X183231546Y-68112203D01*
X183058313Y-68146661D01*
X182881687Y-68146661D01*
X182708454Y-68112203D01*
X182545272Y-68044611D01*
X182398412Y-67946482D01*
X182273518Y-67821588D01*
X182175389Y-67674728D01*
X182107797Y-67511546D01*
X182073339Y-67338313D01*
X182073339Y-67161687D01*
X182107797Y-66988454D01*
X182175389Y-66825272D01*
X182273518Y-66678412D01*
X182398412Y-66553518D01*
X182545272Y-66455389D01*
X182708454Y-66387797D01*
X182881687Y-66353339D01*
X183058313Y-66353339D01*
X183231546Y-66387797D01*
G37*
G36*
X185771546Y-66387797D02*
G01*
X185934728Y-66455389D01*
X186081588Y-66553518D01*
X186206482Y-66678412D01*
X186304611Y-66825272D01*
X186372203Y-66988454D01*
X186406661Y-67161687D01*
X186406661Y-67338313D01*
X186372203Y-67511546D01*
X186304611Y-67674728D01*
X186206482Y-67821588D01*
X186081588Y-67946482D01*
X185934728Y-68044611D01*
X185771546Y-68112203D01*
X185598313Y-68146661D01*
X185421687Y-68146661D01*
X185248454Y-68112203D01*
X185085272Y-68044611D01*
X184938412Y-67946482D01*
X184813518Y-67821588D01*
X184715389Y-67674728D01*
X184647797Y-67511546D01*
X184613339Y-67338313D01*
X184613339Y-67161687D01*
X184647797Y-66988454D01*
X184715389Y-66825272D01*
X184813518Y-66678412D01*
X184938412Y-66553518D01*
X185085272Y-66455389D01*
X185248454Y-66387797D01*
X185421687Y-66353339D01*
X185598313Y-66353339D01*
X185771546Y-66387797D01*
G37*
G36*
X188311546Y-66387797D02*
G01*
X188474728Y-66455389D01*
X188621588Y-66553518D01*
X188746482Y-66678412D01*
X188844611Y-66825272D01*
X188912203Y-66988454D01*
X188946661Y-67161687D01*
X188946661Y-67338313D01*
X188912203Y-67511546D01*
X188844611Y-67674728D01*
X188746482Y-67821588D01*
X188621588Y-67946482D01*
X188474728Y-68044611D01*
X188311546Y-68112203D01*
X188138313Y-68146661D01*
X187961687Y-68146661D01*
X187788454Y-68112203D01*
X187625272Y-68044611D01*
X187478412Y-67946482D01*
X187353518Y-67821588D01*
X187255389Y-67674728D01*
X187187797Y-67511546D01*
X187153339Y-67338313D01*
X187153339Y-67161687D01*
X187187797Y-66988454D01*
X187255389Y-66825272D01*
X187353518Y-66678412D01*
X187478412Y-66553518D01*
X187625272Y-66455389D01*
X187788454Y-66387797D01*
X187961687Y-66353339D01*
X188138313Y-66353339D01*
X188311546Y-66387797D01*
G37*
G36*
X190851546Y-66387797D02*
G01*
X191014728Y-66455389D01*
X191161588Y-66553518D01*
X191286482Y-66678412D01*
X191384611Y-66825272D01*
X191452203Y-66988454D01*
X191486661Y-67161687D01*
X191486661Y-67338313D01*
X191452203Y-67511546D01*
X191384611Y-67674728D01*
X191286482Y-67821588D01*
X191161588Y-67946482D01*
X191014728Y-68044611D01*
X190851546Y-68112203D01*
X190678313Y-68146661D01*
X190501687Y-68146661D01*
X190328454Y-68112203D01*
X190165272Y-68044611D01*
X190018412Y-67946482D01*
X189893518Y-67821588D01*
X189795389Y-67674728D01*
X189727797Y-67511546D01*
X189693339Y-67338313D01*
X189693339Y-67161687D01*
X189727797Y-66988454D01*
X189795389Y-66825272D01*
X189893518Y-66678412D01*
X190018412Y-66553518D01*
X190165272Y-66455389D01*
X190328454Y-66387797D01*
X190501687Y-66353339D01*
X190678313Y-66353339D01*
X190851546Y-66387797D01*
G37*
G36*
X193391546Y-66387797D02*
G01*
X193554728Y-66455389D01*
X193701588Y-66553518D01*
X193826482Y-66678412D01*
X193924611Y-66825272D01*
X193992203Y-66988454D01*
X194026661Y-67161687D01*
X194026661Y-67338313D01*
X193992203Y-67511546D01*
X193924611Y-67674728D01*
X193826482Y-67821588D01*
X193701588Y-67946482D01*
X193554728Y-68044611D01*
X193391546Y-68112203D01*
X193218313Y-68146661D01*
X193041687Y-68146661D01*
X192868454Y-68112203D01*
X192705272Y-68044611D01*
X192558412Y-67946482D01*
X192433518Y-67821588D01*
X192335389Y-67674728D01*
X192267797Y-67511546D01*
X192233339Y-67338313D01*
X192233339Y-67161687D01*
X192267797Y-66988454D01*
X192335389Y-66825272D01*
X192433518Y-66678412D01*
X192558412Y-66553518D01*
X192705272Y-66455389D01*
X192868454Y-66387797D01*
X193041687Y-66353339D01*
X193218313Y-66353339D01*
X193391546Y-66387797D01*
G37*
G36*
X195931546Y-66387797D02*
G01*
X196094728Y-66455389D01*
X196241588Y-66553518D01*
X196366482Y-66678412D01*
X196464611Y-66825272D01*
X196532203Y-66988454D01*
X196566661Y-67161687D01*
X196566661Y-67338313D01*
X196532203Y-67511546D01*
X196464611Y-67674728D01*
X196366482Y-67821588D01*
X196241588Y-67946482D01*
X196094728Y-68044611D01*
X195931546Y-68112203D01*
X195758313Y-68146661D01*
X195581687Y-68146661D01*
X195408454Y-68112203D01*
X195245272Y-68044611D01*
X195098412Y-67946482D01*
X194973518Y-67821588D01*
X194875389Y-67674728D01*
X194807797Y-67511546D01*
X194773339Y-67338313D01*
X194773339Y-67161687D01*
X194807797Y-66988454D01*
X194875389Y-66825272D01*
X194973518Y-66678412D01*
X195098412Y-66553518D01*
X195245272Y-66455389D01*
X195408454Y-66387797D01*
X195581687Y-66353339D01*
X195758313Y-66353339D01*
X195931546Y-66387797D01*
G37*
G36*
X198471546Y-66387797D02*
G01*
X198634728Y-66455389D01*
X198781588Y-66553518D01*
X198906482Y-66678412D01*
X199004611Y-66825272D01*
X199072203Y-66988454D01*
X199106661Y-67161687D01*
X199106661Y-67338313D01*
X199072203Y-67511546D01*
X199004611Y-67674728D01*
X198906482Y-67821588D01*
X198781588Y-67946482D01*
X198634728Y-68044611D01*
X198471546Y-68112203D01*
X198298313Y-68146661D01*
X198121687Y-68146661D01*
X197948454Y-68112203D01*
X197785272Y-68044611D01*
X197638412Y-67946482D01*
X197513518Y-67821588D01*
X197415389Y-67674728D01*
X197347797Y-67511546D01*
X197313339Y-67338313D01*
X197313339Y-67161687D01*
X197347797Y-66988454D01*
X197415389Y-66825272D01*
X197513518Y-66678412D01*
X197638412Y-66553518D01*
X197785272Y-66455389D01*
X197948454Y-66387797D01*
X198121687Y-66353339D01*
X198298313Y-66353339D01*
X198471546Y-66387797D01*
G37*
G36*
X151912532Y-65531493D02*
G01*
X152088036Y-65588518D01*
X152252458Y-65672295D01*
X152401751Y-65780763D01*
X152532237Y-65911249D01*
X152640705Y-66060542D01*
X152724482Y-66224964D01*
X152781507Y-66400468D01*
X152810375Y-66582732D01*
X152810375Y-66767268D01*
X152781507Y-66949532D01*
X152724482Y-67125036D01*
X152640705Y-67289458D01*
X152532237Y-67438751D01*
X152401751Y-67569237D01*
X152252458Y-67677705D01*
X152088036Y-67761482D01*
X151912532Y-67818507D01*
X151730268Y-67847375D01*
X151545732Y-67847375D01*
X151363468Y-67818507D01*
X151187964Y-67761482D01*
X151023542Y-67677705D01*
X150874249Y-67569237D01*
X150743763Y-67438751D01*
X150635295Y-67289458D01*
X150551518Y-67125036D01*
X150494493Y-66949532D01*
X150465625Y-66767268D01*
X150465625Y-66582732D01*
X150494493Y-66400468D01*
X150551518Y-66224964D01*
X150635295Y-66060542D01*
X150743763Y-65911249D01*
X150874249Y-65780763D01*
X151023542Y-65672295D01*
X151187964Y-65588518D01*
X151363468Y-65531493D01*
X151545732Y-65502625D01*
X151730268Y-65502625D01*
X151912532Y-65531493D01*
G37*
G36*
X156992532Y-65531493D02*
G01*
X157168036Y-65588518D01*
X157332458Y-65672295D01*
X157481751Y-65780763D01*
X157612237Y-65911249D01*
X157720705Y-66060542D01*
X157804482Y-66224964D01*
X157861507Y-66400468D01*
X157890375Y-66582732D01*
X157890375Y-66767268D01*
X157861507Y-66949532D01*
X157804482Y-67125036D01*
X157720705Y-67289458D01*
X157612237Y-67438751D01*
X157481751Y-67569237D01*
X157332458Y-67677705D01*
X157168036Y-67761482D01*
X156992532Y-67818507D01*
X156810268Y-67847375D01*
X156625732Y-67847375D01*
X156443468Y-67818507D01*
X156267964Y-67761482D01*
X156103542Y-67677705D01*
X155954249Y-67569237D01*
X155823763Y-67438751D01*
X155715295Y-67289458D01*
X155631518Y-67125036D01*
X155574493Y-66949532D01*
X155545625Y-66767268D01*
X155545625Y-66582732D01*
X155574493Y-66400468D01*
X155631518Y-66224964D01*
X155715295Y-66060542D01*
X155823763Y-65911249D01*
X155954249Y-65780763D01*
X156103542Y-65672295D01*
X156267964Y-65588518D01*
X156443468Y-65531493D01*
X156625732Y-65502625D01*
X156810268Y-65502625D01*
X156992532Y-65531493D01*
G37*
G36*
X74327057Y-62387710D02*
G01*
X74536139Y-62455645D01*
X74732020Y-62555451D01*
X74909877Y-62684671D01*
X75065329Y-62840123D01*
X75194549Y-63017980D01*
X75294355Y-63213861D01*
X75362290Y-63422943D01*
X75396681Y-63640079D01*
X75396681Y-63859921D01*
X75362290Y-64077057D01*
X75294355Y-64286139D01*
X75194549Y-64482020D01*
X75065329Y-64659877D01*
X74909877Y-64815329D01*
X74732020Y-64944549D01*
X74536139Y-65044355D01*
X74327057Y-65112290D01*
X74109921Y-65146681D01*
X73890079Y-65146681D01*
X73672943Y-65112290D01*
X73463861Y-65044355D01*
X73267980Y-64944549D01*
X73090123Y-64815329D01*
X72934671Y-64659877D01*
X72805451Y-64482020D01*
X72705645Y-64286139D01*
X72637710Y-64077057D01*
X72603319Y-63859921D01*
X72603319Y-63640079D01*
X72637710Y-63422943D01*
X72705645Y-63213861D01*
X72805451Y-63017980D01*
X72934671Y-62840123D01*
X73090123Y-62684671D01*
X73267980Y-62555451D01*
X73463861Y-62455645D01*
X73672943Y-62387710D01*
X73890079Y-62353319D01*
X74109921Y-62353319D01*
X74327057Y-62387710D01*
G37*
G36*
X226327057Y-62387710D02*
G01*
X226536139Y-62455645D01*
X226732020Y-62555451D01*
X226909877Y-62684671D01*
X227065329Y-62840123D01*
X227194549Y-63017980D01*
X227294355Y-63213861D01*
X227362290Y-63422943D01*
X227396681Y-63640079D01*
X227396681Y-63859921D01*
X227362290Y-64077057D01*
X227294355Y-64286139D01*
X227194549Y-64482020D01*
X227065329Y-64659877D01*
X226909877Y-64815329D01*
X226732020Y-64944549D01*
X226536139Y-65044355D01*
X226327057Y-65112290D01*
X226109921Y-65146681D01*
X225890079Y-65146681D01*
X225672943Y-65112290D01*
X225463861Y-65044355D01*
X225267980Y-64944549D01*
X225090123Y-64815329D01*
X224934671Y-64659877D01*
X224805451Y-64482020D01*
X224705645Y-64286139D01*
X224637710Y-64077057D01*
X224603319Y-63859921D01*
X224603319Y-63640079D01*
X224637710Y-63422943D01*
X224705645Y-63213861D01*
X224805451Y-63017980D01*
X224934671Y-62840123D01*
X225090123Y-62684671D01*
X225267980Y-62555451D01*
X225463861Y-62455645D01*
X225672943Y-62387710D01*
X225890079Y-62353319D01*
X226109921Y-62353319D01*
X226327057Y-62387710D01*
G37*
M02*
