M48
; DRILL file {KiCad 9.0.0-9.0.0-2~ubuntu24.04.1} date 2025-03-10T11:02:10+0100
; FORMAT={-:-/ absolute / metric / decimal}
; #@! TF.CreationDate,2025-03-10T11:02:10+01:00
; #@! TF.GenerationSoftware,Kicad,Pcbnew,9.0.0-9.0.0-2~ubuntu24.04.1
; #@! TF.FileFunction,Plated,1,4,PTH
FMAT,2
METRIC
; #@! TA.AperFunction,Plated,PTH,ViaDrill
T1C0.200
; #@! TA.AperFunction,Plated,PTH,ViaDrill
T2C0.300
; #@! TA.AperFunction,Plated,PTH,ViaDrill
T3C0.400
; #@! TA.AperFunction,Plated,PTH,ComponentDrill
T4C0.700
; #@! TA.AperFunction,Plated,PTH,ViaDrill
T5C0.800
; #@! TA.AperFunction,Plated,PTH,ComponentDrill
T6C0.890
; #@! TA.AperFunction,Plated,PTH,ComponentDrill
T7C1.000
; #@! TA.AperFunction,Plated,PTH,ComponentDrill
T8C1.016
; #@! TA.AperFunction,Plated,PTH,ComponentDrill
T9C1.100
; #@! TA.AperFunction,Plated,PTH,ComponentDrill
T10C1.300
; #@! TA.AperFunction,Plated,PTH,ViaDrill
T11C1.500
; #@! TA.AperFunction,Plated,PTH,ComponentDrill
T12C1.500
; #@! TA.AperFunction,Plated,PTH,ComponentDrill
T13C1.570
; #@! TA.AperFunction,Plated,PTH,ComponentDrill
T14C1.700
%
G90
G05
T1
X112.979Y-83.617
X112.979Y-85.433
X114.541Y-83.655
X114.541Y-85.458
X114.567Y-81.877
X115.405Y-82.69
X116.713Y-82.296
X118.161Y-82.55
X118.961Y-84.95
X118.999Y-82.55
X119.761Y-81.788
X120.561Y-84.15
X121.336Y-80.9
X122.154Y-84.1
X122.164Y-79.365
X123.18Y-82.637
X145.707Y-91.783
X146.761Y-91.77
X147.625Y-86.83
X148.285Y-86.322
X148.311Y-87.363
X149.492Y-88.062
X150.19Y-86.36
X150.431Y-87.655
X150.698Y-92.875
X150.698Y-94.717
X152.502Y-77.368
X153.276Y-82.105
X153.276Y-83.858
X153.365Y-94.755
X153.378Y-92.9
X154.419Y-82.067
X155.969Y-94.78
X156.68Y-83.871
X156.705Y-82.042
X157.239Y-95.733
X157.264Y-80.01
X159.741Y-85.382
X159.791Y-94.691
X159.804Y-92.812
X159.855Y-86.411
X161.036Y-86.754
X161.163Y-87.808
X162.839Y-91.3
X164.77Y-91.326
T2
X159.639Y-87.417
T3
X75.0Y-70.0
X75.057Y-144.653
X75.946Y-139.315
X76.077Y-138.399
X77.851Y-93.599
X79.121Y-102.997
X80.137Y-110.109
X80.137Y-121.158
X80.391Y-138.811
X80.518Y-136.017
X81.407Y-139.827
X82.296Y-141.351
X82.6Y-83.0
X83.6Y-82.0
X85.0Y-65.0
X85.0Y-70.0
X85.0Y-85.0
X85.0Y-95.0
X85.0Y-130.0
X85.0Y-145.0
X85.0Y-155.0
X86.36Y-112.649
X88.773Y-67.945
X90.678Y-77.597
X92.456Y-70.612
X92.71Y-132.461
X93.091Y-69.469
X93.345Y-79.883
X94.234Y-66.675
X94.234Y-77.597
X95.0Y-65.0
X95.0Y-95.0
X96.139Y-73.533
X96.52Y-148.209
X97.028Y-79.502
X97.79Y-74.676
X97.79Y-81.026
X97.917Y-114.427
X99.568Y-109.093
X100.0Y-85.0
X100.0Y-155.0
X100.33Y-133.858
X100.4Y-82.0
X101.219Y-151.003
X101.4Y-83.0
X104.267Y-137.922
X104.521Y-128.27
X104.902Y-142.748
X105.0Y-65.0
X105.0Y-70.0
X105.918Y-141.056
X106.045Y-133.858
X106.045Y-143.891
X106.68Y-124.968
X109.474Y-146.177
X110.0Y-100.0
X110.744Y-89.662
X111.506Y-148.844
X111.633Y-103.886
X111.887Y-124.079
X112.014Y-143.383
X112.116Y-78.918
X112.293Y-75.514
X112.522Y-133.223
X112.903Y-73.558
X114.173Y-127.127
X114.173Y-133.985
X114.579Y-88.214
X114.935Y-142.875
X114.935Y-146.05
X115.0Y-65.0
X115.0Y-155.0
X115.316Y-77.47
X115.672Y-90.297
X116.205Y-86.995
X116.205Y-149.098
X116.586Y-79.502
X117.221Y-86.868
X117.831Y-91.313
X118.237Y-86.741
X118.491Y-79.375
X118.516Y-92.05
X119.126Y-87.63
X119.451Y-78.923
X120.142Y-86.36
X120.269Y-87.63
X120.396Y-129.159
X120.904Y-136.906
X120.904Y-138.43
X121.285Y-86.36
X122.377Y-89.865
X122.682Y-73.406
X123.19Y-86.995
X123.19Y-107.95
X123.571Y-83.82
X123.673Y-75.997
X123.698Y-77.724
X123.698Y-81.026
X123.825Y-84.963
X125.0Y-65.0
X125.0Y-100.0
X125.349Y-83.947
X125.476Y-81.026
X126.365Y-78.232
X126.619Y-80.518
X128.524Y-67.056
X128.905Y-85.217
X128.905Y-86.487
X129.032Y-88.138
X130.0Y-155.0
X130.683Y-79.756
X131.826Y-92.202
X132.588Y-69.215
X132.842Y-67.056
X134.493Y-96.901
X134.747Y-70.612
X134.8Y-87.2
X135.0Y-145.0
X135.599Y-85.937
X135.636Y-119.253
X136.017Y-74.295
X136.652Y-97.282
X136.652Y-122.682
X136.906Y-67.056
X137.795Y-97.282
X138.109Y-69.148
X138.811Y-72.771
X139.319Y-97.311
X139.319Y-124.968
X139.319Y-127.254
X139.573Y-111.252
X139.954Y-138.684
X140.0Y-80.0
X140.026Y-127.961
X140.327Y-130.176
X140.335Y-133.223
X140.716Y-106.299
X140.77Y-128.63
X141.097Y-119.443
X141.097Y-122.682
X141.605Y-115.316
X141.741Y-105.274
X142.24Y-97.282
X142.245Y-106.802
X142.767Y-104.248
X143.27Y-105.777
X143.792Y-103.223
X143.891Y-112.268
X144.145Y-124.206
X144.145Y-125.73
X144.145Y-128.143
X144.232Y-104.688
X144.272Y-118.491
X144.653Y-130.556
X144.653Y-133.604
X144.78Y-137.668
X144.881Y-102.261
X145.0Y-70.0
X145.0Y-155.0
X145.161Y-77.724
X145.161Y-116.332
X145.257Y-103.663
X145.272Y-118.491
X145.288Y-83.312
X145.669Y-86.868
X145.796Y-134.493
X145.886Y-115.564
X145.906Y-101.236
X146.272Y-118.491
X146.282Y-102.638
X146.868Y-100.147
X147.0Y-124.0
X147.0Y-127.0
X147.0Y-130.0
X147.244Y-101.549
X148.463Y-141.986
X148.717Y-137.541
X148.844Y-115.57
X148.971Y-81.915
X148.971Y-120.777
X149.0Y-118.0
X149.084Y-89.867
X149.479Y-100.203
X150.114Y-84.455
X150.114Y-85.471
X150.876Y-142.748
X151.003Y-101.727
X151.257Y-110.744
X152.4Y-110.744
X154.0Y-119.0
X154.305Y-143.891
X154.686Y-116.332
X155.0Y-130.0
X155.0Y-133.0
X155.448Y-99.314
X155.829Y-106.299
X155.829Y-137.668
X156.337Y-141.986
X156.829Y-106.299
X156.972Y-93.218
X157.264Y-133.655
X157.861Y-106.299
X157.861Y-144.018
X158.445Y-133.718
X158.623Y-110.744
X158.623Y-145.161
X158.877Y-106.299
X160.0Y-155.0
X160.274Y-106.299
X160.528Y-89.916
X160.655Y-74.422
X160.82Y-133.718
X160.833Y-139.852
X160.858Y-138.252
X162.052Y-96.266
X162.274Y-106.299
X162.56Y-127.254
X162.814Y-131.191
X162.827Y-117.513
X162.941Y-120.65
X162.941Y-125.73
X162.941Y-132.969
X162.979Y-118.72
X163.195Y-139.38
X163.274Y-106.299
X163.322Y-83.566
X163.449Y-101.981
X163.647Y-135.968
X164.274Y-106.299
X164.465Y-80.518
X164.592Y-92.964
X164.592Y-115.062
X164.846Y-89.027
X165.0Y-65.0
X165.274Y-106.299
X165.989Y-77.724
X165.989Y-127.068
X166.0Y-144.0
X166.091Y-122.72
X166.129Y-121.742
X166.274Y-106.299
X167.132Y-127.068
X167.274Y-106.299
X167.386Y-125.984
X167.64Y-111.125
X169.037Y-130.429
X169.164Y-100.33
X169.215Y-118.808
X170.942Y-138.811
X171.323Y-91.694
X171.45Y-127.762
X173.0Y-122.0
X173.482Y-138.811
X175.0Y-155.0
X176.022Y-138.811
X178.0Y-126.0
X178.562Y-138.557
X178.689Y-90.551
X178.867Y-99.327
X179.324Y-119.38
X182.372Y-116.586
X187.312Y-88.087
X190.0Y-110.0
X190.0Y-130.0
X190.0Y-155.0
X190.546Y-139.192
X190.546Y-143.637
X191.135Y-100.076
X191.47Y-139.192
X191.47Y-143.637
X191.63Y-126.233
X191.63Y-127.158
X192.545Y-92.481
X194.564Y-140.335
X194.564Y-142.24
X195.253Y-121.288
X195.58Y-144.653
X195.907Y-121.942
X197.866Y-120.142
X197.866Y-122.936
X197.866Y-141.351
X197.993Y-76.454
X197.993Y-88.392
X198.12Y-145.288
X198.247Y-80.391
X199.136Y-124.714
X199.263Y-118.364
X200.0Y-80.0
X200.0Y-95.0
X200.0Y-110.0
X201.168Y-121.539
X201.168Y-125.857
X202.692Y-141.478
X202.692Y-146.685
X203.454Y-119.38
X203.454Y-123.952
X204.47Y-139.954
X205.0Y-155.0
X207.137Y-84.201
X207.264Y-106.553
X209.042Y-124.46
X209.042Y-146.304
X209.423Y-82.931
X209.423Y-105.156
X209.931Y-98.171
X209.931Y-102.362
X210.0Y-110.0
X210.058Y-75.946
X210.058Y-80.264
X211.658Y-103.454
X211.948Y-81.204
X213.233Y-145.669
X213.614Y-124.079
X214.63Y-80.772
X214.63Y-82.423
X214.757Y-103.251
X214.757Y-104.648
X215.0Y-95.0
X215.138Y-86.868
X215.138Y-109.093
X215.646Y-80.01
X215.646Y-102.362
X217.932Y-106.553
X218.059Y-84.201
X220.0Y-110.0
X220.0Y-125.0
X220.0Y-140.0
X220.0Y-155.0
X225.552Y-70.358
X225.552Y-83.439
X225.552Y-92.583
X225.552Y-105.537
X225.552Y-114.935
X225.552Y-127.381
X225.552Y-137.033
X225.552Y-149.733
T4
X73.025Y-97.028
X77.724Y-107.696
X87.376Y-150.876
X96.266Y-141.478
X96.647Y-127.762
X101.854Y-112.776
X101.981Y-71.882
X102.616Y-100.838
X103.124Y-121.158
X103.124Y-124.079
X103.886Y-149.86
X107.315Y-149.86
X115.443Y-121.158
X115.443Y-124.079
X122.047Y-131.953
X123.317Y-137.16
X123.317Y-140.843
X127.381Y-138.938
X127.381Y-142.621
X140.843Y-85.471
X141.859Y-70.485
X203.454Y-74.676
X211.074Y-133.35
T5
X76.081Y-93.591
X94.869Y-82.55
X101.854Y-79.883
X103.251Y-93.599
X104.521Y-77.343
X105.41Y-100.965
X105.41Y-107.188
X106.68Y-114.808
X106.68Y-119.38
X107.188Y-112.141
X108.458Y-93.726
X108.585Y-116.967
X109.093Y-103.886
X111.76Y-108.458
X111.76Y-140.081
X113.538Y-119.126
X118.745Y-115.189
X120.523Y-97.155
X122.809Y-99.441
X123.952Y-128.778
X127.254Y-125.73
X150.876Y-130.048
X150.876Y-133.477
X154.686Y-88.392
X172.847Y-133.477
X172.974Y-129.794
X184.658Y-129.921
X184.658Y-134.112
X200.152Y-136.271
X200.787Y-127.889
X203.454Y-130.556
X205.105Y-136.271
X211.582Y-114.3
X213.741Y-116.459
X215.9Y-90.805
X217.424Y-103.759
X219.075Y-87.63
X221.107Y-103.759
T6
X74.676Y-80.24
X74.676Y-82.28
X74.676Y-84.32
X74.676Y-86.36
X76.456Y-79.22
X76.456Y-81.26
X76.456Y-83.3
X76.456Y-85.34
T7
X74.93Y-116.84
X74.93Y-119.38
X74.93Y-121.92
X127.254Y-105.664
X127.254Y-108.204
X129.794Y-105.664
X129.794Y-108.204
X132.334Y-105.664
X132.334Y-108.204
X134.874Y-105.664
X134.874Y-108.204
X137.414Y-105.664
X137.414Y-108.204
X170.27Y-67.25
X170.942Y-149.86
X170.942Y-152.4
X172.81Y-67.25
X173.482Y-149.86
X173.482Y-152.4
X175.35Y-67.25
X176.022Y-149.86
X176.022Y-152.4
X177.89Y-67.25
X178.562Y-149.86
X178.562Y-152.4
X180.43Y-67.25
X182.97Y-67.25
X184.658Y-149.86
X184.658Y-152.4
X185.51Y-67.25
X187.198Y-149.86
X187.198Y-152.4
X188.05Y-67.25
X189.738Y-149.86
X189.738Y-152.4
X190.59Y-67.25
X192.278Y-149.86
X192.278Y-152.4
X193.13Y-67.25
X195.67Y-67.25
X198.21Y-67.25
X200.75Y-67.25
T8
X148.336Y-149.86
X148.336Y-152.4
X150.876Y-149.86
X150.876Y-152.4
X153.416Y-149.86
X153.416Y-152.4
X155.956Y-149.86
X155.956Y-152.4
X158.496Y-149.86
X158.496Y-152.4
T9
X71.074Y-134.575
X71.074Y-143.555
X77.024Y-134.935
X77.024Y-143.195
T10
X171.307Y-80.609
X176.387Y-80.609
X188.051Y-77.724
X188.051Y-82.804
X188.051Y-90.694
X188.051Y-95.774
T11
X153.543Y-124.968
T12
X154.178Y-69.215
T13
X75.566Y-74.67
X75.566Y-90.93
T14
X151.638Y-66.675
X151.638Y-71.755
X156.718Y-66.675
X156.718Y-71.755
M30
