G04 #@! TF.GenerationSoftware,KiCad,Pcbnew,9.0.0-9.0.0-2~ubuntu24.04.1*
G04 #@! TF.CreationDate,2025-03-10T11:02:05+01:00*
G04 #@! TF.ProjectId,Receiver,52656365-6976-4657-922e-6b696361645f,rev?*
G04 #@! TF.SameCoordinates,Original*
G04 #@! TF.FileFunction,Paste,Top*
G04 #@! TF.FilePolarity,Positive*
%FSLAX46Y46*%
G04 Gerber Fmt 4.6, Leading zero omitted, Abs format (unit mm)*
G04 Created by KiCad (PCBNEW 9.0.0-9.0.0-2~ubuntu24.04.1) date 2025-03-10 11:02:05*
%MOMM*%
%LPD*%
G01*
G04 APERTURE LIST*
G04 Aperture macros list*
%AMRoundRect*
0 Rectangle with rounded corners*
0 $1 Rounding radius*
0 $2 $3 $4 $5 $6 $7 $8 $9 X,Y pos of 4 corners*
0 Add a 4 corners polygon primitive as box body*
4,1,4,$2,$3,$4,$5,$6,$7,$8,$9,$2,$3,0*
0 Add four circle primitives for the rounded corners*
1,1,$1+$1,$2,$3*
1,1,$1+$1,$4,$5*
1,1,$1+$1,$6,$7*
1,1,$1+$1,$8,$9*
0 Add four rect primitives between the rounded corners*
20,1,$1+$1,$2,$3,$4,$5,0*
20,1,$1+$1,$4,$5,$6,$7,0*
20,1,$1+$1,$6,$7,$8,$9,0*
20,1,$1+$1,$8,$9,$2,$3,0*%
G04 Aperture macros list end*
%ADD10RoundRect,0.218750X0.256250X-0.218750X0.256250X0.218750X-0.256250X0.218750X-0.256250X-0.218750X0*%
%ADD11RoundRect,0.147500X0.147500X0.172500X-0.147500X0.172500X-0.147500X-0.172500X0.147500X-0.172500X0*%
%ADD12RoundRect,0.218750X-0.256250X0.218750X-0.256250X-0.218750X0.256250X-0.218750X0.256250X0.218750X0*%
%ADD13RoundRect,0.218750X-0.218750X-0.256250X0.218750X-0.256250X0.218750X0.256250X-0.218750X0.256250X0*%
%ADD14RoundRect,0.218750X0.218750X0.256250X-0.218750X0.256250X-0.218750X-0.256250X0.218750X-0.256250X0*%
%ADD15RoundRect,0.140000X0.170000X-0.140000X0.170000X0.140000X-0.170000X0.140000X-0.170000X-0.140000X0*%
%ADD16RoundRect,0.147500X-0.147500X-0.172500X0.147500X-0.172500X0.147500X0.172500X-0.147500X0.172500X0*%
%ADD17R,0.700000X0.300000*%
%ADD18R,8.200000X2.600000*%
%ADD19RoundRect,0.250000X-0.375000X-0.850000X0.375000X-0.850000X0.375000X0.850000X-0.375000X0.850000X0*%
%ADD20RoundRect,0.250000X0.375000X0.625000X-0.375000X0.625000X-0.375000X-0.625000X0.375000X-0.625000X0*%
%ADD21R,1.060000X0.650000*%
%ADD22RoundRect,0.250000X-0.275000X-0.275000X0.275000X-0.275000X0.275000X0.275000X-0.275000X0.275000X0*%
%ADD23RoundRect,0.062500X-0.375000X-0.062500X0.375000X-0.062500X0.375000X0.062500X-0.375000X0.062500X0*%
%ADD24RoundRect,0.062500X-0.062500X-0.375000X0.062500X-0.375000X0.062500X0.375000X-0.062500X0.375000X0*%
%ADD25R,0.575000X0.300000*%
%ADD26R,0.575000X0.250000*%
%ADD27R,0.350000X0.630000*%
%ADD28C,0.400000*%
%ADD29R,0.650000X1.060000*%
%ADD30RoundRect,0.145000X0.145000X0.205000X-0.145000X0.205000X-0.145000X-0.205000X0.145000X-0.205000X0*%
%ADD31RoundRect,0.087500X0.200000X0.087500X-0.200000X0.087500X-0.200000X-0.087500X0.200000X-0.087500X0*%
%ADD32R,1.800000X2.000000*%
%ADD33O,0.250000X1.500000*%
%ADD34O,1.500000X0.250000*%
%ADD35R,6.000000X6.000000*%
%ADD36RoundRect,0.243750X-0.456250X0.243750X-0.456250X-0.243750X0.456250X-0.243750X0.456250X0.243750X0*%
%ADD37R,1.500000X0.450000*%
%ADD38R,1.100000X0.400000*%
%ADD39RoundRect,0.147500X0.172500X-0.147500X0.172500X0.147500X-0.172500X0.147500X-0.172500X-0.147500X0*%
%ADD40RoundRect,0.140000X0.140000X0.170000X-0.140000X0.170000X-0.140000X-0.170000X0.140000X-0.170000X0*%
%ADD41RoundRect,0.140000X-0.170000X0.140000X-0.170000X-0.140000X0.170000X-0.140000X0.170000X0.140000X0*%
%ADD42RoundRect,0.250000X-0.300000X-0.300000X0.300000X-0.300000X0.300000X0.300000X-0.300000X0.300000X0*%
%ADD43RoundRect,0.062500X-0.337500X-0.062500X0.337500X-0.062500X0.337500X0.062500X-0.337500X0.062500X0*%
%ADD44RoundRect,0.062500X-0.062500X-0.337500X0.062500X-0.337500X0.062500X0.337500X-0.062500X0.337500X0*%
%ADD45R,5.080000X1.500000*%
%ADD46R,2.400000X2.000000*%
%ADD47RoundRect,0.250000X0.850000X-0.375000X0.850000X0.375000X-0.850000X0.375000X-0.850000X-0.375000X0*%
%ADD48R,0.900000X0.800000*%
%ADD49RoundRect,0.250000X-0.335000X-0.335000X0.335000X-0.335000X0.335000X0.335000X-0.335000X0.335000X0*%
%ADD50R,0.800000X0.900000*%
%ADD51R,0.300000X0.575000*%
%ADD52R,0.250000X0.575000*%
%ADD53R,0.630000X0.350000*%
%ADD54RoundRect,0.192500X-0.192500X-0.192500X0.192500X-0.192500X0.192500X0.192500X-0.192500X0.192500X0*%
%ADD55RoundRect,0.062500X-0.275000X-0.062500X0.275000X-0.062500X0.275000X0.062500X-0.275000X0.062500X0*%
%ADD56RoundRect,0.062500X-0.062500X-0.275000X0.062500X-0.275000X0.062500X0.275000X-0.062500X0.275000X0*%
%ADD57R,0.400000X1.500000*%
G04 APERTURE END LIST*
D10*
X94234000Y-69494500D03*
X94234000Y-67919500D03*
X94234000Y-76225500D03*
X94234000Y-74650500D03*
D11*
X90147000Y-82042000D03*
X89177000Y-82042000D03*
D12*
X98933000Y-79095500D03*
X98933000Y-80670500D03*
D13*
X93573500Y-87630000D03*
X95148500Y-87630000D03*
D14*
X138201500Y-120396000D03*
X136626500Y-120396000D03*
D15*
X155587700Y-83449100D03*
X155587700Y-82489100D03*
D14*
X146456500Y-98679000D03*
X144881500Y-98679000D03*
D13*
X151231500Y-109220000D03*
X152806500Y-109220000D03*
D12*
X127762000Y-85318500D03*
X127762000Y-86893500D03*
X127762000Y-78206500D03*
X127762000Y-79781500D03*
D14*
X170205500Y-127762000D03*
X168630500Y-127762000D03*
X159156500Y-109220000D03*
X157581500Y-109220000D03*
D13*
X136626500Y-125730000D03*
X138201500Y-125730000D03*
D10*
X159778700Y-139827000D03*
X159778700Y-138252000D03*
D13*
X76301500Y-97028000D03*
X77876500Y-97028000D03*
D12*
X81534000Y-119608500D03*
X81534000Y-121183500D03*
D13*
X98018500Y-107696000D03*
X99593500Y-107696000D03*
X76301500Y-95250000D03*
X77876500Y-95250000D03*
X130139501Y-67053001D03*
X131714501Y-67053001D03*
D14*
X135661500Y-67056000D03*
X134086500Y-67056000D03*
D12*
X79883000Y-99415500D03*
X79883000Y-100990500D03*
D10*
X99060000Y-117119500D03*
X99060000Y-115544500D03*
D12*
X101854000Y-103860500D03*
X101854000Y-105435500D03*
D14*
X139725500Y-67056000D03*
X138150500Y-67056000D03*
D12*
X81534000Y-107797500D03*
X81534000Y-109372500D03*
X83312000Y-107797500D03*
X83312000Y-109372500D03*
X83312000Y-119608500D03*
X83312000Y-121183500D03*
D13*
X85064500Y-122682000D03*
X86639500Y-122682000D03*
D14*
X91211500Y-112268000D03*
X89636500Y-112268000D03*
D11*
X88369000Y-71120000D03*
X87399000Y-71120000D03*
X88369000Y-73152000D03*
X87399000Y-73152000D03*
D12*
X83820000Y-139801500D03*
X83820000Y-141376500D03*
D10*
X83820000Y-138074500D03*
X83820000Y-136499500D03*
D16*
X112799000Y-103886000D03*
X113769000Y-103886000D03*
D17*
X78934000Y-136315000D03*
X78934000Y-136815000D03*
X78934000Y-137315000D03*
X78934000Y-137815000D03*
X78934000Y-138315000D03*
X78934000Y-138815000D03*
X78934000Y-139315000D03*
X78934000Y-139815000D03*
X78934000Y-140315000D03*
X78934000Y-140815000D03*
X78934000Y-141315000D03*
X78934000Y-141815000D03*
X77234000Y-141565000D03*
X77234000Y-141065000D03*
X77234000Y-140565000D03*
X77234000Y-140065000D03*
X77234000Y-139565000D03*
X77234000Y-139065000D03*
X77234000Y-138565000D03*
X77234000Y-138065000D03*
X77234000Y-137565000D03*
X77234000Y-137065000D03*
X77234000Y-136565000D03*
X77234000Y-136065000D03*
D18*
X93218000Y-122688000D03*
X93218000Y-117088000D03*
D19*
X97731000Y-100838000D03*
X99881000Y-100838000D03*
D18*
X86868000Y-99435000D03*
X86868000Y-105035000D03*
D12*
X86995000Y-81762500D03*
X86995000Y-83337500D03*
X90678000Y-71348500D03*
X90678000Y-72923500D03*
D10*
X118618000Y-77622500D03*
X118618000Y-76047500D03*
D14*
X150520500Y-78994000D03*
X148945500Y-78994000D03*
X150520500Y-80772000D03*
X148945500Y-80772000D03*
X155511500Y-77368400D03*
X153936500Y-77368400D03*
D10*
X130048000Y-83337500D03*
X130048000Y-81762500D03*
X155194000Y-142011500D03*
X155194000Y-140436500D03*
D12*
X153416000Y-140436500D03*
X153416000Y-142011500D03*
D10*
X151638000Y-142011500D03*
X151638000Y-140436500D03*
X149860000Y-142011500D03*
X149860000Y-140436500D03*
D13*
X136626500Y-129286000D03*
X138201500Y-129286000D03*
D12*
X81915000Y-135991500D03*
X81915000Y-137566500D03*
D13*
X73507500Y-146177000D03*
X75082500Y-146177000D03*
X136626500Y-131064000D03*
X138201500Y-131064000D03*
X136626500Y-127508000D03*
X138201500Y-127508000D03*
X136626500Y-123952000D03*
X138201500Y-123952000D03*
D14*
X77749500Y-104775000D03*
X76174500Y-104775000D03*
D13*
X76174500Y-102997000D03*
X77749500Y-102997000D03*
D20*
X104524000Y-117094000D03*
X101724000Y-117094000D03*
D14*
X105435500Y-103886000D03*
X103860500Y-103886000D03*
X91211500Y-114046000D03*
X89636500Y-114046000D03*
X87909500Y-114046000D03*
X86334500Y-114046000D03*
D12*
X90678000Y-67919500D03*
X90678000Y-69494500D03*
X90678000Y-74650500D03*
X90678000Y-76225500D03*
D21*
X110320000Y-125029000D03*
X110320000Y-124079000D03*
X110320000Y-123129000D03*
X108120000Y-123129000D03*
X108120000Y-124079000D03*
X108120000Y-125029000D03*
D22*
X94219000Y-81900000D03*
X94219000Y-83200000D03*
X95519000Y-81900000D03*
X95519000Y-83200000D03*
D23*
X92931500Y-81800000D03*
X92931500Y-82300000D03*
X92931500Y-82800000D03*
X92931500Y-83300000D03*
D24*
X94119000Y-84487500D03*
X94619000Y-84487500D03*
X95119000Y-84487500D03*
X95619000Y-84487500D03*
D23*
X96806500Y-83300000D03*
X96806500Y-82800000D03*
X96806500Y-82300000D03*
X96806500Y-81800000D03*
D24*
X95619000Y-80612500D03*
X95119000Y-80612500D03*
X94619000Y-80612500D03*
X94119000Y-80612500D03*
D25*
X93596500Y-71386000D03*
D26*
X93596500Y-71886000D03*
X93596500Y-72386000D03*
D25*
X93596500Y-72886000D03*
D27*
X94234000Y-72996000D03*
D25*
X94871500Y-72886000D03*
D26*
X94871500Y-72386000D03*
X94871500Y-71886000D03*
D25*
X94871500Y-71386000D03*
D27*
X94234000Y-71276000D03*
D28*
X122161000Y-80150000D03*
X122161000Y-80950000D03*
X122161000Y-81750000D03*
X122161000Y-82550000D03*
X122161000Y-83350000D03*
X122161000Y-84150000D03*
X122161000Y-84950000D03*
X121361000Y-80150000D03*
X121361000Y-80950000D03*
X121361000Y-81750000D03*
X121361000Y-82550000D03*
X121361000Y-83350000D03*
X121361000Y-84150000D03*
X121361000Y-84950000D03*
X120561000Y-80150000D03*
X120561000Y-80950000D03*
X120561000Y-81750000D03*
X120561000Y-82550000D03*
X120561000Y-83350000D03*
X120561000Y-84150000D03*
X120561000Y-84950000D03*
X119761000Y-80150000D03*
X119761000Y-80950000D03*
X119761000Y-81750000D03*
X119761000Y-82550000D03*
X119761000Y-83350000D03*
X119761000Y-84150000D03*
X119761000Y-84950000D03*
X118961000Y-80150000D03*
X118961000Y-80950000D03*
X118961000Y-81750000D03*
X118961000Y-82550000D03*
X118961000Y-83350000D03*
X118961000Y-84150000D03*
X118961000Y-84950000D03*
X118161000Y-80150000D03*
X118161000Y-80950000D03*
X118161000Y-81750000D03*
X118161000Y-82550000D03*
X118161000Y-83350000D03*
X118161000Y-84150000D03*
X118161000Y-84950000D03*
X117361000Y-80150000D03*
X117361000Y-80950000D03*
X117361000Y-81750000D03*
X117361000Y-82550000D03*
X117361000Y-83350000D03*
X117361000Y-84150000D03*
X117361000Y-84950000D03*
D17*
X85102000Y-119896000D03*
X85102000Y-120396000D03*
X85102000Y-120896000D03*
X86602000Y-120896000D03*
X86602000Y-120396000D03*
X86602000Y-119896000D03*
D29*
X97856000Y-105748000D03*
X98806000Y-105748000D03*
X99756000Y-105748000D03*
X99756000Y-103548000D03*
X97856000Y-103548000D03*
X77912000Y-98976000D03*
X76962000Y-98976000D03*
X76012000Y-98976000D03*
X76012000Y-101176000D03*
X76962000Y-101176000D03*
X77912000Y-101176000D03*
D30*
X135112000Y-71047000D03*
X135112000Y-70177000D03*
X134382000Y-71047000D03*
X134382000Y-70177000D03*
D31*
X136034500Y-71362000D03*
X136034500Y-70862000D03*
X136034500Y-70362000D03*
X136034500Y-69862000D03*
X133459500Y-69862000D03*
X133459500Y-70362000D03*
X133459500Y-70862000D03*
X133459500Y-71362000D03*
D32*
X116014500Y-107918000D03*
X121094500Y-107918000D03*
X121094500Y-103918000D03*
X116014500Y-103918000D03*
D33*
X144793000Y-135968000D03*
X145293000Y-135968000D03*
X145793000Y-135968000D03*
X146293000Y-135968000D03*
X146793000Y-135968000D03*
X147293000Y-135968000D03*
X147793000Y-135968000D03*
X148293000Y-135968000D03*
X148793000Y-135968000D03*
X149293000Y-135968000D03*
X149793000Y-135968000D03*
X150293000Y-135968000D03*
X150793000Y-135968000D03*
X151293000Y-135968000D03*
X151793000Y-135968000D03*
X152293000Y-135968000D03*
X152793000Y-135968000D03*
X153293000Y-135968000D03*
X153793000Y-135968000D03*
X154293000Y-135968000D03*
X154793000Y-135968000D03*
X155293000Y-135968000D03*
X155793000Y-135968000D03*
X156293000Y-135968000D03*
X156793000Y-135968000D03*
X157293000Y-135968000D03*
X157793000Y-135968000D03*
X158293000Y-135968000D03*
X158793000Y-135968000D03*
X159293000Y-135968000D03*
X159793000Y-135968000D03*
X160293000Y-135968000D03*
X160793000Y-135968000D03*
X161293000Y-135968000D03*
X161793000Y-135968000D03*
X162293000Y-135968000D03*
D34*
X164543000Y-133718000D03*
X164543000Y-133218000D03*
X164543000Y-132718000D03*
X164543000Y-132218000D03*
X164543000Y-131718000D03*
X164543000Y-131218000D03*
X164543000Y-130718000D03*
X164543000Y-130218000D03*
X164543000Y-129718000D03*
X164543000Y-129218000D03*
X164543000Y-128718000D03*
X164543000Y-128218000D03*
X164543000Y-127718000D03*
X164543000Y-127218000D03*
X164543000Y-126718000D03*
X164543000Y-126218000D03*
X164543000Y-125718000D03*
X164543000Y-125218000D03*
X164543000Y-124718000D03*
X164543000Y-124218000D03*
X164543000Y-123718000D03*
X164543000Y-123218000D03*
X164543000Y-122718000D03*
X164543000Y-122218000D03*
X164543000Y-121718000D03*
X164543000Y-121218000D03*
X164543000Y-120718000D03*
X164543000Y-120218000D03*
X164543000Y-119718000D03*
X164543000Y-119218000D03*
X164543000Y-118718000D03*
X164543000Y-118218000D03*
X164543000Y-117718000D03*
X164543000Y-117218000D03*
X164543000Y-116718000D03*
X164543000Y-116218000D03*
D33*
X162293000Y-113968000D03*
X161793000Y-113968000D03*
X161293000Y-113968000D03*
X160793000Y-113968000D03*
X160293000Y-113968000D03*
X159793000Y-113968000D03*
X159293000Y-113968000D03*
X158793000Y-113968000D03*
X158293000Y-113968000D03*
X157793000Y-113968000D03*
X157293000Y-113968000D03*
X156793000Y-113968000D03*
X156293000Y-113968000D03*
X155793000Y-113968000D03*
X155293000Y-113968000D03*
X154793000Y-113968000D03*
X154293000Y-113968000D03*
X153793000Y-113968000D03*
X153293000Y-113968000D03*
X152793000Y-113968000D03*
X152293000Y-113968000D03*
X151793000Y-113968000D03*
X151293000Y-113968000D03*
X150793000Y-113968000D03*
X150293000Y-113968000D03*
X149793000Y-113968000D03*
X149293000Y-113968000D03*
X148793000Y-113968000D03*
X148293000Y-113968000D03*
X147793000Y-113968000D03*
X147293000Y-113968000D03*
X146793000Y-113968000D03*
X146293000Y-113968000D03*
X145793000Y-113968000D03*
X145293000Y-113968000D03*
X144793000Y-113968000D03*
D34*
X142543000Y-116218000D03*
X142543000Y-116718000D03*
X142543000Y-117218000D03*
X142543000Y-117718000D03*
X142543000Y-118218000D03*
X142543000Y-118718000D03*
X142543000Y-119218000D03*
X142543000Y-119718000D03*
X142543000Y-120218000D03*
X142543000Y-120718000D03*
X142543000Y-121218000D03*
X142543000Y-121718000D03*
X142543000Y-122218000D03*
X142543000Y-122718000D03*
X142543000Y-123218000D03*
X142543000Y-123718000D03*
X142543000Y-124218000D03*
X142543000Y-124718000D03*
X142543000Y-125218000D03*
X142543000Y-125718000D03*
X142543000Y-126218000D03*
X142543000Y-126718000D03*
X142543000Y-127218000D03*
X142543000Y-127718000D03*
X142543000Y-128218000D03*
X142543000Y-128718000D03*
X142543000Y-129218000D03*
X142543000Y-129718000D03*
X142543000Y-130218000D03*
X142543000Y-130718000D03*
X142543000Y-131218000D03*
X142543000Y-131718000D03*
X142543000Y-132218000D03*
X142543000Y-132718000D03*
X142543000Y-133218000D03*
X142543000Y-133718000D03*
D35*
X153543000Y-124968000D03*
D11*
X162310800Y-91300300D03*
X161340800Y-91300300D03*
D13*
X210286500Y-146304000D03*
X211861500Y-146304000D03*
D12*
X182372000Y-121132500D03*
X182372000Y-122707500D03*
D14*
X219354500Y-143256000D03*
X217779500Y-143256000D03*
D36*
X215646000Y-143334500D03*
X215646000Y-145209500D03*
X215646000Y-99138500D03*
X215646000Y-101013500D03*
D37*
X184756000Y-118375000D03*
X184756000Y-119025000D03*
X184756000Y-119675000D03*
X184756000Y-120325000D03*
X184756000Y-120975000D03*
X184756000Y-121625000D03*
X184756000Y-122275000D03*
X184756000Y-122925000D03*
X190656000Y-122925000D03*
X190656000Y-122275000D03*
X190656000Y-121625000D03*
X190656000Y-120975000D03*
X190656000Y-120325000D03*
X190656000Y-119675000D03*
X190656000Y-119025000D03*
X190656000Y-118375000D03*
D13*
X201650500Y-139954000D03*
X203225500Y-139954000D03*
D12*
X182372000Y-117830500D03*
X182372000Y-119405500D03*
X209931000Y-99542500D03*
X209931000Y-101117500D03*
D38*
X208924000Y-142535000D03*
X208924000Y-143185000D03*
X208924000Y-143835000D03*
X208924000Y-144485000D03*
X213224000Y-144485000D03*
X213224000Y-143835000D03*
X213224000Y-143185000D03*
X213224000Y-142535000D03*
D12*
X117068600Y-88747500D03*
X117068600Y-90322500D03*
D10*
X139954000Y-137439500D03*
X139954000Y-135864500D03*
D39*
X121640600Y-90007999D03*
X121640600Y-89037999D03*
D14*
X113690500Y-89662000D03*
X112115500Y-89662000D03*
D16*
X112926000Y-74574400D03*
X113896000Y-74574400D03*
D40*
X164345500Y-91300300D03*
X163385500Y-91300300D03*
D14*
X142519500Y-111252000D03*
X140944500Y-111252000D03*
D12*
X167640000Y-112496500D03*
X167640000Y-114071500D03*
D13*
X164566500Y-138938000D03*
X166141500Y-138938000D03*
X112649000Y-76098400D03*
X114224000Y-76098400D03*
D41*
X160680400Y-86835100D03*
X160680400Y-87795100D03*
D10*
X120116600Y-90322500D03*
X120116600Y-88747500D03*
X164465000Y-79273500D03*
X164465000Y-77698500D03*
D13*
X162280500Y-89916000D03*
X163855500Y-89916000D03*
D11*
X122659000Y-74422000D03*
X121689000Y-74422000D03*
D13*
X121386500Y-77724000D03*
X122961500Y-77724000D03*
D14*
X122961500Y-75946000D03*
X121386500Y-75946000D03*
D39*
X118592600Y-90020000D03*
X118592600Y-89050000D03*
D42*
X153316000Y-87022000D03*
X153316000Y-88392000D03*
X153316000Y-89762000D03*
X154686000Y-87022000D03*
X154686000Y-88392000D03*
X154686000Y-89762000D03*
X156056000Y-87022000D03*
X156056000Y-88392000D03*
X156056000Y-89762000D03*
D43*
X151236000Y-85642000D03*
X151236000Y-86142000D03*
X151236000Y-86642000D03*
X151236000Y-87142000D03*
X151236000Y-87642000D03*
X151236000Y-88142000D03*
X151236000Y-88642000D03*
X151236000Y-89142000D03*
X151236000Y-89642000D03*
X151236000Y-90142000D03*
X151236000Y-90642000D03*
X151236000Y-91142000D03*
D44*
X151936000Y-91842000D03*
X152436000Y-91842000D03*
X152936000Y-91842000D03*
X153436000Y-91842000D03*
X153936000Y-91842000D03*
X154436000Y-91842000D03*
X154936000Y-91842000D03*
X155436000Y-91842000D03*
X155936000Y-91842000D03*
X156436000Y-91842000D03*
X156936000Y-91842000D03*
X157436000Y-91842000D03*
D43*
X158136000Y-91142000D03*
X158136000Y-90642000D03*
X158136000Y-90142000D03*
X158136000Y-89642000D03*
X158136000Y-89142000D03*
X158136000Y-88642000D03*
X158136000Y-88142000D03*
X158136000Y-87642000D03*
X158136000Y-87142000D03*
X158136000Y-86642000D03*
X158136000Y-86142000D03*
X158136000Y-85642000D03*
D44*
X157436000Y-84942000D03*
X156936000Y-84942000D03*
X156436000Y-84942000D03*
X155936000Y-84942000D03*
X155436000Y-84942000D03*
X154936000Y-84942000D03*
X154436000Y-84942000D03*
X153936000Y-84942000D03*
X153436000Y-84942000D03*
X152936000Y-84942000D03*
X152436000Y-84942000D03*
X151936000Y-84942000D03*
D13*
X117957500Y-110363000D03*
X119532500Y-110363000D03*
D25*
X128399500Y-83300000D03*
D26*
X128399500Y-82800000D03*
X128399500Y-82300000D03*
D25*
X128399500Y-81800000D03*
D27*
X127762000Y-81690000D03*
D25*
X127124500Y-81800000D03*
D26*
X127124500Y-82300000D03*
X127124500Y-82800000D03*
D25*
X127124500Y-83300000D03*
D27*
X127762000Y-83410000D03*
D13*
X155536900Y-79324200D03*
X157111900Y-79324200D03*
X162280500Y-88138000D03*
X163855500Y-88138000D03*
D45*
X225552000Y-143383000D03*
X225552000Y-139133000D03*
X225552000Y-147633000D03*
D14*
X219354500Y-99060000D03*
X217779500Y-99060000D03*
X101879500Y-135001000D03*
X100304500Y-135001000D03*
D13*
X103733500Y-135001000D03*
X105308500Y-135001000D03*
D46*
X101346000Y-127817000D03*
X101346000Y-131517000D03*
D10*
X114173000Y-131978500D03*
X114173000Y-130403500D03*
D47*
X96266000Y-145982000D03*
X96266000Y-143832000D03*
D10*
X117475000Y-131978500D03*
X117475000Y-130403500D03*
D12*
X112522000Y-130403500D03*
X112522000Y-131978500D03*
D10*
X107569000Y-131978500D03*
X107569000Y-130403500D03*
X119126000Y-131978500D03*
X119126000Y-130403500D03*
X105918000Y-131978500D03*
X105918000Y-130403500D03*
D12*
X114935000Y-147548500D03*
X114935000Y-149123500D03*
D19*
X94429000Y-132461000D03*
X96579000Y-132461000D03*
D14*
X101905000Y-138303000D03*
X100330000Y-138303000D03*
D12*
X119634000Y-142722500D03*
X119634000Y-144297500D03*
X102870000Y-141198500D03*
X102870000Y-142773500D03*
D10*
X115824000Y-131978500D03*
X115824000Y-130403500D03*
X110871000Y-131978500D03*
X110871000Y-130403500D03*
D14*
X101879500Y-136652000D03*
X100304500Y-136652000D03*
D12*
X101092000Y-141198500D03*
X101092000Y-142773500D03*
D48*
X101203000Y-149413000D03*
X101203000Y-147513000D03*
X99203000Y-148463000D03*
D13*
X109956500Y-147574000D03*
X111531500Y-147574000D03*
D49*
X110310000Y-138631000D03*
X110310000Y-140081000D03*
X110310000Y-141531000D03*
X111760000Y-138631000D03*
X111760000Y-140081000D03*
X111760000Y-141531000D03*
X113210000Y-138631000D03*
X113210000Y-140081000D03*
X113210000Y-141531000D03*
D43*
X107310000Y-136331000D03*
X107310000Y-136831000D03*
X107310000Y-137331000D03*
X107310000Y-137831000D03*
X107310000Y-138331000D03*
X107310000Y-138831000D03*
X107310000Y-139331000D03*
X107310000Y-139831000D03*
X107310000Y-140331000D03*
X107310000Y-140831000D03*
X107310000Y-141331000D03*
X107310000Y-141831000D03*
X107310000Y-142331000D03*
X107310000Y-142831000D03*
X107310000Y-143331000D03*
X107310000Y-143831000D03*
D44*
X108010000Y-144531000D03*
X108510000Y-144531000D03*
X109010000Y-144531000D03*
X109510000Y-144531000D03*
X110010000Y-144531000D03*
X110510000Y-144531000D03*
X111010000Y-144531000D03*
X111510000Y-144531000D03*
X112010000Y-144531000D03*
X112510000Y-144531000D03*
X113010000Y-144531000D03*
X113510000Y-144531000D03*
X114010000Y-144531000D03*
X114510000Y-144531000D03*
X115010000Y-144531000D03*
X115510000Y-144531000D03*
D43*
X116210000Y-143831000D03*
X116210000Y-143331000D03*
X116210000Y-142831000D03*
X116210000Y-142331000D03*
X116210000Y-141831000D03*
X116210000Y-141331000D03*
X116210000Y-140831000D03*
X116210000Y-140331000D03*
X116210000Y-139831000D03*
X116210000Y-139331000D03*
X116210000Y-138831000D03*
X116210000Y-138331000D03*
X116210000Y-137831000D03*
X116210000Y-137331000D03*
X116210000Y-136831000D03*
X116210000Y-136331000D03*
D44*
X115510000Y-135631000D03*
X115010000Y-135631000D03*
X114510000Y-135631000D03*
X114010000Y-135631000D03*
X113510000Y-135631000D03*
X113010000Y-135631000D03*
X112510000Y-135631000D03*
X112010000Y-135631000D03*
X111510000Y-135631000D03*
X111010000Y-135631000D03*
X110510000Y-135631000D03*
X110010000Y-135631000D03*
X109510000Y-135631000D03*
X109010000Y-135631000D03*
X108510000Y-135631000D03*
X108010000Y-135631000D03*
D10*
X119634000Y-138455500D03*
X119634000Y-136880500D03*
D12*
X99314000Y-141198500D03*
X99314000Y-142773500D03*
D15*
X150698200Y-94282200D03*
X150698200Y-93322200D03*
D41*
X153390600Y-93347600D03*
X153390600Y-94307600D03*
D39*
X154673300Y-94327700D03*
X154673300Y-93357700D03*
X151892000Y-94299900D03*
X151892000Y-93329900D03*
X155943300Y-94327700D03*
X155943300Y-93357700D03*
X158610300Y-94223700D03*
X158610300Y-93253700D03*
D12*
X167894000Y-99542500D03*
X167894000Y-101117500D03*
D10*
X167894000Y-97815500D03*
X167894000Y-96240500D03*
X166116000Y-101117500D03*
X166116000Y-99542500D03*
X166116000Y-97053500D03*
X166116000Y-95478500D03*
D16*
X147696200Y-90995500D03*
X148666200Y-90995500D03*
D14*
X147218500Y-88011000D03*
X145643500Y-88011000D03*
X147218500Y-89662000D03*
X145643500Y-89662000D03*
X147472500Y-95250000D03*
X145897500Y-95250000D03*
D10*
X148209000Y-100228500D03*
X148209000Y-98653500D03*
D11*
X105006000Y-83566000D03*
X104036000Y-83566000D03*
X105006000Y-82423000D03*
X104036000Y-82423000D03*
D14*
X148234500Y-96901000D03*
X146659500Y-96901000D03*
X189636500Y-100076000D03*
X188061500Y-100076000D03*
D10*
X171307000Y-90286500D03*
X171307000Y-88711500D03*
D50*
X175437000Y-90499000D03*
X177337000Y-90499000D03*
X176387000Y-88499000D03*
D48*
X198231000Y-83754000D03*
X198231000Y-81854000D03*
X196231000Y-82804000D03*
X197941000Y-91644000D03*
X197941000Y-89744000D03*
X195941000Y-90694000D03*
D45*
X225552000Y-99060000D03*
X225552000Y-94810000D03*
X225552000Y-103310000D03*
D14*
X216687500Y-84201000D03*
X215112500Y-84201000D03*
D12*
X210058000Y-77317500D03*
X210058000Y-78892500D03*
D13*
X210286500Y-124460000D03*
X211861500Y-124460000D03*
D36*
X215646000Y-76786500D03*
X215646000Y-78661500D03*
X215646000Y-121363500D03*
X215646000Y-123238500D03*
D45*
X225552000Y-76835000D03*
X225552000Y-72585000D03*
X225552000Y-81085000D03*
D13*
X211810500Y-86487000D03*
X213385500Y-86487000D03*
D14*
X219354500Y-76835000D03*
X217779500Y-76835000D03*
D10*
X204978000Y-122834500D03*
X204978000Y-121259500D03*
D14*
X219354500Y-121285000D03*
X217779500Y-121285000D03*
D51*
X211848000Y-84838500D03*
D52*
X212348000Y-84838500D03*
X212848000Y-84838500D03*
D51*
X213348000Y-84838500D03*
D53*
X213458000Y-84201000D03*
D51*
X213348000Y-83563500D03*
D52*
X212848000Y-83563500D03*
X212348000Y-83563500D03*
D51*
X211848000Y-83563500D03*
D53*
X211738000Y-84201000D03*
D38*
X208924000Y-120691000D03*
X208924000Y-121341000D03*
X208924000Y-121991000D03*
X208924000Y-122641000D03*
X213224000Y-122641000D03*
X213224000Y-121991000D03*
X213224000Y-121341000D03*
X213224000Y-120691000D03*
D16*
X89177000Y-83185000D03*
X90147000Y-83185000D03*
D54*
X197391000Y-140876000D03*
X197391000Y-141826000D03*
X198341000Y-140876000D03*
X198341000Y-141826000D03*
D55*
X196353500Y-140601000D03*
X196353500Y-141101000D03*
X196353500Y-141601000D03*
X196353500Y-142101000D03*
D56*
X197116000Y-142863500D03*
X197616000Y-142863500D03*
X198116000Y-142863500D03*
X198616000Y-142863500D03*
D55*
X199378500Y-142101000D03*
X199378500Y-141601000D03*
X199378500Y-141101000D03*
X199378500Y-140601000D03*
D56*
X198616000Y-139838500D03*
X198116000Y-139838500D03*
X197616000Y-139838500D03*
X197116000Y-139838500D03*
D45*
X225552000Y-121285000D03*
X225552000Y-117035000D03*
X225552000Y-125535000D03*
D14*
X198018500Y-77724000D03*
X196443500Y-77724000D03*
D10*
X206629000Y-145440500D03*
X206629000Y-143865500D03*
X206629000Y-123596500D03*
X206629000Y-122021500D03*
X204978000Y-144678500D03*
X204978000Y-143103500D03*
D57*
X211948000Y-79435000D03*
X212598000Y-79435000D03*
X213248000Y-79435000D03*
X213248000Y-76775000D03*
X211948000Y-76775000D03*
D14*
X210083500Y-84201000D03*
X208508500Y-84201000D03*
D57*
X211948000Y-101787000D03*
X212598000Y-101787000D03*
X213248000Y-101787000D03*
X213248000Y-99127000D03*
X211948000Y-99127000D03*
D14*
X210083500Y-106553000D03*
X208508500Y-106553000D03*
X216687500Y-106553000D03*
X215112500Y-106553000D03*
D51*
X211848000Y-107190500D03*
D52*
X212348000Y-107190500D03*
X212848000Y-107190500D03*
D51*
X213348000Y-107190500D03*
D53*
X213458000Y-106553000D03*
D51*
X213348000Y-105915500D03*
D52*
X212848000Y-105915500D03*
X212348000Y-105915500D03*
D51*
X211848000Y-105915500D03*
D53*
X211738000Y-106553000D03*
D13*
X211810500Y-109093000D03*
X213385500Y-109093000D03*
D54*
X200693000Y-121064000D03*
X200693000Y-122014000D03*
X201643000Y-121064000D03*
X201643000Y-122014000D03*
D55*
X199655500Y-120789000D03*
X199655500Y-121289000D03*
X199655500Y-121789000D03*
X199655500Y-122289000D03*
D56*
X200418000Y-123051500D03*
X200918000Y-123051500D03*
X201418000Y-123051500D03*
X201918000Y-123051500D03*
D55*
X202680500Y-122289000D03*
X202680500Y-121789000D03*
X202680500Y-121289000D03*
X202680500Y-120789000D03*
D56*
X201918000Y-120026500D03*
X201418000Y-120026500D03*
X200918000Y-120026500D03*
X200418000Y-120026500D03*
D14*
X202057000Y-118364000D03*
X200482000Y-118364000D03*
D15*
X153276300Y-83461800D03*
X153276300Y-82501800D03*
X154393900Y-83449100D03*
X154393900Y-82489100D03*
X156692600Y-83436400D03*
X156692600Y-82476400D03*
D41*
X159334200Y-85435500D03*
X159334200Y-86395500D03*
X157822900Y-82476400D03*
X157822900Y-83436400D03*
X157226000Y-94363600D03*
X157226000Y-95323600D03*
X159791400Y-93258700D03*
X159791400Y-94218700D03*
D40*
X146631600Y-90982800D03*
X145671600Y-90982800D03*
X149717700Y-86309200D03*
X148757700Y-86309200D03*
D14*
X149936300Y-87668100D03*
X148361300Y-87668100D03*
D13*
X166560500Y-118732300D03*
X168135500Y-118732300D03*
D14*
X114249300Y-78206600D03*
X112674300Y-78206600D03*
M02*
