G04 #@! TF.GenerationSoftware,KiCad,Pcbnew,9.0.0-9.0.0-2~ubuntu24.04.1*
G04 #@! TF.CreationDate,2025-03-10T11:02:05+01:00*
G04 #@! TF.ProjectId,Receiver,52656365-6976-4657-922e-6b696361645f,rev?*
G04 #@! TF.SameCoordinates,Original*
G04 #@! TF.FileFunction,Profile,NP*
%FSLAX46Y46*%
G04 Gerber Fmt 4.6, Leading zero omitted, Abs format (unit mm)*
G04 Created by KiCad (PCBNEW 9.0.0-9.0.0-2~ubuntu24.04.1) date 2025-03-10 11:02:05*
%MOMM*%
%LPD*%
G01*
G04 APERTURE LIST*
G04 #@! TA.AperFunction,Profile*
%ADD10C,0.050000*%
G04 #@! TD*
G04 APERTURE END LIST*
D10*
X70000000Y-160000000D02*
X70000000Y-60000000D01*
X230000000Y-126793000D02*
X228100000Y-126793000D01*
X228100000Y-126793000D02*
X228100000Y-115793000D01*
X228100000Y-115793000D02*
X230000000Y-115793000D01*
X230000000Y-126793000D02*
X230000000Y-137867000D01*
X230000000Y-115793000D02*
X230000000Y-104521000D01*
X230000000Y-93726000D02*
X230000000Y-82296000D01*
X230000000Y-71501000D02*
X230000000Y-60000000D01*
X230000000Y-148867000D02*
X230000000Y-160000000D01*
X228092000Y-82296000D02*
X230000000Y-82296000D01*
X230000000Y-160000000D02*
X70000000Y-160000000D01*
X228100000Y-137867000D02*
X230000000Y-137867000D01*
X228100000Y-148867000D02*
X228100000Y-137867000D01*
X228092000Y-82296000D02*
X228092000Y-71501000D01*
X228092000Y-71501000D02*
X230000000Y-71501000D01*
X228092000Y-104521000D02*
X230000000Y-104521000D01*
X70000000Y-60000000D02*
X230000000Y-60000000D01*
X230000000Y-148867000D02*
X228100000Y-148867000D01*
X228092000Y-104521000D02*
X228092000Y-93726000D01*
X228092000Y-93726000D02*
X230000000Y-93726000D01*
M02*
